<svg width="6900" height="5209" viewBox="0 0 6900 5209" fill="none" xmlns="http://www.w3.org/2000/svg">
<path d="M1355.97 2903V2765.56H1457.88V2788.81H1383.72V2819.28H1452.72V2842.44H1383.72V2879.84H1460.5V2903H1355.97ZM1483.66 2903V2765.56H1525.19L1550.12 2859.31L1574.78 2765.56H1616.41V2903H1590.62V2794.81L1563.34 2903H1536.62L1509.44 2794.81V2903H1483.66ZM1643.97 2903V2765.56H1745.88V2788.81H1671.72V2819.28H1740.72V2842.44H1671.72V2879.84H1748.5V2903H1643.97ZM1772.12 2903V2765.56H1830.53C1845.22 2765.56 1855.88 2766.81 1862.5 2769.31C1869.19 2771.75 1874.53 2776.12 1878.53 2782.44C1882.53 2788.75 1884.53 2795.97 1884.53 2804.09C1884.53 2814.41 1881.5 2822.94 1875.44 2829.69C1869.38 2836.38 1860.31 2840.59 1848.25 2842.34C1854.25 2845.84 1859.19 2849.69 1863.06 2853.88C1867 2858.06 1872.28 2865.5 1878.91 2876.19L1895.69 2903H1862.5L1842.44 2873.09C1835.31 2862.41 1830.44 2855.69 1827.81 2852.94C1825.19 2850.12 1822.41 2848.22 1819.47 2847.22C1816.53 2846.16 1811.88 2845.62 1805.5 2845.62H1799.88V2903H1772.12ZM1799.88 2823.69H1820.41C1833.72 2823.69 1842.03 2823.12 1845.34 2822C1848.66 2820.88 1851.25 2818.94 1853.12 2816.19C1855 2813.44 1855.94 2810 1855.94 2805.88C1855.94 2801.25 1854.69 2797.53 1852.19 2794.72C1849.75 2791.84 1846.28 2790.03 1841.78 2789.28C1839.53 2788.97 1832.78 2788.81 1821.53 2788.81H1799.88V2823.69ZM1974.72 2852.47V2829.31H2034.53V2884.06C2028.72 2889.69 2020.28 2894.66 2009.22 2898.97C1998.22 2903.22 1987.06 2905.34 1975.75 2905.34C1961.38 2905.34 1948.84 2902.34 1938.16 2896.34C1927.47 2890.28 1919.44 2881.66 1914.06 2870.47C1908.69 2859.22 1906 2847 1906 2833.81C1906 2819.5 1909 2806.78 1915 2795.66C1921 2784.53 1929.78 2776 1941.34 2770.06C1950.16 2765.5 1961.12 2763.22 1974.25 2763.22C1991.31 2763.22 2004.62 2766.81 2014.19 2774C2023.81 2781.12 2030 2791 2032.75 2803.62L2005.19 2808.78C2003.25 2802.03 1999.59 2796.72 1994.22 2792.84C1988.91 2788.91 1982.25 2786.94 1974.25 2786.94C1962.12 2786.94 1952.47 2790.78 1945.28 2798.47C1938.16 2806.16 1934.59 2817.56 1934.59 2832.69C1934.59 2849 1938.22 2861.25 1945.47 2869.44C1952.72 2877.56 1962.22 2881.62 1973.97 2881.62C1979.78 2881.62 1985.59 2880.5 1991.41 2878.25C1997.28 2875.94 2002.31 2873.16 2006.5 2869.91V2852.47H1974.72ZM2060.22 2903V2765.56H2162.12V2788.81H2087.97V2819.28H2156.97V2842.44H2087.97V2879.84H2164.75V2903H2060.22ZM2188.56 2903V2765.56H2215.56L2271.81 2857.34V2765.56H2297.59V2903H2269.75L2214.34 2813.38V2903H2188.56ZM2414.97 2852.47L2441.88 2861C2437.75 2876 2430.88 2887.16 2421.25 2894.47C2411.69 2901.72 2399.53 2905.34 2384.78 2905.34C2366.53 2905.34 2351.53 2899.12 2339.78 2886.69C2328.03 2874.19 2322.16 2857.12 2322.16 2835.5C2322.16 2812.62 2328.06 2794.88 2339.88 2782.25C2351.69 2769.56 2367.22 2763.22 2386.47 2763.22C2403.28 2763.22 2416.94 2768.19 2427.44 2778.12C2433.69 2784 2438.38 2792.44 2441.5 2803.44L2414.03 2810C2412.41 2802.88 2409 2797.25 2403.81 2793.12C2398.69 2789 2392.44 2786.94 2385.06 2786.94C2374.88 2786.94 2366.59 2790.59 2360.22 2797.91C2353.91 2805.22 2350.75 2817.06 2350.75 2833.44C2350.75 2850.81 2353.88 2863.19 2360.12 2870.56C2366.38 2877.94 2374.5 2881.62 2384.5 2881.62C2391.88 2881.62 2398.22 2879.28 2403.53 2874.59C2408.84 2869.91 2412.66 2862.53 2414.97 2852.47ZM2501.88 2903V2845.16L2451.53 2765.56H2484.06L2516.41 2819.94L2548.09 2765.56H2580.06L2529.53 2845.34V2903H2501.88ZM2643.34 2903V2765.56H2684.88L2709.81 2859.31L2734.47 2765.56H2776.09V2903H2750.31V2794.81L2723.03 2903H2696.31L2669.12 2794.81V2903H2643.34ZM2803.66 2903V2765.56H2905.56V2788.81H2831.41V2819.28H2900.41V2842.44H2831.41V2879.84H2908.19V2903H2803.66ZM2931.62 2765.56H2982.34C2993.78 2765.56 3002.5 2766.44 3008.5 2768.19C3016.56 2770.56 3023.47 2774.78 3029.22 2780.84C3034.97 2786.91 3039.34 2794.34 3042.34 2803.16C3045.34 2811.91 3046.84 2822.72 3046.84 2835.59C3046.84 2846.91 3045.44 2856.66 3042.62 2864.84C3039.19 2874.84 3034.28 2882.94 3027.91 2889.12C3023.09 2893.81 3016.59 2897.47 3008.41 2900.09C3002.28 2902.03 2994.09 2903 2983.84 2903H2931.62V2765.56ZM2959.38 2788.81V2879.84H2980.09C2987.84 2879.84 2993.44 2879.41 2996.88 2878.53C3001.38 2877.41 3005.09 2875.5 3008.03 2872.81C3011.03 2870.12 3013.47 2865.72 3015.34 2859.59C3017.22 2853.41 3018.16 2845 3018.16 2834.38C3018.16 2823.75 3017.22 2815.59 3015.34 2809.91C3013.47 2804.22 3010.84 2799.78 3007.47 2796.59C3004.09 2793.41 2999.81 2791.25 2994.62 2790.12C2990.75 2789.25 2983.16 2788.81 2971.84 2788.81H2959.38ZM3069.62 2903V2765.56H3097.38V2903H3069.62ZM3211.84 2852.47L3238.75 2861C3234.62 2876 3227.75 2887.16 3218.12 2894.47C3208.56 2901.72 3196.41 2905.34 3181.66 2905.34C3163.41 2905.34 3148.41 2899.12 3136.66 2886.69C3124.91 2874.19 3119.03 2857.12 3119.03 2835.5C3119.03 2812.62 3124.94 2794.88 3136.75 2782.25C3148.56 2769.56 3164.09 2763.22 3183.34 2763.22C3200.16 2763.22 3213.81 2768.19 3224.31 2778.12C3230.56 2784 3235.25 2792.44 3238.38 2803.44L3210.91 2810C3209.28 2802.88 3205.88 2797.25 3200.69 2793.12C3195.56 2789 3189.31 2786.94 3181.94 2786.94C3171.75 2786.94 3163.47 2790.59 3157.09 2797.91C3150.78 2805.22 3147.62 2817.06 3147.62 2833.44C3147.62 2850.81 3150.75 2863.19 3157 2870.56C3163.25 2877.94 3171.38 2881.62 3181.38 2881.62C3188.75 2881.62 3195.09 2879.28 3200.41 2874.59C3205.72 2869.91 3209.53 2862.53 3211.84 2852.47ZM3386.59 2903H3356.41L3344.41 2871.78H3289.47L3278.12 2903H3248.69L3302.22 2765.56H3331.56L3386.59 2903ZM3335.5 2848.62L3316.56 2797.62L3298 2848.62H3335.5ZM3402.16 2903V2766.69H3429.91V2879.84H3498.91V2903H3402.16ZM3599.59 2903V2788.81H3558.81V2765.56H3668.03V2788.81H3627.34V2903H3599.59ZM3686.03 2903V2765.56H3787.94V2788.81H3713.78V2819.28H3782.78V2842.44H3713.78V2879.84H3790.56V2903H3686.03ZM3902.03 2852.47L3928.94 2861C3924.81 2876 3917.94 2887.16 3908.31 2894.47C3898.75 2901.72 3886.59 2905.34 3871.84 2905.34C3853.59 2905.34 3838.59 2899.12 3826.84 2886.69C3815.09 2874.19 3809.22 2857.12 3809.22 2835.5C3809.22 2812.62 3815.12 2794.88 3826.94 2782.25C3838.75 2769.56 3854.28 2763.22 3873.53 2763.22C3890.34 2763.22 3904 2768.19 3914.5 2778.12C3920.75 2784 3925.44 2792.44 3928.56 2803.44L3901.09 2810C3899.47 2802.88 3896.06 2797.25 3890.88 2793.12C3885.75 2789 3879.5 2786.94 3872.12 2786.94C3861.94 2786.94 3853.66 2790.59 3847.28 2797.91C3840.97 2805.22 3837.81 2817.06 3837.81 2833.44C3837.81 2850.81 3840.94 2863.19 3847.19 2870.56C3853.44 2877.94 3861.56 2881.62 3871.56 2881.62C3878.94 2881.62 3885.28 2879.28 3890.59 2874.59C3895.91 2869.91 3899.72 2862.53 3902.03 2852.47ZM3952.94 2903V2765.56H3980.69V2819.66H4035.06V2765.56H4062.81V2903H4035.06V2842.91H3980.69V2903H3952.94ZM4091.88 2903V2765.56H4118.88L4175.12 2857.34V2765.56H4200.91V2903H4173.06L4117.66 2813.38V2903H4091.88ZM4229.5 2903V2765.56H4257.25V2903H4229.5ZM4371.72 2852.47L4398.62 2861C4394.5 2876 4387.62 2887.16 4378 2894.47C4368.44 2901.72 4356.28 2905.34 4341.53 2905.34C4323.28 2905.34 4308.28 2899.12 4296.53 2886.69C4284.78 2874.19 4278.91 2857.12 4278.91 2835.5C4278.91 2812.62 4284.81 2794.88 4296.62 2782.25C4308.44 2769.56 4323.97 2763.22 4343.22 2763.22C4360.03 2763.22 4373.69 2768.19 4384.19 2778.12C4390.44 2784 4395.12 2792.44 4398.25 2803.44L4370.78 2810C4369.16 2802.88 4365.75 2797.25 4360.56 2793.12C4355.44 2789 4349.19 2786.94 4341.81 2786.94C4331.62 2786.94 4323.34 2790.59 4316.97 2797.91C4310.66 2805.22 4307.5 2817.06 4307.5 2833.44C4307.5 2850.81 4310.62 2863.19 4316.88 2870.56C4323.12 2877.94 4331.25 2881.62 4341.25 2881.62C4348.62 2881.62 4354.97 2879.28 4360.28 2874.59C4365.59 2869.91 4369.41 2862.53 4371.72 2852.47ZM4421.69 2903V2765.56H4449.44V2903H4421.69ZM4599.91 2903H4569.72L4557.72 2871.78H4502.78L4491.44 2903H4462L4515.53 2765.56H4544.88L4599.91 2903ZM4548.81 2848.62L4529.88 2797.62L4511.31 2848.62H4548.81ZM4615 2903V2765.56H4642L4698.25 2857.34V2765.56H4724.03V2903H4696.19L4640.78 2813.38V2903H4615ZM4792.56 2863.06V2843.38H4899.34V2863.06H4792.56ZM4967.31 2765.56H5022.25C5033.12 2765.56 5041.22 2766.03 5046.53 2766.97C5051.91 2767.84 5056.69 2769.72 5060.88 2772.59C5065.12 2775.47 5068.66 2779.31 5071.47 2784.12C5074.28 2788.88 5075.69 2794.22 5075.69 2800.16C5075.69 2806.59 5073.94 2812.5 5070.44 2817.88C5067 2823.25 5062.31 2827.28 5056.38 2829.97C5064.75 2832.41 5071.19 2836.56 5075.69 2842.44C5080.19 2848.31 5082.44 2855.22 5082.44 2863.16C5082.44 2869.41 5080.97 2875.5 5078.03 2881.44C5075.16 2887.31 5071.19 2892.03 5066.12 2895.59C5061.12 2899.09 5054.94 2901.25 5047.56 2902.06C5042.94 2902.56 5031.78 2902.88 5014.09 2903H4967.31V2765.56ZM4995.06 2788.44V2820.22H5013.25C5024.06 2820.22 5030.78 2820.06 5033.41 2819.75C5038.16 2819.19 5041.88 2817.56 5044.56 2814.88C5047.31 2812.12 5048.69 2808.53 5048.69 2804.09C5048.69 2799.84 5047.5 2796.41 5045.12 2793.78C5042.81 2791.09 5039.34 2789.47 5034.72 2788.91C5031.97 2788.59 5024.06 2788.44 5011 2788.44H4995.06ZM4995.06 2843.09V2879.84H5020.75C5030.75 2879.84 5037.09 2879.56 5039.78 2879C5043.91 2878.25 5047.25 2876.44 5049.81 2873.56C5052.44 2870.62 5053.75 2866.72 5053.75 2861.84C5053.75 2857.72 5052.75 2854.22 5050.75 2851.34C5048.75 2848.47 5045.84 2846.38 5042.03 2845.06C5038.28 2843.75 5030.09 2843.09 5017.47 2843.09H4995.06ZM5229.91 2903H5199.72L5187.72 2871.78H5132.78L5121.44 2903H5092L5145.53 2765.56H5174.88L5229.91 2903ZM5178.81 2848.62L5159.88 2797.62L5141.31 2848.62H5178.81ZM5237.69 2858.28L5264.69 2855.66C5266.31 2864.72 5269.59 2871.38 5274.53 2875.62C5279.53 2879.88 5286.25 2882 5294.69 2882C5303.62 2882 5310.34 2880.12 5314.84 2876.38C5319.41 2872.56 5321.69 2868.12 5321.69 2863.06C5321.69 2859.81 5320.72 2857.06 5318.78 2854.81C5316.91 2852.5 5313.59 2850.5 5308.84 2848.81C5305.59 2847.69 5298.19 2845.69 5286.62 2842.81C5271.75 2839.12 5261.31 2834.59 5255.31 2829.22C5246.88 2821.66 5242.66 2812.44 5242.66 2801.56C5242.66 2794.56 5244.62 2788.03 5248.56 2781.97C5252.56 2775.84 5258.28 2771.19 5265.72 2768C5273.22 2764.81 5282.25 2763.22 5292.81 2763.22C5310.06 2763.22 5323.03 2767 5331.72 2774.56C5340.47 2782.12 5345.06 2792.22 5345.5 2804.84L5317.75 2806.06C5316.56 2799 5314 2793.94 5310.06 2790.88C5306.19 2787.75 5300.34 2786.19 5292.53 2786.19C5284.47 2786.19 5278.16 2787.84 5273.59 2791.16C5270.66 2793.28 5269.19 2796.12 5269.19 2799.69C5269.19 2802.94 5270.56 2805.72 5273.31 2808.03C5276.81 2810.97 5285.31 2814.03 5298.81 2817.22C5312.31 2820.41 5322.28 2823.72 5328.72 2827.16C5335.22 2830.53 5340.28 2835.19 5343.91 2841.12C5347.59 2847 5349.44 2854.28 5349.44 2862.97C5349.44 2870.84 5347.25 2878.22 5342.88 2885.09C5338.5 2891.97 5332.31 2897.09 5324.31 2900.47C5316.31 2903.78 5306.34 2905.44 5294.41 2905.44C5277.03 2905.44 5263.69 2901.44 5254.38 2893.44C5245.06 2885.38 5239.5 2873.66 5237.69 2858.28ZM5371.94 2903V2765.56H5399.69V2903H5371.94ZM5514.16 2852.47L5541.06 2861C5536.94 2876 5530.06 2887.16 5520.44 2894.47C5510.88 2901.72 5498.72 2905.34 5483.97 2905.34C5465.72 2905.34 5450.72 2899.12 5438.97 2886.69C5427.22 2874.19 5421.34 2857.12 5421.34 2835.5C5421.34 2812.62 5427.25 2794.88 5439.06 2782.25C5450.88 2769.56 5466.41 2763.22 5485.66 2763.22C5502.47 2763.22 5516.12 2768.19 5526.62 2778.12C5532.88 2784 5537.56 2792.44 5540.69 2803.44L5513.22 2810C5511.59 2802.88 5508.19 2797.25 5503 2793.12C5497.88 2789 5491.62 2786.94 5484.25 2786.94C5474.06 2786.94 5465.78 2790.59 5459.41 2797.91C5453.09 2805.22 5449.94 2817.06 5449.94 2833.44C5449.94 2850.81 5453.06 2863.19 5459.31 2870.56C5465.56 2877.94 5473.69 2881.62 5483.69 2881.62C5491.06 2881.62 5497.41 2879.28 5502.72 2874.59C5508.03 2869.91 5511.84 2862.53 5514.16 2852.47Z" fill="white"/>
</svg>
