<svg width="6900" height="5209" viewBox="0 0 6900 5209" fill="none" xmlns="http://www.w3.org/2000/svg">
<path d="M1618.04 1732.4L1643 1769.83L1639.58 1772.2C1637.13 1769.92 1635.12 1768.78 1633.54 1768.78C1631.97 1768.78 1627.54 1770.88 1620.28 1775.09C1605.21 1783.75 1592.52 1789.62 1582.18 1792.69C1571.94 1795.66 1559.72 1797.15 1545.54 1797.15C1517.26 1797.15 1494.05 1790.45 1475.92 1777.06C1465.24 1769.26 1456.84 1759.59 1450.71 1748.03C1443.61 1734.81 1440.07 1720.23 1440.07 1704.29C1440.07 1682.57 1446.41 1663.7 1459.11 1647.68C1478.2 1623.6 1507.05 1611.56 1545.67 1611.56C1559.86 1611.56 1572.03 1613.05 1582.18 1616.02C1592.34 1619 1605.04 1624.87 1620.28 1633.62C1627.54 1637.74 1631.97 1639.8 1633.54 1639.8C1635.12 1639.8 1637.13 1638.66 1639.58 1636.38L1643 1638.75L1618.04 1676.18L1614.5 1673.82C1614.67 1672.42 1614.76 1671.23 1614.76 1670.27C1614.76 1667.73 1613.66 1665.37 1611.48 1663.18C1609.29 1660.9 1605.39 1658.19 1599.79 1655.03C1584.29 1646.28 1567.87 1641.9 1550.53 1641.9C1530.04 1641.9 1513.71 1647.02 1501.54 1657.27C1487.18 1669.26 1480 1684.94 1480 1704.29C1480 1723.64 1487.18 1739.32 1501.54 1751.31C1513.71 1761.56 1530.04 1766.68 1550.53 1766.68C1567.87 1766.68 1584.29 1762.3 1599.79 1753.54C1605.39 1750.39 1609.29 1747.72 1611.48 1745.53C1613.66 1743.26 1614.76 1740.85 1614.76 1738.31C1614.76 1737.35 1614.67 1736.21 1614.5 1734.89L1618.04 1732.4ZM1710.25 1731.48V1767.34H1803.64C1806.35 1767.34 1808.41 1766.72 1809.81 1765.5C1811.3 1764.27 1812.48 1762.04 1813.36 1758.8H1817.03V1802.41H1813.36C1812.57 1799.34 1811.43 1797.15 1809.94 1795.84C1808.45 1794.61 1806.35 1794 1803.64 1794H1666.64V1790.32C1669.71 1789.53 1671.85 1788.4 1673.08 1786.91C1674.39 1785.42 1675.05 1783.32 1675.05 1780.6V1660.29C1675.05 1657.57 1674.43 1655.52 1673.21 1654.11C1671.98 1652.71 1669.79 1651.53 1666.64 1650.57V1646.89H1799.56C1802.37 1646.89 1804.47 1646.28 1805.87 1645.05C1807.36 1643.83 1808.54 1641.64 1809.42 1638.48H1812.96V1682.09H1809.42C1808.54 1678.85 1807.36 1676.62 1805.87 1675.39C1804.47 1674.17 1802.37 1673.55 1799.56 1673.55H1710.25V1705.87H1765.68C1768.39 1705.87 1770.45 1705.25 1771.85 1704.03C1773.34 1702.8 1774.57 1700.61 1775.53 1697.46H1779.07V1740.02H1775.53C1774.65 1736.86 1773.47 1734.67 1771.98 1733.45C1770.58 1732.14 1768.48 1731.48 1765.68 1731.48H1710.25ZM1882.84 1733.58V1780.6C1882.84 1783.32 1883.45 1785.42 1884.68 1786.91C1885.9 1788.31 1888.09 1789.49 1891.25 1790.45V1794H1839.23V1790.32C1842.3 1789.53 1844.44 1788.4 1845.67 1786.91C1846.98 1785.42 1847.64 1783.32 1847.64 1780.6V1660.29C1847.64 1657.57 1847.03 1655.52 1845.8 1654.11C1844.57 1652.71 1842.38 1651.53 1839.23 1650.57V1646.89H1935.64C1948.16 1646.89 1957.71 1647.55 1964.27 1648.86C1970.84 1650.09 1976.71 1652.36 1981.88 1655.69C1992.47 1662.61 1997.77 1673.9 1997.77 1689.58C1997.77 1701.49 1994.48 1710.81 1987.92 1717.56C1981.44 1724.21 1970.93 1729.03 1956.39 1732L1984.24 1770.88C1989.32 1778.06 1993.35 1782.97 1996.32 1785.59C1999.39 1788.13 2002.85 1789.75 2006.7 1790.45V1794H1944.97V1790.45C1949.52 1789.23 1951.8 1787.26 1951.8 1784.54C1951.8 1782.62 1950.4 1779.68 1947.59 1775.74L1918.17 1733.58H1882.84ZM1882.84 1706.92H1935.9C1943.96 1706.92 1949.91 1706.04 1953.77 1704.29C1959.2 1701.93 1961.91 1697.24 1961.91 1690.24C1961.91 1684.02 1959.98 1679.68 1956.13 1677.23C1952.37 1674.78 1945.62 1673.55 1935.9 1673.55H1882.84V1706.92ZM2106.66 1673.55V1780.6C2106.66 1783.32 2107.27 1785.42 2108.49 1786.91C2109.72 1788.31 2111.91 1789.49 2115.06 1790.45V1794H2063.05V1790.32C2066.11 1789.53 2068.26 1788.4 2069.48 1786.91C2070.8 1785.42 2071.45 1783.32 2071.45 1780.6V1673.55H2028.11C2025.31 1673.55 2023.16 1674.21 2021.67 1675.52C2020.27 1676.75 2019.13 1678.94 2018.26 1682.09H2014.71V1638.48H2018.39C2019.18 1641.55 2020.27 1643.74 2021.67 1645.05C2023.16 1646.28 2025.31 1646.89 2028.11 1646.89H2150C2152.8 1646.89 2154.9 1646.28 2156.31 1645.05C2157.79 1643.83 2158.98 1641.64 2159.85 1638.48H2163.4V1682.09H2159.85C2158.98 1678.94 2157.79 1676.75 2156.31 1675.52C2154.9 1674.21 2152.8 1673.55 2150 1673.55H2106.66ZM2222.24 1660.29V1780.6C2222.24 1783.32 2222.85 1785.42 2224.08 1786.91C2225.31 1788.31 2227.5 1789.49 2230.65 1790.45V1794H2178.63V1790.32C2181.7 1789.53 2183.84 1788.4 2185.07 1786.91C2186.38 1785.42 2187.04 1783.32 2187.04 1780.6V1660.29C2187.04 1657.57 2186.43 1655.52 2185.2 1654.11C2183.98 1652.71 2181.79 1651.53 2178.63 1650.57V1646.89H2230.65V1650.57C2227.5 1651.44 2225.31 1652.63 2224.08 1654.11C2222.85 1655.52 2222.24 1657.57 2222.24 1660.29ZM2300.26 1731.48V1780.6C2300.26 1783.32 2300.88 1785.42 2302.1 1786.91C2303.33 1788.31 2305.52 1789.49 2308.67 1790.45V1794H2256.65V1790.32C2259.72 1789.53 2261.86 1788.4 2263.09 1786.91C2264.4 1785.42 2265.06 1783.32 2265.06 1780.6V1660.29C2265.06 1657.57 2264.45 1655.52 2263.22 1654.11C2262 1652.71 2259.81 1651.53 2256.65 1650.57V1646.89H2388.53C2391.33 1646.89 2393.43 1646.28 2394.83 1645.05C2396.32 1643.83 2397.5 1641.64 2398.38 1638.48H2401.93V1682.09H2398.38C2397.5 1678.94 2396.32 1676.75 2394.83 1675.52C2393.43 1674.21 2391.33 1673.55 2388.53 1673.55H2300.26V1705.87H2355.69C2358.49 1705.87 2360.59 1705.25 2362 1704.03C2363.4 1702.8 2364.58 1700.61 2365.54 1697.46H2369.09V1740.02H2365.54C2364.67 1736.86 2363.48 1734.67 2362 1733.45C2360.59 1732.14 2358.49 1731.48 2355.69 1731.48H2300.26ZM2464.18 1660.29V1780.6C2464.18 1783.32 2464.8 1785.42 2466.02 1786.91C2467.25 1788.31 2469.44 1789.49 2472.59 1790.45V1794H2420.58V1790.32C2423.64 1789.53 2425.79 1788.4 2427.01 1786.91C2428.33 1785.42 2428.98 1783.32 2428.98 1780.6V1660.29C2428.98 1657.57 2428.37 1655.52 2427.14 1654.11C2425.92 1652.71 2423.73 1651.53 2420.58 1650.57V1646.89H2472.59V1650.57C2469.44 1651.44 2467.25 1652.63 2466.02 1654.11C2464.8 1655.52 2464.18 1657.57 2464.18 1660.29ZM2642.42 1741.33L2664.62 1773.64L2661.6 1775.87C2659.5 1774.39 2657.83 1773.64 2656.61 1773.64C2655.12 1773.64 2651.66 1775.26 2646.23 1778.5C2634.24 1785.51 2623.64 1790.37 2614.45 1793.08C2605.25 1795.8 2594.66 1797.15 2582.66 1797.15C2558.67 1797.15 2539.1 1791.42 2523.95 1779.95C2515.37 1773.38 2508.54 1765.15 2503.46 1755.25C2498.03 1744.57 2495.31 1732.97 2495.31 1720.45C2495.31 1703.19 2500.3 1687.96 2510.29 1674.74C2525.96 1654.07 2550 1643.74 2582.4 1643.74C2594.39 1643.74 2605.03 1645.1 2614.31 1647.81C2623.68 1650.52 2634.32 1655.38 2646.23 1662.39C2651.66 1665.63 2655.12 1667.25 2656.61 1667.25C2657.83 1667.25 2659.5 1666.51 2661.6 1665.02L2664.62 1667.38L2642.42 1699.56L2639.53 1697.46C2639.62 1696.41 2639.71 1695.75 2639.8 1695.49C2639.88 1694.7 2639.93 1694.13 2639.93 1693.78C2639.93 1689.49 2634.02 1684.63 2622.2 1679.2C2610.99 1674.04 2599.69 1671.45 2588.31 1671.45C2572.37 1671.45 2559.24 1675.66 2548.9 1684.06C2537.08 1693.52 2531.17 1705.65 2531.17 1720.45C2531.17 1735.33 2537.08 1747.5 2548.9 1756.96C2559.32 1765.28 2572.46 1769.44 2588.31 1769.44C2600.74 1769.44 2613.13 1766.33 2625.48 1760.11C2635.11 1755.21 2639.93 1750.92 2639.93 1747.24C2639.93 1747.07 2639.8 1745.84 2639.53 1743.56L2642.42 1741.33ZM2797.68 1757.22H2730.03L2722.41 1773.25C2720.57 1777.1 2719.66 1780.12 2719.66 1782.31C2719.66 1786.51 2722.46 1789.18 2728.06 1790.32V1794H2673.95V1790.32C2677.27 1789.8 2679.73 1788.79 2681.3 1787.3C2682.97 1785.81 2684.89 1782.88 2687.08 1778.5L2740.8 1669.75C2742.82 1665.63 2743.82 1662.04 2743.82 1658.97C2743.82 1655.38 2741.37 1652.58 2736.47 1650.57V1646.89H2793.6V1650.57C2788.79 1652.49 2786.38 1655.47 2786.38 1659.5C2786.38 1662.39 2787.47 1665.94 2789.66 1670.14L2845.35 1775.61C2848.42 1781.39 2850.83 1785.16 2852.58 1786.91C2854.33 1788.57 2857 1789.75 2860.59 1790.45V1794H2800.57V1790.45C2806.26 1789.49 2809.1 1786.82 2809.1 1782.44C2809.1 1779.73 2808.01 1776.36 2805.82 1772.33L2797.68 1757.22ZM2787.04 1736.6L2763 1689.45L2740.15 1736.6H2787.04ZM2954.11 1673.55V1780.6C2954.11 1783.32 2954.72 1785.42 2955.95 1786.91C2957.18 1788.31 2959.36 1789.49 2962.52 1790.45V1794H2910.5V1790.32C2913.57 1789.53 2915.71 1788.4 2916.94 1786.91C2918.25 1785.42 2918.91 1783.32 2918.91 1780.6V1673.55H2875.56C2872.76 1673.55 2870.62 1674.21 2869.13 1675.52C2867.73 1676.75 2866.59 1678.94 2865.71 1682.09H2862.17V1638.48H2865.85C2866.63 1641.55 2867.73 1643.74 2869.13 1645.05C2870.62 1646.28 2872.76 1646.89 2875.56 1646.89H2997.46C3000.26 1646.89 3002.36 1646.28 3003.76 1645.05C3005.25 1643.83 3006.43 1641.64 3007.31 1638.48H3010.85V1682.09H3007.31C3006.43 1678.94 3005.25 1676.75 3003.76 1675.52C3002.36 1674.21 3000.26 1673.55 2997.46 1673.55H2954.11ZM3071.54 1731.48V1767.34H3164.92C3167.64 1767.34 3169.7 1766.72 3171.1 1765.5C3172.59 1764.27 3173.77 1762.04 3174.64 1758.8H3178.32V1802.41H3174.64C3173.86 1799.34 3172.72 1797.15 3171.23 1795.84C3169.74 1794.61 3167.64 1794 3164.92 1794H3027.93V1790.32C3030.99 1789.53 3033.14 1788.4 3034.36 1786.91C3035.68 1785.42 3036.33 1783.32 3036.33 1780.6V1660.29C3036.33 1657.57 3035.72 1655.52 3034.5 1654.11C3033.27 1652.71 3031.08 1651.53 3027.93 1650.57V1646.89H3160.85C3163.65 1646.89 3165.76 1646.28 3167.16 1645.05C3168.65 1643.83 3169.83 1641.64 3170.7 1638.48H3174.25V1682.09H3170.7C3169.83 1678.85 3168.65 1676.62 3167.16 1675.39C3165.76 1674.17 3163.65 1673.55 3160.85 1673.55H3071.54V1705.87H3126.96C3129.68 1705.87 3131.74 1705.25 3133.14 1704.03C3134.63 1702.8 3135.85 1700.61 3136.82 1697.46H3140.36V1740.02H3136.82C3135.94 1736.86 3134.76 1734.67 3133.27 1733.45C3131.87 1732.14 3129.77 1731.48 3126.96 1731.48H3071.54ZM3350.52 1643.74C3373.9 1643.74 3393.38 1649.69 3408.97 1661.6C3427.62 1675.96 3436.94 1695.97 3436.94 1721.63C3436.94 1745.71 3427.62 1764.93 3408.97 1779.29C3393.56 1791.2 3374.16 1797.15 3350.78 1797.15C3327.4 1797.15 3308.01 1791.2 3292.59 1779.29C3273.85 1764.93 3264.49 1745.31 3264.49 1720.45C3264.49 1695.31 3273.85 1675.7 3292.59 1661.6C3308.09 1649.96 3327.4 1644 3350.52 1643.74ZM3350.65 1671.58C3335.5 1671.58 3323.15 1676.44 3313.61 1686.16C3304.77 1695.27 3300.34 1706.7 3300.34 1720.45C3300.34 1734.11 3304.77 1745.49 3313.61 1754.6C3323.15 1764.4 3335.54 1769.31 3350.78 1769.31C3365.93 1769.31 3378.28 1764.4 3387.82 1754.6C3396.66 1745.58 3401.09 1734.41 3401.09 1721.1C3401.09 1706.65 3396.66 1695.01 3387.82 1686.16C3378.19 1676.62 3365.8 1671.76 3350.65 1671.58ZM3503.14 1731.48V1780.6C3503.14 1783.32 3503.76 1785.42 3504.98 1786.91C3506.21 1788.31 3508.4 1789.49 3511.55 1790.45V1794H3459.54V1790.32C3462.6 1789.53 3464.75 1788.4 3465.97 1786.91C3467.29 1785.42 3467.94 1783.32 3467.94 1780.6V1660.29C3467.94 1657.57 3467.33 1655.52 3466.1 1654.11C3464.88 1652.71 3462.69 1651.53 3459.54 1650.57V1646.89H3591.41C3594.21 1646.89 3596.31 1646.28 3597.71 1645.05C3599.2 1643.83 3600.39 1641.64 3601.26 1638.48H3604.81V1682.09H3601.26C3600.39 1678.94 3599.2 1676.75 3597.71 1675.52C3596.31 1674.21 3594.21 1673.55 3591.41 1673.55H3503.14V1705.87H3558.57C3561.37 1705.87 3563.48 1705.25 3564.88 1704.03C3566.28 1702.8 3567.46 1700.61 3568.42 1697.46H3571.97V1740.02H3568.42C3567.55 1736.86 3566.37 1734.67 3564.88 1733.45C3563.48 1732.14 3561.37 1731.48 3558.57 1731.48H3503.14ZM3867.77 1732.4L3892.72 1769.83L3889.31 1772.2C3886.85 1769.92 3884.84 1768.78 3883.26 1768.78C3881.69 1768.78 3877.27 1770.88 3870 1775.09C3854.94 1783.75 3842.24 1789.62 3831.91 1792.69C3821.66 1795.66 3809.45 1797.15 3795.26 1797.15C3766.98 1797.15 3743.77 1790.45 3725.65 1777.06C3714.96 1769.26 3706.56 1759.59 3700.43 1748.03C3693.34 1734.81 3689.79 1720.23 3689.79 1704.29C3689.79 1682.57 3696.14 1663.7 3708.83 1647.68C3727.92 1623.6 3756.78 1611.56 3795.39 1611.56C3809.58 1611.56 3821.75 1613.05 3831.91 1616.02C3842.06 1619 3854.76 1624.87 3870 1633.62C3877.27 1637.74 3881.69 1639.8 3883.26 1639.8C3884.84 1639.8 3886.85 1638.66 3889.31 1636.38L3892.72 1638.75L3867.77 1676.18L3864.22 1673.82C3864.39 1672.42 3864.48 1671.23 3864.48 1670.27C3864.48 1667.73 3863.39 1665.37 3861.2 1663.18C3859.01 1660.9 3855.11 1658.19 3849.51 1655.03C3834.01 1646.28 3817.59 1641.9 3800.25 1641.9C3779.76 1641.9 3763.43 1647.02 3751.26 1657.27C3736.9 1669.26 3729.72 1684.94 3729.72 1704.29C3729.72 1723.64 3736.9 1739.32 3751.26 1751.31C3763.43 1761.56 3779.76 1766.68 3800.25 1766.68C3817.59 1766.68 3834.01 1762.3 3849.51 1753.54C3855.11 1750.39 3859.01 1747.72 3861.2 1745.53C3863.39 1743.26 3864.48 1740.85 3864.48 1738.31C3864.48 1737.35 3864.39 1736.21 3864.22 1734.89L3867.77 1732.4ZM3999.11 1643.74C4022.49 1643.74 4041.98 1649.69 4057.56 1661.6C4076.21 1675.96 4085.54 1695.97 4085.54 1721.63C4085.54 1745.71 4076.21 1764.93 4057.56 1779.29C4042.15 1791.2 4022.76 1797.15 3999.38 1797.15C3976 1797.15 3956.6 1791.2 3941.19 1779.29C3922.45 1764.93 3913.08 1745.31 3913.08 1720.45C3913.08 1695.31 3922.45 1675.7 3941.19 1661.6C3956.69 1649.96 3976 1644 3999.11 1643.74ZM3999.24 1671.58C3984.1 1671.58 3971.75 1676.44 3962.2 1686.16C3953.36 1695.27 3948.94 1706.7 3948.94 1720.45C3948.94 1734.11 3953.36 1745.49 3962.2 1754.6C3971.75 1764.4 3984.14 1769.31 3999.38 1769.31C4014.52 1769.31 4026.87 1764.4 4036.42 1754.6C4045.26 1745.58 4049.68 1734.41 4049.68 1721.1C4049.68 1706.65 4045.26 1695.01 4036.42 1686.16C4026.78 1676.62 4014.39 1671.76 3999.24 1671.58ZM4202.18 1789.4L4148.59 1697.33V1780.6C4148.59 1783.32 4149.2 1785.42 4150.43 1786.91C4151.65 1788.31 4153.84 1789.49 4156.99 1790.45V1794H4108.13V1790.32C4111.2 1789.53 4113.34 1788.4 4114.57 1786.91C4115.88 1785.42 4116.54 1783.32 4116.54 1780.6V1660.29C4116.54 1657.57 4115.92 1655.52 4114.7 1654.11C4113.47 1652.63 4111.28 1651.44 4108.13 1650.57V1646.89H4170.26V1650.57C4166.14 1651.88 4164.09 1654.38 4164.09 1658.06C4164.09 1661.65 4165.57 1666.02 4168.55 1671.19L4205.2 1733.05L4242.11 1672.11C4246.31 1665.19 4248.41 1660.29 4248.41 1657.4C4248.41 1653.81 4246.27 1651.53 4241.97 1650.57V1646.89H4302.53V1650.57C4299.37 1651.44 4297.18 1652.63 4295.96 1654.11C4294.73 1655.52 4294.12 1657.57 4294.12 1660.29V1780.6C4294.12 1783.32 4294.73 1785.42 4295.96 1786.91C4297.18 1788.4 4299.37 1789.58 4302.53 1790.45V1794H4250.51V1790.32C4253.58 1789.53 4255.72 1788.4 4256.95 1786.91C4258.26 1785.42 4258.92 1783.32 4258.92 1780.6V1697.33L4202.18 1789.4ZM4372.14 1733.58V1780.6C4372.14 1783.32 4372.75 1785.42 4373.98 1786.91C4375.2 1788.31 4377.39 1789.49 4380.55 1790.45V1794H4328.53V1790.32C4331.6 1789.53 4333.74 1788.4 4334.97 1786.91C4336.28 1785.42 4336.94 1783.32 4336.94 1780.6V1660.29C4336.94 1657.57 4336.33 1655.52 4335.1 1654.11C4333.87 1652.71 4331.69 1651.53 4328.53 1650.57V1646.89H4424.42C4443.42 1646.89 4457.74 1649.74 4467.37 1655.43C4472.97 1658.76 4477.35 1663.48 4480.5 1669.61C4483.65 1675.74 4485.23 1682.62 4485.23 1690.24C4485.23 1704.86 4480.24 1715.76 4470.26 1722.94C4460.27 1730.03 4444.99 1733.58 4424.42 1733.58H4372.14ZM4372.14 1706.92H4422.31C4431.51 1706.92 4437.9 1706.04 4441.49 1704.29C4446.75 1701.75 4449.37 1697.07 4449.37 1690.24C4449.37 1683.41 4446.75 1678.72 4441.49 1676.18C4437.99 1674.43 4431.6 1673.55 4422.31 1673.55H4372.14V1706.92ZM4547.62 1767.34H4629.98C4632.78 1767.34 4634.88 1766.72 4636.28 1765.5C4637.68 1764.27 4638.86 1762.04 4639.83 1758.8H4643.37V1802.41H4639.83C4638.95 1799.25 4637.77 1797.06 4636.28 1795.84C4634.88 1794.61 4632.78 1794 4629.98 1794H4504.01V1790.32C4507.08 1789.53 4509.22 1788.4 4510.45 1786.91C4511.76 1785.42 4512.42 1783.32 4512.42 1780.6V1660.29C4512.42 1657.57 4511.81 1655.52 4510.58 1654.11C4509.35 1652.71 4507.17 1651.53 4504.01 1650.57V1646.89H4556.03V1650.57C4552.87 1651.44 4550.69 1652.63 4549.46 1654.11C4548.23 1655.52 4547.62 1657.57 4547.62 1660.29V1767.34ZM4702.09 1731.48V1767.34H4795.47C4798.19 1767.34 4800.25 1766.72 4801.65 1765.5C4803.14 1764.27 4804.32 1762.04 4805.19 1758.8H4808.87V1802.41H4805.19C4804.41 1799.34 4803.27 1797.15 4801.78 1795.84C4800.29 1794.61 4798.19 1794 4795.47 1794H4658.48V1790.32C4661.54 1789.53 4663.69 1788.4 4664.91 1786.91C4666.23 1785.42 4666.88 1783.32 4666.88 1780.6V1660.29C4666.88 1657.57 4666.27 1655.52 4665.05 1654.11C4663.82 1652.71 4661.63 1651.53 4658.48 1650.57V1646.89H4791.4C4794.2 1646.89 4796.31 1646.28 4797.71 1645.05C4799.2 1643.83 4800.38 1641.64 4801.25 1638.48H4804.8V1682.09H4801.25C4800.38 1678.85 4799.2 1676.62 4797.71 1675.39C4796.31 1674.17 4794.2 1673.55 4791.4 1673.55H4702.09V1705.87H4757.51C4760.23 1705.87 4762.29 1705.25 4763.69 1704.03C4765.18 1702.8 4766.4 1700.61 4767.37 1697.46H4770.91V1740.02H4767.37C4766.49 1736.86 4765.31 1734.67 4763.82 1733.45C4762.42 1732.14 4760.32 1731.48 4757.51 1731.48H4702.09ZM4913.82 1673.55V1780.6C4913.82 1783.32 4914.43 1785.42 4915.66 1786.91C4916.88 1788.31 4919.07 1789.49 4922.22 1790.45V1794H4870.21V1790.32C4873.28 1789.53 4875.42 1788.4 4876.65 1786.91C4877.96 1785.42 4878.62 1783.32 4878.62 1780.6V1673.55H4835.27C4832.47 1673.55 4830.32 1674.21 4828.84 1675.52C4827.43 1676.75 4826.3 1678.94 4825.42 1682.09H4821.87V1638.48H4825.55C4826.34 1641.55 4827.43 1643.74 4828.84 1645.05C4830.32 1646.28 4832.47 1646.89 4835.27 1646.89H4957.16C4959.96 1646.89 4962.07 1646.28 4963.47 1645.05C4964.96 1643.83 4966.14 1641.64 4967.01 1638.48H4970.56V1682.09H4967.01C4966.14 1678.94 4964.96 1676.75 4963.47 1675.52C4962.07 1674.21 4959.96 1673.55 4957.16 1673.55H4913.82ZM5029.4 1660.29V1780.6C5029.4 1783.32 5030.02 1785.42 5031.24 1786.91C5032.47 1788.31 5034.66 1789.49 5037.81 1790.45V1794H4985.8V1790.32C4988.86 1789.53 4991.01 1788.4 4992.23 1786.91C4993.55 1785.42 4994.2 1783.32 4994.2 1780.6V1660.29C4994.2 1657.57 4993.59 1655.52 4992.36 1654.11C4991.14 1652.71 4988.95 1651.53 4985.8 1650.57V1646.89H5037.81V1650.57C5034.66 1651.44 5032.47 1652.63 5031.24 1654.11C5030.02 1655.52 5029.4 1657.57 5029.4 1660.29ZM5146.57 1643.74C5169.95 1643.74 5189.43 1649.69 5205.02 1661.6C5223.67 1675.96 5232.99 1695.97 5232.99 1721.63C5232.99 1745.71 5223.67 1764.93 5205.02 1779.29C5189.6 1791.2 5170.21 1797.15 5146.83 1797.15C5123.45 1797.15 5104.05 1791.2 5088.64 1779.29C5069.9 1764.93 5060.53 1745.31 5060.53 1720.45C5060.53 1695.31 5069.9 1675.7 5088.64 1661.6C5104.14 1649.96 5123.45 1644 5146.57 1643.74ZM5146.7 1671.58C5131.55 1671.58 5119.2 1676.44 5109.66 1686.16C5100.81 1695.27 5096.39 1706.7 5096.39 1720.45C5096.39 1734.11 5100.81 1745.49 5109.66 1754.6C5119.2 1764.4 5131.59 1769.31 5146.83 1769.31C5161.98 1769.31 5174.32 1764.4 5183.87 1754.6C5192.71 1745.58 5197.13 1734.41 5197.13 1721.1C5197.13 1706.65 5192.71 1695.01 5183.87 1686.16C5174.24 1676.62 5161.85 1671.76 5146.7 1671.58ZM5296.04 1697.07V1780.6C5296.04 1783.32 5296.65 1785.42 5297.88 1786.91C5299.19 1788.4 5301.38 1789.58 5304.45 1790.45V1794H5255.58V1790.32C5258.65 1789.53 5260.79 1788.4 5262.02 1786.91C5263.33 1785.42 5263.99 1783.32 5263.99 1780.6V1660.29C5263.99 1657.57 5263.38 1655.52 5262.15 1654.11C5260.93 1652.71 5258.74 1651.53 5255.58 1650.57V1646.89H5312.06V1650.57C5308.21 1651.53 5306.28 1653.24 5306.28 1655.69C5306.28 1657.79 5307.69 1660.24 5310.49 1663.05L5389.3 1741.33V1660.29C5389.3 1657.57 5388.68 1655.52 5387.46 1654.11C5386.23 1652.63 5384.04 1651.44 5380.89 1650.57V1646.89H5429.75V1650.57C5426.6 1651.44 5424.41 1652.63 5423.18 1654.11C5421.96 1655.52 5421.35 1657.57 5421.35 1660.29V1780.6C5421.35 1783.32 5421.96 1785.42 5423.18 1786.91C5424.41 1788.31 5426.6 1789.49 5429.75 1790.45V1794H5377.08V1790.45C5380.93 1789.67 5382.86 1788.05 5382.86 1785.59C5382.86 1784.37 5382.33 1783.1 5381.28 1781.78C5380.23 1780.47 5377.83 1777.89 5374.06 1774.04L5296.04 1697.07Z" fill="#00518E"/>
</svg>
