<svg width="6900" height="5209" viewBox="0 0 6900 5209" fill="none" xmlns="http://www.w3.org/2000/svg">
<path d="M3400.19 1860.47H3391.25L3393.94 1857.58H3400.74L3402.96 1846.52L3411.05 1844.57L3408.47 1857.58H3423.2L3420 1861.02C3416.64 1860.65 3413.65 1860.47 3411.05 1860.47H3407.89L3402.57 1887.23C3402.03 1889.99 3401.75 1891.93 3401.75 1893.05C3401.75 1895.1 3402.66 1896.13 3404.49 1896.13C3407.3 1896.13 3411.14 1894.05 3416.01 1889.88L3415.31 1893.48C3410.26 1898.48 3405.4 1900.98 3400.74 1900.98C3396.31 1900.98 3394.1 1898.53 3394.1 1893.63C3394.1 1891.89 3394.38 1889.57 3394.96 1886.68L3400.19 1860.47ZM3437.75 1900.98C3434.34 1900.98 3431.48 1899.65 3429.19 1896.99C3426.93 1894.31 3425.79 1890.98 3425.79 1886.99C3425.79 1879.49 3428.63 1872.57 3434.31 1866.21C3439.99 1859.83 3446.17 1856.64 3452.86 1856.64C3456.48 1856.64 3459.47 1857.94 3461.81 1860.55C3464.15 1863.15 3465.32 1866.47 3465.32 1870.51C3465.32 1878.29 3462.49 1885.33 3456.81 1891.6C3451.13 1897.85 3444.78 1900.98 3437.75 1900.98ZM3442.2 1897.58C3446.05 1897.58 3449.44 1895.1 3452.36 1890.16C3455.3 1885.18 3456.77 1879.41 3456.77 1872.85C3456.77 1864.23 3454.14 1859.92 3448.88 1859.92C3445.16 1859.92 3441.8 1862.49 3438.8 1867.62C3435.83 1872.72 3434.35 1878.48 3434.35 1884.88C3434.35 1893.35 3436.97 1897.58 3442.2 1897.58Z" fill="black"/>
</svg>
