<svg width="6900" height="5209" viewBox="0 0 6900 5209" fill="none" xmlns="http://www.w3.org/2000/svg">
<path d="M2674.46 1556L2680.24 1550.22L2680.83 1550.38C2681.14 1550.43 2681.9 1550.45 2683.1 1550.45C2685.99 1550.45 2688.12 1549.42 2689.5 1547.37C2690.91 1545.31 2692.21 1541.29 2693.41 1535.3L2699.62 1503.97H2689.74C2679.71 1503.97 2674.7 1507.93 2674.7 1515.84C2674.7 1516.78 2674.81 1517.94 2675.05 1519.32L2666.92 1523.11C2668.02 1515.45 2671.34 1509.39 2676.88 1504.91C2682.43 1500.43 2689.41 1498.19 2697.82 1498.19H2714.38C2721.86 1498.19 2726.81 1497.69 2729.23 1496.7C2731.65 1495.71 2733.29 1493.51 2734.15 1490.1L2740.01 1487.72C2738.19 1492.56 2734.67 1496.48 2729.46 1499.48C2724.25 1502.47 2718.34 1503.97 2711.73 1503.97H2707.82L2702.39 1531.2C2701.43 1536.09 2700 1539.96 2698.1 1542.8C2696.22 1545.61 2693.26 1548.3 2689.23 1550.88L2704.31 1551.2L2698.88 1556.98L2674.46 1556ZM2721.85 1556.47L2724.74 1544.44L2730.09 1517.45C2731.97 1508.02 2735.5 1500.69 2740.68 1495.45C2745.89 1490.19 2752.22 1487.56 2759.66 1487.56C2762.24 1487.56 2764.59 1487.84 2766.69 1488.38L2761.34 1493.97C2758.3 1492.59 2755.69 1491.9 2753.53 1491.9C2749.39 1491.9 2746.28 1493.41 2744.19 1496.43C2742.11 1499.42 2740.24 1505.14 2738.57 1513.58L2734.35 1534.79H2734.98C2738.21 1528.12 2741.88 1522.77 2745.99 1518.73C2750.11 1514.67 2753.92 1512.64 2757.44 1512.64C2761.73 1512.64 2763.88 1515.01 2763.88 1519.75C2763.88 1521.31 2763.66 1523.19 2763.22 1525.38L2759.43 1544.44C2758.83 1547.43 2758.53 1549.39 2758.53 1550.3C2758.53 1551.94 2759.3 1552.76 2760.84 1552.76C2763.44 1552.76 2767.32 1549.89 2772.48 1544.16L2771.77 1547.8C2766.07 1553.92 2760.95 1556.98 2756.42 1556.98C2752.67 1556.98 2750.8 1555.01 2750.8 1551.08C2750.8 1549.78 2751.1 1547.56 2751.69 1544.44L2755.52 1525.3C2755.81 1523.81 2755.95 1522.56 2755.95 1521.55C2755.95 1519.44 2755.17 1518.38 2753.61 1518.38C2748.66 1518.38 2741.76 1526.27 2732.91 1542.05L2730.09 1556L2721.85 1556.47ZM2801.39 1544.16L2800.68 1547.8C2794.98 1553.92 2789.86 1556.98 2785.33 1556.98C2781.58 1556.98 2779.71 1555.01 2779.71 1551.08C2779.71 1549.75 2780.01 1547.56 2780.61 1544.52L2783.3 1530.92C2784.03 1527.07 2784.4 1524.5 2784.4 1523.23C2784.4 1521.04 2783.55 1519.95 2781.86 1519.95C2780.68 1519.95 2778.59 1520.4 2775.57 1521.31L2776.04 1518.89L2795.14 1512.64L2792.17 1525.14L2788.34 1544.44C2787.74 1547.46 2787.44 1549.39 2787.44 1550.22C2787.44 1551.91 2788.21 1552.76 2789.75 1552.76C2792.33 1552.76 2796.21 1549.89 2801.39 1544.16ZM2787.05 1505.84L2789.67 1500.53L2800.68 1493.34L2797.33 1500.53L2787.05 1505.84ZM2798.19 1554.67L2803.31 1549.4C2806.69 1551.87 2810.14 1553.11 2813.66 1553.11C2815.82 1553.11 2817.64 1552.55 2819.13 1551.43C2820.61 1550.28 2821.35 1548.88 2821.35 1547.21C2821.35 1545.36 2819.88 1542.84 2816.94 1539.63L2813.39 1535.73C2809.92 1531.92 2808.19 1528.75 2808.19 1526.2C2808.19 1522.65 2809.87 1519.52 2813.23 1516.78C2816.59 1514.02 2820.43 1512.64 2824.75 1512.64C2827.12 1512.64 2829.78 1513.14 2832.72 1514.12L2831 1522.76H2828.54L2828.66 1522.09C2828.71 1521.86 2828.74 1521.59 2828.74 1521.27C2828.74 1517.76 2826.47 1516 2821.94 1516C2816.86 1516 2814.32 1518.03 2814.32 1522.09C2814.32 1524.15 2815.83 1526.89 2818.85 1530.3L2822.06 1533.85C2825.55 1537.78 2827.29 1541.01 2827.29 1543.54C2827.29 1547.03 2825.44 1550.14 2821.74 1552.88C2818.05 1555.61 2813.84 1556.98 2809.13 1556.98C2805.82 1556.98 2802.17 1556.21 2798.19 1554.67ZM2897.26 1545.26L2896.68 1548.3C2888.14 1554.09 2881.13 1556.98 2875.66 1556.98C2871.89 1556.98 2868.85 1555.7 2866.56 1553.15C2864.27 1550.6 2863.12 1547.22 2863.12 1543.03C2863.12 1535.45 2865.99 1528.5 2871.72 1522.17C2877.45 1515.82 2883.75 1512.64 2890.62 1512.64C2893.64 1512.64 2896.65 1513.3 2899.65 1514.63L2897.03 1524.67H2894.61L2894.72 1524.09C2894.98 1522.86 2895.11 1521.96 2895.11 1521.39C2895.11 1517.8 2892.68 1516 2887.81 1516C2883.23 1516 2879.41 1518.45 2876.36 1523.34C2873.32 1528.24 2871.79 1534.39 2871.79 1541.78C2871.79 1548.84 2874.42 1552.37 2879.68 1552.37C2884.68 1552.37 2890.54 1550 2897.26 1545.26ZM2939.65 1545.34L2939.07 1548.34C2930.78 1554.1 2923.73 1556.98 2917.89 1556.98C2914.2 1556.98 2911.19 1555.69 2908.87 1553.11C2906.58 1550.51 2905.43 1547.15 2905.43 1543.03C2905.43 1535.69 2908.24 1528.79 2913.87 1522.33C2919.49 1515.84 2925.5 1512.6 2931.88 1512.6C2934.2 1512.6 2936.07 1513.38 2937.5 1514.95C2938.93 1516.51 2939.65 1518.54 2939.65 1521.04C2939.65 1526.04 2937.1 1530.34 2931.99 1533.93C2926.89 1537.52 2920.8 1539.32 2913.71 1539.32L2913.67 1541.08C2913.67 1548.68 2916.46 1552.48 2922.03 1552.48C2926.85 1552.48 2932.72 1550.1 2939.65 1545.34ZM2913.79 1536.9C2919.62 1536.43 2924.18 1534.93 2927.46 1532.41C2930.74 1529.85 2932.39 1526.56 2932.39 1522.52C2932.39 1518.54 2930.94 1516.55 2928.05 1516.55C2924.92 1516.55 2921.9 1518.63 2918.99 1522.8C2916.07 1526.94 2914.34 1531.64 2913.79 1536.9ZM2950.52 1556.47L2953.41 1544.44L2957.2 1525.34C2957.59 1523.41 2957.78 1521.74 2957.78 1520.34C2957.78 1518.1 2957 1516.98 2955.44 1516.98C2952.68 1516.98 2948.73 1519.92 2943.6 1525.8L2944.3 1522.33C2950.32 1515.84 2955.54 1512.6 2959.97 1512.6C2963.72 1512.6 2965.59 1514.75 2965.59 1519.05C2965.59 1520.95 2965.36 1523.06 2964.89 1525.38L2963.02 1534.79H2963.52C2966.62 1528.28 2970.28 1522.97 2974.5 1518.85C2978.74 1514.71 2982.63 1512.64 2986.14 1512.64C2987.96 1512.64 2989.59 1513.04 2991.02 1513.85L2985.83 1520.88C2984.29 1519.87 2982.99 1519.36 2981.92 1519.36C2976.84 1519.36 2970.09 1526.82 2961.65 1541.74L2958.8 1556L2950.52 1556.47ZM3000.91 1516.47H2991.97L2994.66 1513.58H3001.46L3003.69 1502.52L3011.77 1500.57L3009.19 1513.58H3023.92L3020.72 1517.02C3017.36 1516.65 3014.38 1516.47 3011.77 1516.47H3008.61L3003.29 1543.23C3002.75 1545.99 3002.47 1547.93 3002.47 1549.05C3002.47 1551.1 3003.39 1552.13 3005.21 1552.13C3008.02 1552.13 3011.86 1550.05 3016.73 1545.88L3016.03 1549.48C3010.98 1554.48 3006.12 1556.98 3001.46 1556.98C2997.03 1556.98 2994.82 1554.53 2994.82 1549.63C2994.82 1547.89 2995.1 1545.57 2995.68 1542.68L3000.91 1516.47ZM3052.79 1544.16L3052.09 1547.8C3046.39 1553.92 3041.27 1556.98 3036.74 1556.98C3032.99 1556.98 3031.11 1555.01 3031.11 1551.08C3031.11 1549.75 3031.41 1547.56 3032.01 1544.52L3034.71 1530.92C3035.44 1527.07 3035.8 1524.5 3035.8 1523.23C3035.8 1521.04 3034.95 1519.95 3033.26 1519.95C3032.09 1519.95 3029.99 1520.4 3026.97 1521.31L3027.44 1518.89L3046.54 1512.64L3043.57 1525.14L3039.75 1544.44C3039.15 1547.46 3038.85 1549.39 3038.85 1550.22C3038.85 1551.91 3039.61 1552.76 3041.15 1552.76C3043.73 1552.76 3047.61 1549.89 3052.79 1544.16ZM3038.46 1505.84L3041.07 1500.53L3052.09 1493.34L3048.73 1500.53L3038.46 1505.84ZM3030.26 1581.51L3035.84 1575.69C3038.34 1576.7 3040.9 1577.21 3043.5 1577.21C3047.22 1577.21 3050.09 1575.95 3052.09 1573.42C3054.13 1570.9 3055.64 1566.72 3056.63 1560.88L3064.13 1516.47H3055.38L3058.11 1513.58H3064.71L3064.83 1513.07C3066.31 1505.52 3069.74 1499.39 3075.1 1494.67C3080.47 1489.93 3086.69 1487.56 3093.77 1487.56C3096.04 1487.56 3098.14 1487.78 3100.06 1488.23L3094.48 1494.16C3092.06 1492.65 3089.57 1491.9 3087.02 1491.9C3083.11 1491.9 3080.21 1493.06 3078.31 1495.38C3076.4 1497.67 3074.84 1501.89 3073.62 1508.03L3072.48 1513.58H3087.09L3083.93 1517.05C3080.62 1516.66 3077.3 1516.47 3073.97 1516.47H3071.94L3066.23 1550.06C3064.52 1560.27 3061.09 1568.15 3055.96 1573.7C3050.83 1579.24 3044.4 1582.02 3036.66 1582.02C3034.63 1582.02 3032.5 1581.85 3030.26 1581.51ZM3112.8 1544.16L3112.1 1547.8C3106.4 1553.92 3101.28 1556.98 3096.75 1556.98C3093 1556.98 3091.12 1555.01 3091.12 1551.08C3091.12 1549.75 3091.42 1547.56 3092.02 1544.52L3094.72 1530.92C3095.45 1527.07 3095.81 1524.5 3095.81 1523.23C3095.81 1521.04 3094.96 1519.95 3093.27 1519.95C3092.1 1519.95 3090 1520.4 3086.98 1521.31L3087.45 1518.89L3106.55 1512.64L3103.58 1525.14L3099.76 1544.44C3099.16 1547.46 3098.86 1549.39 3098.86 1550.22C3098.86 1551.91 3099.63 1552.76 3101.16 1552.76C3103.74 1552.76 3107.62 1549.89 3112.8 1544.16ZM3098.47 1505.84L3101.08 1500.53L3112.1 1493.34L3108.74 1500.53L3098.47 1505.84ZM3148.9 1545.26L3148.32 1548.3C3139.77 1554.09 3132.77 1556.98 3127.3 1556.98C3123.52 1556.98 3120.49 1555.7 3118.2 1553.15C3115.91 1550.6 3114.76 1547.22 3114.76 1543.03C3114.76 1535.45 3117.63 1528.5 3123.35 1522.17C3129.08 1515.82 3135.39 1512.64 3142.26 1512.64C3145.28 1512.64 3148.29 1513.3 3151.28 1514.63L3148.67 1524.67H3146.25L3146.36 1524.09C3146.62 1522.86 3146.75 1521.96 3146.75 1521.39C3146.75 1517.8 3144.32 1516 3139.45 1516C3134.87 1516 3131.05 1518.45 3128 1523.34C3124.96 1528.24 3123.43 1534.39 3123.43 1541.78C3123.43 1548.84 3126.06 1552.37 3131.32 1552.37C3136.32 1552.37 3142.18 1550 3148.9 1545.26ZM3187.66 1534.79H3186.95C3184.01 1541.33 3180.47 1546.66 3176.33 1550.8C3172.19 1554.92 3168.31 1556.98 3164.69 1556.98C3159.19 1556.98 3156.45 1553.54 3156.45 1546.66C3156.45 1539.09 3159.47 1531.66 3165.51 1524.4C3171.76 1516.87 3179.39 1513.11 3188.4 1513.11C3192.12 1513.11 3196.02 1513.27 3200.08 1513.58L3197.27 1525.14L3193.48 1544.44C3192.88 1547.46 3192.58 1549.41 3192.58 1550.3C3192.58 1551.94 3193.35 1552.76 3194.88 1552.76C3197.49 1552.76 3201.37 1549.89 3206.52 1544.16L3205.82 1547.8C3200.12 1553.92 3195 1556.98 3190.47 1556.98C3186.69 1556.98 3184.81 1555.01 3184.81 1551.08C3184.81 1549.78 3185.12 1547.56 3185.74 1544.44L3187.66 1534.79ZM3190.78 1519.16C3187.5 1517.71 3184.26 1516.98 3181.06 1516.98C3176.32 1516.98 3172.53 1519.97 3169.69 1525.96C3166.35 1533.04 3164.69 1539.41 3164.69 1545.06C3164.69 1549.15 3165.89 1551.2 3168.28 1551.2C3170.52 1551.2 3173.74 1548.85 3177.93 1544.16C3182.15 1539.45 3185.85 1534.07 3189.02 1528.03L3190.78 1519.16ZM3219.07 1516.47H3210.12L3212.82 1513.58H3219.62L3221.84 1502.52L3229.93 1500.57L3227.35 1513.58H3242.08L3238.87 1517.02C3235.51 1516.65 3232.53 1516.47 3229.93 1516.47H3226.76L3221.45 1543.23C3220.9 1545.99 3220.63 1547.93 3220.63 1549.05C3220.63 1551.1 3221.54 1552.13 3223.37 1552.13C3226.18 1552.13 3230.02 1550.05 3234.89 1545.88L3234.19 1549.48C3229.13 1554.48 3224.28 1556.98 3219.62 1556.98C3215.19 1556.98 3212.97 1554.53 3212.97 1549.63C3212.97 1547.89 3213.26 1545.57 3213.83 1542.68L3219.07 1516.47ZM3278.41 1545.34L3277.82 1548.34C3269.54 1554.1 3262.49 1556.98 3256.65 1556.98C3252.95 1556.98 3249.95 1555.69 3247.63 1553.11C3245.34 1550.51 3244.19 1547.15 3244.19 1543.03C3244.19 1535.69 3247 1528.79 3252.63 1522.33C3258.25 1515.84 3264.26 1512.6 3270.64 1512.6C3272.95 1512.6 3274.83 1513.38 3276.26 1514.95C3277.69 1516.51 3278.41 1518.54 3278.41 1521.04C3278.41 1526.04 3275.86 1530.34 3270.75 1533.93C3265.65 1537.52 3259.56 1539.32 3252.47 1539.32L3252.43 1541.08C3252.43 1548.68 3255.22 1552.48 3260.79 1552.48C3265.61 1552.48 3271.48 1550.1 3278.41 1545.34ZM3252.55 1536.9C3258.38 1536.43 3262.94 1534.93 3266.22 1532.41C3269.5 1529.85 3271.14 1526.56 3271.14 1522.52C3271.14 1518.54 3269.7 1516.55 3266.81 1516.55C3263.68 1516.55 3260.66 1518.63 3257.75 1522.8C3254.83 1526.94 3253.1 1531.64 3252.55 1536.9ZM3337.99 1544.16L3337.29 1547.8C3331.58 1553.92 3326.47 1556.98 3321.94 1556.98C3318.19 1556.98 3316.31 1555.01 3316.31 1551.08C3316.31 1549.75 3316.61 1547.56 3317.21 1544.52L3319.9 1530.92C3320.63 1527.07 3321 1524.5 3321 1523.23C3321 1521.04 3320.15 1519.95 3318.46 1519.95C3317.29 1519.95 3315.19 1520.4 3312.17 1521.31L3312.64 1518.89L3331.74 1512.64L3328.77 1525.14L3324.94 1544.44C3324.34 1547.46 3324.05 1549.39 3324.05 1550.22C3324.05 1551.91 3324.81 1552.76 3326.35 1552.76C3328.93 1552.76 3332.81 1549.89 3337.99 1544.16ZM3323.65 1505.84L3326.27 1500.53L3337.29 1493.34L3333.93 1500.53L3323.65 1505.84ZM3334.79 1554.67L3339.91 1549.4C3343.3 1551.87 3346.75 1553.11 3350.26 1553.11C3352.42 1553.11 3354.25 1552.55 3355.73 1551.43C3357.21 1550.28 3357.96 1548.88 3357.96 1547.21C3357.96 1545.36 3356.49 1542.84 3353.54 1539.63L3349.99 1535.73C3346.52 1531.92 3344.79 1528.75 3344.79 1526.2C3344.79 1522.65 3346.47 1519.52 3349.83 1516.78C3353.19 1514.02 3357.03 1512.64 3361.36 1512.64C3363.73 1512.64 3366.38 1513.14 3369.32 1514.12L3367.61 1522.76H3365.14L3365.26 1522.09C3365.31 1521.86 3365.34 1521.59 3365.34 1521.27C3365.34 1517.76 3363.07 1516 3358.54 1516C3353.46 1516 3350.93 1518.03 3350.93 1522.09C3350.93 1524.15 3352.44 1526.89 3355.46 1530.3L3358.66 1533.85C3362.15 1537.78 3363.89 1541.01 3363.89 1543.54C3363.89 1547.03 3362.05 1550.14 3358.35 1552.88C3354.65 1555.61 3350.44 1556.98 3345.73 1556.98C3342.42 1556.98 3338.78 1556.21 3334.79 1554.67ZM3375.27 1581.31L3380.55 1575.73C3383.2 1577.03 3385.96 1577.68 3388.83 1577.68C3395.47 1577.68 3399.88 1572.18 3402.07 1561.2L3408.08 1530.92C3408.79 1527.07 3409.14 1524.5 3409.14 1523.23C3409.14 1521.04 3408.31 1519.95 3406.64 1519.95C3405.44 1519.95 3403.33 1520.4 3400.31 1521.31L3400.82 1518.89L3419.88 1512.64L3416.91 1525.26L3415 1534.79H3415.66C3418.63 1528.23 3422.17 1522.9 3426.29 1518.81C3430.43 1514.7 3434.31 1512.64 3437.93 1512.64C3443.48 1512.64 3446.25 1516.08 3446.25 1522.95C3446.25 1531 3443.07 1538.62 3436.72 1545.8C3430.39 1552.99 3423.67 1556.59 3416.56 1556.59C3415.83 1556.59 3414.35 1556.44 3412.11 1556.16C3411.82 1556.13 3411.38 1556.08 3410.78 1556C3408.72 1564.41 3405.16 1570.84 3400.08 1575.3C3395.02 1579.78 3388.75 1582.02 3381.25 1582.02C3379.37 1582.02 3377.38 1581.78 3375.27 1581.31ZM3411.87 1550.49C3415.13 1551.92 3418.38 1552.64 3421.64 1552.64C3426.35 1552.64 3430.13 1549.65 3432.97 1543.66C3436.33 1536.57 3438.01 1530.21 3438.01 1524.55C3438.01 1520.47 3436.8 1518.42 3434.37 1518.42C3432.16 1518.42 3428.96 1520.78 3424.76 1525.49C3420.57 1530.18 3416.86 1535.56 3413.63 1541.62L3411.87 1550.49ZM3454.57 1556.47L3457.47 1544.44L3461.25 1525.34C3461.64 1523.41 3461.84 1521.74 3461.84 1520.34C3461.84 1518.1 3461.06 1516.98 3459.5 1516.98C3456.74 1516.98 3452.79 1519.92 3447.66 1525.8L3448.36 1522.33C3454.38 1515.84 3459.6 1512.6 3464.03 1512.6C3467.78 1512.6 3469.65 1514.75 3469.65 1519.05C3469.65 1520.95 3469.42 1523.06 3468.95 1525.38L3467.07 1534.79H3467.58C3470.68 1528.28 3474.34 1522.97 3478.56 1518.85C3482.8 1514.71 3486.68 1512.64 3490.2 1512.64C3492.02 1512.64 3493.65 1513.04 3495.08 1513.85L3489.89 1520.88C3488.35 1519.87 3487.05 1519.36 3485.98 1519.36C3480.9 1519.36 3474.14 1526.82 3465.71 1541.74L3462.86 1556L3454.57 1556.47ZM3507 1556.98C3503.59 1556.98 3500.74 1555.65 3498.45 1552.99C3496.18 1550.31 3495.05 1546.98 3495.05 1542.99C3495.05 1535.49 3497.89 1528.57 3503.56 1522.21C3509.24 1515.83 3515.43 1512.64 3522.12 1512.64C3525.74 1512.64 3528.72 1513.94 3531.06 1516.55C3533.41 1519.15 3534.58 1522.47 3534.58 1526.51C3534.58 1534.29 3531.74 1541.33 3526.06 1547.6C3520.39 1553.85 3514.03 1556.98 3507 1556.98ZM3511.45 1553.58C3515.31 1553.58 3518.69 1551.1 3521.61 1546.16C3524.55 1541.18 3526.03 1535.41 3526.03 1528.85C3526.03 1520.23 3523.39 1515.92 3518.13 1515.92C3514.41 1515.92 3511.05 1518.49 3508.06 1523.62C3505.09 1528.72 3503.6 1534.48 3503.6 1540.88C3503.6 1549.35 3506.22 1553.58 3511.45 1553.58ZM3573.73 1534.79H3573.06C3565.67 1549.58 3558.45 1556.98 3551.42 1556.98C3547.25 1556.98 3545.17 1554.52 3545.17 1549.59C3545.17 1548.19 3545.38 1546.43 3545.8 1544.32L3549.59 1525.14C3550.18 1522.15 3550.48 1520.19 3550.48 1519.28C3550.48 1517.67 3549.72 1516.86 3548.18 1516.86C3545.63 1516.86 3541.75 1519.71 3536.54 1525.41L3537.24 1521.82C3542.92 1515.7 3548.04 1512.64 3552.59 1512.64C3556.37 1512.64 3558.26 1514.59 3558.26 1518.5C3558.26 1519.8 3557.94 1522.02 3557.32 1525.14L3553.49 1544.36C3553.15 1546.08 3552.98 1547.3 3552.98 1548.03C3552.98 1550.14 3553.75 1551.2 3555.29 1551.2C3557.24 1551.2 3560.2 1548.84 3564.16 1544.12C3568.14 1539.39 3571.8 1533.88 3575.13 1527.6L3577.94 1513.58L3586.23 1513.11L3583.34 1525.14L3579.51 1544.44C3578.91 1547.43 3578.61 1549.39 3578.61 1550.3C3578.61 1551.94 3579.38 1552.76 3580.91 1552.76C3583.49 1552.76 3587.37 1549.89 3592.55 1544.16L3591.85 1547.8C3586.15 1553.92 3581.03 1556.98 3576.5 1556.98C3572.72 1556.98 3570.84 1555.01 3570.84 1551.08C3570.84 1549.75 3571.15 1547.54 3571.77 1544.44L3573.73 1534.79ZM3625.18 1534.79H3624.47C3621.48 1541.35 3617.92 1546.69 3613.81 1550.8C3609.69 1554.92 3605.84 1556.98 3602.25 1556.98C3596.73 1556.98 3593.97 1553.53 3593.97 1546.62C3593.97 1541.94 3595.31 1537.03 3597.99 1531.9C3600.7 1526.77 3604.19 1522.46 3608.46 1518.97C3611.32 1516.65 3614.19 1515.1 3617.05 1514.32C3619.92 1513.51 3624.07 1513.11 3629.51 1513.11C3631.05 1507.95 3632.65 1504.02 3634.32 1501.31C3635.98 1498.58 3638.33 1496.03 3641.35 1493.66C3646.5 1489.59 3652.19 1487.56 3658.42 1487.56C3661 1487.56 3663.34 1487.84 3665.45 1488.38L3660.1 1493.93C3657 1492.58 3654.37 1491.9 3652.21 1491.9C3648.04 1491.9 3644.9 1493.42 3642.79 1496.47C3640.68 1499.49 3638.8 1505.17 3637.13 1513.5L3631 1544.44C3630.37 1547.46 3630.06 1549.39 3630.06 1550.22C3630.06 1551.91 3630.83 1552.76 3632.36 1552.76C3634.97 1552.76 3638.86 1549.89 3644.04 1544.16L3643.3 1547.8C3637.62 1553.92 3632.52 1556.98 3627.99 1556.98C3624.21 1556.98 3622.32 1555.01 3622.32 1551.08C3622.32 1549.8 3622.64 1547.59 3623.26 1544.44L3625.18 1534.79ZM3628.3 1519.16C3625.07 1517.71 3621.82 1516.98 3618.54 1516.98C3613.82 1516.98 3610.05 1519.97 3607.21 1525.96C3603.85 1533.04 3602.17 1539.41 3602.17 1545.06C3602.17 1549.15 3603.38 1551.2 3605.8 1551.2C3608.04 1551.2 3611.26 1548.84 3615.45 1544.12C3619.67 1539.41 3623.37 1534.03 3626.54 1527.99L3628.3 1519.16ZM3670.14 1543.97L3669.44 1547.56C3663.29 1553.84 3658.01 1556.98 3653.58 1556.98C3649.88 1556.98 3648.03 1554.98 3648.03 1551C3648.03 1549.36 3648.31 1547.16 3648.85 1544.4L3654.21 1517.45C3656.08 1508.02 3659.61 1500.69 3664.79 1495.45C3670 1490.19 3676.33 1487.56 3683.78 1487.56C3686.38 1487.56 3688.72 1487.84 3690.81 1488.38L3685.46 1493.97C3682.43 1492.59 3679.83 1491.9 3677.64 1491.9C3673.5 1491.9 3670.39 1493.41 3668.31 1496.43C3666.22 1499.45 3664.35 1505.17 3662.68 1513.58L3656.55 1544.44C3655.95 1547.43 3655.65 1549.39 3655.65 1550.3C3655.65 1551.94 3656.42 1552.76 3657.96 1552.76C3659.7 1552.76 3663.07 1550.44 3668.07 1545.8C3668.46 1545.44 3669.15 1544.83 3670.14 1543.97ZM3674.09 1580.88L3679.48 1575.41C3682.06 1576.92 3684.82 1577.68 3687.77 1577.68C3691.38 1577.68 3694.2 1576.39 3696.2 1573.81C3698.23 1571.23 3700.07 1566.55 3701.71 1559.75L3707.77 1534.79H3707.26C3704.21 1540.99 3701.11 1546.08 3697.96 1550.06C3694.81 1554.02 3692.32 1556 3690.5 1556C3688.6 1556 3687.17 1554.98 3686.2 1552.95C3685.27 1550.9 3684.44 1547.09 3683.74 1541.55L3681.87 1526.35C3681.16 1520.73 3679.98 1517.91 3678.31 1517.91C3676.7 1517.91 3674.08 1520.19 3670.46 1524.75L3671.24 1520.77C3675.33 1515.35 3679.2 1512.64 3682.84 1512.64C3684.93 1512.64 3686.41 1513.58 3687.3 1515.45C3688.18 1517.33 3689.02 1521.27 3689.8 1527.29L3691.44 1540.34C3692.04 1545 3693.03 1547.33 3694.41 1547.33C3696.02 1547.33 3698.3 1545.08 3701.24 1540.57C3701.76 1539.74 3704.67 1534.91 3709.95 1526.08L3712.92 1513.58L3721.24 1513.11L3717.77 1525.3L3710.93 1553.07C3708.61 1562.47 3704.91 1569.65 3699.84 1574.59C3694.78 1579.54 3688.59 1582.02 3681.24 1582.02C3678.46 1582.02 3676.07 1581.64 3674.09 1580.88ZM3727.03 1581.31L3732.31 1575.73C3734.96 1577.03 3737.72 1577.68 3740.59 1577.68C3747.23 1577.68 3751.64 1572.18 3753.83 1561.2L3759.85 1530.92C3760.55 1527.07 3760.9 1524.5 3760.9 1523.23C3760.9 1521.04 3760.07 1519.95 3758.4 1519.95C3757.2 1519.95 3755.09 1520.4 3752.07 1521.31L3752.58 1518.89L3771.64 1512.64L3768.67 1525.26L3766.76 1534.79H3767.42C3770.39 1528.23 3773.93 1522.9 3778.05 1518.81C3782.19 1514.7 3786.07 1512.64 3789.69 1512.64C3795.24 1512.64 3798.01 1516.08 3798.01 1522.95C3798.01 1531 3794.83 1538.62 3788.48 1545.8C3782.15 1552.99 3775.43 1556.59 3768.32 1556.59C3767.59 1556.59 3766.11 1556.44 3763.87 1556.16C3763.58 1556.13 3763.14 1556.08 3762.54 1556C3760.48 1564.41 3756.92 1570.84 3751.84 1575.3C3746.79 1579.78 3740.51 1582.02 3733.01 1582.02C3731.14 1582.02 3729.14 1581.78 3727.03 1581.31ZM3763.64 1550.49C3766.89 1551.92 3770.15 1552.64 3773.4 1552.64C3778.11 1552.64 3781.89 1549.65 3784.73 1543.66C3788.09 1536.57 3789.77 1530.21 3789.77 1524.55C3789.77 1520.47 3788.56 1518.42 3786.14 1518.42C3783.92 1518.42 3780.72 1520.78 3776.53 1525.49C3772.33 1530.18 3768.62 1535.56 3765.39 1541.62L3763.64 1550.49ZM3806.34 1556.47L3809.23 1544.44L3813.02 1525.34C3813.41 1523.41 3813.6 1521.74 3813.6 1520.34C3813.6 1518.1 3812.82 1516.98 3811.26 1516.98C3808.5 1516.98 3804.55 1519.92 3799.42 1525.8L3800.12 1522.33C3806.14 1515.84 3811.36 1512.6 3815.79 1512.6C3819.54 1512.6 3821.41 1514.75 3821.41 1519.05C3821.41 1520.95 3821.18 1523.06 3820.71 1525.38L3818.84 1534.79H3819.34C3822.44 1528.28 3826.1 1522.97 3830.32 1518.85C3834.56 1514.71 3838.45 1512.64 3841.96 1512.64C3843.78 1512.64 3845.41 1513.04 3846.84 1513.85L3841.65 1520.88C3840.11 1519.87 3838.81 1519.36 3837.74 1519.36C3832.66 1519.36 3825.91 1526.82 3817.47 1541.74L3814.62 1556L3806.34 1556.47ZM3881.03 1545.34L3880.44 1548.34C3872.16 1554.1 3865.1 1556.98 3859.27 1556.98C3855.57 1556.98 3852.57 1555.69 3850.25 1553.11C3847.96 1550.51 3846.81 1547.15 3846.81 1543.03C3846.81 1535.69 3849.62 1528.79 3855.25 1522.33C3860.87 1515.84 3866.87 1512.6 3873.26 1512.6C3875.57 1512.6 3877.45 1513.38 3878.88 1514.95C3880.31 1516.51 3881.03 1518.54 3881.03 1521.04C3881.03 1526.04 3878.48 1530.34 3873.37 1533.93C3868.27 1537.52 3862.17 1539.32 3855.09 1539.32L3855.05 1541.08C3855.05 1548.68 3857.84 1552.48 3863.41 1552.48C3868.23 1552.48 3874.1 1550.1 3881.03 1545.34ZM3855.17 1536.9C3861 1536.43 3865.56 1534.93 3868.84 1532.41C3872.12 1529.85 3873.76 1526.56 3873.76 1522.52C3873.76 1518.54 3872.32 1516.55 3869.43 1516.55C3866.3 1516.55 3863.28 1518.63 3860.36 1522.8C3857.45 1526.94 3855.72 1531.64 3855.17 1536.9ZM3883.57 1554.67L3888.69 1549.4C3892.08 1551.87 3895.53 1553.11 3899.04 1553.11C3901.2 1553.11 3903.03 1552.55 3904.51 1551.43C3905.99 1550.28 3906.74 1548.88 3906.74 1547.21C3906.74 1545.36 3905.27 1542.84 3902.32 1539.63L3898.77 1535.73C3895.3 1531.92 3893.57 1528.75 3893.57 1526.2C3893.57 1522.65 3895.25 1519.52 3898.61 1516.78C3901.97 1514.02 3905.81 1512.64 3910.14 1512.64C3912.51 1512.64 3915.16 1513.14 3918.1 1514.12L3916.39 1522.76H3913.92L3914.04 1522.09C3914.09 1521.86 3914.12 1521.59 3914.12 1521.27C3914.12 1517.76 3911.85 1516 3907.32 1516C3902.24 1516 3899.71 1518.03 3899.71 1522.09C3899.71 1524.15 3901.22 1526.89 3904.24 1530.3L3907.44 1533.85C3910.93 1537.78 3912.67 1541.01 3912.67 1543.54C3912.67 1547.03 3910.83 1550.14 3907.13 1552.88C3903.43 1555.61 3899.22 1556.98 3894.51 1556.98C3891.2 1556.98 3887.56 1556.21 3883.57 1554.67ZM3957.6 1545.34L3957.02 1548.34C3948.73 1554.1 3941.68 1556.98 3935.84 1556.98C3932.15 1556.98 3929.14 1555.69 3926.82 1553.11C3924.53 1550.51 3923.38 1547.15 3923.38 1543.03C3923.38 1535.69 3926.2 1528.79 3931.82 1522.33C3937.45 1515.84 3943.45 1512.6 3949.83 1512.6C3952.15 1512.6 3954.02 1513.38 3955.45 1514.95C3956.89 1516.51 3957.6 1518.54 3957.6 1521.04C3957.6 1526.04 3955.05 1530.34 3949.95 1533.93C3944.84 1537.52 3938.75 1539.32 3931.66 1539.32L3931.62 1541.08C3931.62 1548.68 3934.41 1552.48 3939.98 1552.48C3944.8 1552.48 3950.67 1550.1 3957.6 1545.34ZM3931.74 1536.9C3937.58 1536.43 3942.13 1534.93 3945.41 1532.41C3948.7 1529.85 3950.34 1526.56 3950.34 1522.52C3950.34 1518.54 3948.89 1516.55 3946 1516.55C3942.88 1516.55 3939.85 1518.63 3936.94 1522.8C3934.02 1526.94 3932.29 1531.64 3931.74 1536.9ZM3967.96 1556.47L3970.85 1544.44L3974.68 1525.14C3975.28 1522.15 3975.58 1520.19 3975.58 1519.28C3975.58 1517.67 3974.81 1516.86 3973.27 1516.86C3970.72 1516.86 3966.84 1519.71 3961.63 1525.41L3962.33 1521.82C3968.01 1515.7 3973.13 1512.64 3977.69 1512.64C3981.44 1512.64 3983.31 1514.59 3983.31 1518.5C3983.31 1519.83 3983.01 1522.04 3982.41 1525.14L3980.5 1534.79H3981.08C3984.34 1528.12 3988.01 1522.77 3992.1 1518.73C3996.21 1514.67 4000.04 1512.64 4003.58 1512.64C4007.85 1512.64 4009.99 1515.01 4009.99 1519.75C4009.99 1521.29 4009.77 1523.16 4009.33 1525.38L4005.54 1544.44C4004.94 1547.46 4004.64 1549.41 4004.64 1550.3C4004.64 1551.94 4005.41 1552.76 4006.94 1552.76C4009.55 1552.76 4013.44 1549.89 4018.62 1544.16L4017.88 1547.8C4012.2 1553.92 4007.09 1556.98 4002.53 1556.98C3998.78 1556.98 3996.9 1555.01 3996.9 1551.08C3996.9 1549.78 3997.22 1547.56 3997.84 1544.44L4001.63 1525.3C4001.94 1523.81 4002.1 1522.56 4002.1 1521.55C4002.1 1519.44 4001.32 1518.38 3999.76 1518.38C3994.78 1518.38 3987.88 1526.27 3979.05 1542.05L3976.2 1556L3967.96 1556.47ZM4030.66 1516.47H4021.71L4024.41 1513.58H4031.21L4033.43 1502.52L4041.52 1500.57L4038.94 1513.58H4053.67L4050.46 1517.02C4047.1 1516.65 4044.12 1516.47 4041.52 1516.47H4038.35L4033.04 1543.23C4032.5 1545.99 4032.22 1547.93 4032.22 1549.05C4032.22 1551.1 4033.13 1552.13 4034.96 1552.13C4037.77 1552.13 4041.61 1550.05 4046.48 1545.88L4045.78 1549.48C4040.72 1554.48 4035.87 1556.98 4031.21 1556.98C4026.78 1556.98 4024.57 1554.53 4024.57 1549.63C4024.57 1547.89 4024.85 1545.57 4025.42 1542.68L4030.66 1516.47ZM4090 1545.34L4089.41 1548.34C4081.13 1554.1 4074.08 1556.98 4068.24 1556.98C4064.54 1556.98 4061.54 1555.69 4059.22 1553.11C4056.93 1550.51 4055.78 1547.15 4055.78 1543.03C4055.78 1535.69 4058.59 1528.79 4064.22 1522.33C4069.84 1515.84 4075.85 1512.6 4082.23 1512.6C4084.54 1512.6 4086.42 1513.38 4087.85 1514.95C4089.28 1516.51 4090 1518.54 4090 1521.04C4090 1526.04 4087.45 1530.34 4082.34 1533.93C4077.24 1537.52 4071.15 1539.32 4064.06 1539.32L4064.02 1541.08C4064.02 1548.68 4066.81 1552.48 4072.38 1552.48C4077.2 1552.48 4083.07 1550.1 4090 1545.34ZM4064.14 1536.9C4069.97 1536.43 4074.53 1534.93 4077.81 1532.41C4081.09 1529.85 4082.73 1526.56 4082.73 1522.52C4082.73 1518.54 4081.29 1516.55 4078.4 1516.55C4075.27 1516.55 4072.25 1518.63 4069.34 1522.8C4066.42 1526.94 4064.69 1531.64 4064.14 1536.9ZM4128.29 1534.79H4127.58C4124.59 1541.35 4121.03 1546.69 4116.92 1550.8C4112.81 1554.92 4108.95 1556.98 4105.36 1556.98C4099.84 1556.98 4097.08 1553.53 4097.08 1546.62C4097.08 1541.94 4098.42 1537.03 4101.1 1531.9C4103.81 1526.77 4107.3 1522.46 4111.57 1518.97C4114.43 1516.65 4117.3 1515.1 4120.16 1514.32C4123.03 1513.51 4127.18 1513.11 4132.62 1513.11C4134.16 1507.95 4135.76 1504.02 4137.43 1501.31C4139.09 1498.58 4141.44 1496.03 4144.46 1493.66C4149.61 1489.59 4155.31 1487.56 4161.53 1487.56C4164.11 1487.56 4166.45 1487.84 4168.56 1488.38L4163.21 1493.93C4160.11 1492.58 4157.48 1491.9 4155.32 1491.9C4151.15 1491.9 4148.01 1493.42 4145.9 1496.47C4143.79 1499.49 4141.91 1505.17 4140.24 1513.5L4134.11 1544.44C4133.48 1547.46 4133.17 1549.39 4133.17 1550.22C4133.17 1551.91 4133.94 1552.76 4135.47 1552.76C4138.08 1552.76 4141.97 1549.89 4147.15 1544.16L4146.41 1547.8C4140.73 1553.92 4135.63 1556.98 4131.1 1556.98C4127.32 1556.98 4125.44 1555.01 4125.44 1551.08C4125.44 1549.8 4125.75 1547.59 4126.37 1544.44L4128.29 1534.79ZM4131.41 1519.16C4128.18 1517.71 4124.93 1516.98 4121.65 1516.98C4116.93 1516.98 4113.16 1519.97 4110.32 1525.96C4106.96 1533.04 4105.28 1539.41 4105.28 1545.06C4105.28 1549.15 4106.49 1551.2 4108.91 1551.2C4111.15 1551.2 4114.37 1548.84 4118.56 1544.12C4122.78 1539.41 4126.48 1534.03 4129.65 1527.99L4131.41 1519.16ZM4184.74 1516.47H4175.8L4178.49 1513.58H4185.29L4187.52 1502.52L4195.6 1500.57L4193.02 1513.58H4207.75L4204.55 1517.02C4201.19 1516.65 4198.21 1516.47 4195.6 1516.47H4192.44L4187.13 1543.23C4186.58 1545.99 4186.31 1547.93 4186.31 1549.05C4186.31 1551.1 4187.22 1552.13 4189.04 1552.13C4191.85 1552.13 4195.69 1550.05 4200.56 1545.88L4199.86 1549.48C4194.81 1554.48 4189.95 1556.98 4185.29 1556.98C4180.86 1556.98 4178.65 1554.53 4178.65 1549.63C4178.65 1547.89 4178.94 1545.57 4179.51 1542.68L4184.74 1516.47ZM4221.82 1556.98C4218.41 1556.98 4215.56 1555.65 4213.26 1552.99C4211 1550.31 4209.87 1546.98 4209.87 1542.99C4209.87 1535.49 4212.7 1528.57 4218.38 1522.21C4224.06 1515.83 4230.24 1512.64 4236.94 1512.64C4240.56 1512.64 4243.54 1513.94 4245.88 1516.55C4248.22 1519.15 4249.4 1522.47 4249.4 1526.51C4249.4 1534.29 4246.56 1541.33 4240.88 1547.6C4235.2 1553.85 4228.85 1556.98 4221.82 1556.98ZM4226.27 1553.58C4230.13 1553.58 4233.51 1551.1 4236.43 1546.16C4239.37 1541.18 4240.84 1535.41 4240.84 1528.85C4240.84 1520.23 4238.21 1515.92 4232.95 1515.92C4229.23 1515.92 4225.87 1518.49 4222.87 1523.62C4219.9 1528.72 4218.42 1534.48 4218.42 1540.88C4218.42 1549.35 4221.04 1553.58 4226.27 1553.58Z" fill="black"/>
</svg>
