<svg width="6900" height="5209" viewBox="0 0 6900 5209" fill="none" xmlns="http://www.w3.org/2000/svg">
<path d="M1969.92 1252H1947.91L1939.16 1229.24H1899.1L1890.83 1252H1869.37L1908.4 1151.79H1929.8L1969.92 1252ZM1932.67 1212.35L1918.86 1175.16L1905.32 1212.35H1932.67ZM1983.03 1252V1151.79H2025.62C2036.33 1151.79 2044.1 1152.7 2048.93 1154.52C2053.81 1156.3 2057.7 1159.49 2060.62 1164.09C2063.54 1168.69 2065 1173.96 2065 1179.88C2065 1187.4 2062.79 1193.62 2058.37 1198.54C2053.95 1203.42 2047.34 1206.5 2038.54 1207.77C2042.92 1210.32 2046.52 1213.13 2049.34 1216.18C2052.21 1219.23 2056.06 1224.66 2060.9 1232.45L2073.13 1252H2048.93L2034.3 1230.19C2029.11 1222.4 2025.55 1217.5 2023.64 1215.5C2021.73 1213.45 2019.7 1212.06 2017.56 1211.33C2015.41 1210.55 2012.02 1210.16 2007.37 1210.16H2003.27V1252H1983.03ZM2003.27 1194.17H2018.24C2027.95 1194.17 2034.01 1193.76 2036.42 1192.94C2038.84 1192.12 2040.73 1190.7 2042.1 1188.7C2043.46 1186.69 2044.15 1184.19 2044.15 1181.18C2044.15 1177.81 2043.24 1175.1 2041.41 1173.04C2039.64 1170.95 2037.11 1169.63 2033.82 1169.08C2032.18 1168.85 2027.26 1168.74 2019.06 1168.74H2003.27V1194.17ZM2086.1 1252V1151.79H2116.39L2134.57 1220.14L2152.55 1151.79H2182.9V1252H2164.1V1173.11L2144.21 1252H2124.73L2104.9 1173.11V1252H2086.1ZM2205.24 1252V1151.79H2279.54V1168.74H2225.47V1190.96H2275.79V1207.84H2225.47V1235.12H2281.46V1252H2205.24ZM2300.79 1151.79H2337.77C2346.11 1151.79 2352.47 1152.42 2356.84 1153.7C2362.72 1155.43 2367.76 1158.51 2371.95 1162.93C2376.14 1167.35 2379.33 1172.77 2381.52 1179.2C2383.71 1185.58 2384.8 1193.46 2384.8 1202.85C2384.8 1211.1 2383.78 1218.21 2381.73 1224.18C2379.22 1231.47 2375.64 1237.37 2370.99 1241.88C2367.48 1245.3 2362.75 1247.97 2356.78 1249.88C2352.31 1251.29 2346.34 1252 2338.87 1252H2300.79V1151.79ZM2321.02 1168.74V1235.12H2336.13C2341.78 1235.12 2345.86 1234.8 2348.37 1234.16C2351.65 1233.34 2354.36 1231.95 2356.5 1229.99C2358.69 1228.03 2360.47 1224.82 2361.83 1220.35C2363.2 1215.84 2363.88 1209.71 2363.88 1201.96C2363.88 1194.21 2363.2 1188.27 2361.83 1184.12C2360.47 1179.97 2358.55 1176.74 2356.09 1174.41C2353.63 1172.09 2350.51 1170.52 2346.73 1169.7C2343.9 1169.06 2338.36 1168.74 2330.12 1168.74H2321.02ZM2399.14 1219.39L2418.83 1217.48C2420.01 1224.09 2422.41 1228.94 2426.01 1232.04C2429.65 1235.14 2434.55 1236.69 2440.7 1236.69C2447.22 1236.69 2452.12 1235.32 2455.4 1232.59C2458.73 1229.81 2460.39 1226.57 2460.39 1222.88C2460.39 1220.51 2459.69 1218.5 2458.27 1216.86C2456.91 1215.18 2454.49 1213.72 2451.03 1212.49C2448.66 1211.67 2443.26 1210.21 2434.83 1208.11C2423.98 1205.42 2416.37 1202.12 2411.99 1198.2C2405.84 1192.69 2402.77 1185.96 2402.77 1178.04C2402.77 1172.93 2404.2 1168.17 2407.07 1163.75C2409.99 1159.28 2414.16 1155.89 2419.58 1153.56C2425.05 1151.24 2431.64 1150.08 2439.34 1150.08C2451.92 1150.08 2461.37 1152.83 2467.71 1158.35C2474.09 1163.86 2477.44 1171.22 2477.76 1180.43L2457.52 1181.32C2456.66 1176.17 2454.79 1172.48 2451.92 1170.24C2449.09 1167.96 2444.83 1166.82 2439.13 1166.82C2433.25 1166.82 2428.65 1168.03 2425.32 1170.45C2423.18 1172 2422.11 1174.07 2422.11 1176.67C2422.11 1179.04 2423.11 1181.07 2425.12 1182.75C2427.67 1184.89 2433.87 1187.13 2443.71 1189.45C2453.56 1191.78 2460.83 1194.19 2465.52 1196.7C2470.26 1199.16 2473.95 1202.55 2476.59 1206.88C2479.28 1211.17 2480.63 1216.48 2480.63 1222.81C2480.63 1228.55 2479.03 1233.93 2475.84 1238.94C2472.65 1243.96 2468.14 1247.69 2462.31 1250.15C2456.47 1252.57 2449.2 1253.78 2440.5 1253.78C2427.83 1253.78 2418.1 1250.86 2411.31 1245.03C2404.52 1239.15 2400.46 1230.6 2399.14 1219.39ZM2590.26 1252H2568.25L2559.5 1229.24H2519.44L2511.17 1252H2489.7L2528.74 1151.79H2550.13L2590.26 1252ZM2553 1212.35L2539.19 1175.16L2525.66 1212.35H2553ZM2603.44 1252V1151.79H2672.14V1168.74H2623.67V1192.46H2665.51V1209.41H2623.67V1252H2603.44ZM2691.13 1252V1151.79H2765.43V1168.74H2711.36V1190.96H2761.67V1207.84H2711.36V1235.12H2767.35V1252H2691.13ZM2822.82 1219.39L2842.51 1217.48C2843.7 1224.09 2846.09 1228.94 2849.69 1232.04C2853.33 1235.14 2858.23 1236.69 2864.39 1236.69C2870.9 1236.69 2875.8 1235.32 2879.08 1232.59C2882.41 1229.81 2884.07 1226.57 2884.07 1222.88C2884.07 1220.51 2883.37 1218.5 2881.95 1216.86C2880.59 1215.18 2878.17 1213.72 2874.71 1212.49C2872.34 1211.67 2866.94 1210.21 2858.51 1208.11C2847.66 1205.42 2840.05 1202.12 2835.67 1198.2C2829.52 1192.69 2826.45 1185.96 2826.45 1178.04C2826.45 1172.93 2827.88 1168.17 2830.75 1163.75C2833.67 1159.28 2837.84 1155.89 2843.26 1153.56C2848.73 1151.24 2855.32 1150.08 2863.02 1150.08C2875.6 1150.08 2885.05 1152.83 2891.39 1158.35C2897.77 1163.86 2901.12 1171.22 2901.44 1180.43L2881.2 1181.32C2880.34 1176.17 2878.47 1172.48 2875.6 1170.24C2872.77 1167.96 2868.51 1166.82 2862.81 1166.82C2856.93 1166.82 2852.33 1168.03 2849 1170.45C2846.86 1172 2845.79 1174.07 2845.79 1176.67C2845.79 1179.04 2846.79 1181.07 2848.8 1182.75C2851.35 1184.89 2857.55 1187.13 2867.39 1189.45C2877.24 1191.78 2884.51 1194.19 2889.2 1196.7C2893.94 1199.16 2897.63 1202.55 2900.27 1206.88C2902.96 1211.17 2904.31 1216.48 2904.31 1222.81C2904.31 1228.55 2902.71 1233.93 2899.52 1238.94C2896.33 1243.96 2891.82 1247.69 2885.99 1250.15C2880.15 1252.57 2872.88 1253.78 2864.18 1253.78C2851.51 1253.78 2841.78 1250.86 2834.99 1245.03C2828.2 1239.15 2824.14 1230.6 2822.82 1219.39ZM2937.79 1201.55L2920.36 1198.41C2922.32 1191.39 2925.69 1186.19 2930.47 1182.82C2935.26 1179.45 2942.37 1177.76 2951.8 1177.76C2960.37 1177.76 2966.75 1178.79 2970.94 1180.84C2975.13 1182.84 2978.07 1185.42 2979.76 1188.56C2981.49 1191.66 2982.36 1197.38 2982.36 1205.72L2982.15 1228.14C2982.15 1234.52 2982.45 1239.24 2983.04 1242.29C2983.68 1245.3 2984.84 1248.54 2986.53 1252H2967.52C2967.02 1250.72 2966.41 1248.83 2965.68 1246.33C2965.36 1245.19 2965.13 1244.43 2964.99 1244.07C2961.71 1247.26 2958.2 1249.65 2954.47 1251.25C2950.73 1252.84 2946.74 1253.64 2942.5 1253.64C2935.03 1253.64 2929.13 1251.61 2924.8 1247.56C2920.52 1243.5 2918.37 1238.37 2918.37 1232.18C2918.37 1228.07 2919.35 1224.43 2921.31 1221.24C2923.27 1218 2926.01 1215.54 2929.52 1213.86C2933.07 1212.12 2938.17 1210.62 2944.83 1209.34C2953.81 1207.66 2960.03 1206.09 2963.49 1204.63V1202.71C2963.49 1199.02 2962.58 1196.4 2960.76 1194.85C2958.93 1193.26 2955.49 1192.46 2950.43 1192.46C2947.02 1192.46 2944.35 1193.14 2942.44 1194.51C2940.52 1195.83 2938.97 1198.18 2937.79 1201.55ZM2963.49 1217.14C2961.03 1217.96 2957.13 1218.94 2951.8 1220.08C2946.47 1221.22 2942.98 1222.33 2941.34 1223.43C2938.84 1225.2 2937.58 1227.46 2937.58 1230.19C2937.58 1232.88 2938.58 1235.21 2940.59 1237.17C2942.6 1239.13 2945.15 1240.11 2948.25 1240.11C2951.71 1240.11 2955.01 1238.97 2958.16 1236.69C2960.48 1234.96 2962.01 1232.84 2962.74 1230.33C2963.24 1228.69 2963.49 1225.57 2963.49 1220.96V1217.14ZM2995.19 1179.4H3005.86V1173.93C3005.86 1167.83 3006.5 1163.27 3007.77 1160.26C3009.09 1157.25 3011.49 1154.82 3014.95 1152.95C3018.46 1151.03 3022.88 1150.08 3028.21 1150.08C3033.68 1150.08 3039.03 1150.9 3044.28 1152.54L3041.68 1165.94C3038.62 1165.21 3035.68 1164.84 3032.86 1164.84C3030.08 1164.84 3028.07 1165.5 3026.84 1166.82C3025.66 1168.1 3025.07 1170.58 3025.07 1174.28V1179.4H3039.42V1194.51H3025.07V1252H3005.86V1194.51H2995.19V1179.4ZM3094.5 1228.89L3113.64 1232.11C3111.18 1239.13 3107.29 1244.48 3101.95 1248.17C3096.67 1251.82 3090.04 1253.64 3082.06 1253.64C3069.44 1253.64 3060.1 1249.52 3054.03 1241.27C3049.25 1234.66 3046.86 1226.32 3046.86 1216.25C3046.86 1204.22 3050 1194.81 3056.29 1188.02C3062.58 1181.18 3070.53 1177.76 3080.15 1177.76C3090.95 1177.76 3099.47 1181.34 3105.71 1188.49C3111.96 1195.6 3114.94 1206.52 3114.67 1221.24H3066.54C3066.68 1226.93 3068.23 1231.38 3071.19 1234.57C3074.16 1237.71 3077.85 1239.29 3082.27 1239.29C3085.28 1239.29 3087.8 1238.46 3089.86 1236.82C3091.91 1235.18 3093.46 1232.54 3094.5 1228.89ZM3095.6 1209.48C3095.46 1203.92 3094.03 1199.71 3091.29 1196.83C3088.56 1193.92 3085.23 1192.46 3081.31 1192.46C3077.12 1192.46 3073.65 1193.99 3070.92 1197.04C3068.19 1200.09 3066.84 1204.24 3066.89 1209.48H3095.6ZM3165.92 1179.4V1194.71H3152.8V1223.97C3152.8 1229.9 3152.91 1233.36 3153.14 1234.36C3153.41 1235.32 3153.98 1236.12 3154.85 1236.76C3155.76 1237.39 3156.85 1237.71 3158.13 1237.71C3159.91 1237.71 3162.48 1237.1 3165.85 1235.87L3167.5 1250.77C3163.03 1252.68 3157.97 1253.64 3152.32 1253.64C3148.86 1253.64 3145.73 1253.07 3142.95 1251.93C3140.17 1250.75 3138.12 1249.24 3136.8 1247.42C3135.53 1245.55 3134.64 1243.04 3134.14 1239.9C3133.73 1237.67 3133.52 1233.16 3133.52 1226.37V1194.71H3124.7V1179.4H3133.52V1164.98L3152.8 1153.77V1179.4H3165.92ZM3172.4 1179.4H3192.84L3210.2 1230.95L3227.16 1179.4H3247.05L3221.42 1249.27L3216.84 1261.91C3215.15 1266.15 3213.53 1269.39 3211.98 1271.62C3210.48 1273.85 3208.72 1275.65 3206.72 1277.02C3204.76 1278.43 3202.32 1279.53 3199.4 1280.3C3196.53 1281.08 3193.27 1281.46 3189.63 1281.46C3185.94 1281.46 3182.31 1281.08 3178.76 1280.3L3177.05 1265.26C3180.06 1265.85 3182.77 1266.15 3185.18 1266.15C3189.65 1266.15 3192.95 1264.83 3195.1 1262.19C3197.24 1259.59 3198.88 1256.26 3200.02 1252.21L3172.4 1179.4ZM3391.67 1239.76L3380.05 1254.6C3374.35 1251.82 3368.88 1247.99 3363.64 1243.11C3359.58 1246.76 3355.28 1249.45 3350.72 1251.18C3346.16 1252.91 3340.74 1253.78 3334.45 1253.78C3321.96 1253.78 3312.57 1250.27 3306.29 1243.25C3301.41 1237.83 3298.97 1231.58 3298.97 1224.52C3298.97 1218.09 3300.89 1212.33 3304.71 1207.22C3308.54 1202.07 3314.26 1197.61 3321.87 1193.83C3318.45 1189.77 3315.88 1185.92 3314.15 1182.27C3312.42 1178.58 3311.55 1175.1 3311.55 1171.81C3311.55 1165.75 3313.96 1160.63 3318.8 1156.43C3323.67 1152.2 3330.6 1150.08 3339.58 1150.08C3348.24 1150.08 3355 1152.29 3359.88 1156.71C3364.76 1161.13 3367.19 1166.53 3367.19 1172.91C3367.19 1176.96 3365.99 1180.82 3363.57 1184.46C3361.16 1188.11 3356.28 1192.23 3348.94 1196.83L3362.89 1215.22C3364.53 1212.31 3365.94 1208.5 3367.13 1203.81L3384.49 1207.77C3382.76 1213.92 3381.25 1218.44 3379.98 1221.31C3378.7 1224.13 3377.33 1226.5 3375.88 1228.42C3378.02 1230.42 3380.77 1232.63 3384.15 1235.05C3387.57 1237.42 3390.07 1238.99 3391.67 1239.76ZM3339.37 1185.28L3344.57 1181.32C3348.4 1178.35 3350.31 1175.41 3350.31 1172.5C3350.31 1170.04 3349.37 1167.94 3347.51 1166.21C3345.68 1164.48 3343.2 1163.61 3340.06 1163.61C3337 1163.61 3334.61 1164.39 3332.88 1165.94C3331.15 1167.44 3330.28 1169.19 3330.28 1171.2C3330.28 1173.57 3331.74 1176.44 3334.65 1179.81L3339.37 1185.28ZM3331.85 1206.13C3327.43 1208.36 3324.13 1211.05 3321.94 1214.2C3319.75 1217.34 3318.66 1220.55 3318.66 1223.84C3318.66 1227.98 3320 1231.38 3322.69 1234.02C3325.43 1236.62 3329.07 1237.92 3333.63 1237.92C3336.64 1237.92 3339.53 1237.33 3342.31 1236.14C3345.09 1234.96 3348.12 1233 3351.4 1230.26L3331.85 1206.13ZM3447.69 1252V1151.79H3490.28C3500.99 1151.79 3508.76 1152.7 3513.59 1154.52C3518.46 1156.3 3522.36 1159.49 3525.28 1164.09C3528.19 1168.69 3529.65 1173.96 3529.65 1179.88C3529.65 1187.4 3527.44 1193.62 3523.02 1198.54C3518.6 1203.42 3511.99 1206.5 3503.2 1207.77C3507.57 1210.32 3511.17 1213.13 3514 1216.18C3516.87 1219.23 3520.72 1224.66 3525.55 1232.45L3537.79 1252H3513.59L3498.96 1230.19C3493.76 1222.4 3490.21 1217.5 3488.3 1215.5C3486.38 1213.45 3484.35 1212.06 3482.21 1211.33C3480.07 1210.55 3476.67 1210.16 3472.03 1210.16H3467.92V1252H3447.69ZM3467.92 1194.17H3482.89C3492.6 1194.17 3498.66 1193.76 3501.08 1192.94C3503.49 1192.12 3505.39 1190.7 3506.75 1188.7C3508.12 1186.69 3508.8 1184.19 3508.8 1181.18C3508.8 1177.81 3507.89 1175.1 3506.07 1173.04C3504.29 1170.95 3501.76 1169.63 3498.48 1169.08C3496.84 1168.85 3491.92 1168.74 3483.72 1168.74H3467.92V1194.17ZM3592.94 1228.89L3612.08 1232.11C3609.62 1239.13 3605.72 1244.48 3600.39 1248.17C3595.1 1251.82 3588.47 1253.64 3580.5 1253.64C3567.87 1253.64 3558.53 1249.52 3552.47 1241.27C3547.68 1234.66 3545.29 1226.32 3545.29 1216.25C3545.29 1204.22 3548.44 1194.81 3554.72 1188.02C3561.01 1181.18 3568.97 1177.76 3578.58 1177.76C3589.38 1177.76 3597.9 1181.34 3604.15 1188.49C3610.39 1195.6 3613.38 1206.52 3613.1 1221.24H3564.98C3565.12 1226.93 3566.66 1231.38 3569.63 1234.57C3572.59 1237.71 3576.28 1239.29 3580.7 1239.29C3583.71 1239.29 3586.24 1238.46 3588.29 1236.82C3590.34 1235.18 3591.89 1232.54 3592.94 1228.89ZM3594.03 1209.48C3593.89 1203.92 3592.46 1199.71 3589.72 1196.83C3586.99 1193.92 3583.66 1192.46 3579.74 1192.46C3575.55 1192.46 3572.09 1193.99 3569.35 1197.04C3566.62 1200.09 3565.27 1204.24 3565.32 1209.48H3594.03ZM3624.3 1231.29L3643.58 1228.35C3644.4 1232.08 3646.06 1234.93 3648.57 1236.89C3651.07 1238.81 3654.58 1239.76 3659.09 1239.76C3664.06 1239.76 3667.8 1238.85 3670.3 1237.03C3671.99 1235.75 3672.83 1234.04 3672.83 1231.9C3672.83 1230.44 3672.38 1229.24 3671.47 1228.28C3670.51 1227.37 3668.37 1226.52 3665.04 1225.75C3649.55 1222.33 3639.73 1219.21 3635.58 1216.38C3629.84 1212.47 3626.96 1207.02 3626.96 1200.05C3626.96 1193.76 3629.45 1188.47 3634.42 1184.19C3639.38 1179.9 3647.09 1177.76 3657.52 1177.76C3667.46 1177.76 3674.84 1179.38 3679.67 1182.62C3684.5 1185.85 3687.83 1190.64 3689.65 1196.97L3671.53 1200.32C3670.76 1197.49 3669.28 1195.33 3667.09 1193.83C3664.95 1192.32 3661.87 1191.57 3657.86 1191.57C3652.8 1191.57 3649.18 1192.28 3646.99 1193.69C3645.54 1194.69 3644.81 1195.99 3644.81 1197.59C3644.81 1198.95 3645.44 1200.12 3646.72 1201.07C3648.45 1202.35 3654.42 1204.15 3664.63 1206.47C3674.88 1208.8 3682.04 1211.65 3686.1 1215.02C3690.11 1218.44 3692.11 1223.2 3692.11 1229.3C3692.11 1235.96 3689.33 1241.68 3683.77 1246.46C3678.21 1251.25 3669.99 1253.64 3659.09 1253.64C3649.2 1253.64 3641.37 1251.64 3635.58 1247.62C3629.84 1243.61 3626.08 1238.17 3624.3 1231.29ZM3774.54 1200.87L3755.6 1204.29C3754.96 1200.5 3753.5 1197.65 3751.23 1195.74C3748.99 1193.83 3746.08 1192.87 3742.48 1192.87C3737.69 1192.87 3733.86 1194.53 3730.99 1197.86C3728.17 1201.14 3726.75 1206.65 3726.75 1214.4C3726.75 1223.02 3728.19 1229.1 3731.06 1232.65C3733.98 1236.21 3737.87 1237.99 3742.75 1237.99C3746.4 1237.99 3749.38 1236.96 3751.7 1234.91C3754.03 1232.81 3755.67 1229.24 3756.63 1224.18L3775.49 1227.39C3773.53 1236.05 3769.77 1242.59 3764.21 1247.01C3758.65 1251.43 3751.2 1253.64 3741.86 1253.64C3731.24 1253.64 3722.77 1250.29 3716.43 1243.59C3710.14 1236.89 3707 1227.62 3707 1215.77C3707 1203.78 3710.16 1194.46 3716.5 1187.81C3722.83 1181.11 3731.4 1177.76 3742.2 1177.76C3751.04 1177.76 3758.06 1179.68 3763.26 1183.5C3768.5 1187.29 3772.26 1193.07 3774.54 1200.87ZM3839.19 1252V1241.13C3836.55 1245 3833.06 1248.06 3828.73 1250.29C3824.45 1252.52 3819.91 1253.64 3815.13 1253.64C3810.25 1253.64 3805.87 1252.57 3802 1250.43C3798.13 1248.29 3795.32 1245.28 3793.59 1241.4C3791.86 1237.53 3791 1232.18 3791 1225.34V1179.4H3810.2V1212.76C3810.2 1222.97 3810.55 1229.24 3811.23 1231.56C3811.96 1233.84 3813.26 1235.66 3815.13 1237.03C3816.99 1238.35 3819.36 1239.01 3822.24 1239.01C3825.52 1239.01 3828.46 1238.12 3831.05 1236.35C3833.65 1234.52 3835.43 1232.29 3836.39 1229.65C3837.34 1226.96 3837.82 1220.42 3837.82 1210.03V1179.4H3857.03V1252H3839.19ZM3921.27 1228.89L3940.41 1232.11C3937.95 1239.13 3934.06 1244.48 3928.72 1248.17C3923.44 1251.82 3916.81 1253.64 3908.83 1253.64C3896.21 1253.64 3886.86 1249.52 3880.8 1241.27C3876.02 1234.66 3873.63 1226.32 3873.63 1216.25C3873.63 1204.22 3876.77 1194.81 3883.06 1188.02C3889.35 1181.18 3897.3 1177.76 3906.92 1177.76C3917.72 1177.76 3926.24 1181.34 3932.48 1188.49C3938.73 1195.6 3941.71 1206.52 3941.44 1221.24H3893.31C3893.45 1226.93 3895 1231.38 3897.96 1234.57C3900.92 1237.71 3904.62 1239.29 3909.04 1239.29C3912.04 1239.29 3914.57 1238.46 3916.62 1236.82C3918.67 1235.18 3920.22 1232.54 3921.27 1228.89ZM3922.37 1209.48C3922.23 1203.92 3920.79 1199.71 3918.06 1196.83C3915.33 1193.92 3912 1192.46 3908.08 1192.46C3903.89 1192.46 3900.42 1193.99 3897.69 1197.04C3894.95 1200.09 3893.61 1204.24 3893.66 1209.48H3922.37ZM4023.3 1252V1168.74H3993.56V1151.79H4073.2V1168.74H4043.54V1252H4023.3ZM4099.03 1252H4079.82V1179.4H4097.66V1189.72C4100.71 1184.85 4103.45 1181.64 4105.86 1180.09C4108.32 1178.54 4111.1 1177.76 4114.2 1177.76C4118.58 1177.76 4122.79 1178.97 4126.85 1181.38L4120.9 1198.13C4117.67 1196.04 4114.66 1194.99 4111.88 1194.99C4109.19 1194.99 4106.91 1195.74 4105.04 1197.24C4103.17 1198.7 4101.69 1201.37 4100.6 1205.24C4099.55 1209.12 4099.03 1217.23 4099.03 1229.58V1252ZM4151.79 1201.55L4134.35 1198.41C4136.31 1191.39 4139.69 1186.19 4144.47 1182.82C4149.26 1179.45 4156.37 1177.76 4165.8 1177.76C4174.37 1177.76 4180.75 1178.79 4184.94 1180.84C4189.13 1182.84 4192.07 1185.42 4193.76 1188.56C4195.49 1191.66 4196.36 1197.38 4196.36 1205.72L4196.15 1228.14C4196.15 1234.52 4196.45 1239.24 4197.04 1242.29C4197.68 1245.3 4198.84 1248.54 4200.53 1252H4181.52C4181.02 1250.72 4180.4 1248.83 4179.68 1246.33C4179.36 1245.19 4179.13 1244.43 4178.99 1244.07C4175.71 1247.26 4172.2 1249.65 4168.46 1251.25C4164.73 1252.84 4160.74 1253.64 4156.5 1253.64C4149.03 1253.64 4143.13 1251.61 4138.8 1247.56C4134.51 1243.5 4132.37 1238.37 4132.37 1232.18C4132.37 1228.07 4133.35 1224.43 4135.31 1221.24C4137.27 1218 4140 1215.54 4143.51 1213.86C4147.07 1212.12 4152.17 1210.62 4158.83 1209.34C4167.8 1207.66 4174.02 1206.09 4177.49 1204.63V1202.71C4177.49 1199.02 4176.58 1196.4 4174.75 1194.85C4172.93 1193.26 4169.49 1192.46 4164.43 1192.46C4161.01 1192.46 4158.35 1193.14 4156.43 1194.51C4154.52 1195.83 4152.97 1198.18 4151.79 1201.55ZM4177.49 1217.14C4175.03 1217.96 4171.13 1218.94 4165.8 1220.08C4160.47 1221.22 4156.98 1222.33 4155.34 1223.43C4152.83 1225.2 4151.58 1227.46 4151.58 1230.19C4151.58 1232.88 4152.58 1235.21 4154.59 1237.17C4156.59 1239.13 4159.15 1240.11 4162.24 1240.11C4165.71 1240.11 4169.01 1238.97 4172.16 1236.69C4174.48 1234.96 4176.01 1232.84 4176.74 1230.33C4177.24 1228.69 4177.49 1225.57 4177.49 1220.96V1217.14ZM4217.6 1169.56V1151.79H4236.81V1169.56H4217.6ZM4217.6 1252V1179.4H4236.81V1252H4217.6ZM4324.84 1252H4305.63V1214.95C4305.63 1207.11 4305.22 1202.05 4304.4 1199.77C4303.58 1197.45 4302.24 1195.65 4300.37 1194.37C4298.54 1193.1 4296.33 1192.46 4293.74 1192.46C4290.41 1192.46 4287.42 1193.37 4284.78 1195.19C4282.14 1197.02 4280.31 1199.43 4279.31 1202.44C4278.35 1205.45 4277.88 1211.01 4277.88 1219.12V1252H4258.67V1179.4H4276.51V1190.07C4282.84 1181.86 4290.82 1177.76 4300.44 1177.76C4304.67 1177.76 4308.55 1178.54 4312.06 1180.09C4315.57 1181.59 4318.21 1183.53 4319.99 1185.9C4321.81 1188.27 4323.06 1190.96 4323.75 1193.96C4324.47 1196.97 4324.84 1201.28 4324.84 1206.88V1252ZM4346.63 1169.56V1151.79H4365.84V1169.56H4346.63ZM4346.63 1252V1179.4H4365.84V1252H4346.63ZM4453.87 1252H4434.66V1214.95C4434.66 1207.11 4434.25 1202.05 4433.43 1199.77C4432.61 1197.45 4431.27 1195.65 4429.4 1194.37C4427.57 1193.1 4425.36 1192.46 4422.77 1192.46C4419.44 1192.46 4416.45 1193.37 4413.81 1195.19C4411.17 1197.02 4409.35 1199.43 4408.34 1202.44C4407.39 1205.45 4406.91 1211.01 4406.91 1219.12V1252H4387.7V1179.4H4405.54V1190.07C4411.87 1181.86 4419.85 1177.76 4429.47 1177.76C4433.7 1177.76 4437.58 1178.54 4441.09 1180.09C4444.6 1181.59 4447.24 1183.53 4449.02 1185.9C4450.84 1188.27 4452.09 1190.96 4452.78 1193.96C4453.51 1196.97 4453.87 1201.28 4453.87 1206.88V1252ZM4473.88 1256.79L4495.83 1259.45C4496.19 1262 4497.03 1263.76 4498.36 1264.71C4500.18 1266.08 4503.05 1266.77 4506.97 1266.77C4511.98 1266.77 4515.74 1266.01 4518.25 1264.51C4519.93 1263.51 4521.21 1261.89 4522.08 1259.66C4522.67 1258.06 4522.97 1255.12 4522.97 1250.84V1240.24C4517.22 1248.08 4509.98 1252 4501.23 1252C4491.47 1252 4483.75 1247.88 4478.05 1239.63C4473.59 1233.11 4471.35 1225 4471.35 1215.29C4471.35 1203.12 4474.27 1193.83 4480.1 1187.4C4485.98 1180.97 4493.27 1177.76 4501.98 1177.76C4510.96 1177.76 4518.36 1181.7 4524.2 1189.59V1179.4H4542.17V1244.55C4542.17 1253.12 4541.47 1259.52 4540.06 1263.76C4538.64 1268 4536.66 1271.32 4534.11 1273.74C4531.56 1276.15 4528.14 1278.04 4523.85 1279.41C4519.62 1280.78 4514.24 1281.46 4507.72 1281.46C4495.42 1281.46 4486.69 1279.34 4481.54 1275.11C4476.39 1270.91 4473.82 1265.58 4473.82 1259.11C4473.82 1258.47 4473.84 1257.7 4473.88 1256.79ZM4491.04 1214.2C4491.04 1221.9 4492.52 1227.55 4495.49 1231.15C4498.49 1234.71 4502.18 1236.48 4506.56 1236.48C4511.25 1236.48 4515.22 1234.66 4518.45 1231.01C4521.69 1227.32 4523.31 1221.88 4523.31 1214.68C4523.31 1207.16 4521.76 1201.57 4518.66 1197.93C4515.56 1194.28 4511.64 1192.46 4506.9 1192.46C4502.3 1192.46 4498.49 1194.26 4495.49 1197.86C4492.52 1201.41 4491.04 1206.86 4491.04 1214.2ZM4668.95 1215.15L4688.57 1221.38C4685.56 1232.31 4680.55 1240.45 4673.53 1245.78C4666.56 1251.07 4657.69 1253.71 4646.94 1253.71C4633.63 1253.71 4622.69 1249.17 4614.13 1240.11C4605.56 1230.99 4601.27 1218.55 4601.27 1202.78C4601.27 1186.1 4605.58 1173.16 4614.19 1163.95C4622.81 1154.7 4634.13 1150.08 4648.17 1150.08C4660.43 1150.08 4670.39 1153.7 4678.04 1160.95C4682.6 1165.23 4686.02 1171.38 4688.3 1179.4L4668.27 1184.19C4667.08 1178.99 4664.6 1174.89 4660.81 1171.88C4657.08 1168.88 4652.52 1167.37 4647.14 1167.37C4639.71 1167.37 4633.68 1170.04 4629.03 1175.37C4624.42 1180.7 4622.12 1189.34 4622.12 1201.28C4622.12 1213.95 4624.4 1222.97 4628.96 1228.35C4633.52 1233.73 4639.44 1236.41 4646.73 1236.41C4652.11 1236.41 4656.74 1234.71 4660.61 1231.29C4664.48 1227.87 4667.26 1222.49 4668.95 1215.15ZM4750.14 1228.89L4769.29 1232.11C4766.82 1239.13 4762.93 1244.48 4757.6 1248.17C4752.31 1251.82 4745.68 1253.64 4737.7 1253.64C4725.08 1253.64 4715.74 1249.52 4709.68 1241.27C4704.89 1234.66 4702.5 1226.32 4702.5 1216.25C4702.5 1204.22 4705.64 1194.81 4711.93 1188.02C4718.22 1181.18 4726.17 1177.76 4735.79 1177.76C4746.59 1177.76 4755.11 1181.34 4761.36 1188.49C4767.6 1195.6 4770.58 1206.52 4770.31 1221.24H4722.19C4722.32 1226.93 4723.87 1231.38 4726.83 1234.57C4729.8 1237.71 4733.49 1239.29 4737.91 1239.29C4740.92 1239.29 4743.45 1238.46 4745.5 1236.82C4747.55 1235.18 4749.1 1232.54 4750.14 1228.89ZM4751.24 1209.48C4751.1 1203.92 4749.67 1199.71 4746.93 1196.83C4744.2 1193.92 4740.87 1192.46 4736.95 1192.46C4732.76 1192.46 4729.29 1193.99 4726.56 1197.04C4723.83 1200.09 4722.48 1204.24 4722.53 1209.48H4751.24ZM4854.31 1252H4835.1V1214.95C4835.1 1207.11 4834.69 1202.05 4833.87 1199.77C4833.05 1197.45 4831.7 1195.65 4829.84 1194.37C4828.01 1193.1 4825.8 1192.46 4823.2 1192.46C4819.88 1192.46 4816.89 1193.37 4814.25 1195.19C4811.61 1197.02 4809.78 1199.43 4808.78 1202.44C4807.82 1205.45 4807.35 1211.01 4807.35 1219.12V1252H4788.14V1179.4H4805.98V1190.07C4812.31 1181.86 4820.29 1177.76 4829.9 1177.76C4834.14 1177.76 4838.02 1178.54 4841.53 1180.09C4845.03 1181.59 4847.68 1183.53 4849.45 1185.9C4851.28 1188.27 4852.53 1190.96 4853.21 1193.96C4853.94 1196.97 4854.31 1201.28 4854.31 1206.88V1252ZM4909.39 1179.4V1194.71H4896.27V1223.97C4896.27 1229.9 4896.38 1233.36 4896.61 1234.36C4896.88 1235.32 4897.45 1236.12 4898.32 1236.76C4899.23 1237.39 4900.32 1237.71 4901.6 1237.71C4903.37 1237.71 4905.95 1237.1 4909.32 1235.87L4910.96 1250.77C4906.5 1252.68 4901.44 1253.64 4895.79 1253.64C4892.32 1253.64 4889.2 1253.07 4886.42 1251.93C4883.64 1250.75 4881.59 1249.24 4880.27 1247.42C4878.99 1245.55 4878.1 1243.04 4877.6 1239.9C4877.19 1237.67 4876.99 1233.16 4876.99 1226.37V1194.71H4868.17V1179.4H4876.99V1164.98L4896.27 1153.77V1179.4H4909.39ZM4967 1228.89L4986.14 1232.11C4983.68 1239.13 4979.78 1244.48 4974.45 1248.17C4969.17 1251.82 4962.54 1253.64 4954.56 1253.64C4941.94 1253.64 4932.59 1249.52 4926.53 1241.27C4921.75 1234.66 4919.35 1226.32 4919.35 1216.25C4919.35 1204.22 4922.5 1194.81 4928.79 1188.02C4935.08 1181.18 4943.03 1177.76 4952.65 1177.76C4963.45 1177.76 4971.97 1181.34 4978.21 1188.49C4984.46 1195.6 4987.44 1206.52 4987.17 1221.24H4939.04C4939.18 1226.93 4940.73 1231.38 4943.69 1234.57C4946.65 1237.71 4950.34 1239.29 4954.77 1239.29C4957.77 1239.29 4960.3 1238.46 4962.35 1236.82C4964.4 1235.18 4965.95 1232.54 4967 1228.89ZM4968.1 1209.48C4967.96 1203.92 4966.52 1199.71 4963.79 1196.83C4961.05 1193.92 4957.73 1192.46 4953.81 1192.46C4949.62 1192.46 4946.15 1193.99 4943.42 1197.04C4940.68 1200.09 4939.34 1204.24 4939.38 1209.48H4968.1ZM5023.52 1252H5004.31V1179.4H5022.15V1189.72C5025.2 1184.85 5027.94 1181.64 5030.35 1180.09C5032.82 1178.54 5035.6 1177.76 5038.69 1177.76C5043.07 1177.76 5047.29 1178.97 5051.34 1181.38L5045.39 1198.13C5042.16 1196.04 5039.15 1194.99 5036.37 1194.99C5033.68 1194.99 5031.4 1195.74 5029.53 1197.24C5027.67 1198.7 5026.18 1201.37 5025.09 1205.24C5024.04 1209.12 5023.52 1217.23 5023.52 1229.58V1252Z" fill="black"/>
</svg>
