<svg width="6900" height="5209" viewBox="0 0 6900 5209" fill="none" xmlns="http://www.w3.org/2000/svg">
<path d="M2801.33 4189.83C2801.76 4191.1 2802.02 4192.1 2802.12 4192.84C2802.23 4193.58 2802.09 4194.14 2801.7 4194.53C2801.32 4194.88 2800.63 4195.09 2799.65 4195.16C2798.66 4195.26 2797.31 4195.32 2795.59 4195.32C2793.79 4195.32 2792.39 4195.28 2791.37 4195.21C2790.38 4195.18 2789.63 4195.09 2789.1 4194.95C2788.57 4194.77 2788.2 4194.54 2787.99 4194.26C2787.78 4193.98 2787.61 4193.61 2787.46 4193.15L2782.88 4179.44H2757.25L2752.92 4192.79C2752.78 4193.28 2752.59 4193.7 2752.34 4194.05C2752.13 4194.37 2751.76 4194.63 2751.24 4194.84C2750.74 4195.02 2750.02 4195.14 2749.07 4195.21C2748.16 4195.28 2746.95 4195.32 2745.44 4195.32C2743.82 4195.32 2742.55 4195.26 2741.64 4195.16C2740.72 4195.05 2740.09 4194.81 2739.74 4194.42C2739.39 4194 2739.27 4193.42 2739.37 4192.68C2739.48 4191.94 2739.74 4190.96 2740.16 4189.73L2761.2 4129.19C2761.41 4128.59 2761.66 4128.12 2761.94 4127.76C2762.22 4127.38 2762.66 4127.1 2763.26 4126.92C2763.89 4126.71 2764.75 4126.59 2765.84 4126.55C2766.93 4126.48 2768.38 4126.45 2770.17 4126.45C2772.24 4126.45 2773.89 4126.48 2775.12 4126.55C2776.36 4126.59 2777.3 4126.71 2777.97 4126.92C2778.68 4127.1 2779.17 4127.38 2779.45 4127.76C2779.77 4128.15 2780.03 4128.68 2780.24 4129.35L2801.33 4189.83ZM2770.01 4139.79H2769.96L2760.31 4168.79H2779.66L2770.01 4139.79ZM2839.71 4150.54C2839.71 4151.81 2839.67 4152.85 2839.6 4153.66C2839.53 4154.46 2839.43 4155.1 2839.29 4155.55C2839.15 4156.01 2838.95 4156.33 2838.71 4156.5C2838.5 4156.68 2838.22 4156.77 2837.86 4156.77C2837.58 4156.77 2837.27 4156.71 2836.91 4156.61C2836.56 4156.47 2836.16 4156.33 2835.7 4156.19C2835.28 4156.05 2834.81 4155.92 2834.28 4155.82C2833.75 4155.68 2833.17 4155.61 2832.54 4155.61C2831.8 4155.61 2831.06 4155.77 2830.32 4156.08C2829.58 4156.36 2828.81 4156.82 2828 4157.45C2827.23 4158.09 2826.4 4158.93 2825.52 4159.98C2824.68 4161.04 2823.77 4162.34 2822.78 4163.89V4193.21C2822.78 4193.56 2822.68 4193.88 2822.47 4194.16C2822.25 4194.4 2821.89 4194.61 2821.36 4194.79C2820.87 4194.96 2820.2 4195.09 2819.35 4195.16C2818.51 4195.26 2817.44 4195.32 2816.14 4195.32C2814.84 4195.32 2813.76 4195.26 2812.92 4195.16C2812.08 4195.09 2811.39 4194.96 2810.86 4194.79C2810.37 4194.61 2810.02 4194.4 2809.81 4194.16C2809.6 4193.88 2809.49 4193.56 2809.49 4193.21V4146.17C2809.49 4145.82 2809.58 4145.52 2809.76 4145.27C2809.93 4144.99 2810.25 4144.76 2810.71 4144.59C2811.16 4144.41 2811.74 4144.29 2812.45 4144.22C2813.18 4144.11 2814.1 4144.06 2815.19 4144.06C2816.31 4144.06 2817.24 4144.11 2817.98 4144.22C2818.72 4144.29 2819.28 4144.41 2819.67 4144.59C2820.09 4144.76 2820.39 4144.99 2820.57 4145.27C2820.74 4145.52 2820.83 4145.82 2820.83 4146.17V4152.02C2822.06 4150.26 2823.22 4148.82 2824.31 4147.7C2825.4 4146.54 2826.44 4145.62 2827.42 4144.96C2828.41 4144.29 2829.39 4143.83 2830.38 4143.58C2831.36 4143.3 2832.34 4143.16 2833.33 4143.16C2833.79 4143.16 2834.28 4143.2 2834.81 4143.27C2835.33 4143.3 2835.88 4143.39 2836.44 4143.53C2837 4143.64 2837.49 4143.78 2837.92 4143.95C2838.34 4144.09 2838.64 4144.25 2838.81 4144.43C2839.02 4144.6 2839.16 4144.8 2839.23 4145.01C2839.34 4145.22 2839.43 4145.52 2839.5 4145.9C2839.57 4146.26 2839.62 4146.8 2839.66 4147.54C2839.69 4148.28 2839.71 4149.28 2839.71 4150.54ZM2889.42 4168.32C2889.42 4169.93 2889.05 4171.13 2888.32 4171.9C2887.61 4172.68 2886.63 4173.06 2885.36 4173.06H2856.73C2856.73 4175.07 2856.96 4176.89 2857.41 4178.55C2857.91 4180.16 2858.66 4181.55 2859.68 4182.71C2860.74 4183.84 2862.07 4184.7 2863.69 4185.3C2865.34 4185.89 2867.31 4186.19 2869.59 4186.19C2871.91 4186.19 2873.95 4186.04 2875.71 4185.72C2877.47 4185.37 2878.98 4185 2880.25 4184.61C2881.55 4184.19 2882.62 4183.82 2883.46 4183.5C2884.31 4183.15 2884.99 4182.98 2885.52 4182.98C2885.84 4182.98 2886.1 4183.05 2886.31 4183.19C2886.52 4183.29 2886.7 4183.5 2886.84 4183.82C2886.98 4184.14 2887.07 4184.59 2887.1 4185.19C2887.17 4185.75 2887.21 4186.47 2887.21 4187.35C2887.21 4188.13 2887.19 4188.79 2887.16 4189.36C2887.12 4189.88 2887.07 4190.34 2887 4190.73C2886.93 4191.12 2886.82 4191.45 2886.68 4191.73C2886.54 4191.98 2886.35 4192.22 2886.1 4192.47C2885.89 4192.71 2885.27 4193.05 2884.25 4193.47C2883.24 4193.89 2881.93 4194.31 2880.35 4194.74C2878.77 4195.12 2876.96 4195.46 2874.92 4195.74C2872.88 4196.05 2870.7 4196.21 2868.38 4196.21C2864.2 4196.21 2860.52 4195.69 2857.36 4194.63C2854.23 4193.58 2851.61 4191.98 2849.5 4189.83C2847.39 4187.69 2845.81 4184.98 2844.76 4181.71C2843.74 4178.44 2843.23 4174.61 2843.23 4170.21C2843.23 4166.03 2843.77 4162.27 2844.86 4158.93C2845.95 4155.55 2847.53 4152.71 2849.61 4150.39C2851.68 4148.03 2854.2 4146.24 2857.15 4145.01C2860.14 4143.78 2863.5 4143.16 2867.22 4143.16C2871.16 4143.16 2874.52 4143.74 2877.29 4144.9C2880.11 4146.06 2882.41 4147.68 2884.2 4149.75C2886 4151.79 2887.31 4154.22 2888.16 4157.03C2889 4159.84 2889.42 4162.9 2889.42 4166.21V4168.32ZM2876.56 4164.52C2876.66 4160.79 2875.91 4157.88 2874.29 4155.77C2872.71 4153.62 2870.25 4152.55 2866.91 4152.55C2865.22 4152.55 2863.74 4152.87 2862.48 4153.5C2861.25 4154.13 2860.21 4154.99 2859.36 4156.08C2858.56 4157.14 2857.92 4158.4 2857.47 4159.88C2857.04 4161.32 2856.8 4162.87 2856.73 4164.52H2876.56ZM2974.57 4193.21C2974.57 4193.56 2974.47 4193.88 2974.26 4194.16C2974.05 4194.4 2973.69 4194.61 2973.2 4194.79C2972.71 4194.96 2972.04 4195.09 2971.2 4195.16C2970.35 4195.26 2969.28 4195.32 2967.98 4195.32C2966.65 4195.32 2965.56 4195.26 2964.71 4195.16C2963.87 4195.09 2963.18 4194.96 2962.66 4194.79C2962.16 4194.61 2961.81 4194.4 2961.6 4194.16C2961.43 4193.88 2961.34 4193.56 2961.34 4193.21V4165.31C2961.34 4163.73 2961.18 4162.29 2960.86 4160.99C2960.58 4159.69 2960.12 4158.58 2959.49 4157.66C2958.89 4156.71 2958.12 4155.99 2957.17 4155.5C2956.26 4154.97 2955.15 4154.71 2953.85 4154.71C2952.27 4154.71 2950.67 4155.33 2949.05 4156.56C2947.43 4157.79 2945.68 4159.58 2943.78 4161.94V4193.21C2943.78 4193.56 2943.67 4193.88 2943.46 4194.16C2943.25 4194.4 2942.88 4194.61 2942.35 4194.79C2941.86 4194.96 2941.19 4195.09 2940.35 4195.16C2939.51 4195.26 2938.45 4195.32 2937.18 4195.32C2935.88 4195.32 2934.81 4195.26 2933.97 4195.16C2933.12 4195.09 2932.44 4194.96 2931.91 4194.79C2931.42 4194.61 2931.07 4194.4 2930.86 4194.16C2930.65 4193.88 2930.54 4193.56 2930.54 4193.21V4165.31C2930.54 4163.73 2930.38 4162.29 2930.07 4160.99C2929.78 4159.69 2929.35 4158.58 2928.75 4157.66C2928.15 4156.71 2927.38 4155.99 2926.43 4155.5C2925.48 4154.97 2924.37 4154.71 2923.1 4154.71C2921.49 4154.71 2919.87 4155.33 2918.25 4156.56C2916.64 4157.79 2914.9 4159.58 2913.03 4161.94V4193.21C2913.03 4193.56 2912.93 4193.88 2912.72 4194.16C2912.51 4194.4 2912.14 4194.61 2911.61 4194.79C2911.12 4194.96 2910.45 4195.09 2909.6 4195.16C2908.76 4195.26 2907.69 4195.32 2906.39 4195.32C2905.09 4195.32 2904.01 4195.26 2903.17 4195.16C2902.33 4195.09 2901.64 4194.96 2901.11 4194.79C2900.62 4194.61 2900.27 4194.4 2900.06 4194.16C2899.85 4193.88 2899.74 4193.56 2899.74 4193.21V4146.17C2899.74 4145.82 2899.83 4145.52 2900.01 4145.27C2900.18 4144.99 2900.5 4144.76 2900.96 4144.59C2901.41 4144.41 2901.99 4144.29 2902.7 4144.22C2903.43 4144.11 2904.35 4144.06 2905.44 4144.06C2906.56 4144.06 2907.5 4144.11 2908.23 4144.22C2908.97 4144.29 2909.53 4144.41 2909.92 4144.59C2910.34 4144.76 2910.64 4144.99 2910.82 4145.27C2910.99 4145.52 2911.08 4145.82 2911.08 4146.17V4151.6C2913.68 4148.79 2916.27 4146.68 2918.83 4145.27C2921.43 4143.87 2924.14 4143.16 2926.95 4143.16C2928.89 4143.16 2930.63 4143.37 2932.18 4143.79C2933.72 4144.18 2935.09 4144.76 2936.29 4145.54C2937.52 4146.27 2938.57 4147.17 2939.45 4148.22C2940.33 4149.28 2941.07 4150.46 2941.67 4151.76C2943.07 4150.25 2944.44 4148.95 2945.78 4147.86C2947.15 4146.77 2948.49 4145.89 2949.79 4145.22C2951.12 4144.52 2952.44 4144.01 2953.74 4143.69C2955.08 4143.34 2956.43 4143.16 2957.8 4143.16C2960.93 4143.16 2963.57 4143.69 2965.71 4144.74C2967.86 4145.8 2969.58 4147.24 2970.88 4149.07C2972.22 4150.86 2973.17 4152.97 2973.73 4155.4C2974.29 4157.82 2974.57 4160.39 2974.57 4163.1V4193.21ZM3052.01 4174.54C3052.01 4178.12 3051.34 4181.27 3050.01 4183.98C3048.67 4186.69 3046.86 4188.95 3044.57 4190.78C3042.29 4192.57 3039.62 4193.93 3036.56 4194.84C3033.5 4195.76 3030.23 4196.21 3026.75 4196.21C3024.39 4196.21 3022.2 4196.02 3020.16 4195.63C3018.15 4195.25 3016.38 4194.79 3014.83 4194.26C3013.29 4193.7 3011.98 4193.12 3010.93 4192.52C3009.91 4191.92 3009.17 4191.4 3008.72 4190.94C3008.26 4190.48 3007.92 4189.83 3007.71 4188.99C3007.54 4188.11 3007.45 4186.86 3007.45 4185.24C3007.45 4184.15 3007.48 4183.24 3007.55 4182.5C3007.63 4181.76 3007.73 4181.17 3007.87 4180.71C3008.05 4180.25 3008.26 4179.94 3008.5 4179.76C3008.79 4179.55 3009.1 4179.44 3009.45 4179.44C3009.95 4179.44 3010.63 4179.74 3011.51 4180.34C3012.42 4180.9 3013.58 4181.54 3014.99 4182.24C3016.4 4182.94 3018.07 4183.59 3020 4184.19C3021.97 4184.75 3024.24 4185.03 3026.8 4185.03C3028.49 4185.03 3030 4184.84 3031.34 4184.45C3032.67 4184.03 3033.8 4183.45 3034.71 4182.71C3035.66 4181.97 3036.38 4181.06 3036.88 4179.97C3037.37 4178.88 3037.61 4177.67 3037.61 4176.33C3037.61 4174.79 3037.19 4173.47 3036.35 4172.38C3035.5 4171.25 3034.4 4170.27 3033.03 4169.42C3031.69 4168.54 3030.16 4167.74 3028.44 4167C3026.72 4166.22 3024.94 4165.42 3023.11 4164.57C3021.28 4163.73 3019.51 4162.78 3017.79 4161.72C3016.06 4160.63 3014.52 4159.35 3013.14 4157.88C3011.81 4156.36 3010.72 4154.59 3009.88 4152.55C3009.03 4150.51 3008.61 4148.07 3008.61 4145.22C3008.61 4141.95 3009.21 4139.08 3010.4 4136.62C3011.63 4134.13 3013.27 4132.07 3015.31 4130.45C3017.38 4128.8 3019.81 4127.57 3022.58 4126.76C3025.4 4125.95 3028.37 4125.55 3031.5 4125.55C3033.11 4125.55 3034.73 4125.67 3036.35 4125.92C3037.97 4126.16 3039.48 4126.5 3040.88 4126.92C3042.29 4127.34 3043.54 4127.82 3044.63 4128.34C3045.72 4128.87 3046.44 4129.31 3046.79 4129.66C3047.14 4130.01 3047.37 4130.31 3047.47 4130.56C3047.62 4130.8 3047.72 4131.14 3047.79 4131.56C3047.9 4131.95 3047.97 4132.46 3048 4133.09C3048.04 4133.69 3048.05 4134.44 3048.05 4135.36C3048.05 4136.38 3048.02 4137.24 3047.95 4137.94C3047.91 4138.64 3047.83 4139.22 3047.69 4139.68C3047.58 4140.14 3047.4 4140.47 3047.16 4140.68C3046.95 4140.89 3046.65 4141 3046.26 4141C3045.88 4141 3045.26 4140.75 3044.42 4140.26C3043.57 4139.77 3042.54 4139.24 3041.3 4138.68C3040.07 4138.08 3038.65 4137.55 3037.03 4137.1C3035.42 4136.61 3033.64 4136.36 3031.71 4136.36C3030.2 4136.36 3028.88 4136.55 3027.75 4136.94C3026.63 4137.29 3025.68 4137.8 3024.9 4138.47C3024.17 4139.1 3023.6 4139.88 3023.22 4140.79C3022.87 4141.7 3022.69 4142.67 3022.69 4143.69C3022.69 4145.2 3023.09 4146.52 3023.9 4147.64C3024.75 4148.73 3025.85 4149.72 3027.22 4150.6C3028.63 4151.44 3030.21 4152.25 3031.97 4153.02C3033.73 4153.76 3035.52 4154.55 3037.35 4155.4C3039.18 4156.24 3040.97 4157.21 3042.73 4158.3C3044.49 4159.35 3046.05 4160.63 3047.42 4162.15C3048.79 4163.62 3049.9 4165.38 3050.74 4167.42C3051.59 4169.42 3052.01 4171.8 3052.01 4174.54ZM3074.46 4193.21C3074.46 4193.56 3074.35 4193.88 3074.14 4194.16C3073.93 4194.4 3073.56 4194.61 3073.04 4194.79C3072.54 4194.96 3071.88 4195.09 3071.03 4195.16C3070.19 4195.26 3069.12 4195.32 3067.82 4195.32C3066.51 4195.32 3065.44 4195.26 3064.6 4195.16C3063.75 4195.09 3063.07 4194.96 3062.54 4194.79C3062.05 4194.61 3061.7 4194.4 3061.49 4194.16C3061.28 4193.88 3061.17 4193.56 3061.17 4193.21V4146.27C3061.17 4145.92 3061.28 4145.62 3061.49 4145.38C3061.7 4145.1 3062.05 4144.87 3062.54 4144.69C3063.07 4144.48 3063.75 4144.32 3064.6 4144.22C3065.44 4144.11 3066.51 4144.06 3067.82 4144.06C3069.12 4144.06 3070.19 4144.11 3071.03 4144.22C3071.88 4144.32 3072.54 4144.48 3073.04 4144.69C3073.56 4144.87 3073.93 4145.1 3074.14 4145.38C3074.35 4145.62 3074.46 4145.92 3074.46 4146.27V4193.21ZM3075.46 4130.24C3075.46 4132.91 3074.92 4134.76 3073.83 4135.78C3072.74 4136.8 3070.72 4137.31 3067.76 4137.31C3064.77 4137.31 3062.75 4136.82 3061.7 4135.83C3060.68 4134.85 3060.17 4133.07 3060.17 4130.51C3060.17 4127.83 3060.7 4125.99 3061.75 4124.97C3062.84 4123.91 3064.88 4123.39 3067.87 4123.39C3070.82 4123.39 3072.82 4123.9 3073.88 4124.92C3074.93 4125.9 3075.46 4127.68 3075.46 4130.24ZM3161.93 4193.21C3161.93 4193.56 3161.83 4193.88 3161.61 4194.16C3161.4 4194.4 3161.05 4194.61 3160.56 4194.79C3160.07 4194.96 3159.4 4195.09 3158.56 4195.16C3157.71 4195.26 3156.64 4195.32 3155.34 4195.32C3154 4195.32 3152.91 4195.26 3152.07 4195.16C3151.23 4195.09 3150.54 4194.96 3150.01 4194.79C3149.52 4194.61 3149.17 4194.4 3148.96 4194.16C3148.78 4193.88 3148.69 4193.56 3148.69 4193.21V4165.31C3148.69 4163.73 3148.54 4162.29 3148.22 4160.99C3147.94 4159.69 3147.48 4158.58 3146.85 4157.66C3146.25 4156.71 3145.48 4155.99 3144.53 4155.5C3143.61 4154.97 3142.51 4154.71 3141.21 4154.71C3139.62 4154.71 3138.02 4155.33 3136.41 4156.56C3134.79 4157.79 3133.03 4159.58 3131.13 4161.94V4193.21C3131.13 4193.56 3131.03 4193.88 3130.82 4194.16C3130.61 4194.4 3130.24 4194.61 3129.71 4194.79C3129.22 4194.96 3128.55 4195.09 3127.71 4195.16C3126.86 4195.26 3125.81 4195.32 3124.54 4195.32C3123.24 4195.32 3122.17 4195.26 3121.33 4195.16C3120.48 4195.09 3119.8 4194.96 3119.27 4194.79C3118.78 4194.61 3118.42 4194.4 3118.21 4194.16C3118 4193.88 3117.9 4193.56 3117.9 4193.21V4165.31C3117.9 4163.73 3117.74 4162.29 3117.42 4160.99C3117.14 4159.69 3116.7 4158.58 3116.1 4157.66C3115.51 4156.71 3114.73 4155.99 3113.78 4155.5C3112.84 4154.97 3111.73 4154.71 3110.46 4154.71C3108.84 4154.71 3107.23 4155.33 3105.61 4156.56C3103.99 4157.79 3102.25 4159.58 3100.39 4161.94V4193.21C3100.39 4193.56 3100.28 4193.88 3100.07 4194.16C3099.86 4194.4 3099.49 4194.61 3098.97 4194.79C3098.47 4194.96 3097.81 4195.09 3096.96 4195.16C3096.12 4195.26 3095.05 4195.32 3093.75 4195.32C3092.44 4195.32 3091.37 4195.26 3090.53 4195.16C3089.68 4195.09 3089 4194.96 3088.47 4194.79C3087.98 4194.61 3087.63 4194.4 3087.42 4194.16C3087.21 4193.88 3087.1 4193.56 3087.1 4193.21V4146.17C3087.1 4145.82 3087.19 4145.52 3087.36 4145.27C3087.54 4144.99 3087.86 4144.76 3088.31 4144.59C3088.77 4144.41 3089.35 4144.29 3090.05 4144.22C3090.79 4144.11 3091.71 4144.06 3092.8 4144.06C3093.92 4144.06 3094.85 4144.11 3095.59 4144.22C3096.33 4144.29 3096.89 4144.41 3097.28 4144.59C3097.7 4144.76 3098 4144.99 3098.17 4145.27C3098.35 4145.52 3098.44 4145.82 3098.44 4146.17V4151.6C3101.04 4148.79 3103.62 4146.68 3106.19 4145.27C3108.79 4143.87 3111.5 4143.16 3114.31 4143.16C3116.25 4143.16 3117.99 4143.37 3119.53 4143.79C3121.08 4144.18 3122.45 4144.76 3123.65 4145.54C3124.88 4146.27 3125.93 4147.17 3126.81 4148.22C3127.69 4149.28 3128.43 4150.46 3129.02 4151.76C3130.43 4150.25 3131.8 4148.95 3133.14 4147.86C3134.51 4146.77 3135.84 4145.89 3137.15 4145.22C3138.48 4144.52 3139.8 4144.01 3141.1 4143.69C3142.44 4143.34 3143.79 4143.16 3145.16 4143.16C3148.29 4143.16 3150.93 4143.69 3153.07 4144.74C3155.22 4145.8 3156.94 4147.24 3158.24 4149.07C3159.58 4150.86 3160.52 4152.97 3161.09 4155.4C3161.65 4157.82 3161.93 4160.39 3161.93 4163.1V4193.21ZM3221.87 4169.21C3221.87 4173.22 3221.35 4176.88 3220.29 4180.18C3219.24 4183.49 3217.64 4186.33 3215.49 4188.72C3213.35 4191.12 3210.66 4192.96 3207.43 4194.26C3204.19 4195.56 3200.41 4196.21 3196.09 4196.21C3191.9 4196.21 3188.27 4195.63 3185.17 4194.47C3182.08 4193.31 3179.51 4191.62 3177.47 4189.41C3175.43 4187.2 3173.92 4184.47 3172.94 4181.24C3171.95 4178 3171.46 4174.31 3171.46 4170.16C3171.46 4166.15 3171.99 4162.5 3173.04 4159.19C3174.13 4155.85 3175.75 4153.01 3177.89 4150.65C3180.04 4148.26 3182.71 4146.41 3185.91 4145.11C3189.14 4143.81 3192.92 4143.16 3197.25 4143.16C3201.47 4143.16 3205.12 4143.74 3208.22 4144.9C3211.31 4146.03 3213.86 4147.7 3215.86 4149.91C3217.9 4152.13 3219.41 4154.85 3220.4 4158.09C3221.38 4161.32 3221.87 4165.03 3221.87 4169.21ZM3208.22 4169.74C3208.22 4167.42 3208.02 4165.29 3207.64 4163.36C3207.28 4161.39 3206.67 4159.69 3205.79 4158.24C3204.91 4156.8 3203.73 4155.68 3202.26 4154.87C3200.82 4154.06 3198.99 4153.66 3196.77 4153.66C3194.8 4153.66 3193.08 4154.03 3191.61 4154.76C3190.13 4155.47 3188.92 4156.52 3187.97 4157.93C3187.02 4159.3 3186.3 4160.97 3185.8 4162.94C3185.35 4164.87 3185.12 4167.09 3185.12 4169.58C3185.12 4171.9 3185.31 4174.05 3185.7 4176.02C3186.09 4177.95 3186.7 4179.64 3187.54 4181.08C3188.42 4182.52 3189.6 4183.64 3191.08 4184.45C3192.55 4185.23 3194.38 4185.61 3196.56 4185.61C3198.57 4185.61 3200.31 4185.26 3201.78 4184.56C3203.26 4183.82 3204.47 4182.77 3205.42 4181.39C3206.37 4180.02 3207.07 4178.37 3207.53 4176.44C3207.99 4174.47 3208.22 4172.24 3208.22 4169.74ZM3276.7 4193.21C3276.7 4193.56 3276.6 4193.88 3276.39 4194.16C3276.18 4194.4 3275.82 4194.61 3275.33 4194.79C3274.84 4194.96 3274.15 4195.09 3273.28 4195.16C3272.43 4195.26 3271.38 4195.32 3270.11 4195.32C3268.81 4195.32 3267.72 4195.26 3266.84 4195.16C3266 4195.09 3265.33 4194.96 3264.84 4194.79C3264.35 4194.61 3263.99 4194.4 3263.78 4194.16C3263.57 4193.88 3263.47 4193.56 3263.47 4193.21V4166.37C3263.47 4164.08 3263.29 4162.29 3262.94 4160.99C3262.62 4159.69 3262.15 4158.58 3261.52 4157.66C3260.88 4156.71 3260.06 4155.99 3259.04 4155.5C3258.05 4154.97 3256.89 4154.71 3255.56 4154.71C3253.87 4154.71 3252.16 4155.33 3250.44 4156.56C3248.72 4157.79 3246.93 4159.58 3245.06 4161.94V4193.21C3245.06 4193.56 3244.96 4193.88 3244.75 4194.16C3244.54 4194.4 3244.17 4194.61 3243.64 4194.79C3243.15 4194.96 3242.48 4195.09 3241.63 4195.16C3240.79 4195.26 3239.72 4195.32 3238.42 4195.32C3237.12 4195.32 3236.04 4195.26 3235.2 4195.16C3234.36 4195.09 3233.67 4194.96 3233.14 4194.79C3232.65 4194.61 3232.3 4194.4 3232.09 4194.16C3231.88 4193.88 3231.77 4193.56 3231.77 4193.21V4146.17C3231.77 4145.82 3231.86 4145.52 3232.04 4145.27C3232.21 4144.99 3232.53 4144.76 3232.99 4144.59C3233.44 4144.41 3234.02 4144.29 3234.73 4144.22C3235.46 4144.11 3236.38 4144.06 3237.47 4144.06C3238.59 4144.06 3239.53 4144.11 3240.26 4144.22C3241 4144.29 3241.56 4144.41 3241.95 4144.59C3242.37 4144.76 3242.67 4144.99 3242.85 4145.27C3243.02 4145.52 3243.11 4145.82 3243.11 4146.17V4151.6C3245.71 4148.79 3248.35 4146.68 3251.02 4145.27C3253.73 4143.87 3256.54 4143.16 3259.46 4143.16C3262.66 4143.16 3265.35 4143.69 3267.53 4144.74C3269.74 4145.8 3271.52 4147.24 3272.85 4149.07C3274.22 4150.86 3275.21 4152.97 3275.81 4155.4C3276.4 4157.82 3276.7 4160.74 3276.7 4164.15V4193.21ZM3363.16 4174.54C3363.16 4176.96 3362.82 4179.16 3362.16 4181.13C3361.49 4183.1 3360.56 4184.84 3359.36 4186.35C3358.2 4187.86 3356.79 4189.16 3355.14 4190.25C3353.52 4191.34 3351.73 4192.24 3349.76 4192.94C3347.79 4193.65 3345.68 4194.17 3343.43 4194.53C3341.22 4194.84 3338.74 4195 3336 4195H3317.86C3316.7 4195 3315.71 4194.67 3314.91 4194C3314.13 4193.29 3313.75 4192.17 3313.75 4190.62V4131.14C3313.75 4129.59 3314.13 4128.48 3314.91 4127.82C3315.71 4127.11 3316.7 4126.76 3317.86 4126.76H3335C3339.18 4126.76 3342.71 4127.11 3345.6 4127.82C3348.51 4128.52 3350.96 4129.59 3352.93 4131.03C3354.93 4132.44 3356.46 4134.23 3357.51 4136.41C3358.57 4138.59 3359.1 4141.16 3359.1 4144.11C3359.1 4145.76 3358.89 4147.33 3358.46 4148.8C3358.04 4150.25 3357.43 4151.56 3356.62 4152.76C3355.81 4153.96 3354.81 4155.01 3353.61 4155.92C3352.45 4156.84 3351.12 4157.58 3349.6 4158.14C3351.54 4158.49 3353.31 4159.11 3354.93 4159.98C3356.58 4160.86 3358.01 4162.01 3359.2 4163.41C3360.43 4164.78 3361.4 4166.4 3362.1 4168.26C3362.81 4170.13 3363.16 4172.22 3363.16 4174.54ZM3345.23 4145.8C3345.23 4144.43 3345.02 4143.2 3344.59 4142.11C3344.17 4141.02 3343.54 4140.12 3342.7 4139.42C3341.85 4138.68 3340.78 4138.12 3339.48 4137.73C3338.21 4137.34 3336.51 4137.15 3334.36 4137.15H3327.35V4154.87H3335.1C3337.11 4154.87 3338.71 4154.64 3339.9 4154.18C3341.1 4153.69 3342.08 4153.04 3342.85 4152.23C3343.66 4151.39 3344.26 4150.42 3344.65 4149.33C3345.03 4148.21 3345.23 4147.03 3345.23 4145.8ZM3348.76 4175.01C3348.76 4173.43 3348.5 4172.03 3347.97 4170.79C3347.44 4169.53 3346.67 4168.47 3345.65 4167.63C3344.63 4166.79 3343.33 4166.14 3341.75 4165.68C3340.16 4165.22 3338.11 4164.99 3335.58 4164.99H3327.35V4184.4H3337.37C3339.3 4184.4 3340.92 4184.21 3342.22 4183.82C3343.56 4183.4 3344.7 4182.8 3345.65 4182.03C3346.63 4181.22 3347.39 4180.23 3347.92 4179.07C3348.48 4177.88 3348.76 4176.53 3348.76 4175.01ZM3388.45 4187.41C3388.45 4190.68 3387.87 4192.87 3386.71 4194C3385.59 4195.12 3383.55 4195.69 3380.6 4195.69C3377.64 4195.69 3375.6 4195.14 3374.48 4194.05C3373.35 4192.93 3372.79 4190.82 3372.79 4187.72C3372.79 4184.42 3373.35 4182.2 3374.48 4181.08C3375.64 4179.95 3377.71 4179.39 3380.7 4179.39C3383.62 4179.39 3385.64 4179.95 3386.77 4181.08C3387.89 4182.17 3388.45 4184.28 3388.45 4187.41ZM3466.15 4174.54C3466.15 4178.12 3465.49 4181.27 3464.15 4183.98C3462.81 4186.69 3461 4188.95 3458.72 4190.78C3456.43 4192.57 3453.76 4193.93 3450.7 4194.84C3447.64 4195.76 3444.38 4196.21 3440.89 4196.21C3438.54 4196.21 3436.34 4196.02 3434.3 4195.63C3432.3 4195.25 3430.52 4194.79 3428.98 4194.26C3427.43 4193.7 3426.13 4193.12 3425.07 4192.52C3424.05 4191.92 3423.32 4191.4 3422.86 4190.94C3422.4 4190.48 3422.07 4189.83 3421.86 4188.99C3421.68 4188.11 3421.59 4186.86 3421.59 4185.24C3421.59 4184.15 3421.63 4183.24 3421.7 4182.5C3421.77 4181.76 3421.88 4181.17 3422.02 4180.71C3422.19 4180.25 3422.4 4179.94 3422.65 4179.76C3422.93 4179.55 3423.25 4179.44 3423.6 4179.44C3424.09 4179.44 3424.78 4179.74 3425.65 4180.34C3426.57 4180.9 3427.73 4181.54 3429.14 4182.24C3430.54 4182.94 3432.21 4183.59 3434.14 4184.19C3436.11 4184.75 3438.38 4185.03 3440.95 4185.03C3442.64 4185.03 3444.15 4184.84 3445.48 4184.45C3446.82 4184.03 3447.94 4183.45 3448.86 4182.71C3449.81 4181.97 3450.53 4181.06 3451.02 4179.97C3451.51 4178.88 3451.76 4177.67 3451.76 4176.33C3451.76 4174.79 3451.34 4173.47 3450.49 4172.38C3449.65 4171.25 3448.54 4170.27 3447.17 4169.42C3445.83 4168.54 3444.3 4167.74 3442.58 4167C3440.86 4166.22 3439.08 4165.42 3437.26 4164.57C3435.43 4163.73 3433.65 4162.78 3431.93 4161.72C3430.21 4160.63 3428.66 4159.35 3427.29 4157.88C3425.95 4156.36 3424.86 4154.59 3424.02 4152.55C3423.18 4150.51 3422.75 4148.07 3422.75 4145.22C3422.75 4141.95 3423.35 4139.08 3424.55 4136.62C3425.78 4134.13 3427.41 4132.07 3429.45 4130.45C3431.53 4128.8 3433.95 4127.57 3436.73 4126.76C3439.54 4125.95 3442.51 4125.55 3445.64 4125.55C3447.26 4125.55 3448.88 4125.67 3450.49 4125.92C3452.11 4126.16 3453.62 4126.5 3455.03 4126.92C3456.43 4127.34 3457.68 4127.82 3458.77 4128.34C3459.86 4128.87 3460.58 4129.31 3460.93 4129.66C3461.29 4130.01 3461.51 4130.31 3461.62 4130.56C3461.76 4130.8 3461.87 4131.14 3461.94 4131.56C3462.04 4131.95 3462.11 4132.46 3462.15 4133.09C3462.18 4133.69 3462.2 4134.44 3462.2 4135.36C3462.2 4136.38 3462.16 4137.24 3462.09 4137.94C3462.06 4138.64 3461.97 4139.22 3461.83 4139.68C3461.72 4140.14 3461.55 4140.47 3461.3 4140.68C3461.09 4140.89 3460.79 4141 3460.41 4141C3460.02 4141 3459.4 4140.75 3458.56 4140.26C3457.72 4139.77 3456.68 4139.24 3455.45 4138.68C3454.22 4138.08 3452.8 4137.55 3451.18 4137.1C3449.56 4136.61 3447.79 4136.36 3445.85 4136.36C3444.34 4136.36 3443.02 4136.55 3441.9 4136.94C3440.77 4137.29 3439.82 4137.8 3439.05 4138.47C3438.31 4139.1 3437.75 4139.88 3437.36 4140.79C3437.01 4141.7 3436.83 4142.67 3436.83 4143.69C3436.83 4145.2 3437.24 4146.52 3438.05 4147.64C3438.89 4148.73 3440 4149.72 3441.37 4150.6C3442.78 4151.44 3444.36 4152.25 3446.12 4153.02C3447.87 4153.76 3449.67 4154.55 3451.49 4155.4C3453.32 4156.24 3455.12 4157.21 3456.87 4158.3C3458.63 4159.35 3460.2 4160.63 3461.57 4162.15C3462.94 4163.62 3464.05 4165.38 3464.89 4167.42C3465.73 4169.42 3466.15 4171.8 3466.15 4174.54ZM3515.39 4193.37C3515.39 4193.86 3515.22 4194.24 3514.87 4194.53C3514.51 4194.81 3513.95 4195 3513.18 4195.11C3512.44 4195.25 3511.33 4195.32 3509.86 4195.32C3508.27 4195.32 3507.11 4195.25 3506.38 4195.11C3505.67 4195 3505.16 4194.81 3504.85 4194.53C3504.57 4194.24 3504.42 4193.86 3504.42 4193.37V4189.62C3502.49 4191.7 3500.28 4193.31 3497.78 4194.47C3495.32 4195.63 3492.58 4196.21 3489.55 4196.21C3487.06 4196.21 3484.75 4195.88 3482.65 4195.21C3480.57 4194.58 3478.76 4193.63 3477.21 4192.36C3475.7 4191.06 3474.52 4189.46 3473.68 4187.56C3472.84 4185.67 3472.41 4183.45 3472.41 4180.92C3472.41 4178.18 3472.94 4175.8 3474 4173.8C3475.09 4171.76 3476.69 4170.09 3478.8 4168.79C3480.94 4167.46 3483.59 4166.47 3486.76 4165.84C3489.92 4165.21 3493.6 4164.89 3497.78 4164.89H3502.37V4162.04C3502.37 4160.56 3502.21 4159.28 3501.89 4158.19C3501.61 4157.07 3501.12 4156.13 3500.42 4155.4C3499.75 4154.66 3498.83 4154.11 3497.67 4153.76C3496.55 4153.41 3495.14 4153.23 3493.46 4153.23C3491.24 4153.23 3489.25 4153.48 3487.5 4153.97C3485.77 4154.46 3484.24 4155.01 3482.91 4155.61C3481.57 4156.21 3480.45 4156.75 3479.53 4157.24C3478.66 4157.73 3477.93 4157.98 3477.37 4157.98C3476.99 4157.98 3476.63 4157.86 3476.32 4157.61C3476.04 4157.37 3475.79 4157.01 3475.58 4156.56C3475.4 4156.1 3475.26 4155.54 3475.16 4154.87C3475.05 4154.2 3475 4153.46 3475 4152.65C3475 4151.56 3475.09 4150.7 3475.26 4150.07C3475.44 4149.44 3475.77 4148.88 3476.26 4148.38C3476.76 4147.86 3477.62 4147.29 3478.85 4146.7C3480.08 4146.06 3481.52 4145.48 3483.17 4144.96C3484.82 4144.43 3486.62 4144.01 3488.55 4143.69C3490.52 4143.34 3492.54 4143.16 3494.62 4143.16C3498.31 4143.16 3501.45 4143.53 3504.06 4144.27C3506.69 4144.97 3508.85 4146.08 3510.54 4147.59C3512.23 4149.07 3513.46 4150.98 3514.23 4153.34C3515.01 4155.7 3515.39 4158.49 3515.39 4161.72V4193.37ZM3502.37 4173.22H3497.31C3495.16 4173.22 3493.33 4173.38 3491.82 4173.7C3490.31 4174.01 3489.08 4174.49 3488.13 4175.12C3487.18 4175.75 3486.48 4176.53 3486.02 4177.44C3485.6 4178.32 3485.39 4179.34 3485.39 4180.5C3485.39 4182.47 3486 4184.01 3487.23 4185.14C3488.5 4186.26 3490.24 4186.83 3492.45 4186.83C3494.32 4186.83 3496.02 4186.35 3497.57 4185.4C3499.15 4184.45 3500.75 4183.06 3502.37 4181.24V4173.22ZM3572.96 4193.21C3572.96 4193.56 3572.86 4193.88 3572.65 4194.16C3572.44 4194.4 3572.09 4194.61 3571.59 4194.79C3571.1 4194.96 3570.42 4195.09 3569.54 4195.16C3568.69 4195.26 3567.64 4195.32 3566.37 4195.32C3565.07 4195.32 3563.98 4195.26 3563.1 4195.16C3562.26 4195.09 3561.59 4194.96 3561.1 4194.79C3560.61 4194.61 3560.26 4194.4 3560.04 4194.16C3559.83 4193.88 3559.73 4193.56 3559.73 4193.21V4166.37C3559.73 4164.08 3559.55 4162.29 3559.2 4160.99C3558.88 4159.69 3558.41 4158.58 3557.78 4157.66C3557.14 4156.71 3556.32 4155.99 3555.3 4155.5C3554.31 4154.97 3553.15 4154.71 3551.82 4154.71C3550.13 4154.71 3548.42 4155.33 3546.7 4156.56C3544.98 4157.79 3543.19 4159.58 3541.32 4161.94V4193.21C3541.32 4193.56 3541.22 4193.88 3541.01 4194.16C3540.8 4194.4 3540.43 4194.61 3539.9 4194.79C3539.41 4194.96 3538.74 4195.09 3537.9 4195.16C3537.05 4195.26 3535.98 4195.32 3534.68 4195.32C3533.38 4195.32 3532.31 4195.26 3531.46 4195.16C3530.62 4195.09 3529.93 4194.96 3529.41 4194.79C3528.91 4194.61 3528.56 4194.4 3528.35 4194.16C3528.14 4193.88 3528.03 4193.56 3528.03 4193.21V4146.17C3528.03 4145.82 3528.12 4145.52 3528.3 4145.27C3528.47 4144.99 3528.79 4144.76 3529.25 4144.59C3529.7 4144.41 3530.28 4144.29 3530.99 4144.22C3531.73 4144.11 3532.64 4144.06 3533.73 4144.06C3534.85 4144.06 3535.79 4144.11 3536.52 4144.22C3537.26 4144.29 3537.83 4144.41 3538.21 4144.59C3538.63 4144.76 3538.93 4144.99 3539.11 4145.27C3539.28 4145.52 3539.37 4145.82 3539.37 4146.17V4151.6C3541.97 4148.79 3544.61 4146.68 3547.28 4145.27C3549.99 4143.87 3552.8 4143.16 3555.72 4143.16C3558.92 4143.16 3561.61 4143.69 3563.79 4144.74C3566 4145.8 3567.78 4147.24 3569.11 4149.07C3570.49 4150.86 3571.47 4152.97 3572.07 4155.4C3572.67 4157.82 3572.96 4160.74 3572.96 4164.15V4193.21ZM3627.11 4146.12C3627.11 4146.29 3627.09 4146.5 3627.05 4146.75C3627.05 4146.99 3627.02 4147.28 3626.95 4147.59C3626.91 4147.87 3626.84 4148.21 3626.74 4148.59C3626.67 4148.98 3626.56 4149.42 3626.42 4149.91L3612.29 4192.47C3612.11 4193.07 3611.87 4193.56 3611.55 4193.95C3611.27 4194.3 3610.78 4194.58 3610.07 4194.79C3609.41 4195 3608.47 4195.14 3607.28 4195.21C3606.12 4195.28 3604.59 4195.32 3602.69 4195.32C3600.83 4195.32 3599.3 4195.26 3598.1 4195.16C3596.94 4195.09 3596.03 4194.95 3595.36 4194.74C3594.69 4194.53 3594.2 4194.24 3593.88 4193.89C3593.6 4193.51 3593.37 4193.03 3593.2 4192.47L3579.07 4149.91C3578.86 4149.21 3578.68 4148.58 3578.54 4148.01C3578.43 4147.45 3578.36 4147.05 3578.33 4146.8C3578.33 4146.55 3578.33 4146.33 3578.33 4146.12C3578.33 4145.76 3578.42 4145.46 3578.59 4145.22C3578.8 4144.94 3579.15 4144.71 3579.65 4144.53C3580.14 4144.36 3580.81 4144.23 3581.65 4144.16C3582.53 4144.09 3583.62 4144.06 3584.92 4144.06C3586.36 4144.06 3587.52 4144.11 3588.4 4144.22C3589.28 4144.29 3589.96 4144.41 3590.46 4144.59C3590.98 4144.73 3591.35 4144.96 3591.56 4145.27C3591.78 4145.55 3591.95 4145.9 3592.09 4146.33L3602.8 4180.87L3603.11 4182.19L3603.43 4180.87L3613.98 4146.33C3614.08 4145.9 3614.24 4145.55 3614.45 4145.27C3614.7 4144.96 3615.07 4144.73 3615.56 4144.59C3616.05 4144.41 3616.7 4144.29 3617.51 4144.22C3618.35 4144.11 3619.44 4144.06 3620.78 4144.06C3622.08 4144.06 3623.13 4144.09 3623.94 4144.16C3624.79 4144.23 3625.44 4144.36 3625.89 4144.53C3626.35 4144.71 3626.67 4144.94 3626.84 4145.22C3627.02 4145.46 3627.11 4145.76 3627.11 4146.12ZM3647.61 4193.21C3647.61 4193.56 3647.5 4193.88 3647.29 4194.16C3647.08 4194.4 3646.71 4194.61 3646.18 4194.79C3645.69 4194.96 3645.02 4195.09 3644.18 4195.16C3643.33 4195.26 3642.26 4195.32 3640.96 4195.32C3639.66 4195.32 3638.59 4195.26 3637.74 4195.16C3636.9 4195.09 3636.21 4194.96 3635.69 4194.79C3635.2 4194.61 3634.84 4194.4 3634.63 4194.16C3634.42 4193.88 3634.32 4193.56 3634.32 4193.21V4146.27C3634.32 4145.92 3634.42 4145.62 3634.63 4145.38C3634.84 4145.1 3635.2 4144.87 3635.69 4144.69C3636.21 4144.48 3636.9 4144.32 3637.74 4144.22C3638.59 4144.11 3639.66 4144.06 3640.96 4144.06C3642.26 4144.06 3643.33 4144.11 3644.18 4144.22C3645.02 4144.32 3645.69 4144.48 3646.18 4144.69C3646.71 4144.87 3647.08 4145.1 3647.29 4145.38C3647.5 4145.62 3647.61 4145.92 3647.61 4146.27V4193.21ZM3648.61 4130.24C3648.61 4132.91 3648.06 4134.76 3646.97 4135.78C3645.88 4136.8 3643.86 4137.31 3640.91 4137.31C3637.92 4137.31 3635.9 4136.82 3634.84 4135.83C3633.82 4134.85 3633.31 4133.07 3633.31 4130.51C3633.31 4127.83 3633.84 4125.99 3634.9 4124.97C3635.99 4123.91 3638.03 4123.39 3641.01 4123.39C3643.97 4123.39 3645.97 4123.9 3647.03 4124.92C3648.08 4125.9 3648.61 4127.68 3648.61 4130.24ZM3695.84 4185.72C3695.84 4186.63 3695.81 4187.41 3695.74 4188.04C3695.7 4188.64 3695.63 4189.15 3695.53 4189.57C3695.46 4189.99 3695.35 4190.34 3695.21 4190.62C3695.1 4190.87 3694.84 4191.2 3694.42 4191.62C3694 4192.01 3693.28 4192.5 3692.26 4193.1C3691.24 4193.66 3690.08 4194.17 3688.78 4194.63C3687.48 4195.09 3686.05 4195.46 3684.5 4195.74C3682.99 4196.02 3681.43 4196.16 3679.81 4196.16C3676.19 4196.16 3672.97 4195.6 3670.16 4194.47C3667.38 4193.35 3665.05 4191.7 3663.15 4189.52C3661.25 4187.3 3659.81 4184.61 3658.82 4181.45C3657.87 4178.28 3657.4 4174.66 3657.4 4170.58C3657.4 4165.87 3657.98 4161.81 3659.14 4158.4C3660.33 4154.96 3661.99 4152.11 3664.1 4149.86C3666.21 4147.61 3668.7 4145.94 3671.58 4144.85C3674.47 4143.76 3677.63 4143.21 3681.08 4143.21C3682.48 4143.21 3683.85 4143.34 3685.19 4143.58C3686.56 4143.83 3687.83 4144.16 3688.99 4144.59C3690.18 4145.01 3691.24 4145.48 3692.15 4146.01C3693.1 4146.54 3693.77 4146.99 3694.15 4147.38C3694.54 4147.77 3694.81 4148.1 3694.95 4148.38C3695.12 4148.63 3695.24 4148.96 3695.31 4149.38C3695.42 4149.81 3695.49 4150.33 3695.53 4150.97C3695.6 4151.56 3695.63 4152.3 3695.63 4153.18C3695.63 4155.22 3695.46 4156.66 3695.1 4157.51C3694.75 4158.31 3694.3 4158.72 3693.73 4158.72C3693.14 4158.72 3692.5 4158.47 3691.83 4157.98C3691.17 4157.49 3690.38 4156.94 3689.46 4156.35C3688.55 4155.75 3687.46 4155.2 3686.19 4154.71C3684.93 4154.22 3683.41 4153.97 3681.66 4153.97C3678.21 4153.97 3675.57 4155.31 3673.75 4157.98C3671.92 4160.62 3671 4164.5 3671 4169.63C3671 4172.17 3671.23 4174.4 3671.69 4176.33C3672.15 4178.27 3672.81 4179.88 3673.69 4181.18C3674.61 4182.48 3675.73 4183.47 3677.07 4184.14C3678.44 4184.77 3680.02 4185.09 3681.81 4185.09C3683.64 4185.09 3685.21 4184.82 3686.51 4184.29C3687.84 4183.73 3689 4183.12 3689.99 4182.45C3690.97 4181.78 3691.8 4181.18 3692.47 4180.66C3693.14 4180.09 3693.7 4179.81 3694.15 4179.81C3694.47 4179.81 3694.73 4179.9 3694.95 4180.08C3695.16 4180.25 3695.31 4180.59 3695.42 4181.08C3695.56 4181.54 3695.67 4182.13 3695.74 4182.87C3695.81 4183.61 3695.84 4184.56 3695.84 4185.72ZM3732.69 4188.57C3732.69 4190.11 3732.58 4191.31 3732.37 4192.15C3732.2 4192.96 3731.95 4193.54 3731.63 4193.89C3731.32 4194.21 3730.84 4194.51 3730.21 4194.79C3729.61 4195.04 3728.89 4195.25 3728.05 4195.42C3727.24 4195.63 3726.34 4195.79 3725.36 4195.9C3724.41 4196 3723.44 4196.05 3722.46 4196.05C3719.82 4196.05 3717.54 4195.72 3715.6 4195.05C3713.67 4194.38 3712.07 4193.37 3710.8 4191.99C3709.54 4190.59 3708.61 4188.83 3708.01 4186.72C3707.41 4184.61 3707.11 4182.12 3707.11 4179.23V4155.13H3701.47C3700.8 4155.13 3700.29 4154.73 3699.94 4153.92C3699.59 4153.08 3699.41 4151.69 3699.41 4149.75C3699.41 4148.73 3699.45 4147.87 3699.52 4147.17C3699.62 4146.47 3699.76 4145.92 3699.94 4145.54C3700.12 4145.11 3700.33 4144.81 3700.57 4144.64C3700.85 4144.46 3701.17 4144.38 3701.52 4144.38H3707.11V4133.88C3707.11 4133.53 3707.2 4133.21 3707.38 4132.93C3707.59 4132.65 3707.94 4132.42 3708.43 4132.25C3708.96 4132.04 3709.64 4131.89 3710.49 4131.82C3711.37 4131.72 3712.44 4131.67 3713.7 4131.67C3715 4131.67 3716.08 4131.72 3716.92 4131.82C3717.8 4131.89 3718.49 4132.04 3718.98 4132.25C3719.47 4132.42 3719.82 4132.65 3720.03 4132.93C3720.24 4133.21 3720.35 4133.53 3720.35 4133.88V4144.38H3730.58C3730.93 4144.38 3731.23 4144.46 3731.48 4144.64C3731.76 4144.81 3731.99 4145.11 3732.16 4145.54C3732.34 4145.92 3732.46 4146.47 3732.53 4147.17C3732.64 4147.87 3732.69 4148.73 3732.69 4149.75C3732.69 4151.69 3732.51 4153.08 3732.16 4153.92C3731.81 4154.73 3731.3 4155.13 3730.63 4155.13H3720.35V4177.23C3720.35 4179.79 3720.75 4181.73 3721.56 4183.03C3722.37 4184.29 3723.81 4184.93 3725.89 4184.93C3726.59 4184.93 3727.22 4184.88 3727.78 4184.77C3728.35 4184.63 3728.84 4184.49 3729.26 4184.35C3729.72 4184.17 3730.09 4184.03 3730.37 4183.93C3730.68 4183.79 3730.97 4183.71 3731.21 4183.71C3731.42 4183.71 3731.62 4183.79 3731.79 4183.93C3732 4184.03 3732.16 4184.28 3732.27 4184.66C3732.37 4185.02 3732.46 4185.51 3732.53 4186.14C3732.64 4186.77 3732.69 4187.58 3732.69 4188.57ZM3788.15 4169.21C3788.15 4173.22 3787.62 4176.88 3786.57 4180.18C3785.51 4183.49 3783.91 4186.33 3781.77 4188.72C3779.62 4191.12 3776.93 4192.96 3773.7 4194.26C3770.47 4195.56 3766.69 4196.21 3762.36 4196.21C3758.18 4196.21 3754.54 4195.63 3751.45 4194.47C3748.35 4193.31 3745.79 4191.62 3743.75 4189.41C3741.71 4187.2 3740.2 4184.47 3739.21 4181.24C3738.23 4178 3737.74 4174.31 3737.74 4170.16C3737.74 4166.15 3738.26 4162.5 3739.32 4159.19C3740.41 4155.85 3742.02 4153.01 3744.17 4150.65C3746.31 4148.26 3748.99 4146.41 3752.18 4145.11C3755.42 4143.81 3759.2 4143.16 3763.52 4143.16C3767.74 4143.16 3771.4 4143.74 3774.49 4144.9C3777.59 4146.03 3780.13 4147.7 3782.14 4149.91C3784.18 4152.13 3785.69 4154.85 3786.67 4158.09C3787.66 4161.32 3788.15 4165.03 3788.15 4169.21ZM3774.49 4169.74C3774.49 4167.42 3774.3 4165.29 3773.91 4163.36C3773.56 4161.39 3772.94 4159.69 3772.07 4158.24C3771.19 4156.8 3770.01 4155.68 3768.53 4154.87C3767.09 4154.06 3765.26 4153.66 3763.05 4153.66C3761.08 4153.66 3759.36 4154.03 3757.88 4154.76C3756.4 4155.47 3755.19 4156.52 3754.24 4157.93C3753.29 4159.3 3752.57 4160.97 3752.08 4162.94C3751.62 4164.87 3751.39 4167.09 3751.39 4169.58C3751.39 4171.9 3751.59 4174.05 3751.97 4176.02C3752.36 4177.95 3752.98 4179.64 3753.82 4181.08C3754.7 4182.52 3755.88 4183.64 3757.35 4184.45C3758.83 4185.23 3760.66 4185.61 3762.84 4185.61C3764.84 4185.61 3766.58 4185.26 3768.06 4184.56C3769.53 4183.82 3770.75 4182.77 3771.7 4181.39C3772.65 4180.02 3773.35 4178.37 3773.81 4176.44C3774.26 4174.47 3774.49 4172.24 3774.49 4169.74ZM3828.27 4150.54C3828.27 4151.81 3828.23 4152.85 3828.16 4153.66C3828.09 4154.46 3827.98 4155.1 3827.84 4155.55C3827.7 4156.01 3827.51 4156.33 3827.26 4156.5C3827.05 4156.68 3826.77 4156.77 3826.42 4156.77C3826.14 4156.77 3825.82 4156.71 3825.47 4156.61C3825.12 4156.47 3824.71 4156.33 3824.26 4156.19C3823.84 4156.05 3823.36 4155.92 3822.83 4155.82C3822.31 4155.68 3821.73 4155.61 3821.09 4155.61C3820.36 4155.61 3819.62 4155.77 3818.88 4156.08C3818.14 4156.36 3817.37 4156.82 3816.56 4157.45C3815.79 4158.09 3814.96 4158.93 3814.08 4159.98C3813.24 4161.04 3812.32 4162.34 3811.34 4163.89V4193.21C3811.34 4193.56 3811.23 4193.88 3811.02 4194.16C3810.81 4194.4 3810.44 4194.61 3809.91 4194.79C3809.42 4194.96 3808.75 4195.09 3807.91 4195.16C3807.07 4195.26 3805.99 4195.32 3804.69 4195.32C3803.39 4195.32 3802.32 4195.26 3801.48 4195.16C3800.63 4195.09 3799.95 4194.96 3799.42 4194.79C3798.93 4194.61 3798.58 4194.4 3798.37 4194.16C3798.15 4193.88 3798.05 4193.56 3798.05 4193.21V4146.17C3798.05 4145.82 3798.14 4145.52 3798.31 4145.27C3798.49 4144.99 3798.8 4144.76 3799.26 4144.59C3799.72 4144.41 3800.3 4144.29 3801 4144.22C3801.74 4144.11 3802.65 4144.06 3803.74 4144.06C3804.87 4144.06 3805.8 4144.11 3806.54 4144.22C3807.28 4144.29 3807.84 4144.41 3808.23 4144.59C3808.65 4144.76 3808.95 4144.99 3809.12 4145.27C3809.3 4145.52 3809.39 4145.82 3809.39 4146.17V4152.02C3810.62 4150.26 3811.78 4148.82 3812.87 4147.7C3813.96 4146.54 3814.99 4145.62 3815.98 4144.96C3816.96 4144.29 3817.95 4143.83 3818.93 4143.58C3819.92 4143.3 3820.9 4143.16 3821.88 4143.16C3822.34 4143.16 3822.83 4143.2 3823.36 4143.27C3823.89 4143.3 3824.43 4143.39 3825 4143.53C3825.56 4143.64 3826.05 4143.78 3826.47 4143.95C3826.89 4144.09 3827.19 4144.25 3827.37 4144.43C3827.58 4144.6 3827.72 4144.8 3827.79 4145.01C3827.9 4145.22 3827.98 4145.52 3828.05 4145.9C3828.12 4146.26 3828.18 4146.8 3828.21 4147.54C3828.25 4148.28 3828.27 4149.28 3828.27 4150.54ZM3877.98 4168.32C3877.98 4169.93 3877.61 4171.13 3876.87 4171.9C3876.17 4172.68 3875.18 4173.06 3873.92 4173.06H3845.28C3845.28 4175.07 3845.51 4176.89 3845.97 4178.55C3846.46 4180.16 3847.22 4181.55 3848.24 4182.71C3849.29 4183.84 3850.63 4184.7 3852.24 4185.3C3853.9 4185.89 3855.87 4186.19 3858.15 4186.19C3860.47 4186.19 3862.51 4186.04 3864.27 4185.72C3866.03 4185.37 3867.54 4185 3868.8 4184.61C3870.1 4184.19 3871.18 4183.82 3872.02 4183.5C3872.86 4183.15 3873.55 4182.98 3874.08 4182.98C3874.39 4182.98 3874.66 4183.05 3874.87 4183.19C3875.08 4183.29 3875.25 4183.5 3875.39 4183.82C3875.54 4184.14 3875.62 4184.59 3875.66 4185.19C3875.73 4185.75 3875.76 4186.47 3875.76 4187.35C3875.76 4188.13 3875.75 4188.79 3875.71 4189.36C3875.68 4189.88 3875.62 4190.34 3875.55 4190.73C3875.48 4191.12 3875.38 4191.45 3875.24 4191.73C3875.1 4191.98 3874.9 4192.22 3874.66 4192.47C3874.45 4192.71 3873.83 4193.05 3872.81 4193.47C3871.79 4193.89 3870.49 4194.31 3868.91 4194.74C3867.33 4195.12 3865.52 4195.46 3863.48 4195.74C3861.44 4196.05 3859.26 4196.21 3856.94 4196.21C3852.75 4196.21 3849.08 4195.69 3845.92 4194.63C3842.79 4193.58 3840.17 4191.98 3838.06 4189.83C3835.95 4187.69 3834.37 4184.98 3833.31 4181.71C3832.29 4178.44 3831.78 4174.61 3831.78 4170.21C3831.78 4166.03 3832.33 4162.27 3833.42 4158.93C3834.51 4155.55 3836.09 4152.71 3838.16 4150.39C3840.24 4148.03 3842.75 4146.24 3845.71 4145.01C3848.69 4143.78 3852.05 4143.16 3855.78 4143.16C3859.72 4143.16 3863.07 4143.74 3865.85 4144.9C3868.66 4146.06 3870.97 4147.68 3872.76 4149.75C3874.55 4151.79 3875.87 4154.22 3876.71 4157.03C3877.56 4159.84 3877.98 4162.9 3877.98 4166.21V4168.32ZM3865.11 4164.52C3865.22 4160.79 3864.46 4157.88 3862.84 4155.77C3861.26 4153.62 3858.8 4152.55 3855.46 4152.55C3853.77 4152.55 3852.3 4152.87 3851.03 4153.5C3849.8 4154.13 3848.76 4154.99 3847.92 4156.08C3847.11 4157.14 3846.48 4158.4 3846.02 4159.88C3845.6 4161.32 3845.35 4162.87 3845.28 4164.52H3865.11ZM3921.42 4179.92C3921.42 4182.59 3920.91 4184.95 3919.89 4186.98C3918.9 4189.02 3917.5 4190.73 3915.67 4192.1C3913.84 4193.47 3911.68 4194.49 3909.18 4195.16C3906.69 4195.86 3903.98 4196.21 3901.06 4196.21C3899.3 4196.21 3897.62 4196.07 3896 4195.79C3894.42 4195.54 3892.99 4195.23 3891.73 4194.84C3890.46 4194.42 3889.41 4194 3888.56 4193.58C3887.72 4193.15 3887.1 4192.77 3886.72 4192.42C3886.33 4192.03 3886.03 4191.45 3885.82 4190.68C3885.61 4189.87 3885.5 4188.69 3885.5 4187.14C3885.5 4186.12 3885.54 4185.31 3885.61 4184.72C3885.68 4184.08 3885.79 4183.59 3885.93 4183.24C3886.07 4182.85 3886.24 4182.61 3886.45 4182.5C3886.66 4182.36 3886.93 4182.29 3887.24 4182.29C3887.63 4182.29 3888.19 4182.52 3888.93 4182.98C3889.71 4183.4 3890.66 4183.87 3891.78 4184.4C3892.91 4184.93 3894.21 4185.42 3895.68 4185.88C3897.19 4186.33 3898.9 4186.56 3900.8 4186.56C3901.99 4186.56 3903.05 4186.44 3903.96 4186.19C3904.91 4185.95 3905.72 4185.6 3906.39 4185.14C3907.09 4184.68 3907.62 4184.1 3907.97 4183.4C3908.32 4182.7 3908.5 4181.89 3908.5 4180.97C3908.5 4179.92 3908.16 4179.02 3907.49 4178.28C3906.86 4177.51 3906 4176.84 3904.91 4176.28C3903.86 4175.72 3902.64 4175.19 3901.27 4174.7C3899.94 4174.21 3898.55 4173.66 3897.11 4173.06C3895.7 4172.46 3894.31 4171.78 3892.94 4171.01C3891.6 4170.23 3890.39 4169.28 3889.3 4168.16C3888.25 4167.03 3887.39 4165.68 3886.72 4164.1C3886.08 4162.52 3885.77 4160.62 3885.77 4158.4C3885.77 4156.15 3886.21 4154.1 3887.09 4152.23C3887.97 4150.33 3889.23 4148.72 3890.88 4147.38C3892.54 4146.04 3894.54 4145.01 3896.9 4144.27C3899.29 4143.53 3901.96 4143.16 3904.91 4143.16C3906.39 4143.16 3907.81 4143.27 3909.18 4143.48C3910.59 4143.69 3911.85 4143.95 3912.98 4144.27C3914.1 4144.59 3915.05 4144.94 3915.83 4145.32C3916.6 4145.68 3917.15 4145.99 3917.46 4146.27C3917.81 4146.52 3918.06 4146.78 3918.2 4147.06C3918.34 4147.31 3918.45 4147.63 3918.52 4148.01C3918.59 4148.37 3918.64 4148.82 3918.67 4149.38C3918.74 4149.91 3918.78 4150.58 3918.78 4151.39C3918.78 4152.34 3918.74 4153.11 3918.67 4153.71C3918.64 4154.31 3918.55 4154.78 3918.41 4155.13C3918.31 4155.48 3918.15 4155.73 3917.94 4155.87C3917.73 4155.98 3917.48 4156.03 3917.2 4156.03C3916.88 4156.03 3916.39 4155.85 3915.72 4155.5C3915.05 4155.12 3914.21 4154.71 3913.19 4154.29C3912.21 4153.87 3911.05 4153.48 3909.71 4153.13C3908.41 4152.74 3906.91 4152.55 3905.23 4152.55C3904.03 4152.55 3902.99 4152.67 3902.12 4152.92C3901.24 4153.16 3900.52 4153.52 3899.95 4153.97C3899.39 4154.43 3898.97 4154.97 3898.69 4155.61C3898.41 4156.21 3898.27 4156.86 3898.27 4157.56C3898.27 4158.65 3898.6 4159.56 3899.27 4160.3C3899.94 4161.04 3900.82 4161.69 3901.91 4162.25C3902.99 4162.81 3904.23 4163.34 3905.6 4163.83C3907 4164.33 3908.41 4164.87 3909.82 4165.47C3911.26 4166.03 3912.66 4166.7 3914.03 4167.47C3915.44 4168.25 3916.69 4169.2 3917.78 4170.32C3918.87 4171.45 3919.75 4172.8 3920.41 4174.38C3921.08 4175.93 3921.42 4177.77 3921.42 4179.92ZM3946.4 4185.3C3946.4 4186.7 3946.33 4187.99 3946.19 4189.15C3946.05 4190.27 3945.82 4191.34 3945.5 4192.36C3945.18 4193.38 3944.78 4194.37 3944.29 4195.32C3943.8 4196.3 3943.18 4197.3 3942.44 4198.32L3935.38 4208.45C3935.13 4208.8 3934.85 4209.1 3934.53 4209.34C3934.25 4209.59 3933.9 4209.78 3933.48 4209.92C3933.06 4210.06 3932.55 4210.17 3931.95 4210.24C3931.35 4210.35 3930.59 4210.4 3929.68 4210.4C3928.66 4210.4 3927.84 4210.35 3927.2 4210.24C3926.57 4210.17 3926.11 4210.05 3925.83 4209.87C3925.55 4209.7 3925.39 4209.47 3925.36 4209.19C3925.36 4208.9 3925.44 4208.57 3925.62 4208.18L3932.05 4193.63V4185.3C3932.05 4184.1 3932.19 4183.13 3932.48 4182.4C3932.76 4181.66 3933.2 4181.1 3933.79 4180.71C3934.39 4180.32 3935.15 4180.08 3936.06 4179.97C3936.98 4179.83 3938.08 4179.76 3939.38 4179.76C3940.61 4179.76 3941.67 4179.83 3942.55 4179.97C3943.43 4180.08 3944.15 4180.32 3944.71 4180.71C3945.31 4181.1 3945.73 4181.66 3945.98 4182.4C3946.26 4183.13 3946.4 4184.1 3946.4 4185.3ZM4023.04 4189.57C4023.04 4190.59 4022.99 4191.45 4022.88 4192.15C4022.81 4192.82 4022.69 4193.37 4022.52 4193.79C4022.34 4194.21 4022.11 4194.53 4021.83 4194.74C4021.58 4194.91 4021.3 4195 4020.99 4195H3986.71C3985.55 4195 3984.56 4194.67 3983.76 4194C3982.98 4193.29 3982.6 4192.17 3982.6 4190.62V4131.14C3982.6 4129.59 3982.98 4128.48 3983.76 4127.82C3984.56 4127.11 3985.55 4126.76 3986.71 4126.76H4020.78C4021.09 4126.76 4021.37 4126.85 4021.62 4127.03C4021.87 4127.2 4022.08 4127.52 4022.25 4127.97C4022.43 4128.4 4022.55 4128.96 4022.62 4129.66C4022.73 4130.33 4022.78 4131.19 4022.78 4132.25C4022.78 4133.23 4022.73 4134.07 4022.62 4134.78C4022.55 4135.45 4022.43 4135.99 4022.25 4136.41C4022.08 4136.83 4021.87 4137.15 4021.62 4137.36C4021.37 4137.54 4021.09 4137.62 4020.78 4137.62H3996.41V4154.29H4017.03C4017.35 4154.29 4017.63 4154.39 4017.88 4154.61C4018.16 4154.78 4018.38 4155.08 4018.56 4155.5C4018.74 4155.89 4018.86 4156.43 4018.93 4157.14C4019.04 4157.8 4019.09 4158.63 4019.09 4159.62C4019.09 4160.63 4019.04 4161.48 4018.93 4162.15C4018.86 4162.81 4018.74 4163.36 4018.56 4163.78C4018.38 4164.17 4018.16 4164.45 4017.88 4164.62C4017.63 4164.8 4017.35 4164.89 4017.03 4164.89H3996.41V4184.14H4020.99C4021.3 4184.14 4021.58 4184.24 4021.83 4184.45C4022.11 4184.63 4022.34 4184.93 4022.52 4185.35C4022.69 4185.77 4022.81 4186.33 4022.88 4187.04C4022.99 4187.71 4023.04 4188.55 4023.04 4189.57ZM4114.21 4193.1C4114.21 4193.45 4114.1 4193.77 4113.89 4194.05C4113.71 4194.33 4113.36 4194.56 4112.83 4194.74C4112.34 4194.91 4111.67 4195.05 4110.83 4195.16C4109.99 4195.26 4108.91 4195.32 4107.61 4195.32C4106.35 4195.32 4105.29 4195.26 4104.45 4195.16C4103.61 4195.05 4102.94 4194.91 4102.45 4194.74C4101.95 4194.56 4101.6 4194.33 4101.39 4194.05C4101.18 4193.77 4101.07 4193.45 4101.07 4193.1V4137.57H4100.97L4081.19 4193.05C4081.05 4193.51 4080.82 4193.89 4080.51 4194.21C4080.19 4194.49 4079.75 4194.72 4079.19 4194.89C4078.66 4195.07 4077.98 4195.18 4077.13 4195.21C4076.29 4195.28 4075.27 4195.32 4074.07 4195.32C4072.88 4195.32 4071.86 4195.26 4071.02 4195.16C4070.17 4195.09 4069.47 4194.96 4068.91 4194.79C4068.38 4194.58 4067.96 4194.33 4067.64 4194.05C4067.32 4193.77 4067.11 4193.44 4067.01 4193.05L4047.92 4137.57H4047.81V4193.1C4047.81 4193.45 4047.71 4193.77 4047.5 4194.05C4047.32 4194.33 4046.97 4194.56 4046.44 4194.74C4045.91 4194.91 4045.23 4195.05 4044.39 4195.16C4043.58 4195.26 4042.52 4195.32 4041.22 4195.32C4039.96 4195.32 4038.9 4195.26 4038.06 4195.16C4037.21 4195.05 4036.53 4194.91 4036 4194.74C4035.51 4194.56 4035.16 4194.33 4034.95 4194.05C4034.77 4193.77 4034.68 4193.45 4034.68 4193.1V4132.3C4034.68 4130.51 4035.16 4129.13 4036.11 4128.19C4037.06 4127.24 4038.32 4126.76 4039.9 4126.76H4048.97C4050.59 4126.76 4051.98 4126.9 4053.14 4127.18C4054.3 4127.43 4055.3 4127.87 4056.15 4128.5C4056.99 4129.1 4057.69 4129.91 4058.25 4130.93C4058.82 4131.91 4059.31 4133.14 4059.73 4134.62L4074.5 4175.28H4074.71L4090 4134.72C4090.46 4133.25 4090.95 4132 4091.48 4130.98C4092.04 4129.96 4092.67 4129.13 4093.38 4128.5C4094.11 4127.87 4094.98 4127.43 4095.96 4127.18C4096.94 4126.9 4098.09 4126.76 4099.39 4126.76H4108.72C4109.67 4126.76 4110.48 4126.88 4111.15 4127.13C4111.85 4127.38 4112.41 4127.75 4112.83 4128.24C4113.29 4128.7 4113.63 4129.28 4113.84 4129.98C4114.08 4130.65 4114.21 4131.42 4114.21 4132.3V4193.1ZM4173.83 4132.46C4173.83 4133.48 4173.78 4134.36 4173.67 4135.09C4173.6 4135.8 4173.48 4136.38 4173.31 4136.83C4173.13 4137.26 4172.9 4137.57 4172.62 4137.78C4172.37 4137.99 4172.09 4138.1 4171.78 4138.1H4154.69V4193.1C4154.69 4193.45 4154.57 4193.77 4154.32 4194.05C4154.11 4194.33 4153.74 4194.56 4153.21 4194.74C4152.69 4194.91 4151.97 4195.05 4151.05 4195.16C4150.17 4195.26 4149.07 4195.32 4147.73 4195.32C4146.39 4195.32 4145.27 4195.26 4144.35 4195.16C4143.48 4195.05 4142.77 4194.91 4142.25 4194.74C4141.72 4194.56 4141.33 4194.33 4141.08 4194.05C4140.87 4193.77 4140.77 4193.45 4140.77 4193.1V4138.1H4123.68C4123.33 4138.1 4123.03 4137.99 4122.79 4137.78C4122.54 4137.57 4122.33 4137.26 4122.15 4136.83C4121.98 4136.38 4121.84 4135.8 4121.73 4135.09C4121.66 4134.36 4121.63 4133.48 4121.63 4132.46C4121.63 4131.4 4121.66 4130.51 4121.73 4129.77C4121.84 4129.03 4121.98 4128.45 4122.15 4128.03C4122.33 4127.57 4122.54 4127.25 4122.79 4127.08C4123.03 4126.87 4123.33 4126.76 4123.68 4126.76H4171.78C4172.09 4126.76 4172.37 4126.87 4172.62 4127.08C4172.9 4127.25 4173.13 4127.57 4173.31 4128.03C4173.48 4128.45 4173.6 4129.03 4173.67 4129.77C4173.78 4130.51 4173.83 4131.4 4173.83 4132.46Z" fill="black"/>
</svg>
