<svg width="6900" height="5209" viewBox="0 0 6900 5209" fill="none" xmlns="http://www.w3.org/2000/svg">
<path d="M3131.96 4246.13C3131.96 4246.61 3131.93 4247.02 3131.88 4247.37C3131.83 4247.72 3131.75 4248.01 3131.62 4248.24C3131.52 4248.44 3131.38 4248.59 3131.21 4248.69C3131.06 4248.79 3130.88 4248.84 3130.68 4248.84H3116.99V4291.02C3116.99 4291.22 3116.94 4291.4 3116.84 4291.55C3116.74 4291.7 3116.57 4291.82 3116.32 4291.92C3116.07 4292 3115.73 4292.06 3115.3 4292.11C3114.9 4292.19 3114.39 4292.23 3113.76 4292.23C3113.16 4292.23 3112.65 4292.19 3112.22 4292.11C3111.79 4292.06 3111.46 4292 3111.2 4291.92C3110.95 4291.82 3110.78 4291.7 3110.68 4291.55C3110.58 4291.4 3110.53 4291.22 3110.53 4291.02V4248.84H3096.84C3096.64 4248.84 3096.45 4248.79 3096.28 4248.69C3096.13 4248.59 3096 4248.44 3095.9 4248.24C3095.8 4248.01 3095.71 4247.72 3095.64 4247.37C3095.59 4247.02 3095.56 4246.61 3095.56 4246.13C3095.56 4245.65 3095.59 4245.24 3095.64 4244.89C3095.71 4244.51 3095.8 4244.21 3095.9 4243.99C3096 4243.76 3096.13 4243.6 3096.28 4243.5C3096.45 4243.4 3096.64 4243.35 3096.84 4243.35H3130.68C3130.88 4243.35 3131.06 4243.4 3131.21 4243.5C3131.38 4243.6 3131.52 4243.76 3131.62 4243.99C3131.75 4244.21 3131.83 4244.51 3131.88 4244.89C3131.93 4245.24 3131.96 4245.65 3131.96 4246.13ZM3153.24 4259.44C3153.24 4259.99 3153.23 4260.46 3153.2 4260.83C3153.18 4261.21 3153.13 4261.51 3153.05 4261.73C3152.98 4261.93 3152.88 4262.1 3152.75 4262.22C3152.65 4262.32 3152.5 4262.37 3152.3 4262.37C3152.1 4262.37 3151.85 4262.32 3151.55 4262.22C3151.27 4262.1 3150.95 4261.98 3150.57 4261.88C3150.22 4261.76 3149.82 4261.65 3149.37 4261.55C3148.92 4261.45 3148.43 4261.4 3147.9 4261.4C3147.27 4261.4 3146.66 4261.52 3146.06 4261.77C3145.46 4262.02 3144.82 4262.44 3144.14 4263.01C3143.49 4263.59 3142.8 4264.35 3142.07 4265.31C3141.35 4266.26 3140.54 4267.42 3139.67 4268.8V4291.06C3139.67 4291.26 3139.62 4291.44 3139.52 4291.59C3139.42 4291.71 3139.25 4291.82 3139.03 4291.92C3138.8 4292.03 3138.49 4292.1 3138.09 4292.15C3137.69 4292.2 3137.17 4292.23 3136.55 4292.23C3135.94 4292.23 3135.44 4292.2 3135.04 4292.15C3134.64 4292.1 3134.31 4292.03 3134.06 4291.92C3133.84 4291.82 3133.68 4291.71 3133.58 4291.59C3133.5 4291.44 3133.46 4291.26 3133.46 4291.06V4257.22C3133.46 4257.02 3133.5 4256.86 3133.58 4256.73C3133.65 4256.58 3133.8 4256.46 3134.03 4256.36C3134.25 4256.23 3134.54 4256.16 3134.89 4256.13C3135.24 4256.08 3135.71 4256.06 3136.28 4256.06C3136.83 4256.06 3137.28 4256.08 3137.64 4256.13C3138.01 4256.16 3138.3 4256.23 3138.5 4256.36C3138.7 4256.46 3138.84 4256.58 3138.91 4256.73C3139.01 4256.86 3139.06 4257.02 3139.06 4257.22V4262.15C3139.99 4260.79 3140.86 4259.69 3141.66 4258.84C3142.49 4257.99 3143.26 4257.32 3143.99 4256.85C3144.72 4256.34 3145.43 4256.01 3146.13 4255.83C3146.86 4255.63 3147.59 4255.53 3148.31 4255.53C3148.64 4255.53 3149 4255.56 3149.4 4255.61C3149.83 4255.63 3150.27 4255.69 3150.72 4255.79C3151.17 4255.89 3151.57 4256.01 3151.92 4256.13C3152.3 4256.26 3152.56 4256.38 3152.71 4256.51C3152.86 4256.63 3152.96 4256.76 3153.01 4256.88C3153.06 4256.98 3153.1 4257.12 3153.13 4257.3C3153.18 4257.47 3153.2 4257.74 3153.2 4258.09C3153.23 4258.41 3153.24 4258.86 3153.24 4259.44ZM3184.22 4291.1C3184.22 4291.4 3184.12 4291.62 3183.92 4291.77C3183.72 4291.92 3183.44 4292.04 3183.09 4292.11C3182.74 4292.19 3182.23 4292.23 3181.55 4292.23C3180.9 4292.23 3180.37 4292.19 3179.97 4292.11C3179.59 4292.04 3179.32 4291.92 3179.14 4291.77C3178.97 4291.62 3178.88 4291.4 3178.88 4291.1V4287.71C3177.4 4289.29 3175.75 4290.52 3173.92 4291.4C3172.11 4292.28 3170.2 4292.71 3168.17 4292.71C3166.39 4292.71 3164.77 4292.48 3163.31 4292C3161.89 4291.55 3160.66 4290.88 3159.63 4290.01C3158.63 4289.13 3157.84 4288.05 3157.26 4286.77C3156.71 4285.5 3156.43 4284.04 3156.43 4282.41C3156.43 4280.51 3156.82 4278.85 3157.6 4277.45C3158.38 4276.05 3159.49 4274.88 3160.95 4273.95C3162.4 4273.03 3164.18 4272.34 3166.29 4271.89C3168.39 4271.41 3170.76 4271.17 3173.39 4271.17H3178.05V4268.54C3178.05 4267.24 3177.92 4266.08 3177.64 4265.08C3177.36 4264.08 3176.91 4263.25 3176.29 4262.6C3175.68 4261.92 3174.9 4261.42 3173.92 4261.09C3172.94 4260.74 3171.74 4260.57 3170.31 4260.57C3168.78 4260.57 3167.4 4260.76 3166.17 4261.13C3164.97 4261.48 3163.9 4261.88 3162.98 4262.34C3162.07 4262.76 3161.31 4263.16 3160.68 4263.54C3160.08 4263.89 3159.63 4264.06 3159.33 4264.06C3159.13 4264.06 3158.95 4264.01 3158.8 4263.91C3158.65 4263.81 3158.51 4263.66 3158.39 4263.46C3158.29 4263.26 3158.21 4263.01 3158.16 4262.71C3158.11 4262.39 3158.09 4262.03 3158.09 4261.66C3158.09 4261.03 3158.13 4260.54 3158.2 4260.19C3158.3 4259.82 3158.51 4259.47 3158.84 4259.14C3159.19 4258.81 3159.78 4258.44 3160.61 4258.01C3161.44 4257.56 3162.39 4257.16 3163.47 4256.81C3164.54 4256.43 3165.72 4256.13 3167 4255.91C3168.28 4255.66 3169.57 4255.53 3170.87 4255.53C3173.3 4255.53 3175.37 4255.81 3177.08 4256.36C3178.78 4256.91 3180.16 4257.72 3181.21 4258.8C3182.26 4259.85 3183.03 4261.17 3183.5 4262.75C3183.98 4264.33 3184.22 4266.17 3184.22 4268.28V4291.1ZM3178.05 4275.65H3172.75C3171.05 4275.65 3169.57 4275.8 3168.32 4276.1C3167.06 4276.37 3166.02 4276.8 3165.19 4277.37C3164.37 4277.93 3163.75 4278.6 3163.35 4279.4C3162.98 4280.18 3162.79 4281.08 3162.79 4282.11C3162.79 4283.87 3163.34 4285.27 3164.44 4286.32C3165.57 4287.35 3167.14 4287.86 3169.14 4287.86C3170.77 4287.86 3172.28 4287.45 3173.65 4286.62C3175.06 4285.8 3176.52 4284.53 3178.05 4282.83V4275.65ZM3201.85 4291.06C3201.85 4291.26 3201.8 4291.44 3201.7 4291.59C3201.6 4291.71 3201.44 4291.82 3201.21 4291.92C3200.99 4292.03 3200.67 4292.1 3200.27 4292.15C3199.87 4292.2 3199.36 4292.23 3198.73 4292.23C3198.13 4292.23 3197.63 4292.2 3197.23 4292.15C3196.83 4292.1 3196.5 4292.03 3196.25 4291.92C3196.02 4291.82 3195.86 4291.71 3195.76 4291.59C3195.69 4291.44 3195.65 4291.26 3195.65 4291.06V4257.22C3195.65 4257.05 3195.69 4256.88 3195.76 4256.73C3195.86 4256.58 3196.02 4256.46 3196.25 4256.36C3196.5 4256.26 3196.83 4256.18 3197.23 4256.13C3197.63 4256.08 3198.13 4256.06 3198.73 4256.06C3199.36 4256.06 3199.87 4256.08 3200.27 4256.13C3200.67 4256.18 3200.99 4256.26 3201.21 4256.36C3201.44 4256.46 3201.6 4256.58 3201.7 4256.73C3201.8 4256.88 3201.85 4257.05 3201.85 4257.22V4291.06ZM3202.57 4245.79C3202.57 4247.25 3202.29 4248.24 3201.74 4248.76C3201.19 4249.29 3200.17 4249.55 3198.69 4249.55C3197.24 4249.55 3196.24 4249.3 3195.69 4248.8C3195.16 4248.27 3194.9 4247.3 3194.9 4245.87C3194.9 4244.41 3195.17 4243.42 3195.72 4242.9C3196.28 4242.37 3197.29 4242.11 3198.77 4242.11C3200.22 4242.11 3201.21 4242.37 3201.74 4242.9C3202.29 4243.4 3202.57 4244.36 3202.57 4245.79ZM3242.46 4291.06C3242.46 4291.26 3242.41 4291.44 3242.31 4291.59C3242.21 4291.71 3242.04 4291.82 3241.82 4291.92C3241.59 4292.03 3241.28 4292.1 3240.88 4292.15C3240.48 4292.2 3239.98 4292.23 3239.38 4292.23C3238.75 4292.23 3238.23 4292.2 3237.83 4292.15C3237.43 4292.1 3237.12 4292.03 3236.89 4291.92C3236.67 4291.82 3236.51 4291.71 3236.4 4291.59C3236.3 4291.44 3236.25 4291.26 3236.25 4291.06V4271.25C3236.25 4269.32 3236.1 4267.76 3235.8 4266.58C3235.5 4265.41 3235.06 4264.39 3234.49 4263.54C3233.91 4262.69 3233.16 4262.03 3232.23 4261.58C3231.33 4261.13 3230.28 4260.91 3229.07 4260.91C3227.52 4260.91 3225.97 4261.46 3224.41 4262.56C3222.86 4263.66 3221.23 4265.28 3219.52 4267.41V4291.06C3219.52 4291.26 3219.47 4291.44 3219.37 4291.59C3219.27 4291.71 3219.11 4291.82 3218.88 4291.92C3218.66 4292.03 3218.35 4292.1 3217.94 4292.15C3217.54 4292.2 3217.03 4292.23 3216.4 4292.23C3215.8 4292.23 3215.3 4292.2 3214.9 4292.15C3214.5 4292.1 3214.17 4292.03 3213.92 4291.92C3213.7 4291.82 3213.53 4291.71 3213.43 4291.59C3213.36 4291.44 3213.32 4291.26 3213.32 4291.06V4257.22C3213.32 4257.02 3213.36 4256.86 3213.43 4256.73C3213.51 4256.58 3213.66 4256.46 3213.88 4256.36C3214.11 4256.23 3214.4 4256.16 3214.75 4256.13C3215.1 4256.08 3215.56 4256.06 3216.14 4256.06C3216.69 4256.06 3217.14 4256.08 3217.49 4256.13C3217.87 4256.16 3218.16 4256.23 3218.36 4256.36C3218.56 4256.46 3218.7 4256.58 3218.77 4256.73C3218.87 4256.86 3218.92 4257.02 3218.92 4257.22V4261.7C3220.83 4259.57 3222.72 4258.01 3224.6 4257.03C3226.5 4256.03 3228.42 4255.53 3230.35 4255.53C3232.61 4255.53 3234.5 4255.92 3236.03 4256.7C3237.58 4257.45 3238.84 4258.46 3239.79 4259.74C3240.74 4261.02 3241.42 4262.52 3241.82 4264.25C3242.24 4265.96 3242.46 4268.01 3242.46 4270.42V4291.06ZM3259.98 4291.06C3259.98 4291.26 3259.93 4291.44 3259.83 4291.59C3259.73 4291.71 3259.56 4291.82 3259.34 4291.92C3259.11 4292.03 3258.8 4292.1 3258.4 4292.15C3258 4292.2 3257.48 4292.23 3256.86 4292.23C3256.26 4292.23 3255.76 4292.2 3255.35 4292.15C3254.95 4292.1 3254.63 4292.03 3254.38 4291.92C3254.15 4291.82 3253.99 4291.71 3253.89 4291.59C3253.81 4291.44 3253.77 4291.26 3253.77 4291.06V4257.22C3253.77 4257.05 3253.81 4256.88 3253.89 4256.73C3253.99 4256.58 3254.15 4256.46 3254.38 4256.36C3254.63 4256.26 3254.95 4256.18 3255.35 4256.13C3255.76 4256.08 3256.26 4256.06 3256.86 4256.06C3257.48 4256.06 3258 4256.08 3258.4 4256.13C3258.8 4256.18 3259.11 4256.26 3259.34 4256.36C3259.56 4256.46 3259.73 4256.58 3259.83 4256.73C3259.93 4256.88 3259.98 4257.05 3259.98 4257.22V4291.06ZM3260.69 4245.79C3260.69 4247.25 3260.42 4248.24 3259.87 4248.76C3259.31 4249.29 3258.3 4249.55 3256.82 4249.55C3255.37 4249.55 3254.36 4249.3 3253.81 4248.8C3253.29 4248.27 3253.02 4247.3 3253.02 4245.87C3253.02 4244.41 3253.3 4243.42 3253.85 4242.9C3254.4 4242.37 3255.42 4242.11 3256.9 4242.11C3258.35 4242.11 3259.34 4242.37 3259.87 4242.9C3260.42 4243.4 3260.69 4244.36 3260.69 4245.79ZM3300.58 4291.06C3300.58 4291.26 3300.53 4291.44 3300.43 4291.59C3300.33 4291.71 3300.17 4291.82 3299.94 4291.92C3299.72 4292.03 3299.41 4292.1 3299 4292.15C3298.6 4292.2 3298.1 4292.23 3297.5 4292.23C3296.87 4292.23 3296.36 4292.2 3295.96 4292.15C3295.56 4292.1 3295.25 4292.03 3295.02 4291.92C3294.79 4291.82 3294.63 4291.71 3294.53 4291.59C3294.43 4291.44 3294.38 4291.26 3294.38 4291.06V4271.25C3294.38 4269.32 3294.23 4267.76 3293.93 4266.58C3293.63 4265.41 3293.19 4264.39 3292.61 4263.54C3292.04 4262.69 3291.28 4262.03 3290.36 4261.58C3289.46 4261.13 3288.4 4260.91 3287.2 4260.91C3285.65 4260.91 3284.09 4261.46 3282.54 4262.56C3280.98 4263.66 3279.35 4265.28 3277.65 4267.41V4291.06C3277.65 4291.26 3277.6 4291.44 3277.5 4291.59C3277.4 4291.71 3277.24 4291.82 3277.01 4291.92C3276.78 4292.03 3276.47 4292.1 3276.07 4292.15C3275.67 4292.2 3275.16 4292.23 3274.53 4292.23C3273.93 4292.23 3273.43 4292.2 3273.02 4292.15C3272.62 4292.1 3272.3 4292.03 3272.05 4291.92C3271.82 4291.82 3271.66 4291.71 3271.56 4291.59C3271.48 4291.44 3271.45 4291.26 3271.45 4291.06V4257.22C3271.45 4257.02 3271.48 4256.86 3271.56 4256.73C3271.63 4256.58 3271.78 4256.46 3272.01 4256.36C3272.24 4256.23 3272.52 4256.16 3272.87 4256.13C3273.23 4256.08 3273.69 4256.06 3274.27 4256.06C3274.82 4256.06 3275.27 4256.08 3275.62 4256.13C3276 4256.16 3276.28 4256.23 3276.48 4256.36C3276.68 4256.46 3276.82 4256.58 3276.9 4256.73C3277 4256.86 3277.05 4257.02 3277.05 4257.22V4261.7C3278.95 4259.57 3280.85 4258.01 3282.73 4257.03C3284.63 4256.03 3286.55 4255.53 3288.48 4255.53C3290.73 4255.53 3292.63 4255.92 3294.15 4256.7C3295.71 4257.45 3296.96 4258.46 3297.91 4259.74C3298.87 4261.02 3299.54 4262.52 3299.94 4264.25C3300.37 4265.96 3300.58 4268.01 3300.58 4270.42V4291.06ZM3340.17 4258.76C3340.17 4259.64 3340.05 4260.28 3339.8 4260.68C3339.57 4261.06 3339.27 4261.25 3338.9 4261.25H3334.05C3334.92 4262.15 3335.54 4263.15 3335.89 4264.25C3336.24 4265.33 3336.41 4266.46 3336.41 4267.64C3336.41 4269.59 3336.1 4271.32 3335.47 4272.83C3334.85 4274.33 3333.95 4275.61 3332.77 4276.66C3331.61 4277.69 3330.24 4278.48 3328.63 4279.03C3327.03 4279.58 3325.25 4279.86 3323.29 4279.86C3321.91 4279.86 3320.6 4279.68 3319.35 4279.33C3318.12 4278.95 3317.16 4278.49 3316.49 4277.94C3316.04 4278.39 3315.66 4278.9 3315.36 4279.48C3315.08 4280.06 3314.95 4280.72 3314.95 4281.47C3314.95 4282.35 3315.35 4283.08 3316.15 4283.65C3316.98 4284.23 3318.07 4284.54 3319.42 4284.59L3328.26 4284.97C3329.94 4285.02 3331.48 4285.26 3332.88 4285.68C3334.28 4286.08 3335.5 4286.67 3336.53 4287.45C3337.56 4288.2 3338.36 4289.14 3338.93 4290.27C3339.51 4291.37 3339.8 4292.66 3339.8 4294.14C3339.8 4295.7 3339.47 4297.18 3338.82 4298.58C3338.17 4299.98 3337.17 4301.21 3335.81 4302.26C3334.48 4303.34 3332.78 4304.18 3330.7 4304.78C3328.62 4305.41 3326.16 4305.72 3323.33 4305.72C3320.6 4305.72 3318.27 4305.49 3316.34 4305.01C3314.43 4304.56 3312.87 4303.93 3311.64 4303.13C3310.41 4302.33 3309.52 4301.36 3308.97 4300.23C3308.42 4299.13 3308.14 4297.93 3308.14 4296.62C3308.14 4295.8 3308.24 4295 3308.44 4294.22C3308.64 4293.44 3308.94 4292.7 3309.34 4292C3309.77 4291.3 3310.28 4290.63 3310.89 4290.01C3311.51 4289.36 3312.23 4288.72 3313.03 4288.09C3311.8 4287.46 3310.89 4286.67 3310.28 4285.72C3309.71 4284.77 3309.42 4283.74 3309.42 4282.64C3309.42 4281.11 3309.73 4279.74 3310.36 4278.54C3310.99 4277.34 3311.76 4276.26 3312.69 4275.31C3311.91 4274.38 3311.3 4273.34 3310.85 4272.19C3310.4 4271.01 3310.17 4269.59 3310.17 4267.94C3310.17 4266.01 3310.5 4264.28 3311.15 4262.75C3311.8 4261.22 3312.7 4259.93 3313.86 4258.88C3315.01 4257.82 3316.39 4257.02 3317.99 4256.47C3319.62 4255.89 3321.39 4255.61 3323.29 4255.61C3324.32 4255.61 3325.27 4255.67 3326.15 4255.79C3327.05 4255.89 3327.89 4256.04 3328.67 4256.24H3338.9C3339.32 4256.24 3339.64 4256.46 3339.84 4256.88C3340.06 4257.28 3340.17 4257.91 3340.17 4258.76ZM3330.47 4267.67C3330.47 4265.37 3329.83 4263.58 3328.56 4262.3C3327.3 4260.99 3325.51 4260.34 3323.18 4260.34C3321.98 4260.34 3320.92 4260.54 3320.02 4260.94C3319.14 4261.35 3318.41 4261.9 3317.8 4262.6C3317.23 4263.3 3316.79 4264.12 3316.49 4265.04C3316.21 4265.94 3316.07 4266.9 3316.07 4267.9C3316.07 4270.13 3316.7 4271.89 3317.95 4273.16C3319.23 4274.44 3321.01 4275.08 3323.29 4275.08C3324.52 4275.08 3325.59 4274.89 3326.49 4274.52C3327.39 4274.12 3328.13 4273.58 3328.71 4272.9C3329.31 4272.2 3329.75 4271.4 3330.02 4270.49C3330.32 4269.59 3330.47 4268.65 3330.47 4267.67ZM3333.59 4294.48C3333.59 4293.03 3332.99 4291.91 3331.79 4291.14C3330.61 4290.33 3329.01 4289.91 3326.98 4289.86L3318.22 4289.56C3317.42 4290.18 3316.75 4290.78 3316.22 4291.36C3315.72 4291.91 3315.32 4292.44 3315.02 4292.94C3314.72 4293.47 3314.51 4293.98 3314.38 4294.48C3314.28 4294.98 3314.23 4295.5 3314.23 4296.02C3314.23 4297.65 3315.06 4298.88 3316.71 4299.71C3318.37 4300.56 3320.67 4300.99 3323.63 4300.99C3325.51 4300.99 3327.08 4300.8 3328.33 4300.42C3329.61 4300.07 3330.64 4299.59 3331.41 4298.99C3332.19 4298.39 3332.74 4297.7 3333.07 4296.93C3333.42 4296.15 3333.59 4295.33 3333.59 4294.48ZM3398.79 4285.12C3398.79 4285.52 3398.78 4285.87 3398.75 4286.17C3398.73 4286.47 3398.68 4286.74 3398.6 4286.96C3398.55 4287.19 3398.48 4287.39 3398.38 4287.56C3398.28 4287.74 3398.1 4287.95 3397.85 4288.2C3397.6 4288.45 3397.07 4288.84 3396.27 4289.37C3395.47 4289.87 3394.47 4290.37 3393.26 4290.87C3392.08 4291.35 3390.72 4291.75 3389.16 4292.08C3387.64 4292.43 3385.96 4292.6 3384.13 4292.6C3380.97 4292.6 3378.11 4292.08 3375.55 4291.02C3373.02 4289.97 3370.85 4288.42 3369.05 4286.36C3367.27 4284.31 3365.89 4281.77 3364.91 4278.77C3363.96 4275.73 3363.48 4272.25 3363.48 4268.31C3363.48 4264.28 3364 4260.68 3365.03 4257.52C3366.08 4254.36 3367.55 4251.7 3369.43 4249.51C3371.31 4247.31 3373.55 4245.63 3376.16 4244.48C3378.79 4243.32 3381.69 4242.75 3384.88 4242.75C3386.28 4242.75 3387.65 4242.88 3388.98 4243.16C3390.3 4243.41 3391.53 4243.74 3392.66 4244.14C3393.79 4244.54 3394.79 4245 3395.67 4245.53C3396.55 4246.06 3397.15 4246.49 3397.47 4246.85C3397.82 4247.17 3398.05 4247.42 3398.15 4247.6C3398.25 4247.77 3398.33 4247.99 3398.38 4248.24C3398.45 4248.46 3398.5 4248.74 3398.53 4249.06C3398.58 4249.39 3398.6 4249.78 3398.6 4250.23C3398.6 4250.73 3398.58 4251.16 3398.53 4251.51C3398.48 4251.86 3398.4 4252.16 3398.3 4252.41C3398.2 4252.64 3398.07 4252.81 3397.92 4252.94C3397.8 4253.04 3397.64 4253.09 3397.44 4253.09C3397.08 4253.09 3396.6 4252.85 3395.97 4252.37C3395.34 4251.87 3394.53 4251.33 3393.53 4250.76C3392.55 4250.15 3391.34 4249.61 3389.92 4249.14C3388.51 4248.64 3386.82 4248.39 3384.84 4248.39C3382.68 4248.39 3380.72 4248.83 3378.94 4249.7C3377.18 4250.55 3375.68 4251.82 3374.43 4253.5C3373.17 4255.18 3372.19 4257.23 3371.49 4259.67C3370.82 4262.07 3370.48 4264.83 3370.48 4267.94C3370.48 4271.02 3370.8 4273.75 3371.46 4276.13C3372.13 4278.49 3373.08 4280.47 3374.31 4282.07C3375.57 4283.65 3377.1 4284.86 3378.9 4285.68C3380.7 4286.49 3382.75 4286.89 3385.03 4286.89C3386.96 4286.89 3388.64 4286.65 3390.07 4286.17C3391.52 4285.7 3392.75 4285.17 3393.75 4284.59C3394.78 4283.99 3395.62 4283.45 3396.27 4282.98C3396.92 4282.5 3397.44 4282.26 3397.81 4282.26C3397.99 4282.26 3398.14 4282.3 3398.26 4282.38C3398.39 4282.45 3398.49 4282.6 3398.56 4282.83C3398.64 4283.03 3398.69 4283.31 3398.71 4283.69C3398.76 4284.07 3398.79 4284.54 3398.79 4285.12ZM3435.52 4272.67C3435.52 4273.65 3435.27 4274.35 3434.77 4274.78C3434.29 4275.18 3433.74 4275.38 3433.12 4275.38H3410.93C3410.93 4277.26 3411.12 4278.95 3411.5 4280.46C3411.87 4281.96 3412.5 4283.25 3413.38 4284.33C3414.25 4285.41 3415.39 4286.24 3416.8 4286.81C3418.2 4287.39 3419.92 4287.68 3421.95 4287.68C3423.55 4287.68 3424.98 4287.55 3426.24 4287.3C3427.49 4287.02 3428.57 4286.72 3429.47 4286.4C3430.4 4286.07 3431.15 4285.78 3431.72 4285.53C3432.33 4285.26 3432.78 4285.12 3433.08 4285.12C3433.25 4285.12 3433.4 4285.17 3433.53 4285.27C3433.68 4285.35 3433.79 4285.47 3433.87 4285.65C3433.94 4285.82 3433.99 4286.07 3434.02 4286.4C3434.07 4286.7 3434.09 4287.07 3434.09 4287.53C3434.09 4287.85 3434.08 4288.14 3434.06 4288.39C3434.03 4288.62 3433.99 4288.83 3433.94 4289.03C3433.92 4289.21 3433.86 4289.37 3433.75 4289.52C3433.68 4289.67 3433.57 4289.82 3433.42 4289.97C3433.29 4290.1 3432.89 4290.32 3432.21 4290.65C3431.54 4290.95 3430.66 4291.25 3429.58 4291.55C3428.5 4291.85 3427.25 4292.11 3425.82 4292.34C3424.42 4292.59 3422.91 4292.71 3421.31 4292.71C3418.53 4292.71 3416.08 4292.33 3413.98 4291.55C3411.9 4290.77 3410.14 4289.62 3408.71 4288.09C3407.29 4286.56 3406.21 4284.64 3405.48 4282.34C3404.75 4280.03 3404.39 4277.35 3404.39 4274.29C3404.39 4271.38 3404.77 4268.78 3405.52 4266.47C3406.27 4264.14 3407.35 4262.17 3408.75 4260.57C3410.18 4258.94 3411.9 4257.7 3413.9 4256.85C3415.91 4255.97 3418.15 4255.53 3420.63 4255.53C3423.29 4255.53 3425.55 4255.96 3427.4 4256.81C3429.28 4257.66 3430.82 4258.81 3432.03 4260.27C3433.23 4261.7 3434.11 4263.39 3434.66 4265.34C3435.23 4267.27 3435.52 4269.34 3435.52 4271.55V4272.67ZM3429.28 4270.83C3429.36 4267.57 3428.63 4265.02 3427.1 4263.16C3425.6 4261.31 3423.35 4260.38 3420.37 4260.38C3418.84 4260.38 3417.5 4260.67 3416.35 4261.25C3415.19 4261.82 3414.23 4262.59 3413.45 4263.54C3412.68 4264.49 3412.07 4265.61 3411.65 4266.88C3411.22 4268.14 3410.98 4269.45 3410.93 4270.83H3429.28ZM3474.13 4291.06C3474.13 4291.26 3474.08 4291.44 3473.98 4291.59C3473.88 4291.71 3473.72 4291.82 3473.5 4291.92C3473.27 4292.03 3472.96 4292.1 3472.56 4292.15C3472.15 4292.2 3471.65 4292.23 3471.05 4292.23C3470.43 4292.23 3469.91 4292.2 3469.51 4292.15C3469.11 4292.1 3468.8 4292.03 3468.57 4291.92C3468.34 4291.82 3468.18 4291.71 3468.08 4291.59C3467.98 4291.44 3467.93 4291.26 3467.93 4291.06V4271.25C3467.93 4269.32 3467.78 4267.76 3467.48 4266.58C3467.18 4265.41 3466.74 4264.39 3466.16 4263.54C3465.59 4262.69 3464.84 4262.03 3463.91 4261.58C3463.01 4261.13 3461.95 4260.91 3460.75 4260.91C3459.2 4260.91 3457.64 4261.46 3456.09 4262.56C3454.53 4263.66 3452.9 4265.28 3451.2 4267.41V4291.06C3451.2 4291.26 3451.15 4291.44 3451.05 4291.59C3450.95 4291.71 3450.79 4291.82 3450.56 4291.92C3450.34 4292.03 3450.02 4292.1 3449.62 4292.15C3449.22 4292.2 3448.71 4292.23 3448.08 4292.23C3447.48 4292.23 3446.98 4292.2 3446.58 4292.15C3446.17 4292.1 3445.85 4292.03 3445.6 4291.92C3445.37 4291.82 3445.21 4291.71 3445.11 4291.59C3445.03 4291.44 3445 4291.26 3445 4291.06V4257.22C3445 4257.02 3445.03 4256.86 3445.11 4256.73C3445.18 4256.58 3445.33 4256.46 3445.56 4256.36C3445.79 4256.23 3446.07 4256.16 3446.43 4256.13C3446.78 4256.08 3447.24 4256.06 3447.82 4256.06C3448.37 4256.06 3448.82 4256.08 3449.17 4256.13C3449.55 4256.16 3449.83 4256.23 3450.03 4256.36C3450.24 4256.46 3450.37 4256.58 3450.45 4256.73C3450.55 4256.86 3450.6 4257.02 3450.6 4257.22V4261.7C3452.5 4259.57 3454.4 4258.01 3456.28 4257.03C3458.18 4256.03 3460.1 4255.53 3462.03 4255.53C3464.28 4255.53 3466.18 4255.92 3467.71 4256.7C3469.26 4257.45 3470.51 4258.46 3471.47 4259.74C3472.42 4261.02 3473.09 4262.52 3473.5 4264.25C3473.92 4265.96 3474.13 4268.01 3474.13 4270.42V4291.06ZM3502.3 4288.58C3502.3 4289.31 3502.25 4289.88 3502.15 4290.31C3502.04 4290.73 3501.89 4291.05 3501.69 4291.25C3501.49 4291.45 3501.19 4291.64 3500.79 4291.81C3500.39 4291.99 3499.93 4292.13 3499.4 4292.23C3498.9 4292.35 3498.36 4292.45 3497.78 4292.53C3497.21 4292.6 3496.63 4292.64 3496.05 4292.64C3494.3 4292.64 3492.8 4292.41 3491.54 4291.96C3490.29 4291.49 3489.26 4290.78 3488.46 4289.86C3487.66 4288.9 3487.07 4287.71 3486.69 4286.29C3486.34 4284.83 3486.17 4283.13 3486.17 4281.17V4261.4H3481.43C3481.05 4261.4 3480.75 4261.19 3480.53 4260.79C3480.3 4260.39 3480.19 4259.74 3480.19 4258.84C3480.19 4258.36 3480.21 4257.96 3480.26 4257.64C3480.34 4257.31 3480.43 4257.05 3480.53 4256.85C3480.63 4256.62 3480.75 4256.47 3480.9 4256.4C3481.08 4256.29 3481.27 4256.24 3481.47 4256.24H3486.17V4248.2C3486.17 4248.02 3486.2 4247.86 3486.28 4247.71C3486.38 4247.56 3486.54 4247.43 3486.77 4247.33C3487.02 4247.21 3487.34 4247.12 3487.75 4247.07C3488.15 4247.02 3488.65 4247 3489.25 4247C3489.88 4247 3490.39 4247.02 3490.79 4247.07C3491.19 4247.12 3491.5 4247.21 3491.73 4247.33C3491.96 4247.43 3492.12 4247.56 3492.22 4247.71C3492.32 4247.86 3492.37 4248.02 3492.37 4248.2V4256.24H3501.05C3501.26 4256.24 3501.43 4256.29 3501.58 4256.4C3501.73 4256.47 3501.86 4256.62 3501.96 4256.85C3502.08 4257.05 3502.17 4257.31 3502.22 4257.64C3502.27 4257.96 3502.3 4258.36 3502.3 4258.84C3502.3 4259.74 3502.18 4260.39 3501.96 4260.79C3501.73 4261.19 3501.43 4261.4 3501.05 4261.4H3492.37V4280.27C3492.37 4282.6 3492.71 4284.37 3493.38 4285.57C3494.09 4286.75 3495.33 4287.34 3497.11 4287.34C3497.68 4287.34 3498.2 4287.29 3498.65 4287.19C3499.1 4287.06 3499.5 4286.94 3499.85 4286.81C3500.2 4286.69 3500.5 4286.57 3500.75 4286.47C3501 4286.35 3501.23 4286.29 3501.43 4286.29C3501.56 4286.29 3501.67 4286.32 3501.77 4286.4C3501.89 4286.45 3501.98 4286.56 3502.03 4286.74C3502.11 4286.91 3502.17 4287.15 3502.22 4287.45C3502.27 4287.75 3502.3 4288.13 3502.3 4288.58ZM3538.54 4272.67C3538.54 4273.65 3538.29 4274.35 3537.79 4274.78C3537.31 4275.18 3536.76 4275.38 3536.13 4275.38H3513.95C3513.95 4277.26 3514.14 4278.95 3514.51 4280.46C3514.89 4281.96 3515.52 4283.25 3516.39 4284.33C3517.27 4285.41 3518.41 4286.24 3519.82 4286.81C3521.22 4287.39 3522.94 4287.68 3524.97 4287.68C3526.57 4287.68 3528 4287.55 3529.25 4287.3C3530.51 4287.02 3531.58 4286.72 3532.49 4286.4C3533.41 4286.07 3534.17 4285.78 3534.74 4285.53C3535.34 4285.26 3535.79 4285.12 3536.1 4285.12C3536.27 4285.12 3536.42 4285.17 3536.55 4285.27C3536.7 4285.35 3536.81 4285.47 3536.89 4285.65C3536.96 4285.82 3537.01 4286.07 3537.04 4286.4C3537.09 4286.7 3537.11 4287.07 3537.11 4287.53C3537.11 4287.85 3537.1 4288.14 3537.07 4288.39C3537.05 4288.62 3537.01 4288.83 3536.96 4289.03C3536.94 4289.21 3536.87 4289.37 3536.77 4289.52C3536.7 4289.67 3536.58 4289.82 3536.43 4289.97C3536.31 4290.1 3535.91 4290.32 3535.23 4290.65C3534.55 4290.95 3533.68 4291.25 3532.6 4291.55C3531.52 4291.85 3530.27 4292.11 3528.84 4292.34C3527.44 4292.59 3525.93 4292.71 3524.33 4292.71C3521.55 4292.71 3519.1 4292.33 3517 4291.55C3514.92 4290.77 3513.16 4289.62 3511.73 4288.09C3510.3 4286.56 3509.23 4284.64 3508.5 4282.34C3507.77 4280.03 3507.41 4277.35 3507.41 4274.29C3507.41 4271.38 3507.78 4268.78 3508.54 4266.47C3509.29 4264.14 3510.37 4262.17 3511.77 4260.57C3513.2 4258.94 3514.92 4257.7 3516.92 4256.85C3518.93 4255.97 3521.17 4255.53 3523.65 4255.53C3526.31 4255.53 3528.56 4255.96 3530.42 4256.81C3532.3 4257.66 3533.84 4258.81 3535.04 4260.27C3536.25 4261.7 3537.12 4263.39 3537.67 4265.34C3538.25 4267.27 3538.54 4269.34 3538.54 4271.55V4272.67ZM3532.3 4270.83C3532.37 4267.57 3531.65 4265.02 3530.12 4263.16C3528.61 4261.31 3526.37 4260.38 3523.39 4260.38C3521.86 4260.38 3520.52 4260.67 3519.36 4261.25C3518.21 4261.82 3517.25 4262.59 3516.47 4263.54C3515.69 4264.49 3515.09 4265.61 3514.67 4266.88C3514.24 4268.14 3514 4269.45 3513.95 4270.83H3532.3ZM3567.79 4259.44C3567.79 4259.99 3567.78 4260.46 3567.75 4260.83C3567.73 4261.21 3567.68 4261.51 3567.6 4261.73C3567.53 4261.93 3567.43 4262.1 3567.3 4262.22C3567.2 4262.32 3567.05 4262.37 3566.85 4262.37C3566.65 4262.37 3566.4 4262.32 3566.1 4262.22C3565.82 4262.1 3565.5 4261.98 3565.12 4261.88C3564.77 4261.76 3564.37 4261.65 3563.92 4261.55C3563.47 4261.45 3562.98 4261.4 3562.45 4261.4C3561.83 4261.4 3561.21 4261.52 3560.61 4261.77C3560.01 4262.02 3559.37 4262.44 3558.69 4263.01C3558.04 4263.59 3557.35 4264.35 3556.62 4265.31C3555.9 4266.26 3555.1 4267.42 3554.22 4268.8V4291.06C3554.22 4291.26 3554.17 4291.44 3554.07 4291.59C3553.97 4291.71 3553.8 4291.82 3553.58 4291.92C3553.35 4292.03 3553.04 4292.1 3552.64 4292.15C3552.24 4292.2 3551.72 4292.23 3551.1 4292.23C3550.5 4292.23 3549.99 4292.2 3549.59 4292.15C3549.19 4292.1 3548.87 4292.03 3548.62 4291.92C3548.39 4291.82 3548.23 4291.71 3548.13 4291.59C3548.05 4291.44 3548.01 4291.26 3548.01 4291.06V4257.22C3548.01 4257.02 3548.05 4256.86 3548.13 4256.73C3548.2 4256.58 3548.35 4256.46 3548.58 4256.36C3548.8 4256.23 3549.09 4256.16 3549.44 4256.13C3549.79 4256.08 3550.26 4256.06 3550.83 4256.06C3551.39 4256.06 3551.84 4256.08 3552.19 4256.13C3552.56 4256.16 3552.85 4256.23 3553.05 4256.36C3553.25 4256.46 3553.39 4256.58 3553.47 4256.73C3553.57 4256.86 3553.62 4257.02 3553.62 4257.22V4262.15C3554.54 4260.79 3555.41 4259.69 3556.21 4258.84C3557.04 4257.99 3557.81 4257.32 3558.54 4256.85C3559.27 4256.34 3559.98 4256.01 3560.68 4255.83C3561.41 4255.63 3562.14 4255.53 3562.87 4255.53C3563.19 4255.53 3563.55 4255.56 3563.96 4255.61C3564.38 4255.63 3564.82 4255.69 3565.27 4255.79C3565.72 4255.89 3566.12 4256.01 3566.47 4256.13C3566.85 4256.26 3567.11 4256.38 3567.26 4256.51C3567.41 4256.63 3567.51 4256.76 3567.56 4256.88C3567.62 4256.98 3567.65 4257.12 3567.68 4257.3C3567.73 4257.47 3567.75 4257.74 3567.75 4258.09C3567.78 4258.41 3567.79 4258.86 3567.79 4259.44ZM3630.43 4266.96C3630.43 4271.17 3629.89 4274.86 3628.81 4278.01C3627.73 4281.15 3626.15 4283.75 3624.07 4285.83C3622.02 4287.89 3619.49 4289.43 3616.48 4290.46C3613.47 4291.49 3609.89 4292 3605.73 4292H3595.42C3594.85 4292 3594.3 4291.81 3593.77 4291.44C3593.27 4291.03 3593.02 4290.35 3593.02 4289.37V4245.98C3593.02 4245 3593.27 4244.33 3593.77 4243.95C3594.3 4243.55 3594.85 4243.35 3595.42 4243.35H3606.44C3610.65 4243.35 3614.21 4243.9 3617.12 4245C3620.03 4246.08 3622.46 4247.65 3624.41 4249.7C3626.39 4251.73 3627.88 4254.2 3628.89 4257.11C3629.91 4260.02 3630.43 4263.3 3630.43 4266.96ZM3623.62 4267.22C3623.62 4264.59 3623.3 4262.15 3622.65 4259.89C3621.99 4257.61 3620.97 4255.64 3619.56 4253.99C3618.18 4252.33 3616.43 4251.04 3614.3 4250.12C3612.17 4249.19 3609.42 4248.73 3606.06 4248.73H3599.49V4286.59H3606.14C3609.25 4286.59 3611.87 4286.2 3614 4285.42C3616.13 4284.64 3617.91 4283.45 3619.34 4281.85C3620.77 4280.24 3621.83 4278.24 3622.53 4275.83C3623.26 4273.4 3623.62 4270.53 3623.62 4267.22ZM3645.88 4291.06C3645.88 4291.26 3645.83 4291.44 3645.73 4291.59C3645.63 4291.71 3645.47 4291.82 3645.24 4291.92C3645.02 4292.03 3644.7 4292.1 3644.3 4292.15C3643.9 4292.2 3643.39 4292.23 3642.76 4292.23C3642.16 4292.23 3641.66 4292.2 3641.26 4292.15C3640.86 4292.1 3640.53 4292.03 3640.28 4291.92C3640.05 4291.82 3639.89 4291.71 3639.79 4291.59C3639.71 4291.44 3639.68 4291.26 3639.68 4291.06V4257.22C3639.68 4257.05 3639.71 4256.88 3639.79 4256.73C3639.89 4256.58 3640.05 4256.46 3640.28 4256.36C3640.53 4256.26 3640.86 4256.18 3641.26 4256.13C3641.66 4256.08 3642.16 4256.06 3642.76 4256.06C3643.39 4256.06 3643.9 4256.08 3644.3 4256.13C3644.7 4256.18 3645.02 4256.26 3645.24 4256.36C3645.47 4256.46 3645.63 4256.58 3645.73 4256.73C3645.83 4256.88 3645.88 4257.05 3645.88 4257.22V4291.06ZM3646.6 4245.79C3646.6 4247.25 3646.32 4248.24 3645.77 4248.76C3645.22 4249.29 3644.2 4249.55 3642.72 4249.55C3641.27 4249.55 3640.27 4249.3 3639.71 4248.8C3639.19 4248.27 3638.93 4247.3 3638.93 4245.87C3638.93 4244.41 3639.2 4243.42 3639.75 4242.9C3640.3 4242.37 3641.32 4242.11 3642.8 4242.11C3644.25 4242.11 3645.24 4242.37 3645.77 4242.9C3646.32 4243.4 3646.6 4244.36 3646.6 4245.79ZM3677.12 4259.44C3677.12 4259.99 3677.11 4260.46 3677.09 4260.83C3677.06 4261.21 3677.01 4261.51 3676.94 4261.73C3676.86 4261.93 3676.76 4262.1 3676.64 4262.22C3676.54 4262.32 3676.39 4262.37 3676.18 4262.37C3675.98 4262.37 3675.73 4262.32 3675.43 4262.22C3675.16 4262.1 3674.83 4261.98 3674.46 4261.88C3674.1 4261.76 3673.7 4261.65 3673.25 4261.55C3672.8 4261.45 3672.31 4261.4 3671.79 4261.4C3671.16 4261.4 3670.54 4261.52 3669.94 4261.77C3669.34 4262.02 3668.7 4262.44 3668.03 4263.01C3667.37 4263.59 3666.68 4264.35 3665.96 4265.31C3665.23 4266.26 3664.43 4267.42 3663.55 4268.8V4291.06C3663.55 4291.26 3663.5 4291.44 3663.4 4291.59C3663.3 4291.71 3663.14 4291.82 3662.91 4291.92C3662.69 4292.03 3662.37 4292.1 3661.97 4292.15C3661.57 4292.2 3661.06 4292.23 3660.43 4292.23C3659.83 4292.23 3659.33 4292.2 3658.93 4292.15C3658.53 4292.1 3658.2 4292.03 3657.95 4291.92C3657.72 4291.82 3657.56 4291.71 3657.46 4291.59C3657.39 4291.44 3657.35 4291.26 3657.35 4291.06V4257.22C3657.35 4257.02 3657.39 4256.86 3657.46 4256.73C3657.54 4256.58 3657.69 4256.46 3657.91 4256.36C3658.14 4256.23 3658.43 4256.16 3658.78 4256.13C3659.13 4256.08 3659.59 4256.06 3660.17 4256.06C3660.72 4256.06 3661.17 4256.08 3661.52 4256.13C3661.9 4256.16 3662.19 4256.23 3662.39 4256.36C3662.59 4256.46 3662.72 4256.58 3662.8 4256.73C3662.9 4256.86 3662.95 4257.02 3662.95 4257.22V4262.15C3663.88 4260.79 3664.74 4259.69 3665.54 4258.84C3666.37 4257.99 3667.15 4257.32 3667.88 4256.85C3668.6 4256.34 3669.32 4256.01 3670.02 4255.83C3670.75 4255.63 3671.47 4255.53 3672.2 4255.53C3672.53 4255.53 3672.89 4255.56 3673.29 4255.61C3673.72 4255.63 3674.15 4255.69 3674.61 4255.79C3675.06 4255.89 3675.46 4256.01 3675.81 4256.13C3676.18 4256.26 3676.45 4256.38 3676.6 4256.51C3676.75 4256.63 3676.85 4256.76 3676.9 4256.88C3676.95 4256.98 3676.99 4257.12 3677.01 4257.3C3677.06 4257.47 3677.09 4257.74 3677.09 4258.09C3677.11 4258.41 3677.12 4258.86 3677.12 4259.44ZM3712.02 4272.67C3712.02 4273.65 3711.76 4274.35 3711.26 4274.78C3710.79 4275.18 3710.24 4275.38 3709.61 4275.38H3687.43C3687.43 4277.26 3687.61 4278.95 3687.99 4280.46C3688.37 4281.96 3688.99 4283.25 3689.87 4284.33C3690.75 4285.41 3691.89 4286.24 3693.29 4286.81C3694.7 4287.39 3696.41 4287.68 3698.44 4287.68C3700.05 4287.68 3701.48 4287.55 3702.73 4287.3C3703.98 4287.02 3705.06 4286.72 3705.96 4286.4C3706.89 4286.07 3707.64 4285.78 3708.22 4285.53C3708.82 4285.26 3709.27 4285.12 3709.57 4285.12C3709.75 4285.12 3709.9 4285.17 3710.02 4285.27C3710.17 4285.35 3710.29 4285.47 3710.36 4285.65C3710.44 4285.82 3710.49 4286.07 3710.51 4286.4C3710.56 4286.7 3710.59 4287.07 3710.59 4287.53C3710.59 4287.85 3710.57 4288.14 3710.55 4288.39C3710.52 4288.62 3710.49 4288.83 3710.44 4289.03C3710.41 4289.21 3710.35 4289.37 3710.25 4289.52C3710.17 4289.67 3710.06 4289.82 3709.91 4289.97C3709.78 4290.1 3709.38 4290.32 3708.71 4290.65C3708.03 4290.95 3707.15 4291.25 3706.07 4291.55C3705 4291.85 3703.74 4292.11 3702.31 4292.34C3700.91 4292.59 3699.41 4292.71 3697.8 4292.71C3695.02 4292.71 3692.58 4292.33 3690.47 4291.55C3688.39 4290.77 3686.64 4289.62 3685.21 4288.09C3683.78 4286.56 3682.7 4284.64 3681.97 4282.34C3681.25 4280.03 3680.88 4277.35 3680.88 4274.29C3680.88 4271.38 3681.26 4268.78 3682.01 4266.47C3682.76 4264.14 3683.84 4262.17 3685.25 4260.57C3686.67 4258.94 3688.39 4257.7 3690.4 4256.85C3692.4 4255.97 3694.65 4255.53 3697.13 4255.53C3699.78 4255.53 3702.04 4255.96 3703.89 4256.81C3705.77 4257.66 3707.32 4258.81 3708.52 4260.27C3709.72 4261.7 3710.6 4263.39 3711.15 4265.34C3711.73 4267.27 3712.02 4269.34 3712.02 4271.55V4272.67ZM3705.77 4270.83C3705.85 4267.57 3705.12 4265.02 3703.59 4263.16C3702.09 4261.31 3699.85 4260.38 3696.86 4260.38C3695.33 4260.38 3693.99 4260.67 3692.84 4261.25C3691.69 4261.82 3690.72 4262.59 3689.95 4263.54C3689.17 4264.49 3688.57 4265.61 3688.14 4266.88C3687.71 4268.14 3687.48 4269.45 3687.43 4270.83H3705.77ZM3745.82 4285.91C3745.82 4286.34 3745.8 4286.71 3745.78 4287.04C3745.75 4287.34 3745.7 4287.6 3745.63 4287.83C3745.58 4288.03 3745.5 4288.22 3745.4 4288.39C3745.33 4288.54 3745.13 4288.78 3744.8 4289.1C3744.5 4289.41 3743.97 4289.79 3743.22 4290.27C3742.47 4290.72 3741.62 4291.14 3740.66 4291.51C3739.74 4291.86 3738.72 4292.15 3737.62 4292.38C3736.52 4292.6 3735.38 4292.71 3734.2 4292.71C3731.77 4292.71 3729.61 4292.31 3727.73 4291.51C3725.85 4290.71 3724.27 4289.54 3722.99 4288.01C3721.74 4286.46 3720.78 4284.57 3720.1 4282.34C3719.45 4280.08 3719.12 4277.49 3719.12 4274.55C3719.12 4271.22 3719.52 4268.36 3720.32 4265.98C3721.15 4263.58 3722.27 4261.61 3723.67 4260.08C3725.1 4258.55 3726.77 4257.42 3728.67 4256.7C3730.6 4255.94 3732.68 4255.57 3734.91 4255.57C3735.99 4255.57 3737.03 4255.67 3738.03 4255.87C3739.06 4256.07 3740 4256.33 3740.85 4256.66C3741.7 4256.98 3742.46 4257.36 3743.11 4257.79C3743.79 4258.21 3744.27 4258.58 3744.57 4258.88C3744.88 4259.18 3745.08 4259.42 3745.18 4259.59C3745.3 4259.77 3745.4 4259.98 3745.48 4260.23C3745.55 4260.46 3745.6 4260.72 3745.63 4261.02C3745.65 4261.32 3745.67 4261.7 3745.67 4262.15C3745.67 4263.12 3745.55 4263.81 3745.33 4264.22C3745.1 4264.59 3744.83 4264.78 3744.5 4264.78C3744.12 4264.78 3743.68 4264.58 3743.18 4264.18C3742.71 4263.75 3742.09 4263.29 3741.34 4262.79C3740.59 4262.29 3739.67 4261.83 3738.6 4261.43C3737.54 4261.01 3736.29 4260.79 3734.84 4260.79C3731.85 4260.79 3729.56 4261.95 3727.96 4264.25C3726.38 4266.53 3725.59 4269.85 3725.59 4274.22C3725.59 4276.4 3725.79 4278.31 3726.19 4279.97C3726.62 4281.6 3727.23 4282.96 3728.03 4284.07C3728.83 4285.17 3729.81 4286 3730.96 4286.55C3732.14 4287.07 3733.48 4287.34 3734.99 4287.34C3736.42 4287.34 3737.67 4287.11 3738.75 4286.66C3739.82 4286.21 3740.75 4285.72 3741.53 4285.19C3742.33 4284.64 3743 4284.15 3743.52 4283.73C3744.07 4283.28 3744.5 4283.05 3744.8 4283.05C3744.98 4283.05 3745.13 4283.1 3745.25 4283.2C3745.38 4283.3 3745.48 4283.48 3745.55 4283.73C3745.65 4283.95 3745.72 4284.25 3745.74 4284.63C3745.79 4284.98 3745.82 4285.41 3745.82 4285.91ZM3771.65 4288.58C3771.65 4289.31 3771.59 4289.88 3771.49 4290.31C3771.39 4290.73 3771.24 4291.05 3771.04 4291.25C3770.84 4291.45 3770.54 4291.64 3770.14 4291.81C3769.74 4291.99 3769.28 4292.13 3768.75 4292.23C3768.25 4292.35 3767.71 4292.45 3767.13 4292.53C3766.56 4292.6 3765.98 4292.64 3765.4 4292.64C3763.65 4292.64 3762.15 4292.41 3760.89 4291.96C3759.64 4291.49 3758.61 4290.78 3757.81 4289.86C3757.01 4288.9 3756.42 4287.71 3756.04 4286.29C3755.69 4284.83 3755.52 4283.13 3755.52 4281.17V4261.4H3750.78C3750.4 4261.4 3750.1 4261.19 3749.88 4260.79C3749.65 4260.39 3749.54 4259.74 3749.54 4258.84C3749.54 4258.36 3749.56 4257.96 3749.61 4257.64C3749.69 4257.31 3749.78 4257.05 3749.88 4256.85C3749.98 4256.62 3750.1 4256.47 3750.25 4256.4C3750.43 4256.29 3750.62 4256.24 3750.82 4256.24H3755.52V4248.2C3755.52 4248.02 3755.55 4247.86 3755.63 4247.71C3755.73 4247.56 3755.89 4247.43 3756.12 4247.33C3756.37 4247.21 3756.69 4247.12 3757.09 4247.07C3757.5 4247.02 3758 4247 3758.6 4247C3759.23 4247 3759.74 4247.02 3760.14 4247.07C3760.54 4247.12 3760.85 4247.21 3761.08 4247.33C3761.31 4247.43 3761.47 4247.56 3761.57 4247.71C3761.67 4247.86 3761.72 4248.02 3761.72 4248.2V4256.24H3770.4C3770.6 4256.24 3770.78 4256.29 3770.93 4256.4C3771.08 4256.47 3771.21 4256.62 3771.31 4256.85C3771.43 4257.05 3771.52 4257.31 3771.57 4257.64C3771.62 4257.96 3771.65 4258.36 3771.65 4258.84C3771.65 4259.74 3771.53 4260.39 3771.31 4260.79C3771.08 4261.19 3770.78 4261.4 3770.4 4261.4H3761.72V4280.27C3761.72 4282.6 3762.06 4284.37 3762.73 4285.57C3763.44 4286.75 3764.68 4287.34 3766.46 4287.34C3767.03 4287.34 3767.55 4287.29 3768 4287.19C3768.45 4287.06 3768.85 4286.94 3769.2 4286.81C3769.55 4286.69 3769.85 4286.57 3770.1 4286.47C3770.35 4286.35 3770.58 4286.29 3770.78 4286.29C3770.91 4286.29 3771.02 4286.32 3771.12 4286.4C3771.24 4286.45 3771.33 4286.56 3771.38 4286.74C3771.46 4286.91 3771.52 4287.15 3771.57 4287.45C3771.62 4287.75 3771.65 4288.13 3771.65 4288.58ZM3810.56 4273.77C3810.56 4276.52 3810.2 4279.07 3809.47 4281.4C3808.74 4283.7 3807.65 4285.7 3806.2 4287.38C3804.77 4289.05 3802.96 4290.37 3800.78 4291.32C3798.63 4292.25 3796.12 4292.71 3793.26 4292.71C3790.48 4292.71 3788.05 4292.3 3785.97 4291.47C3783.91 4290.65 3782.2 4289.44 3780.82 4287.86C3779.44 4286.29 3778.41 4284.37 3777.74 4282.11C3777.06 4279.86 3776.72 4277.3 3776.72 4274.44C3776.72 4271.68 3777.07 4269.15 3777.77 4266.85C3778.5 4264.52 3779.58 4262.51 3781.01 4260.83C3782.46 4259.15 3784.27 4257.85 3786.42 4256.92C3788.58 4255.99 3791.1 4255.53 3793.98 4255.53C3796.76 4255.53 3799.18 4255.94 3801.23 4256.77C3803.31 4257.6 3805.04 4258.8 3806.42 4260.38C3807.8 4261.96 3808.83 4263.88 3809.51 4266.13C3810.21 4268.39 3810.56 4270.93 3810.56 4273.77ZM3804.02 4274.18C3804.02 4272.35 3803.84 4270.62 3803.49 4268.99C3803.16 4267.36 3802.61 4265.93 3801.84 4264.7C3801.06 4263.48 3800.01 4262.51 3798.68 4261.81C3797.35 4261.08 3795.69 4260.72 3793.71 4260.72C3791.89 4260.72 3790.31 4261.04 3788.98 4261.7C3787.67 4262.35 3786.6 4263.28 3785.74 4264.48C3784.89 4265.66 3784.25 4267.06 3783.83 4268.69C3783.43 4270.32 3783.23 4272.1 3783.23 4274.03C3783.23 4275.88 3783.39 4277.63 3783.71 4279.25C3784.06 4280.88 3784.63 4282.31 3785.41 4283.54C3786.21 4284.74 3787.27 4285.71 3788.6 4286.44C3789.93 4287.14 3791.58 4287.49 3793.56 4287.49C3795.37 4287.49 3796.94 4287.16 3798.26 4286.51C3799.59 4285.86 3800.68 4284.94 3801.54 4283.77C3802.39 4282.59 3803.01 4281.18 3803.42 4279.56C3803.82 4277.93 3804.02 4276.13 3804.02 4274.18ZM3839.47 4259.44C3839.47 4259.99 3839.46 4260.46 3839.43 4260.83C3839.41 4261.21 3839.36 4261.51 3839.28 4261.73C3839.21 4261.93 3839.11 4262.1 3838.98 4262.22C3838.88 4262.32 3838.73 4262.37 3838.53 4262.37C3838.33 4262.37 3838.08 4262.32 3837.78 4262.22C3837.5 4262.1 3837.18 4261.98 3836.8 4261.88C3836.45 4261.76 3836.05 4261.65 3835.6 4261.55C3835.15 4261.45 3834.66 4261.4 3834.13 4261.4C3833.51 4261.4 3832.89 4261.52 3832.29 4261.77C3831.69 4262.02 3831.05 4262.44 3830.37 4263.01C3829.72 4263.59 3829.03 4264.35 3828.3 4265.31C3827.58 4266.26 3826.78 4267.42 3825.9 4268.8V4291.06C3825.9 4291.26 3825.85 4291.44 3825.75 4291.59C3825.65 4291.71 3825.48 4291.82 3825.26 4291.92C3825.03 4292.03 3824.72 4292.1 3824.32 4292.15C3823.92 4292.2 3823.4 4292.23 3822.78 4292.23C3822.18 4292.23 3821.67 4292.2 3821.27 4292.15C3820.87 4292.1 3820.55 4292.03 3820.3 4291.92C3820.07 4291.82 3819.91 4291.71 3819.81 4291.59C3819.73 4291.44 3819.69 4291.26 3819.69 4291.06V4257.22C3819.69 4257.02 3819.73 4256.86 3819.81 4256.73C3819.88 4256.58 3820.03 4256.46 3820.26 4256.36C3820.48 4256.23 3820.77 4256.16 3821.12 4256.13C3821.47 4256.08 3821.94 4256.06 3822.51 4256.06C3823.07 4256.06 3823.52 4256.08 3823.87 4256.13C3824.24 4256.16 3824.53 4256.23 3824.73 4256.36C3824.93 4256.46 3825.07 4256.58 3825.15 4256.73C3825.25 4256.86 3825.3 4257.02 3825.3 4257.22V4262.15C3826.22 4260.79 3827.09 4259.69 3827.89 4258.84C3828.72 4257.99 3829.5 4257.32 3830.22 4256.85C3830.95 4256.34 3831.66 4256.01 3832.37 4255.83C3833.09 4255.63 3833.82 4255.53 3834.55 4255.53C3834.87 4255.53 3835.24 4255.56 3835.64 4255.61C3836.06 4255.63 3836.5 4255.69 3836.95 4255.79C3837.4 4255.89 3837.8 4256.01 3838.16 4256.13C3838.53 4256.26 3838.79 4256.38 3838.94 4256.51C3839.1 4256.63 3839.2 4256.76 3839.25 4256.88C3839.3 4256.98 3839.33 4257.12 3839.36 4257.3C3839.41 4257.47 3839.43 4257.74 3839.43 4258.09C3839.46 4258.41 3839.47 4258.86 3839.47 4259.44Z" fill="black"/>
</svg>
