<svg width="6900" height="5209" viewBox="0 0 6900 5209" fill="none" xmlns="http://www.w3.org/2000/svg">
<path d="M2350.96 4814.13C2350.96 4814.61 2350.93 4815.02 2350.88 4815.37C2350.83 4815.72 2350.75 4816.01 2350.62 4816.24C2350.52 4816.44 2350.38 4816.59 2350.21 4816.69C2350.06 4816.79 2349.88 4816.84 2349.68 4816.84H2335.99V4859.02C2335.99 4859.22 2335.94 4859.4 2335.84 4859.55C2335.74 4859.7 2335.57 4859.82 2335.32 4859.92C2335.07 4860 2334.73 4860.06 2334.3 4860.11C2333.9 4860.19 2333.39 4860.23 2332.76 4860.23C2332.16 4860.23 2331.65 4860.19 2331.22 4860.11C2330.79 4860.06 2330.46 4860 2330.2 4859.92C2329.95 4859.82 2329.78 4859.7 2329.68 4859.55C2329.58 4859.4 2329.53 4859.22 2329.53 4859.02V4816.84H2315.84C2315.64 4816.84 2315.45 4816.79 2315.28 4816.69C2315.13 4816.59 2315 4816.44 2314.9 4816.24C2314.8 4816.01 2314.71 4815.72 2314.64 4815.37C2314.59 4815.02 2314.56 4814.61 2314.56 4814.13C2314.56 4813.65 2314.59 4813.24 2314.64 4812.89C2314.71 4812.51 2314.8 4812.21 2314.9 4811.99C2315 4811.76 2315.13 4811.6 2315.28 4811.5C2315.45 4811.4 2315.64 4811.35 2315.84 4811.35H2349.68C2349.88 4811.35 2350.06 4811.4 2350.21 4811.5C2350.38 4811.6 2350.52 4811.76 2350.62 4811.99C2350.75 4812.21 2350.83 4812.51 2350.88 4812.89C2350.93 4813.24 2350.96 4813.65 2350.96 4814.13ZM2372.24 4827.44C2372.24 4827.99 2372.23 4828.46 2372.2 4828.83C2372.18 4829.21 2372.13 4829.51 2372.05 4829.73C2371.98 4829.93 2371.88 4830.1 2371.75 4830.22C2371.65 4830.32 2371.5 4830.37 2371.3 4830.37C2371.1 4830.37 2370.85 4830.32 2370.55 4830.22C2370.27 4830.1 2369.95 4829.98 2369.57 4829.88C2369.22 4829.76 2368.82 4829.65 2368.37 4829.55C2367.92 4829.45 2367.43 4829.4 2366.9 4829.4C2366.27 4829.4 2365.66 4829.52 2365.06 4829.77C2364.46 4830.02 2363.82 4830.44 2363.14 4831.01C2362.49 4831.59 2361.8 4832.35 2361.07 4833.31C2360.35 4834.26 2359.54 4835.42 2358.67 4836.8V4859.06C2358.67 4859.26 2358.62 4859.44 2358.52 4859.59C2358.42 4859.71 2358.25 4859.82 2358.03 4859.92C2357.8 4860.03 2357.49 4860.1 2357.09 4860.15C2356.69 4860.2 2356.17 4860.23 2355.55 4860.23C2354.94 4860.23 2354.44 4860.2 2354.04 4860.15C2353.64 4860.1 2353.31 4860.03 2353.06 4859.92C2352.84 4859.82 2352.68 4859.71 2352.58 4859.59C2352.5 4859.44 2352.46 4859.26 2352.46 4859.06V4825.22C2352.46 4825.02 2352.5 4824.86 2352.58 4824.73C2352.65 4824.58 2352.8 4824.46 2353.03 4824.36C2353.25 4824.23 2353.54 4824.16 2353.89 4824.13C2354.24 4824.08 2354.71 4824.06 2355.28 4824.06C2355.83 4824.06 2356.28 4824.08 2356.64 4824.13C2357.01 4824.16 2357.3 4824.23 2357.5 4824.36C2357.7 4824.46 2357.84 4824.58 2357.91 4824.73C2358.01 4824.86 2358.06 4825.02 2358.06 4825.22V4830.15C2358.99 4828.79 2359.86 4827.69 2360.66 4826.84C2361.49 4825.99 2362.26 4825.32 2362.99 4824.85C2363.72 4824.34 2364.43 4824.01 2365.13 4823.83C2365.86 4823.63 2366.59 4823.53 2367.31 4823.53C2367.64 4823.53 2368 4823.56 2368.4 4823.61C2368.83 4823.63 2369.27 4823.69 2369.72 4823.79C2370.17 4823.89 2370.57 4824.01 2370.92 4824.13C2371.3 4824.26 2371.56 4824.38 2371.71 4824.51C2371.86 4824.63 2371.96 4824.76 2372.01 4824.88C2372.06 4824.98 2372.1 4825.12 2372.13 4825.3C2372.18 4825.47 2372.2 4825.74 2372.2 4826.09C2372.23 4826.41 2372.24 4826.86 2372.24 4827.44ZM2403.22 4859.1C2403.22 4859.4 2403.12 4859.62 2402.92 4859.77C2402.72 4859.92 2402.44 4860.04 2402.09 4860.11C2401.74 4860.19 2401.23 4860.23 2400.55 4860.23C2399.9 4860.23 2399.37 4860.19 2398.97 4860.11C2398.59 4860.04 2398.32 4859.92 2398.14 4859.77C2397.97 4859.62 2397.88 4859.4 2397.88 4859.1V4855.71C2396.4 4857.29 2394.75 4858.52 2392.92 4859.4C2391.11 4860.28 2389.2 4860.71 2387.17 4860.71C2385.39 4860.71 2383.77 4860.48 2382.31 4860C2380.89 4859.55 2379.66 4858.88 2378.63 4858.01C2377.63 4857.13 2376.84 4856.05 2376.26 4854.77C2375.71 4853.5 2375.43 4852.04 2375.43 4850.41C2375.43 4848.51 2375.82 4846.85 2376.6 4845.45C2377.38 4844.05 2378.49 4842.88 2379.95 4841.95C2381.4 4841.03 2383.18 4840.34 2385.29 4839.89C2387.39 4839.41 2389.76 4839.17 2392.39 4839.17H2397.05V4836.54C2397.05 4835.24 2396.92 4834.08 2396.64 4833.08C2396.36 4832.08 2395.91 4831.25 2395.29 4830.6C2394.68 4829.92 2393.9 4829.42 2392.92 4829.09C2391.94 4828.74 2390.74 4828.57 2389.31 4828.57C2387.78 4828.57 2386.4 4828.76 2385.17 4829.13C2383.97 4829.48 2382.9 4829.88 2381.98 4830.34C2381.07 4830.76 2380.31 4831.16 2379.68 4831.54C2379.08 4831.89 2378.63 4832.06 2378.33 4832.06C2378.13 4832.06 2377.95 4832.01 2377.8 4831.91C2377.65 4831.81 2377.51 4831.66 2377.39 4831.46C2377.29 4831.26 2377.21 4831.01 2377.16 4830.71C2377.11 4830.39 2377.09 4830.03 2377.09 4829.66C2377.09 4829.03 2377.13 4828.54 2377.2 4828.19C2377.3 4827.82 2377.51 4827.47 2377.84 4827.14C2378.19 4826.81 2378.78 4826.44 2379.61 4826.01C2380.44 4825.56 2381.39 4825.16 2382.47 4824.81C2383.54 4824.43 2384.72 4824.13 2386 4823.91C2387.28 4823.66 2388.57 4823.53 2389.87 4823.53C2392.3 4823.53 2394.37 4823.81 2396.08 4824.36C2397.78 4824.91 2399.16 4825.72 2400.21 4826.8C2401.26 4827.85 2402.03 4829.17 2402.5 4830.75C2402.98 4832.33 2403.22 4834.17 2403.22 4836.28V4859.1ZM2397.05 4843.65H2391.75C2390.05 4843.65 2388.57 4843.8 2387.32 4844.1C2386.06 4844.37 2385.02 4844.8 2384.19 4845.37C2383.37 4845.93 2382.75 4846.6 2382.35 4847.4C2381.98 4848.18 2381.79 4849.08 2381.79 4850.11C2381.79 4851.87 2382.34 4853.27 2383.44 4854.32C2384.57 4855.35 2386.14 4855.86 2388.14 4855.86C2389.77 4855.86 2391.28 4855.45 2392.65 4854.62C2394.06 4853.8 2395.52 4852.53 2397.05 4850.83V4843.65ZM2420.85 4859.06C2420.85 4859.26 2420.8 4859.44 2420.7 4859.59C2420.6 4859.71 2420.44 4859.82 2420.21 4859.92C2419.99 4860.03 2419.67 4860.1 2419.27 4860.15C2418.87 4860.2 2418.36 4860.23 2417.73 4860.23C2417.13 4860.23 2416.63 4860.2 2416.23 4860.15C2415.83 4860.1 2415.5 4860.03 2415.25 4859.92C2415.02 4859.82 2414.86 4859.71 2414.76 4859.59C2414.69 4859.44 2414.65 4859.26 2414.65 4859.06V4825.22C2414.65 4825.05 2414.69 4824.88 2414.76 4824.73C2414.86 4824.58 2415.02 4824.46 2415.25 4824.36C2415.5 4824.26 2415.83 4824.18 2416.23 4824.13C2416.63 4824.08 2417.13 4824.06 2417.73 4824.06C2418.36 4824.06 2418.87 4824.08 2419.27 4824.13C2419.67 4824.18 2419.99 4824.26 2420.21 4824.36C2420.44 4824.46 2420.6 4824.58 2420.7 4824.73C2420.8 4824.88 2420.85 4825.05 2420.85 4825.22V4859.06ZM2421.57 4813.79C2421.57 4815.25 2421.29 4816.24 2420.74 4816.76C2420.19 4817.29 2419.17 4817.55 2417.69 4817.55C2416.24 4817.55 2415.24 4817.3 2414.69 4816.8C2414.16 4816.27 2413.9 4815.3 2413.9 4813.87C2413.9 4812.41 2414.17 4811.42 2414.72 4810.9C2415.28 4810.37 2416.29 4810.11 2417.77 4810.11C2419.22 4810.11 2420.21 4810.37 2420.74 4810.9C2421.29 4811.4 2421.57 4812.36 2421.57 4813.79ZM2461.46 4859.06C2461.46 4859.26 2461.41 4859.44 2461.31 4859.59C2461.21 4859.71 2461.04 4859.82 2460.82 4859.92C2460.59 4860.03 2460.28 4860.1 2459.88 4860.15C2459.48 4860.2 2458.98 4860.23 2458.38 4860.23C2457.75 4860.23 2457.23 4860.2 2456.83 4860.15C2456.43 4860.1 2456.12 4860.03 2455.89 4859.92C2455.67 4859.82 2455.51 4859.71 2455.4 4859.59C2455.3 4859.44 2455.25 4859.26 2455.25 4859.06V4839.25C2455.25 4837.32 2455.1 4835.76 2454.8 4834.58C2454.5 4833.41 2454.06 4832.39 2453.49 4831.54C2452.91 4830.69 2452.16 4830.03 2451.23 4829.58C2450.33 4829.13 2449.28 4828.91 2448.07 4828.91C2446.52 4828.91 2444.97 4829.46 2443.41 4830.56C2441.86 4831.66 2440.23 4833.28 2438.52 4835.41V4859.06C2438.52 4859.26 2438.47 4859.44 2438.37 4859.59C2438.27 4859.71 2438.11 4859.82 2437.88 4859.92C2437.66 4860.03 2437.35 4860.1 2436.94 4860.15C2436.54 4860.2 2436.03 4860.23 2435.4 4860.23C2434.8 4860.23 2434.3 4860.2 2433.9 4860.15C2433.5 4860.1 2433.17 4860.03 2432.92 4859.92C2432.7 4859.82 2432.53 4859.71 2432.43 4859.59C2432.36 4859.44 2432.32 4859.26 2432.32 4859.06V4825.22C2432.32 4825.02 2432.36 4824.86 2432.43 4824.73C2432.51 4824.58 2432.66 4824.46 2432.88 4824.36C2433.11 4824.23 2433.4 4824.16 2433.75 4824.13C2434.1 4824.08 2434.56 4824.06 2435.14 4824.06C2435.69 4824.06 2436.14 4824.08 2436.49 4824.13C2436.87 4824.16 2437.16 4824.23 2437.36 4824.36C2437.56 4824.46 2437.7 4824.58 2437.77 4824.73C2437.87 4824.86 2437.92 4825.02 2437.92 4825.22V4829.7C2439.83 4827.57 2441.72 4826.01 2443.6 4825.03C2445.5 4824.03 2447.42 4823.53 2449.35 4823.53C2451.61 4823.53 2453.5 4823.92 2455.03 4824.7C2456.58 4825.45 2457.84 4826.46 2458.79 4827.74C2459.74 4829.02 2460.42 4830.52 2460.82 4832.25C2461.24 4833.96 2461.46 4836.01 2461.46 4838.42V4859.06ZM2478.98 4859.06C2478.98 4859.26 2478.93 4859.44 2478.83 4859.59C2478.73 4859.71 2478.56 4859.82 2478.34 4859.92C2478.11 4860.03 2477.8 4860.1 2477.4 4860.15C2477 4860.2 2476.48 4860.23 2475.86 4860.23C2475.26 4860.23 2474.76 4860.2 2474.35 4860.15C2473.95 4860.1 2473.63 4860.03 2473.38 4859.92C2473.15 4859.82 2472.99 4859.71 2472.89 4859.59C2472.81 4859.44 2472.77 4859.26 2472.77 4859.06V4825.22C2472.77 4825.05 2472.81 4824.88 2472.89 4824.73C2472.99 4824.58 2473.15 4824.46 2473.38 4824.36C2473.63 4824.26 2473.95 4824.18 2474.35 4824.13C2474.76 4824.08 2475.26 4824.06 2475.86 4824.06C2476.48 4824.06 2477 4824.08 2477.4 4824.13C2477.8 4824.18 2478.11 4824.26 2478.34 4824.36C2478.56 4824.46 2478.73 4824.58 2478.83 4824.73C2478.93 4824.88 2478.98 4825.05 2478.98 4825.22V4859.06ZM2479.69 4813.79C2479.69 4815.25 2479.42 4816.24 2478.87 4816.76C2478.31 4817.29 2477.3 4817.55 2475.82 4817.55C2474.37 4817.55 2473.36 4817.3 2472.81 4816.8C2472.29 4816.27 2472.02 4815.3 2472.02 4813.87C2472.02 4812.41 2472.3 4811.42 2472.85 4810.9C2473.4 4810.37 2474.42 4810.11 2475.9 4810.11C2477.35 4810.11 2478.34 4810.37 2478.87 4810.9C2479.42 4811.4 2479.69 4812.36 2479.69 4813.79ZM2519.58 4859.06C2519.58 4859.26 2519.53 4859.44 2519.43 4859.59C2519.33 4859.71 2519.17 4859.82 2518.94 4859.92C2518.72 4860.03 2518.41 4860.1 2518 4860.15C2517.6 4860.2 2517.1 4860.23 2516.5 4860.23C2515.87 4860.23 2515.36 4860.2 2514.96 4860.15C2514.56 4860.1 2514.25 4860.03 2514.02 4859.92C2513.79 4859.82 2513.63 4859.71 2513.53 4859.59C2513.43 4859.44 2513.38 4859.26 2513.38 4859.06V4839.25C2513.38 4837.32 2513.23 4835.76 2512.93 4834.58C2512.63 4833.41 2512.19 4832.39 2511.61 4831.54C2511.04 4830.69 2510.28 4830.03 2509.36 4829.58C2508.46 4829.13 2507.4 4828.91 2506.2 4828.91C2504.65 4828.91 2503.09 4829.46 2501.54 4830.56C2499.98 4831.66 2498.35 4833.28 2496.65 4835.41V4859.06C2496.65 4859.26 2496.6 4859.44 2496.5 4859.59C2496.4 4859.71 2496.24 4859.82 2496.01 4859.92C2495.78 4860.03 2495.47 4860.1 2495.07 4860.15C2494.67 4860.2 2494.16 4860.23 2493.53 4860.23C2492.93 4860.23 2492.43 4860.2 2492.02 4860.15C2491.62 4860.1 2491.3 4860.03 2491.05 4859.92C2490.82 4859.82 2490.66 4859.71 2490.56 4859.59C2490.48 4859.44 2490.45 4859.26 2490.45 4859.06V4825.22C2490.45 4825.02 2490.48 4824.86 2490.56 4824.73C2490.63 4824.58 2490.78 4824.46 2491.01 4824.36C2491.24 4824.23 2491.52 4824.16 2491.87 4824.13C2492.23 4824.08 2492.69 4824.06 2493.27 4824.06C2493.82 4824.06 2494.27 4824.08 2494.62 4824.13C2495 4824.16 2495.28 4824.23 2495.48 4824.36C2495.68 4824.46 2495.82 4824.58 2495.9 4824.73C2496 4824.86 2496.05 4825.02 2496.05 4825.22V4829.7C2497.95 4827.57 2499.85 4826.01 2501.73 4825.03C2503.63 4824.03 2505.55 4823.53 2507.48 4823.53C2509.73 4823.53 2511.63 4823.92 2513.15 4824.7C2514.71 4825.45 2515.96 4826.46 2516.91 4827.74C2517.87 4829.02 2518.54 4830.52 2518.94 4832.25C2519.37 4833.96 2519.58 4836.01 2519.58 4838.42V4859.06ZM2559.17 4826.76C2559.17 4827.64 2559.05 4828.28 2558.8 4828.68C2558.57 4829.06 2558.27 4829.25 2557.9 4829.25H2553.05C2553.92 4830.15 2554.54 4831.15 2554.89 4832.25C2555.24 4833.33 2555.41 4834.46 2555.41 4835.64C2555.41 4837.59 2555.1 4839.32 2554.47 4840.83C2553.85 4842.33 2552.95 4843.61 2551.77 4844.66C2550.61 4845.69 2549.24 4846.48 2547.63 4847.03C2546.03 4847.58 2544.25 4847.86 2542.29 4847.86C2540.91 4847.86 2539.6 4847.68 2538.35 4847.33C2537.12 4846.95 2536.16 4846.49 2535.49 4845.94C2535.04 4846.39 2534.66 4846.9 2534.36 4847.48C2534.08 4848.06 2533.95 4848.72 2533.95 4849.47C2533.95 4850.35 2534.35 4851.08 2535.15 4851.65C2535.98 4852.23 2537.07 4852.54 2538.42 4852.59L2547.26 4852.97C2548.94 4853.02 2550.48 4853.26 2551.88 4853.68C2553.28 4854.08 2554.5 4854.67 2555.53 4855.45C2556.56 4856.2 2557.36 4857.14 2557.93 4858.27C2558.51 4859.37 2558.8 4860.66 2558.8 4862.14C2558.8 4863.7 2558.47 4865.18 2557.82 4866.58C2557.17 4867.98 2556.17 4869.21 2554.81 4870.26C2553.48 4871.34 2551.78 4872.18 2549.7 4872.78C2547.62 4873.41 2545.16 4873.72 2542.33 4873.72C2539.6 4873.72 2537.27 4873.49 2535.34 4873.01C2533.43 4872.56 2531.87 4871.93 2530.64 4871.13C2529.41 4870.33 2528.52 4869.36 2527.97 4868.23C2527.42 4867.13 2527.14 4865.93 2527.14 4864.62C2527.14 4863.8 2527.24 4863 2527.44 4862.22C2527.64 4861.44 2527.94 4860.7 2528.34 4860C2528.77 4859.3 2529.28 4858.63 2529.89 4858.01C2530.51 4857.36 2531.23 4856.72 2532.03 4856.09C2530.8 4855.46 2529.89 4854.67 2529.28 4853.72C2528.71 4852.77 2528.42 4851.74 2528.42 4850.64C2528.42 4849.11 2528.73 4847.74 2529.36 4846.54C2529.99 4845.34 2530.76 4844.26 2531.69 4843.31C2530.91 4842.38 2530.3 4841.34 2529.85 4840.19C2529.4 4839.01 2529.17 4837.59 2529.17 4835.94C2529.17 4834.01 2529.5 4832.28 2530.15 4830.75C2530.8 4829.22 2531.7 4827.93 2532.86 4826.88C2534.01 4825.82 2535.39 4825.02 2536.99 4824.47C2538.62 4823.89 2540.39 4823.61 2542.29 4823.61C2543.32 4823.61 2544.27 4823.67 2545.15 4823.79C2546.05 4823.89 2546.89 4824.04 2547.67 4824.24H2557.9C2558.32 4824.24 2558.64 4824.46 2558.84 4824.88C2559.06 4825.28 2559.17 4825.91 2559.17 4826.76ZM2549.47 4835.67C2549.47 4833.37 2548.83 4831.58 2547.56 4830.3C2546.3 4828.99 2544.51 4828.34 2542.18 4828.34C2540.98 4828.34 2539.92 4828.54 2539.02 4828.94C2538.14 4829.35 2537.41 4829.9 2536.8 4830.6C2536.23 4831.3 2535.79 4832.12 2535.49 4833.04C2535.21 4833.94 2535.07 4834.9 2535.07 4835.9C2535.07 4838.13 2535.7 4839.89 2536.95 4841.16C2538.23 4842.44 2540.01 4843.08 2542.29 4843.08C2543.52 4843.08 2544.59 4842.89 2545.49 4842.52C2546.39 4842.12 2547.13 4841.58 2547.71 4840.9C2548.31 4840.2 2548.75 4839.4 2549.02 4838.49C2549.32 4837.59 2549.47 4836.65 2549.47 4835.67ZM2552.59 4862.48C2552.59 4861.03 2551.99 4859.91 2550.79 4859.14C2549.61 4858.33 2548.01 4857.91 2545.98 4857.86L2537.22 4857.56C2536.42 4858.18 2535.75 4858.78 2535.22 4859.36C2534.72 4859.91 2534.32 4860.44 2534.02 4860.94C2533.72 4861.47 2533.51 4861.98 2533.38 4862.48C2533.28 4862.98 2533.23 4863.5 2533.23 4864.02C2533.23 4865.65 2534.06 4866.88 2535.71 4867.71C2537.37 4868.56 2539.67 4868.99 2542.63 4868.99C2544.51 4868.99 2546.08 4868.8 2547.33 4868.42C2548.61 4868.07 2549.64 4867.59 2550.41 4866.99C2551.19 4866.39 2551.74 4865.7 2552.07 4864.93C2552.42 4864.15 2552.59 4863.33 2552.59 4862.48ZM2621.74 4857.71C2621.94 4858.26 2622.04 4858.71 2622.04 4859.06C2622.06 4859.39 2621.97 4859.64 2621.77 4859.81C2621.57 4859.99 2621.24 4860.1 2620.76 4860.15C2620.31 4860.2 2619.69 4860.23 2618.92 4860.23C2618.14 4860.23 2617.51 4860.2 2617.04 4860.15C2616.59 4860.13 2616.24 4860.08 2615.98 4860C2615.76 4859.9 2615.58 4859.77 2615.46 4859.62C2615.36 4859.47 2615.26 4859.29 2615.16 4859.06L2610.98 4847.22H2590.76L2586.77 4858.91C2586.7 4859.14 2586.6 4859.34 2586.47 4859.51C2586.34 4859.66 2586.16 4859.8 2585.91 4859.92C2585.68 4860.03 2585.34 4860.1 2584.89 4860.15C2584.47 4860.2 2583.9 4860.23 2583.2 4860.23C2582.47 4860.23 2581.87 4860.19 2581.39 4860.11C2580.94 4860.06 2580.62 4859.95 2580.42 4859.77C2580.24 4859.6 2580.15 4859.35 2580.15 4859.02C2580.18 4858.67 2580.29 4858.22 2580.49 4857.67L2596.81 4812.48C2596.91 4812.2 2597.04 4811.98 2597.19 4811.8C2597.36 4811.62 2597.6 4811.49 2597.9 4811.39C2598.23 4811.29 2598.63 4811.22 2599.1 4811.2C2599.6 4811.15 2600.23 4811.12 2600.98 4811.12C2601.78 4811.12 2602.45 4811.15 2602.98 4811.2C2603.5 4811.22 2603.93 4811.29 2604.25 4811.39C2604.58 4811.49 2604.83 4811.64 2605.01 4811.84C2605.18 4812.01 2605.32 4812.24 2605.42 4812.51L2621.74 4857.71ZM2600.79 4817.82H2600.76L2592.37 4842.07H2609.29L2600.79 4817.82ZM2658.17 4859.06C2658.17 4859.26 2658.12 4859.44 2658.02 4859.59C2657.94 4859.74 2657.79 4859.86 2657.57 4859.96C2657.37 4860.04 2657.09 4860.1 2656.74 4860.15C2656.39 4860.2 2655.96 4860.23 2655.46 4860.23C2654.94 4860.23 2654.5 4860.2 2654.15 4860.15C2653.8 4860.1 2653.51 4860.04 2653.28 4859.96C2653.06 4859.86 2652.89 4859.74 2652.79 4859.59C2652.69 4859.44 2652.64 4859.26 2652.64 4859.06V4854.59C2650.86 4856.52 2649.01 4858.02 2647.08 4859.1C2645.17 4860.18 2643.08 4860.71 2640.8 4860.71C2638.32 4860.71 2636.2 4860.24 2634.44 4859.29C2632.69 4858.31 2631.26 4857 2630.16 4855.38C2629.08 4853.72 2628.29 4851.79 2627.79 4849.59C2627.29 4847.35 2627.04 4845.01 2627.04 4842.55C2627.04 4839.65 2627.35 4837.03 2627.98 4834.7C2628.6 4832.34 2629.53 4830.34 2630.76 4828.68C2631.99 4827.03 2633.5 4825.76 2635.31 4824.88C2637.14 4823.98 2639.24 4823.53 2641.63 4823.53C2643.61 4823.53 2645.41 4823.97 2647.04 4824.85C2648.69 4825.7 2650.32 4826.96 2651.93 4828.64V4808.98C2651.93 4808.8 2651.97 4808.64 2652.04 4808.49C2652.14 4808.32 2652.32 4808.19 2652.57 4808.12C2652.82 4808.01 2653.13 4807.94 2653.51 4807.89C2653.91 4807.81 2654.41 4807.78 2655.01 4807.78C2655.64 4807.78 2656.15 4807.81 2656.55 4807.89C2656.95 4807.94 2657.27 4808.01 2657.49 4808.12C2657.72 4808.19 2657.88 4808.32 2657.98 4808.49C2658.11 4808.64 2658.17 4808.8 2658.17 4808.98V4859.06ZM2651.93 4835.26C2650.25 4833.18 2648.62 4831.6 2647.04 4830.52C2645.49 4829.42 2643.86 4828.87 2642.15 4828.87C2640.57 4828.87 2639.23 4829.25 2638.13 4830C2637.03 4830.75 2636.12 4831.74 2635.42 4832.97C2634.75 4834.2 2634.24 4835.59 2633.92 4837.14C2633.62 4838.69 2633.47 4840.27 2633.47 4841.88C2633.47 4843.58 2633.59 4845.25 2633.84 4846.88C2634.12 4848.51 2634.58 4849.96 2635.23 4851.24C2635.89 4852.49 2636.75 4853.51 2637.83 4854.29C2638.91 4855.04 2640.26 4855.41 2641.89 4855.41C2642.72 4855.41 2643.51 4855.3 2644.26 4855.07C2645.03 4854.85 2645.82 4854.47 2646.63 4853.95C2647.43 4853.42 2648.27 4852.74 2649.15 4851.92C2650.02 4851.06 2650.95 4850.02 2651.93 4848.8V4835.26ZM2719.83 4859.06C2719.83 4859.26 2719.78 4859.44 2719.68 4859.59C2719.58 4859.71 2719.42 4859.82 2719.19 4859.92C2718.96 4860.03 2718.65 4860.1 2718.25 4860.15C2717.85 4860.2 2717.35 4860.23 2716.75 4860.23C2716.12 4860.23 2715.61 4860.2 2715.2 4860.15C2714.8 4860.1 2714.48 4860.03 2714.23 4859.92C2714 4859.82 2713.84 4859.71 2713.74 4859.59C2713.64 4859.44 2713.59 4859.26 2713.59 4859.06V4838.49C2713.59 4837.07 2713.46 4835.76 2713.21 4834.58C2712.96 4833.41 2712.56 4832.39 2712.01 4831.54C2711.46 4830.69 2710.76 4830.03 2709.9 4829.58C2709.05 4829.13 2708.05 4828.91 2706.9 4828.91C2705.47 4828.91 2704.03 4829.46 2702.57 4830.56C2701.14 4831.66 2699.56 4833.28 2697.83 4835.41V4859.06C2697.83 4859.26 2697.78 4859.44 2697.68 4859.59C2697.58 4859.71 2697.41 4859.82 2697.16 4859.92C2696.93 4860.03 2696.62 4860.1 2696.22 4860.15C2695.82 4860.2 2695.32 4860.23 2694.71 4860.23C2694.14 4860.23 2693.64 4860.2 2693.21 4860.15C2692.81 4860.1 2692.48 4860.03 2692.23 4859.92C2692.01 4859.82 2691.84 4859.71 2691.74 4859.59C2691.67 4859.44 2691.63 4859.26 2691.63 4859.06V4838.49C2691.63 4837.07 2691.49 4835.76 2691.22 4834.58C2690.94 4833.41 2690.53 4832.39 2689.98 4831.54C2689.43 4830.69 2688.72 4830.03 2687.87 4829.58C2687.04 4829.13 2686.05 4828.91 2684.9 4828.91C2683.47 4828.91 2682.03 4829.46 2680.58 4830.56C2679.12 4831.66 2677.54 4833.28 2675.84 4835.41V4859.06C2675.84 4859.26 2675.79 4859.44 2675.69 4859.59C2675.59 4859.71 2675.43 4859.82 2675.2 4859.92C2674.98 4860.03 2674.66 4860.1 2674.26 4860.15C2673.86 4860.2 2673.35 4860.23 2672.72 4860.23C2672.12 4860.23 2671.62 4860.2 2671.22 4860.15C2670.81 4860.1 2670.49 4860.03 2670.24 4859.92C2670.01 4859.82 2669.85 4859.71 2669.75 4859.59C2669.67 4859.44 2669.64 4859.26 2669.64 4859.06V4825.22C2669.64 4825.02 2669.67 4824.86 2669.75 4824.73C2669.82 4824.58 2669.97 4824.46 2670.2 4824.36C2670.43 4824.23 2670.71 4824.16 2671.06 4824.13C2671.42 4824.08 2671.88 4824.06 2672.46 4824.06C2673.01 4824.06 2673.46 4824.08 2673.81 4824.13C2674.19 4824.16 2674.47 4824.23 2674.67 4824.36C2674.87 4824.46 2675.01 4824.58 2675.09 4824.73C2675.19 4824.86 2675.24 4825.02 2675.24 4825.22V4829.7C2677.14 4827.57 2678.99 4826.01 2680.77 4825.03C2682.57 4824.03 2684.39 4823.53 2686.22 4823.53C2687.62 4823.53 2688.87 4823.69 2689.98 4824.02C2691.1 4824.34 2692.09 4824.81 2692.95 4825.41C2693.8 4825.99 2694.53 4826.69 2695.13 4827.52C2695.73 4828.32 2696.23 4829.22 2696.63 4830.22C2697.76 4828.99 2698.82 4827.95 2699.83 4827.1C2700.85 4826.25 2701.83 4825.56 2702.76 4825.03C2703.71 4824.51 2704.63 4824.13 2705.5 4823.91C2706.41 4823.66 2707.31 4823.53 2708.21 4823.53C2710.39 4823.53 2712.22 4823.92 2713.7 4824.7C2715.18 4825.45 2716.37 4826.46 2717.27 4827.74C2718.2 4829.02 2718.85 4830.52 2719.23 4832.25C2719.63 4833.96 2719.83 4835.76 2719.83 4837.67V4859.06ZM2737.35 4859.06C2737.35 4859.26 2737.3 4859.44 2737.2 4859.59C2737.1 4859.71 2736.94 4859.82 2736.71 4859.92C2736.48 4860.03 2736.17 4860.1 2735.77 4860.15C2735.37 4860.2 2734.86 4860.23 2734.23 4860.23C2733.63 4860.23 2733.13 4860.2 2732.73 4860.15C2732.32 4860.1 2732 4860.03 2731.75 4859.92C2731.52 4859.82 2731.36 4859.71 2731.26 4859.59C2731.18 4859.44 2731.15 4859.26 2731.15 4859.06V4825.22C2731.15 4825.05 2731.18 4824.88 2731.26 4824.73C2731.36 4824.58 2731.52 4824.46 2731.75 4824.36C2732 4824.26 2732.32 4824.18 2732.73 4824.13C2733.13 4824.08 2733.63 4824.06 2734.23 4824.06C2734.86 4824.06 2735.37 4824.08 2735.77 4824.13C2736.17 4824.18 2736.48 4824.26 2736.71 4824.36C2736.94 4824.46 2737.1 4824.58 2737.2 4824.73C2737.3 4824.88 2737.35 4825.05 2737.35 4825.22V4859.06ZM2738.06 4813.79C2738.06 4815.25 2737.79 4816.24 2737.24 4816.76C2736.69 4817.29 2735.67 4817.55 2734.19 4817.55C2732.74 4817.55 2731.74 4817.3 2731.18 4816.8C2730.66 4816.27 2730.39 4815.3 2730.39 4813.87C2730.39 4812.41 2730.67 4811.42 2731.22 4810.9C2731.77 4810.37 2732.79 4810.11 2734.27 4810.11C2735.72 4810.11 2736.71 4810.37 2737.24 4810.9C2737.79 4811.4 2738.06 4812.36 2738.06 4813.79ZM2777.96 4859.06C2777.96 4859.26 2777.9 4859.44 2777.8 4859.59C2777.7 4859.71 2777.54 4859.82 2777.32 4859.92C2777.09 4860.03 2776.78 4860.1 2776.38 4860.15C2775.97 4860.2 2775.47 4860.23 2774.87 4860.23C2774.25 4860.23 2773.73 4860.2 2773.33 4860.15C2772.93 4860.1 2772.62 4860.03 2772.39 4859.92C2772.17 4859.82 2772 4859.71 2771.9 4859.59C2771.8 4859.44 2771.75 4859.26 2771.75 4859.06V4839.25C2771.75 4837.32 2771.6 4835.76 2771.3 4834.58C2771 4833.41 2770.56 4832.39 2769.98 4831.54C2769.41 4830.69 2768.66 4830.03 2767.73 4829.58C2766.83 4829.13 2765.77 4828.91 2764.57 4828.91C2763.02 4828.91 2761.46 4829.46 2759.91 4830.56C2758.35 4831.66 2756.72 4833.28 2755.02 4835.41V4859.06C2755.02 4859.26 2754.97 4859.44 2754.87 4859.59C2754.77 4859.71 2754.61 4859.82 2754.38 4859.92C2754.16 4860.03 2753.84 4860.1 2753.44 4860.15C2753.04 4860.2 2752.53 4860.23 2751.9 4860.23C2751.3 4860.23 2750.8 4860.2 2750.4 4860.15C2749.99 4860.1 2749.67 4860.03 2749.42 4859.92C2749.19 4859.82 2749.03 4859.71 2748.93 4859.59C2748.85 4859.44 2748.82 4859.26 2748.82 4859.06V4825.22C2748.82 4825.02 2748.85 4824.86 2748.93 4824.73C2749 4824.58 2749.16 4824.46 2749.38 4824.36C2749.61 4824.23 2749.89 4824.16 2750.25 4824.13C2750.6 4824.08 2751.06 4824.06 2751.64 4824.06C2752.19 4824.06 2752.64 4824.08 2752.99 4824.13C2753.37 4824.16 2753.65 4824.23 2753.85 4824.36C2754.06 4824.46 2754.19 4824.58 2754.27 4824.73C2754.37 4824.86 2754.42 4825.02 2754.42 4825.22V4829.7C2756.32 4827.57 2758.22 4826.01 2760.1 4825.03C2762 4824.03 2763.92 4823.53 2765.85 4823.53C2768.1 4823.53 2770 4823.92 2771.53 4824.7C2773.08 4825.45 2774.33 4826.46 2775.29 4827.74C2776.24 4829.02 2776.91 4830.52 2777.32 4832.25C2777.74 4833.96 2777.96 4836.01 2777.96 4838.42V4859.06ZM2795.48 4859.06C2795.48 4859.26 2795.43 4859.44 2795.33 4859.59C2795.22 4859.71 2795.06 4859.82 2794.84 4859.92C2794.61 4860.03 2794.3 4860.1 2793.9 4860.15C2793.5 4860.2 2792.98 4860.23 2792.35 4860.23C2791.75 4860.23 2791.25 4860.2 2790.85 4860.15C2790.45 4860.1 2790.12 4860.03 2789.87 4859.92C2789.65 4859.82 2789.49 4859.71 2789.38 4859.59C2789.31 4859.44 2789.27 4859.26 2789.27 4859.06V4825.22C2789.27 4825.05 2789.31 4824.88 2789.38 4824.73C2789.49 4824.58 2789.65 4824.46 2789.87 4824.36C2790.12 4824.26 2790.45 4824.18 2790.85 4824.13C2791.25 4824.08 2791.75 4824.06 2792.35 4824.06C2792.98 4824.06 2793.5 4824.08 2793.9 4824.13C2794.3 4824.18 2794.61 4824.26 2794.84 4824.36C2795.06 4824.46 2795.22 4824.58 2795.33 4824.73C2795.43 4824.88 2795.48 4825.05 2795.48 4825.22V4859.06ZM2796.19 4813.79C2796.19 4815.25 2795.91 4816.24 2795.36 4816.76C2794.81 4817.29 2793.8 4817.55 2792.32 4817.55C2790.86 4817.55 2789.86 4817.3 2789.31 4816.8C2788.78 4816.27 2788.52 4815.3 2788.52 4813.87C2788.52 4812.41 2788.8 4811.42 2789.35 4810.9C2789.9 4810.37 2790.91 4810.11 2792.39 4810.11C2793.85 4810.11 2794.84 4810.37 2795.36 4810.9C2795.91 4811.4 2796.19 4812.36 2796.19 4813.79ZM2828.19 4849.85C2828.19 4851.58 2827.86 4853.12 2827.21 4854.47C2826.58 4855.83 2825.68 4856.97 2824.5 4857.89C2823.32 4858.82 2821.92 4859.52 2820.29 4860C2818.66 4860.48 2816.87 4860.71 2814.91 4860.71C2813.71 4860.71 2812.56 4860.61 2811.45 4860.41C2810.38 4860.24 2809.4 4860.01 2808.52 4859.74C2807.67 4859.44 2806.94 4859.14 2806.34 4858.83C2805.74 4858.51 2805.3 4858.22 2805.03 4857.97C2804.75 4857.72 2804.55 4857.37 2804.42 4856.92C2804.3 4856.47 2804.24 4855.85 2804.24 4855.07C2804.24 4854.6 2804.26 4854.2 2804.31 4853.87C2804.36 4853.55 2804.42 4853.28 2804.5 4853.08C2804.57 4852.88 2804.67 4852.74 2804.8 4852.67C2804.95 4852.57 2805.11 4852.52 2805.29 4852.52C2805.56 4852.52 2805.97 4852.69 2806.49 4853.04C2807.04 4853.37 2807.71 4853.73 2808.48 4854.13C2809.29 4854.54 2810.23 4854.91 2811.3 4855.26C2812.38 4855.59 2813.62 4855.75 2815.03 4855.75C2816.08 4855.75 2817.03 4855.64 2817.88 4855.41C2818.74 4855.19 2819.48 4854.86 2820.1 4854.44C2820.73 4853.98 2821.2 4853.42 2821.53 4852.74C2821.88 4852.07 2822.06 4851.26 2822.06 4850.34C2822.06 4849.38 2821.81 4848.58 2821.31 4847.93C2820.83 4847.28 2820.19 4846.7 2819.39 4846.2C2818.59 4845.7 2817.68 4845.26 2816.68 4844.89C2815.68 4844.48 2814.64 4844.07 2813.56 4843.65C2812.51 4843.22 2811.47 4842.74 2810.44 4842.22C2809.44 4841.66 2808.53 4841 2807.73 4840.22C2806.93 4839.45 2806.28 4838.52 2805.78 4837.44C2805.3 4836.36 2805.06 4835.07 2805.06 4833.57C2805.06 4832.24 2805.31 4830.97 2805.81 4829.77C2806.34 4828.54 2807.12 4827.48 2808.15 4826.58C2809.17 4825.65 2810.45 4824.91 2811.98 4824.36C2813.53 4823.81 2815.34 4823.53 2817.4 4823.53C2818.3 4823.53 2819.2 4823.61 2820.1 4823.76C2821 4823.91 2821.82 4824.09 2822.55 4824.32C2823.27 4824.55 2823.89 4824.8 2824.39 4825.07C2824.91 4825.32 2825.3 4825.55 2825.55 4825.75C2825.83 4825.95 2826 4826.12 2826.08 4826.27C2826.18 4826.43 2826.24 4826.6 2826.27 4826.8C2826.32 4826.98 2826.36 4827.2 2826.38 4827.48C2826.43 4827.75 2826.46 4828.09 2826.46 4828.49C2826.46 4828.92 2826.43 4829.3 2826.38 4829.62C2826.36 4829.92 2826.29 4830.17 2826.19 4830.37C2826.12 4830.57 2826.02 4830.72 2825.89 4830.82C2825.77 4830.9 2825.63 4830.94 2825.48 4830.94C2825.25 4830.94 2824.93 4830.8 2824.5 4830.52C2824.07 4830.25 2823.52 4829.96 2822.85 4829.66C2822.17 4829.33 2821.37 4829.03 2820.44 4828.76C2819.54 4828.48 2818.5 4828.34 2817.32 4828.34C2816.27 4828.34 2815.34 4828.47 2814.54 4828.72C2813.74 4828.94 2813.07 4829.28 2812.54 4829.73C2812.04 4830.16 2811.66 4830.67 2811.38 4831.28C2811.13 4831.88 2811 4832.53 2811 4833.23C2811 4834.21 2811.25 4835.04 2811.76 4835.71C2812.26 4836.36 2812.91 4836.94 2813.71 4837.44C2814.51 4837.94 2815.43 4838.39 2816.46 4838.79C2817.48 4839.2 2818.52 4839.61 2819.58 4840.04C2820.65 4840.46 2821.71 4840.94 2822.73 4841.46C2823.79 4841.99 2824.71 4842.63 2825.52 4843.38C2826.32 4844.13 2826.96 4845.04 2827.43 4846.09C2827.93 4847.14 2828.19 4848.39 2828.19 4849.85ZM2853.79 4856.58C2853.79 4857.31 2853.74 4857.88 2853.64 4858.31C2853.54 4858.73 2853.39 4859.05 2853.19 4859.25C2852.99 4859.45 2852.69 4859.64 2852.29 4859.81C2851.88 4859.99 2851.42 4860.13 2850.89 4860.23C2850.39 4860.35 2849.85 4860.45 2849.28 4860.53C2848.7 4860.6 2848.12 4860.64 2847.55 4860.64C2845.79 4860.64 2844.29 4860.41 2843.04 4859.96C2841.78 4859.49 2840.76 4858.78 2839.95 4857.86C2839.15 4856.9 2838.56 4855.71 2838.19 4854.29C2837.84 4852.83 2837.66 4851.13 2837.66 4849.17V4829.4H2832.92C2832.55 4829.4 2832.25 4829.19 2832.02 4828.79C2831.79 4828.39 2831.68 4827.74 2831.68 4826.84C2831.68 4826.36 2831.71 4825.96 2831.76 4825.64C2831.83 4825.31 2831.92 4825.05 2832.02 4824.85C2832.12 4824.62 2832.25 4824.47 2832.4 4824.4C2832.57 4824.29 2832.76 4824.24 2832.96 4824.24H2837.66V4816.2C2837.66 4816.02 2837.7 4815.86 2837.77 4815.71C2837.87 4815.56 2838.04 4815.43 2838.26 4815.33C2838.51 4815.21 2838.84 4815.12 2839.24 4815.07C2839.64 4815.02 2840.14 4815 2840.74 4815C2841.37 4815 2841.88 4815.02 2842.28 4815.07C2842.69 4815.12 2843 4815.21 2843.22 4815.33C2843.45 4815.43 2843.61 4815.56 2843.71 4815.71C2843.81 4815.86 2843.86 4816.02 2843.86 4816.2V4824.24H2852.55C2852.75 4824.24 2852.92 4824.29 2853.08 4824.4C2853.23 4824.47 2853.35 4824.62 2853.45 4824.85C2853.58 4825.05 2853.66 4825.31 2853.71 4825.64C2853.76 4825.96 2853.79 4826.36 2853.79 4826.84C2853.79 4827.74 2853.68 4828.39 2853.45 4828.79C2853.23 4829.19 2852.92 4829.4 2852.55 4829.4H2843.86V4848.27C2843.86 4850.6 2844.2 4852.37 2844.88 4853.57C2845.58 4854.75 2846.82 4855.34 2848.6 4855.34C2849.18 4855.34 2849.69 4855.29 2850.14 4855.19C2850.59 4855.06 2850.99 4854.94 2851.35 4854.81C2851.7 4854.69 2852 4854.57 2852.25 4854.47C2852.5 4854.35 2852.72 4854.29 2852.92 4854.29C2853.05 4854.29 2853.16 4854.32 2853.26 4854.4C2853.39 4854.45 2853.48 4854.56 2853.53 4854.74C2853.6 4854.91 2853.66 4855.15 2853.71 4855.45C2853.76 4855.75 2853.79 4856.13 2853.79 4856.58ZM2881.76 4827.44C2881.76 4827.99 2881.75 4828.46 2881.72 4828.83C2881.7 4829.21 2881.65 4829.51 2881.57 4829.73C2881.5 4829.93 2881.4 4830.1 2881.27 4830.22C2881.17 4830.32 2881.02 4830.37 2880.82 4830.37C2880.62 4830.37 2880.37 4830.32 2880.07 4830.22C2879.79 4830.1 2879.47 4829.98 2879.09 4829.88C2878.74 4829.76 2878.34 4829.65 2877.89 4829.55C2877.44 4829.45 2876.95 4829.4 2876.42 4829.4C2875.8 4829.4 2875.18 4829.52 2874.58 4829.77C2873.98 4830.02 2873.34 4830.44 2872.66 4831.01C2872.01 4831.59 2871.32 4832.35 2870.6 4833.31C2869.87 4834.26 2869.07 4835.42 2868.19 4836.8V4859.06C2868.19 4859.26 2868.14 4859.44 2868.04 4859.59C2867.94 4859.71 2867.78 4859.82 2867.55 4859.92C2867.32 4860.03 2867.01 4860.1 2866.61 4860.15C2866.21 4860.2 2865.7 4860.23 2865.07 4860.23C2864.47 4860.23 2863.97 4860.2 2863.56 4860.15C2863.16 4860.1 2862.84 4860.03 2862.59 4859.92C2862.36 4859.82 2862.2 4859.71 2862.1 4859.59C2862.02 4859.44 2861.99 4859.26 2861.99 4859.06V4825.22C2861.99 4825.02 2862.02 4824.86 2862.1 4824.73C2862.17 4824.58 2862.32 4824.46 2862.55 4824.36C2862.78 4824.23 2863.06 4824.16 2863.41 4824.13C2863.77 4824.08 2864.23 4824.06 2864.81 4824.06C2865.36 4824.06 2865.81 4824.08 2866.16 4824.13C2866.54 4824.16 2866.82 4824.23 2867.02 4824.36C2867.22 4824.46 2867.36 4824.58 2867.44 4824.73C2867.54 4824.86 2867.59 4825.02 2867.59 4825.22V4830.15C2868.52 4828.79 2869.38 4827.69 2870.18 4826.84C2871.01 4825.99 2871.79 4825.32 2872.51 4824.85C2873.24 4824.34 2873.95 4824.01 2874.66 4823.83C2875.38 4823.63 2876.11 4823.53 2876.84 4823.53C2877.16 4823.53 2877.53 4823.56 2877.93 4823.61C2878.35 4823.63 2878.79 4823.69 2879.24 4823.79C2879.69 4823.89 2880.1 4824.01 2880.45 4824.13C2880.82 4824.26 2881.09 4824.38 2881.24 4824.51C2881.39 4824.63 2881.49 4824.76 2881.54 4824.88C2881.59 4824.98 2881.62 4825.12 2881.65 4825.3C2881.7 4825.47 2881.72 4825.74 2881.72 4826.09C2881.75 4826.41 2881.76 4826.86 2881.76 4827.44ZM2912.74 4859.1C2912.74 4859.4 2912.64 4859.62 2912.44 4859.77C2912.24 4859.92 2911.97 4860.04 2911.61 4860.11C2911.26 4860.19 2910.75 4860.23 2910.07 4860.23C2909.42 4860.23 2908.9 4860.19 2908.49 4860.11C2908.12 4860.04 2907.84 4859.92 2907.67 4859.77C2907.49 4859.62 2907.4 4859.4 2907.4 4859.1V4855.71C2905.92 4857.29 2904.27 4858.52 2902.44 4859.4C2900.64 4860.28 2898.72 4860.71 2896.69 4860.71C2894.91 4860.71 2893.29 4860.48 2891.84 4860C2890.41 4859.55 2889.18 4858.88 2888.15 4858.01C2887.15 4857.13 2886.36 4856.05 2885.79 4854.77C2885.23 4853.5 2884.96 4852.04 2884.96 4850.41C2884.96 4848.51 2885.35 4846.85 2886.12 4845.45C2886.9 4844.05 2888.02 4842.88 2889.47 4841.95C2890.92 4841.03 2892.7 4840.34 2894.81 4839.89C2896.91 4839.41 2899.28 4839.17 2901.91 4839.17H2906.58V4836.54C2906.58 4835.24 2906.44 4834.08 2906.16 4833.08C2905.89 4832.08 2905.44 4831.25 2904.81 4830.6C2904.21 4829.92 2903.42 4829.42 2902.44 4829.09C2901.46 4828.74 2900.26 4828.57 2898.83 4828.57C2897.3 4828.57 2895.92 4828.76 2894.7 4829.13C2893.49 4829.48 2892.43 4829.88 2891.5 4830.34C2890.6 4830.76 2889.83 4831.16 2889.21 4831.54C2888.6 4831.89 2888.15 4832.06 2887.85 4832.06C2887.65 4832.06 2887.48 4832.01 2887.33 4831.91C2887.18 4831.81 2887.04 4831.66 2886.91 4831.46C2886.81 4831.26 2886.74 4831.01 2886.69 4830.71C2886.64 4830.39 2886.61 4830.03 2886.61 4829.66C2886.61 4829.03 2886.65 4828.54 2886.73 4828.19C2886.83 4827.82 2887.04 4827.47 2887.36 4827.14C2887.72 4826.81 2888.3 4826.44 2889.13 4826.01C2889.96 4825.56 2890.91 4825.16 2891.99 4824.81C2893.07 4824.43 2894.24 4824.13 2895.52 4823.91C2896.8 4823.66 2898.09 4823.53 2899.4 4823.53C2901.83 4823.53 2903.89 4823.81 2905.6 4824.36C2907.3 4824.91 2908.68 4825.72 2909.73 4826.8C2910.79 4827.85 2911.55 4829.17 2912.03 4830.75C2912.5 4832.33 2912.74 4834.17 2912.74 4836.28V4859.1ZM2906.58 4843.65H2901.28C2899.57 4843.65 2898.09 4843.8 2896.84 4844.1C2895.59 4844.37 2894.55 4844.8 2893.72 4845.37C2892.89 4845.93 2892.28 4846.6 2891.88 4847.4C2891.5 4848.18 2891.31 4849.08 2891.31 4850.11C2891.31 4851.87 2891.86 4853.27 2892.97 4854.32C2894.09 4855.35 2895.66 4855.86 2897.67 4855.86C2899.3 4855.86 2900.8 4855.45 2902.18 4854.62C2903.58 4853.8 2905.05 4852.53 2906.58 4850.83V4843.65ZM2941.02 4856.58C2941.02 4857.31 2940.97 4857.88 2940.87 4858.31C2940.77 4858.73 2940.62 4859.05 2940.41 4859.25C2940.21 4859.45 2939.91 4859.64 2939.51 4859.81C2939.11 4859.99 2938.65 4860.13 2938.12 4860.23C2937.62 4860.35 2937.08 4860.45 2936.5 4860.53C2935.93 4860.6 2935.35 4860.64 2934.77 4860.64C2933.02 4860.64 2931.52 4860.41 2930.26 4859.96C2929.01 4859.49 2927.98 4858.78 2927.18 4857.86C2926.38 4856.9 2925.79 4855.71 2925.41 4854.29C2925.06 4852.83 2924.89 4851.13 2924.89 4849.17V4829.4H2920.15C2919.77 4829.4 2919.47 4829.19 2919.25 4828.79C2919.02 4828.39 2918.91 4827.74 2918.91 4826.84C2918.91 4826.36 2918.93 4825.96 2918.98 4825.64C2919.06 4825.31 2919.15 4825.05 2919.25 4824.85C2919.35 4824.62 2919.47 4824.47 2919.62 4824.4C2919.8 4824.29 2919.99 4824.24 2920.19 4824.24H2924.89V4816.2C2924.89 4816.02 2924.92 4815.86 2925 4815.71C2925.1 4815.56 2925.26 4815.43 2925.49 4815.33C2925.74 4815.21 2926.06 4815.12 2926.47 4815.07C2926.87 4815.02 2927.37 4815 2927.97 4815C2928.6 4815 2929.11 4815.02 2929.51 4815.07C2929.91 4815.12 2930.23 4815.21 2930.45 4815.33C2930.68 4815.43 2930.84 4815.56 2930.94 4815.71C2931.04 4815.86 2931.09 4816.02 2931.09 4816.2V4824.24H2939.78C2939.98 4824.24 2940.15 4824.29 2940.3 4824.4C2940.45 4824.47 2940.58 4824.62 2940.68 4824.85C2940.8 4825.05 2940.89 4825.31 2940.94 4825.64C2940.99 4825.96 2941.02 4826.36 2941.02 4826.84C2941.02 4827.74 2940.9 4828.39 2940.68 4828.79C2940.45 4829.19 2940.15 4829.4 2939.78 4829.4H2931.09V4848.27C2931.09 4850.6 2931.43 4852.37 2932.11 4853.57C2932.81 4854.75 2934.05 4855.34 2935.83 4855.34C2936.4 4855.34 2936.92 4855.29 2937.37 4855.19C2937.82 4855.06 2938.22 4854.94 2938.57 4854.81C2938.92 4854.69 2939.22 4854.57 2939.47 4854.47C2939.73 4854.35 2939.95 4854.29 2940.15 4854.29C2940.28 4854.29 2940.39 4854.32 2940.49 4854.4C2940.62 4854.45 2940.7 4854.56 2940.75 4854.74C2940.83 4854.91 2940.89 4855.15 2940.94 4855.45C2940.99 4855.75 2941.02 4856.13 2941.02 4856.58ZM2979.93 4841.77C2979.93 4844.52 2979.57 4847.07 2978.84 4849.4C2978.11 4851.7 2977.02 4853.7 2975.57 4855.38C2974.14 4857.05 2972.33 4858.37 2970.15 4859.32C2968 4860.25 2965.49 4860.71 2962.63 4860.71C2959.85 4860.71 2957.42 4860.3 2955.34 4859.47C2953.29 4858.65 2951.57 4857.44 2950.19 4855.86C2948.81 4854.29 2947.78 4852.37 2947.11 4850.11C2946.43 4847.86 2946.09 4845.3 2946.09 4842.44C2946.09 4839.68 2946.44 4837.15 2947.14 4834.85C2947.87 4832.52 2948.95 4830.51 2950.38 4828.83C2951.83 4827.15 2953.64 4825.85 2955.79 4824.92C2957.95 4823.99 2960.47 4823.53 2963.35 4823.53C2966.13 4823.53 2968.55 4823.94 2970.61 4824.77C2972.69 4825.6 2974.42 4826.8 2975.79 4828.38C2977.17 4829.96 2978.2 4831.88 2978.88 4834.13C2979.58 4836.39 2979.93 4838.93 2979.93 4841.77ZM2973.39 4842.18C2973.39 4840.35 2973.21 4838.62 2972.86 4836.99C2972.54 4835.36 2971.98 4833.93 2971.21 4832.7C2970.43 4831.48 2969.38 4830.51 2968.05 4829.81C2966.72 4829.08 2965.07 4828.72 2963.09 4828.72C2961.26 4828.72 2959.68 4829.04 2958.35 4829.7C2957.05 4830.35 2955.97 4831.28 2955.12 4832.48C2954.26 4833.66 2953.62 4835.06 2953.2 4836.69C2952.8 4838.32 2952.6 4840.1 2952.6 4842.03C2952.6 4843.88 2952.76 4845.63 2953.08 4847.25C2953.44 4848.88 2954 4850.31 2954.78 4851.54C2955.58 4852.74 2956.64 4853.71 2957.97 4854.44C2959.3 4855.14 2960.96 4855.49 2962.94 4855.49C2964.74 4855.49 2966.31 4855.16 2967.64 4854.51C2968.96 4853.86 2970.05 4852.94 2970.91 4851.77C2971.76 4850.59 2972.39 4849.18 2972.79 4847.56C2973.19 4845.93 2973.39 4844.13 2973.39 4842.18ZM3008.84 4827.44C3008.84 4827.99 3008.83 4828.46 3008.8 4828.83C3008.78 4829.21 3008.73 4829.51 3008.65 4829.73C3008.58 4829.93 3008.48 4830.1 3008.35 4830.22C3008.25 4830.32 3008.1 4830.37 3007.9 4830.37C3007.7 4830.37 3007.45 4830.32 3007.15 4830.22C3006.87 4830.1 3006.55 4829.98 3006.17 4829.88C3005.82 4829.76 3005.42 4829.65 3004.97 4829.55C3004.52 4829.45 3004.03 4829.4 3003.5 4829.4C3002.88 4829.4 3002.26 4829.52 3001.66 4829.77C3001.06 4830.02 3000.42 4830.44 2999.74 4831.01C2999.09 4831.59 2998.4 4832.35 2997.68 4833.31C2996.95 4834.26 2996.15 4835.42 2995.27 4836.8V4859.06C2995.27 4859.26 2995.22 4859.44 2995.12 4859.59C2995.02 4859.71 2994.86 4859.82 2994.63 4859.92C2994.4 4860.03 2994.09 4860.1 2993.69 4860.15C2993.29 4860.2 2992.78 4860.23 2992.15 4860.23C2991.55 4860.23 2991.05 4860.2 2990.65 4860.15C2990.24 4860.1 2989.92 4860.03 2989.67 4859.92C2989.44 4859.82 2989.28 4859.71 2989.18 4859.59C2989.1 4859.44 2989.07 4859.26 2989.07 4859.06V4825.22C2989.07 4825.02 2989.1 4824.86 2989.18 4824.73C2989.25 4824.58 2989.4 4824.46 2989.63 4824.36C2989.86 4824.23 2990.14 4824.16 2990.49 4824.13C2990.85 4824.08 2991.31 4824.06 2991.89 4824.06C2992.44 4824.06 2992.89 4824.08 2993.24 4824.13C2993.62 4824.16 2993.9 4824.23 2994.1 4824.36C2994.3 4824.46 2994.44 4824.58 2994.52 4824.73C2994.62 4824.86 2994.67 4825.02 2994.67 4825.22V4830.15C2995.6 4828.79 2996.46 4827.69 2997.26 4826.84C2998.09 4825.99 2998.87 4825.32 2999.59 4824.85C3000.32 4824.34 3001.03 4824.01 3001.74 4823.83C3002.46 4823.63 3003.19 4823.53 3003.92 4823.53C3004.24 4823.53 3004.61 4823.56 3005.01 4823.61C3005.43 4823.63 3005.87 4823.69 3006.32 4823.79C3006.77 4823.89 3007.18 4824.01 3007.53 4824.13C3007.9 4824.26 3008.17 4824.38 3008.32 4824.51C3008.47 4824.63 3008.57 4824.76 3008.62 4824.88C3008.67 4824.98 3008.7 4825.12 3008.73 4825.3C3008.78 4825.47 3008.8 4825.74 3008.8 4826.09C3008.83 4826.41 3008.84 4826.86 3008.84 4827.44Z" fill="black"/>
</svg>
