<svg width="6900" height="5209" viewBox="0 0 6900 5209" fill="none" xmlns="http://www.w3.org/2000/svg">
<path d="M4228.95 4871.12C4228.95 4871.52 4228.94 4871.87 4228.91 4872.17C4228.89 4872.47 4228.84 4872.74 4228.76 4872.96C4228.71 4873.19 4228.64 4873.39 4228.54 4873.56C4228.44 4873.74 4228.26 4873.95 4228.01 4874.2C4227.76 4874.45 4227.23 4874.84 4226.43 4875.37C4225.63 4875.87 4224.63 4876.37 4223.42 4876.87C4222.25 4877.35 4220.88 4877.75 4219.33 4878.08C4217.8 4878.43 4216.12 4878.6 4214.29 4878.6C4211.13 4878.6 4208.27 4878.08 4205.72 4877.02C4203.18 4875.97 4201.02 4874.42 4199.21 4872.36C4197.43 4870.31 4196.05 4867.77 4195.08 4864.77C4194.12 4861.73 4193.65 4858.25 4193.65 4854.31C4193.65 4850.28 4194.16 4846.68 4195.19 4843.52C4196.24 4840.36 4197.71 4837.7 4199.59 4835.51C4201.47 4833.31 4203.71 4831.63 4206.32 4830.48C4208.95 4829.32 4211.86 4828.75 4215.04 4828.75C4216.44 4828.75 4217.81 4828.88 4219.14 4829.16C4220.47 4829.41 4221.69 4829.74 4222.82 4830.14C4223.95 4830.54 4224.95 4831 4225.83 4831.53C4226.71 4832.06 4227.31 4832.49 4227.64 4832.85C4227.99 4833.17 4228.21 4833.42 4228.31 4833.6C4228.41 4833.77 4228.49 4833.99 4228.54 4834.24C4228.61 4834.46 4228.66 4834.74 4228.69 4835.06C4228.74 4835.39 4228.76 4835.78 4228.76 4836.23C4228.76 4836.73 4228.74 4837.16 4228.69 4837.51C4228.64 4837.86 4228.56 4838.16 4228.46 4838.41C4228.36 4838.64 4228.24 4838.81 4228.09 4838.94C4227.96 4839.04 4227.8 4839.09 4227.6 4839.09C4227.25 4839.09 4226.76 4838.85 4226.13 4838.37C4225.5 4837.87 4224.69 4837.33 4223.69 4836.76C4222.71 4836.15 4221.51 4835.61 4220.08 4835.14C4218.67 4834.64 4216.98 4834.39 4215 4834.39C4212.85 4834.39 4210.88 4834.83 4209.1 4835.7C4207.35 4836.55 4205.84 4837.82 4204.59 4839.5C4203.33 4841.18 4202.36 4843.23 4201.66 4845.67C4200.98 4848.07 4200.64 4850.83 4200.64 4853.94C4200.64 4857.02 4200.97 4859.75 4201.62 4862.13C4202.29 4864.49 4203.25 4866.47 4204.48 4868.07C4205.73 4869.65 4207.26 4870.86 4209.06 4871.68C4210.87 4872.49 4212.91 4872.89 4215.19 4872.89C4217.12 4872.89 4218.8 4872.65 4220.23 4872.17C4221.68 4871.7 4222.91 4871.17 4223.91 4870.59C4224.94 4869.99 4225.78 4869.45 4226.43 4868.98C4227.08 4868.5 4227.6 4868.26 4227.97 4868.26C4228.15 4868.26 4228.3 4868.3 4228.42 4868.38C4228.55 4868.45 4228.65 4868.6 4228.73 4868.83C4228.8 4869.03 4228.85 4869.31 4228.88 4869.69C4228.93 4870.07 4228.95 4870.54 4228.95 4871.12ZM4268.28 4859.77C4268.28 4862.52 4267.91 4865.07 4267.19 4867.4C4266.46 4869.7 4265.37 4871.7 4263.92 4873.38C4262.49 4875.05 4260.68 4876.37 4258.5 4877.32C4256.35 4878.25 4253.84 4878.71 4250.98 4878.71C4248.2 4878.71 4245.77 4878.3 4243.69 4877.47C4241.63 4876.65 4239.92 4875.44 4238.54 4873.86C4237.16 4872.29 4236.13 4870.37 4235.46 4868.11C4234.78 4865.86 4234.44 4863.3 4234.44 4860.44C4234.44 4857.68 4234.79 4855.15 4235.49 4852.85C4236.22 4850.52 4237.3 4848.51 4238.73 4846.83C4240.18 4845.15 4241.99 4843.85 4244.14 4842.92C4246.3 4841.99 4248.82 4841.53 4251.7 4841.53C4254.48 4841.53 4256.9 4841.94 4258.95 4842.77C4261.03 4843.6 4262.76 4844.8 4264.14 4846.38C4265.52 4847.96 4266.55 4849.88 4267.23 4852.13C4267.93 4854.39 4268.28 4856.93 4268.28 4859.77ZM4261.74 4860.18C4261.74 4858.35 4261.56 4856.62 4261.21 4854.99C4260.88 4853.36 4260.33 4851.93 4259.56 4850.7C4258.78 4849.48 4257.73 4848.51 4256.4 4847.81C4255.07 4847.08 4253.41 4846.72 4251.43 4846.72C4249.6 4846.72 4248.03 4847.04 4246.7 4847.7C4245.39 4848.35 4244.32 4849.28 4243.46 4850.48C4242.61 4851.66 4241.97 4853.06 4241.55 4854.69C4241.15 4856.32 4240.94 4858.1 4240.94 4860.03C4240.94 4861.88 4241.11 4863.63 4241.43 4865.25C4241.78 4866.88 4242.35 4868.31 4243.13 4869.54C4243.93 4870.74 4244.99 4871.71 4246.32 4872.44C4247.65 4873.14 4249.3 4873.49 4251.28 4873.49C4253.09 4873.49 4254.66 4873.16 4255.98 4872.51C4257.31 4871.86 4258.4 4870.94 4259.25 4869.77C4260.11 4868.59 4260.73 4867.18 4261.13 4865.56C4261.54 4863.93 4261.74 4862.13 4261.74 4860.18ZM4306.4 4877.06C4306.4 4877.26 4306.35 4877.44 4306.25 4877.59C4306.18 4877.71 4306.03 4877.82 4305.8 4877.92C4305.58 4878.03 4305.27 4878.1 4304.9 4878.15C4304.55 4878.2 4304.11 4878.23 4303.58 4878.23C4303.01 4878.23 4302.53 4878.2 4302.15 4878.15C4301.8 4878.1 4301.51 4878.03 4301.29 4877.92C4301.09 4877.82 4300.95 4877.71 4300.88 4877.59C4300.8 4877.44 4300.76 4877.26 4300.76 4877.06V4872.59C4298.83 4874.72 4296.93 4876.27 4295.05 4877.25C4293.17 4878.23 4291.26 4878.71 4289.33 4878.71C4287.08 4878.71 4285.17 4878.34 4283.62 4877.59C4282.09 4876.83 4280.85 4875.82 4279.9 4874.54C4278.94 4873.24 4278.25 4871.73 4277.83 4870.03C4277.43 4868.3 4277.23 4866.21 4277.23 4863.75V4843.22C4277.23 4843.02 4277.26 4842.86 4277.34 4842.73C4277.44 4842.58 4277.62 4842.46 4277.87 4842.36C4278.12 4842.23 4278.44 4842.16 4278.84 4842.13C4279.24 4842.08 4279.75 4842.06 4280.35 4842.06C4280.95 4842.06 4281.45 4842.08 4281.85 4842.13C4282.25 4842.16 4282.57 4842.23 4282.79 4842.36C4283.04 4842.46 4283.22 4842.58 4283.32 4842.73C4283.42 4842.86 4283.47 4843.02 4283.47 4843.22V4862.92C4283.47 4864.9 4283.61 4866.5 4283.88 4867.7C4284.18 4868.88 4284.62 4869.89 4285.2 4870.74C4285.8 4871.57 4286.55 4872.22 4287.45 4872.7C4288.36 4873.15 4289.41 4873.38 4290.61 4873.38C4292.17 4873.38 4293.71 4872.82 4295.24 4871.72C4296.79 4870.62 4298.43 4869 4300.16 4866.87V4843.22C4300.16 4843.02 4300.2 4842.86 4300.27 4842.73C4300.37 4842.58 4300.55 4842.46 4300.8 4842.36C4301.05 4842.23 4301.36 4842.16 4301.74 4842.13C4302.14 4842.08 4302.66 4842.06 4303.28 4842.06C4303.88 4842.06 4304.38 4842.08 4304.79 4842.13C4305.19 4842.16 4305.5 4842.23 4305.73 4842.36C4305.95 4842.46 4306.11 4842.58 4306.21 4842.73C4306.34 4842.86 4306.4 4843.02 4306.4 4843.22V4877.06ZM4337.65 4845.44C4337.65 4845.99 4337.63 4846.46 4337.61 4846.83C4337.58 4847.21 4337.53 4847.51 4337.46 4847.73C4337.38 4847.93 4337.28 4848.1 4337.16 4848.22C4337.06 4848.32 4336.91 4848.37 4336.71 4848.37C4336.51 4848.37 4336.25 4848.32 4335.95 4848.22C4335.68 4848.1 4335.35 4847.98 4334.98 4847.88C4334.63 4847.76 4334.22 4847.65 4333.77 4847.55C4333.32 4847.45 4332.83 4847.4 4332.31 4847.4C4331.68 4847.4 4331.07 4847.52 4330.46 4847.77C4329.86 4848.02 4329.22 4848.44 4328.55 4849.01C4327.9 4849.59 4327.21 4850.35 4326.48 4851.31C4325.75 4852.26 4324.95 4853.42 4324.07 4854.8V4877.06C4324.07 4877.26 4324.02 4877.44 4323.92 4877.59C4323.82 4877.71 4323.66 4877.82 4323.43 4877.92C4323.21 4878.03 4322.9 4878.1 4322.49 4878.15C4322.09 4878.2 4321.58 4878.23 4320.95 4878.23C4320.35 4878.23 4319.85 4878.2 4319.45 4878.15C4319.05 4878.1 4318.72 4878.03 4318.47 4877.92C4318.25 4877.82 4318.08 4877.71 4317.98 4877.59C4317.91 4877.44 4317.87 4877.26 4317.87 4877.06V4843.22C4317.87 4843.02 4317.91 4842.86 4317.98 4842.73C4318.06 4842.58 4318.21 4842.46 4318.43 4842.36C4318.66 4842.23 4318.95 4842.16 4319.3 4842.13C4319.65 4842.08 4320.11 4842.06 4320.69 4842.06C4321.24 4842.06 4321.69 4842.08 4322.04 4842.13C4322.42 4842.16 4322.71 4842.23 4322.91 4842.36C4323.11 4842.46 4323.25 4842.58 4323.32 4842.73C4323.42 4842.86 4323.47 4843.02 4323.47 4843.22V4848.15C4324.4 4846.79 4325.26 4845.69 4326.07 4844.84C4326.89 4843.99 4327.67 4843.32 4328.4 4842.85C4329.12 4842.34 4329.84 4842.01 4330.54 4841.83C4331.27 4841.63 4331.99 4841.53 4332.72 4841.53C4333.05 4841.53 4333.41 4841.56 4333.81 4841.61C4334.24 4841.63 4334.68 4841.69 4335.13 4841.79C4335.58 4841.89 4335.98 4842.01 4336.33 4842.13C4336.71 4842.26 4336.97 4842.38 4337.12 4842.51C4337.27 4842.63 4337.37 4842.76 4337.42 4842.88C4337.47 4842.98 4337.51 4843.12 4337.53 4843.3C4337.58 4843.47 4337.61 4843.74 4337.61 4844.09C4337.63 4844.41 4337.65 4844.86 4337.65 4845.44ZM4364.6 4867.85C4364.6 4869.58 4364.28 4871.12 4363.63 4872.47C4363 4873.83 4362.1 4874.97 4360.92 4875.89C4359.74 4876.82 4358.34 4877.52 4356.71 4878C4355.08 4878.48 4353.29 4878.71 4351.33 4878.71C4350.13 4878.71 4348.98 4878.61 4347.87 4878.41C4346.79 4878.24 4345.82 4878.01 4344.94 4877.74C4344.09 4877.44 4343.36 4877.14 4342.76 4876.83C4342.16 4876.51 4341.72 4876.22 4341.44 4875.97C4341.17 4875.72 4340.97 4875.37 4340.84 4874.92C4340.72 4874.47 4340.65 4873.85 4340.65 4873.07C4340.65 4872.6 4340.68 4872.2 4340.73 4871.87C4340.78 4871.55 4340.84 4871.28 4340.92 4871.08C4340.99 4870.88 4341.09 4870.74 4341.22 4870.67C4341.37 4870.57 4341.53 4870.52 4341.71 4870.52C4341.98 4870.52 4342.38 4870.69 4342.91 4871.04C4343.46 4871.37 4344.13 4871.73 4344.9 4872.13C4345.7 4872.54 4346.64 4872.91 4347.72 4873.26C4348.8 4873.59 4350.04 4873.75 4351.44 4873.75C4352.5 4873.75 4353.45 4873.64 4354.3 4873.41C4355.15 4873.19 4355.89 4872.86 4356.52 4872.44C4357.15 4871.98 4357.62 4871.42 4357.95 4870.74C4358.3 4870.07 4358.48 4869.26 4358.48 4868.34C4358.48 4867.38 4358.22 4866.58 4357.72 4865.93C4357.25 4865.28 4356.61 4864.7 4355.81 4864.2C4355 4863.7 4354.1 4863.26 4353.1 4862.89C4352.1 4862.48 4351.06 4862.07 4349.98 4861.65C4348.93 4861.22 4347.89 4860.74 4346.86 4860.22C4345.85 4859.66 4344.95 4859 4344.15 4858.22C4343.35 4857.45 4342.7 4856.52 4342.2 4855.44C4341.72 4854.36 4341.48 4853.07 4341.48 4851.57C4341.48 4850.24 4341.73 4848.97 4342.23 4847.77C4342.76 4846.54 4343.54 4845.48 4344.56 4844.58C4345.59 4843.65 4346.87 4842.91 4348.4 4842.36C4349.95 4841.81 4351.76 4841.53 4353.81 4841.53C4354.72 4841.53 4355.62 4841.61 4356.52 4841.76C4357.42 4841.91 4358.24 4842.09 4358.96 4842.32C4359.69 4842.55 4360.3 4842.8 4360.81 4843.07C4361.33 4843.32 4361.72 4843.55 4361.97 4843.75C4362.25 4843.95 4362.42 4844.12 4362.5 4844.27C4362.6 4844.43 4362.66 4844.6 4362.69 4844.8C4362.74 4844.98 4362.77 4845.2 4362.8 4845.48C4362.85 4845.75 4362.87 4846.09 4362.87 4846.49C4362.87 4846.92 4362.85 4847.3 4362.8 4847.62C4362.77 4847.92 4362.71 4848.17 4362.61 4848.37C4362.54 4848.57 4362.44 4848.72 4362.31 4848.82C4362.18 4848.9 4362.05 4848.94 4361.9 4848.94C4361.67 4848.94 4361.35 4848.8 4360.92 4848.52C4360.49 4848.25 4359.94 4847.96 4359.26 4847.66C4358.59 4847.33 4357.79 4847.03 4356.86 4846.76C4355.96 4846.48 4354.92 4846.34 4353.74 4846.34C4352.69 4846.34 4351.76 4846.47 4350.96 4846.72C4350.15 4846.94 4349.49 4847.28 4348.96 4847.73C4348.46 4848.16 4348.07 4848.67 4347.8 4849.28C4347.55 4849.88 4347.42 4850.53 4347.42 4851.23C4347.42 4852.21 4347.67 4853.04 4348.17 4853.71C4348.67 4854.36 4349.33 4854.94 4350.13 4855.44C4350.93 4855.94 4351.85 4856.39 4352.87 4856.79C4353.9 4857.2 4354.94 4857.61 4355.99 4858.04C4357.07 4858.46 4358.12 4858.94 4359.15 4859.46C4360.2 4859.99 4361.13 4860.63 4361.93 4861.38C4362.74 4862.13 4363.38 4863.04 4363.85 4864.09C4364.35 4865.14 4364.6 4866.39 4364.6 4867.85ZM4402.39 4858.67C4402.39 4859.65 4402.14 4860.35 4401.64 4860.78C4401.16 4861.18 4400.61 4861.38 4399.98 4861.38H4377.8C4377.8 4863.26 4377.99 4864.95 4378.36 4866.46C4378.74 4867.96 4379.37 4869.25 4380.24 4870.33C4381.12 4871.41 4382.26 4872.24 4383.67 4872.81C4385.07 4873.39 4386.79 4873.68 4388.82 4873.68C4390.42 4873.68 4391.85 4873.55 4393.1 4873.3C4394.36 4873.02 4395.43 4872.72 4396.34 4872.4C4397.26 4872.07 4398.02 4871.78 4398.59 4871.53C4399.19 4871.26 4399.64 4871.12 4399.95 4871.12C4400.12 4871.12 4400.27 4871.17 4400.4 4871.27C4400.55 4871.35 4400.66 4871.47 4400.73 4871.65C4400.81 4871.82 4400.86 4872.07 4400.89 4872.4C4400.94 4872.7 4400.96 4873.07 4400.96 4873.53C4400.96 4873.85 4400.95 4874.14 4400.92 4874.39C4400.9 4874.62 4400.86 4874.83 4400.81 4875.03C4400.78 4875.21 4400.72 4875.37 4400.62 4875.52C4400.55 4875.67 4400.43 4875.82 4400.28 4875.97C4400.16 4876.1 4399.76 4876.32 4399.08 4876.65C4398.4 4876.95 4397.53 4877.25 4396.45 4877.55C4395.37 4877.85 4394.12 4878.11 4392.69 4878.34C4391.29 4878.59 4389.78 4878.71 4388.18 4878.71C4385.4 4878.71 4382.95 4878.33 4380.85 4877.55C4378.77 4876.77 4377.01 4875.62 4375.58 4874.09C4374.15 4872.56 4373.08 4870.64 4372.35 4868.34C4371.62 4866.03 4371.26 4863.35 4371.26 4860.29C4371.26 4857.38 4371.63 4854.78 4372.39 4852.47C4373.14 4850.14 4374.22 4848.17 4375.62 4846.57C4377.05 4844.94 4378.77 4843.7 4380.77 4842.85C4382.78 4841.97 4385.02 4841.53 4387.5 4841.53C4390.16 4841.53 4392.41 4841.96 4394.27 4842.81C4396.15 4843.66 4397.69 4844.81 4398.89 4846.27C4400.1 4847.7 4400.97 4849.39 4401.52 4851.34C4402.1 4853.27 4402.39 4855.34 4402.39 4857.55V4858.67ZM4396.15 4856.83C4396.22 4853.57 4395.5 4851.02 4393.97 4849.16C4392.46 4847.31 4390.22 4846.38 4387.24 4846.38C4385.71 4846.38 4384.37 4846.67 4383.21 4847.25C4382.06 4847.82 4381.1 4848.59 4380.32 4849.54C4379.54 4850.49 4378.94 4851.61 4378.51 4852.88C4378.09 4854.14 4377.85 4855.45 4377.8 4856.83H4396.15ZM4467.43 4852.96C4467.43 4857.17 4466.89 4860.86 4465.82 4864.01C4464.74 4867.15 4463.16 4869.75 4461.08 4871.83C4459.02 4873.89 4456.49 4875.43 4453.48 4876.46C4450.48 4877.49 4446.89 4878 4442.73 4878H4432.43C4431.85 4878 4431.3 4877.81 4430.78 4877.44C4430.27 4877.03 4430.02 4876.35 4430.02 4875.37V4831.98C4430.02 4831 4430.27 4830.33 4430.78 4829.95C4431.3 4829.55 4431.85 4829.35 4432.43 4829.35H4443.45C4447.66 4829.35 4451.22 4829.9 4454.12 4831C4457.03 4832.08 4459.46 4833.65 4461.42 4835.7C4463.4 4837.73 4464.89 4840.2 4465.89 4843.11C4466.92 4846.02 4467.43 4849.3 4467.43 4852.96ZM4460.63 4853.22C4460.63 4850.59 4460.3 4848.15 4459.65 4845.89C4459 4843.61 4457.97 4841.64 4456.57 4839.99C4455.19 4838.33 4453.43 4837.04 4451.3 4836.12C4449.17 4835.19 4446.43 4834.73 4443.07 4834.73H4436.49V4872.59H4443.15C4446.25 4872.59 4448.87 4872.2 4451 4871.42C4453.13 4870.64 4454.91 4869.45 4456.34 4867.85C4457.77 4866.24 4458.84 4864.24 4459.54 4861.83C4460.26 4859.4 4460.63 4856.53 4460.63 4853.22ZM4482.89 4877.06C4482.89 4877.26 4482.84 4877.44 4482.74 4877.59C4482.64 4877.71 4482.47 4877.82 4482.25 4877.92C4482.02 4878.03 4481.71 4878.1 4481.31 4878.15C4480.91 4878.2 4480.39 4878.23 4479.77 4878.23C4479.16 4878.23 4478.66 4878.2 4478.26 4878.15C4477.86 4878.1 4477.53 4878.03 4477.28 4877.92C4477.06 4877.82 4476.9 4877.71 4476.79 4877.59C4476.72 4877.44 4476.68 4877.26 4476.68 4877.06V4843.22C4476.68 4843.05 4476.72 4842.88 4476.79 4842.73C4476.9 4842.58 4477.06 4842.46 4477.28 4842.36C4477.53 4842.26 4477.86 4842.18 4478.26 4842.13C4478.66 4842.08 4479.16 4842.06 4479.77 4842.06C4480.39 4842.06 4480.91 4842.08 4481.31 4842.13C4481.71 4842.18 4482.02 4842.26 4482.25 4842.36C4482.47 4842.46 4482.64 4842.58 4482.74 4842.73C4482.84 4842.88 4482.89 4843.05 4482.89 4843.22V4877.06ZM4483.6 4831.79C4483.6 4833.25 4483.32 4834.24 4482.77 4834.76C4482.22 4835.29 4481.21 4835.55 4479.73 4835.55C4478.27 4835.55 4477.27 4835.3 4476.72 4834.8C4476.19 4834.27 4475.93 4833.3 4475.93 4831.87C4475.93 4830.41 4476.21 4829.42 4476.76 4828.9C4477.31 4828.37 4478.32 4828.11 4479.8 4828.11C4481.26 4828.11 4482.25 4828.37 4482.77 4828.9C4483.32 4829.4 4483.6 4830.36 4483.6 4831.79ZM4514.13 4845.44C4514.13 4845.99 4514.12 4846.46 4514.09 4846.83C4514.07 4847.21 4514.02 4847.51 4513.94 4847.73C4513.87 4847.93 4513.77 4848.1 4513.64 4848.22C4513.54 4848.32 4513.39 4848.37 4513.19 4848.37C4512.99 4848.37 4512.74 4848.32 4512.44 4848.22C4512.16 4848.1 4511.84 4847.98 4511.46 4847.88C4511.11 4847.76 4510.71 4847.65 4510.26 4847.55C4509.81 4847.45 4509.32 4847.4 4508.79 4847.4C4508.16 4847.4 4507.55 4847.52 4506.95 4847.77C4506.35 4848.02 4505.71 4848.44 4505.03 4849.01C4504.38 4849.59 4503.69 4850.35 4502.96 4851.31C4502.24 4852.26 4501.43 4853.42 4500.56 4854.8V4877.06C4500.56 4877.26 4500.51 4877.44 4500.41 4877.59C4500.31 4877.71 4500.14 4877.82 4499.92 4877.92C4499.69 4878.03 4499.38 4878.1 4498.98 4878.15C4498.58 4878.2 4498.06 4878.23 4497.44 4878.23C4496.83 4878.23 4496.33 4878.2 4495.93 4878.15C4495.53 4878.1 4495.21 4878.03 4494.95 4877.92C4494.73 4877.82 4494.57 4877.71 4494.47 4877.59C4494.39 4877.44 4494.35 4877.26 4494.35 4877.06V4843.22C4494.35 4843.02 4494.39 4842.86 4494.47 4842.73C4494.54 4842.58 4494.69 4842.46 4494.92 4842.36C4495.14 4842.23 4495.43 4842.16 4495.78 4842.13C4496.13 4842.08 4496.6 4842.06 4497.17 4842.06C4497.72 4842.06 4498.18 4842.08 4498.53 4842.13C4498.9 4842.16 4499.19 4842.23 4499.39 4842.36C4499.59 4842.46 4499.73 4842.58 4499.8 4842.73C4499.9 4842.86 4499.96 4843.02 4499.96 4843.22V4848.15C4500.88 4846.79 4501.75 4845.69 4502.55 4844.84C4503.38 4843.99 4504.15 4843.32 4504.88 4842.85C4505.61 4842.34 4506.32 4842.01 4507.02 4841.83C4507.75 4841.63 4508.48 4841.53 4509.2 4841.53C4509.53 4841.53 4509.89 4841.56 4510.29 4841.61C4510.72 4841.63 4511.16 4841.69 4511.61 4841.79C4512.06 4841.89 4512.46 4842.01 4512.81 4842.13C4513.19 4842.26 4513.45 4842.38 4513.6 4842.51C4513.75 4842.63 4513.85 4842.76 4513.9 4842.88C4513.95 4842.98 4513.99 4843.12 4514.02 4843.3C4514.07 4843.47 4514.09 4843.74 4514.09 4844.09C4514.12 4844.41 4514.13 4844.86 4514.13 4845.44ZM4549.02 4858.67C4549.02 4859.65 4548.77 4860.35 4548.27 4860.78C4547.79 4861.18 4547.24 4861.38 4546.61 4861.38H4524.43C4524.43 4863.26 4524.62 4864.95 4525 4866.46C4525.37 4867.96 4526 4869.25 4526.88 4870.33C4527.75 4871.41 4528.89 4872.24 4530.3 4872.81C4531.7 4873.39 4533.42 4873.68 4535.45 4873.68C4537.05 4873.68 4538.48 4873.55 4539.73 4873.3C4540.99 4873.02 4542.06 4872.72 4542.97 4872.4C4543.89 4872.07 4544.65 4871.78 4545.22 4871.53C4545.82 4871.26 4546.28 4871.12 4546.58 4871.12C4546.75 4871.12 4546.9 4871.17 4547.03 4871.27C4547.18 4871.35 4547.29 4871.47 4547.37 4871.65C4547.44 4871.82 4547.49 4872.07 4547.52 4872.4C4547.57 4872.7 4547.59 4873.07 4547.59 4873.53C4547.59 4873.85 4547.58 4874.14 4547.55 4874.39C4547.53 4874.62 4547.49 4874.83 4547.44 4875.03C4547.42 4875.21 4547.35 4875.37 4547.25 4875.52C4547.18 4875.67 4547.06 4875.82 4546.91 4875.97C4546.79 4876.1 4546.39 4876.32 4545.71 4876.65C4545.03 4876.95 4544.16 4877.25 4543.08 4877.55C4542 4877.85 4540.75 4878.11 4539.32 4878.34C4537.92 4878.59 4536.41 4878.71 4534.81 4878.71C4532.03 4878.71 4529.58 4878.33 4527.48 4877.55C4525.4 4876.77 4523.64 4875.62 4522.21 4874.09C4520.78 4872.56 4519.71 4870.64 4518.98 4868.34C4518.25 4866.03 4517.89 4863.35 4517.89 4860.29C4517.89 4857.38 4518.27 4854.78 4519.02 4852.47C4519.77 4850.14 4520.85 4848.17 4522.25 4846.57C4523.68 4844.94 4525.4 4843.7 4527.4 4842.85C4529.41 4841.97 4531.65 4841.53 4534.13 4841.53C4536.79 4841.53 4539.04 4841.96 4540.9 4842.81C4542.78 4843.66 4544.32 4844.81 4545.52 4846.27C4546.73 4847.7 4547.6 4849.39 4548.16 4851.34C4548.73 4853.27 4549.02 4855.34 4549.02 4857.55V4858.67ZM4542.78 4856.83C4542.85 4853.57 4542.13 4851.02 4540.6 4849.16C4539.09 4847.31 4536.85 4846.38 4533.87 4846.38C4532.34 4846.38 4531 4846.67 4529.85 4847.25C4528.69 4847.82 4527.73 4848.59 4526.95 4849.54C4526.17 4850.49 4525.57 4851.61 4525.15 4852.88C4524.72 4854.14 4524.48 4855.45 4524.43 4856.83H4542.78ZM4582.82 4871.91C4582.82 4872.34 4582.81 4872.71 4582.78 4873.04C4582.76 4873.34 4582.71 4873.6 4582.63 4873.83C4582.58 4874.03 4582.51 4874.22 4582.41 4874.39C4582.33 4874.54 4582.13 4874.78 4581.81 4875.1C4581.5 4875.41 4580.98 4875.79 4580.23 4876.27C4579.47 4876.72 4578.62 4877.14 4577.67 4877.51C4576.74 4877.86 4575.73 4878.15 4574.62 4878.38C4573.52 4878.6 4572.38 4878.71 4571.2 4878.71C4568.77 4878.71 4566.62 4878.31 4564.74 4877.51C4562.86 4876.71 4561.28 4875.54 4560 4874.01C4558.75 4872.46 4557.78 4870.57 4557.1 4868.34C4556.45 4866.08 4556.13 4863.49 4556.13 4860.55C4556.13 4857.22 4556.53 4854.36 4557.33 4851.98C4558.16 4849.58 4559.27 4847.61 4560.68 4846.08C4562.1 4844.55 4563.77 4843.42 4565.68 4842.7C4567.61 4841.94 4569.69 4841.57 4571.92 4841.57C4572.99 4841.57 4574.03 4841.67 4575.04 4841.87C4576.07 4842.07 4577.01 4842.33 4577.86 4842.66C4578.71 4842.98 4579.46 4843.36 4580.11 4843.79C4580.79 4844.21 4581.28 4844.58 4581.58 4844.88C4581.88 4845.18 4582.08 4845.42 4582.18 4845.59C4582.31 4845.77 4582.41 4845.98 4582.48 4846.23C4582.56 4846.46 4582.61 4846.72 4582.63 4847.02C4582.66 4847.32 4582.67 4847.7 4582.67 4848.15C4582.67 4849.12 4582.56 4849.81 4582.33 4850.22C4582.11 4850.59 4581.83 4850.78 4581.5 4850.78C4581.13 4850.78 4580.69 4850.58 4580.19 4850.18C4579.71 4849.75 4579.1 4849.29 4578.35 4848.79C4577.59 4848.29 4576.68 4847.83 4575.6 4847.43C4574.55 4847.01 4573.3 4846.79 4571.84 4846.79C4568.86 4846.79 4566.57 4847.95 4564.96 4850.25C4563.38 4852.53 4562.59 4855.85 4562.59 4860.22C4562.59 4862.4 4562.79 4864.31 4563.19 4865.97C4563.62 4867.6 4564.23 4868.96 4565.04 4870.07C4565.84 4871.17 4566.82 4872 4567.97 4872.55C4569.15 4873.07 4570.49 4873.34 4571.99 4873.34C4573.42 4873.34 4574.67 4873.11 4575.75 4872.66C4576.83 4872.21 4577.76 4871.72 4578.53 4871.19C4579.34 4870.64 4580 4870.15 4580.53 4869.73C4581.08 4869.28 4581.5 4869.05 4581.81 4869.05C4581.98 4869.05 4582.13 4869.1 4582.26 4869.2C4582.38 4869.3 4582.48 4869.48 4582.56 4869.73C4582.66 4869.95 4582.72 4870.25 4582.75 4870.63C4582.8 4870.98 4582.82 4871.41 4582.82 4871.91ZM4608.65 4874.58C4608.65 4875.31 4608.6 4875.88 4608.5 4876.31C4608.4 4876.73 4608.25 4877.05 4608.05 4877.25C4607.85 4877.45 4607.55 4877.64 4607.15 4877.81C4606.74 4877.99 4606.28 4878.13 4605.75 4878.23C4605.25 4878.35 4604.71 4878.45 4604.14 4878.53C4603.56 4878.6 4602.99 4878.64 4602.41 4878.64C4600.65 4878.64 4599.15 4878.41 4597.9 4877.96C4596.64 4877.49 4595.62 4876.78 4594.81 4875.86C4594.01 4874.9 4593.42 4873.71 4593.05 4872.29C4592.7 4870.83 4592.52 4869.13 4592.52 4867.17V4847.4H4587.78C4587.41 4847.4 4587.11 4847.19 4586.88 4846.79C4586.66 4846.39 4586.54 4845.74 4586.54 4844.84C4586.54 4844.36 4586.57 4843.96 4586.62 4843.64C4586.69 4843.31 4586.78 4843.05 4586.88 4842.85C4586.98 4842.62 4587.11 4842.47 4587.26 4842.4C4587.43 4842.29 4587.62 4842.24 4587.82 4842.24H4592.52V4834.2C4592.52 4834.02 4592.56 4833.86 4592.63 4833.71C4592.73 4833.56 4592.9 4833.43 4593.12 4833.33C4593.37 4833.21 4593.7 4833.12 4594.1 4833.07C4594.5 4833.02 4595 4833 4595.6 4833C4596.23 4833 4596.74 4833.02 4597.15 4833.07C4597.55 4833.12 4597.86 4833.21 4598.08 4833.33C4598.31 4833.43 4598.47 4833.56 4598.57 4833.71C4598.67 4833.86 4598.72 4834.02 4598.72 4834.2V4842.24H4607.41C4607.61 4842.24 4607.79 4842.29 4607.94 4842.4C4608.09 4842.47 4608.21 4842.62 4608.31 4842.85C4608.44 4843.05 4608.52 4843.31 4608.57 4843.64C4608.62 4843.96 4608.65 4844.36 4608.65 4844.84C4608.65 4845.74 4608.54 4846.39 4608.31 4846.79C4608.09 4847.19 4607.79 4847.4 4607.41 4847.4H4598.72V4866.27C4598.72 4868.6 4599.06 4870.37 4599.74 4871.57C4600.44 4872.75 4601.68 4873.34 4603.46 4873.34C4604.04 4873.34 4604.55 4873.29 4605 4873.19C4605.45 4873.06 4605.86 4872.94 4606.21 4872.81C4606.56 4872.69 4606.86 4872.57 4607.11 4872.47C4607.36 4872.35 4607.58 4872.29 4607.79 4872.29C4607.91 4872.29 4608.02 4872.32 4608.12 4872.4C4608.25 4872.45 4608.34 4872.56 4608.39 4872.74C4608.46 4872.91 4608.52 4873.15 4608.57 4873.45C4608.62 4873.75 4608.65 4874.13 4608.65 4874.58ZM4647.56 4859.77C4647.56 4862.52 4647.2 4865.07 4646.47 4867.4C4645.75 4869.7 4644.66 4871.7 4643.2 4873.38C4641.77 4875.05 4639.97 4876.37 4637.79 4877.32C4635.63 4878.25 4633.13 4878.71 4630.27 4878.71C4627.49 4878.71 4625.06 4878.3 4622.97 4877.47C4620.92 4876.65 4619.2 4875.44 4617.82 4873.86C4616.45 4872.29 4615.42 4870.37 4614.74 4868.11C4614.06 4865.86 4613.73 4863.3 4613.73 4860.44C4613.73 4857.68 4614.08 4855.15 4614.78 4852.85C4615.51 4850.52 4616.58 4848.51 4618.01 4846.83C4619.47 4845.15 4621.27 4843.85 4623.43 4842.92C4625.58 4841.99 4628.1 4841.53 4630.98 4841.53C4633.77 4841.53 4636.18 4841.94 4638.24 4842.77C4640.32 4843.6 4642.05 4844.8 4643.43 4846.38C4644.81 4847.96 4645.83 4849.88 4646.51 4852.13C4647.21 4854.39 4647.56 4856.93 4647.56 4859.77ZM4641.02 4860.18C4641.02 4858.35 4640.85 4856.62 4640.5 4854.99C4640.17 4853.36 4639.62 4851.93 4638.84 4850.7C4638.06 4849.48 4637.01 4848.51 4635.68 4847.81C4634.35 4847.08 4632.7 4846.72 4630.72 4846.72C4628.89 4846.72 4627.31 4847.04 4625.98 4847.7C4624.68 4848.35 4623.6 4849.28 4622.75 4850.48C4621.9 4851.66 4621.26 4853.06 4620.83 4854.69C4620.43 4856.32 4620.23 4858.1 4620.23 4860.03C4620.23 4861.88 4620.39 4863.63 4620.72 4865.25C4621.07 4866.88 4621.63 4868.31 4622.41 4869.54C4623.21 4870.74 4624.28 4871.71 4625.61 4872.44C4626.93 4873.14 4628.59 4873.49 4630.57 4873.49C4632.37 4873.49 4633.94 4873.16 4635.27 4872.51C4636.6 4871.86 4637.69 4870.94 4638.54 4869.77C4639.39 4868.59 4640.02 4867.18 4640.42 4865.56C4640.82 4863.93 4641.02 4862.13 4641.02 4860.18ZM4676.48 4845.44C4676.48 4845.99 4676.46 4846.46 4676.44 4846.83C4676.41 4847.21 4676.36 4847.51 4676.29 4847.73C4676.21 4847.93 4676.11 4848.1 4675.99 4848.22C4675.89 4848.32 4675.74 4848.37 4675.54 4848.37C4675.34 4848.37 4675.08 4848.32 4674.78 4848.22C4674.51 4848.1 4674.18 4847.98 4673.81 4847.88C4673.46 4847.76 4673.05 4847.65 4672.6 4847.55C4672.15 4847.45 4671.66 4847.4 4671.14 4847.4C4670.51 4847.4 4669.9 4847.52 4669.29 4847.77C4668.69 4848.02 4668.05 4848.44 4667.38 4849.01C4666.73 4849.59 4666.04 4850.35 4665.31 4851.31C4664.58 4852.26 4663.78 4853.42 4662.9 4854.8V4877.06C4662.9 4877.26 4662.85 4877.44 4662.75 4877.59C4662.65 4877.71 4662.49 4877.82 4662.26 4877.92C4662.04 4878.03 4661.73 4878.1 4661.32 4878.15C4660.92 4878.2 4660.41 4878.23 4659.78 4878.23C4659.18 4878.23 4658.68 4878.2 4658.28 4878.15C4657.88 4878.1 4657.55 4878.03 4657.3 4877.92C4657.08 4877.82 4656.91 4877.71 4656.81 4877.59C4656.74 4877.44 4656.7 4877.26 4656.7 4877.06V4843.22C4656.7 4843.02 4656.74 4842.86 4656.81 4842.73C4656.89 4842.58 4657.04 4842.46 4657.26 4842.36C4657.49 4842.23 4657.78 4842.16 4658.13 4842.13C4658.48 4842.08 4658.94 4842.06 4659.52 4842.06C4660.07 4842.06 4660.52 4842.08 4660.87 4842.13C4661.25 4842.16 4661.54 4842.23 4661.74 4842.36C4661.94 4842.46 4662.08 4842.58 4662.15 4842.73C4662.25 4842.86 4662.3 4843.02 4662.3 4843.22V4848.15C4663.23 4846.79 4664.09 4845.69 4664.9 4844.84C4665.72 4843.99 4666.5 4843.32 4667.23 4842.85C4667.95 4842.34 4668.67 4842.01 4669.37 4841.83C4670.1 4841.63 4670.82 4841.53 4671.55 4841.53C4671.88 4841.53 4672.24 4841.56 4672.64 4841.61C4673.07 4841.63 4673.51 4841.69 4673.96 4841.79C4674.41 4841.89 4674.81 4842.01 4675.16 4842.13C4675.54 4842.26 4675.8 4842.38 4675.95 4842.51C4676.1 4842.63 4676.2 4842.76 4676.25 4842.88C4676.3 4842.98 4676.34 4843.12 4676.36 4843.3C4676.41 4843.47 4676.44 4843.74 4676.44 4844.09C4676.46 4844.41 4676.48 4844.86 4676.48 4845.44Z" fill="black"/>
</svg>
