<svg width="6900" height="5209" viewBox="0 0 6900 5209" fill="none" xmlns="http://www.w3.org/2000/svg">
<path d="M2095.96 4760.1C2095.96 4760.45 2095.85 4760.77 2095.64 4761.05C2095.47 4761.33 2095.12 4761.56 2094.59 4761.74C2094.1 4761.91 2093.43 4762.05 2092.58 4762.16C2091.74 4762.26 2090.67 4762.32 2089.37 4762.32C2088.1 4762.32 2087.05 4762.26 2086.2 4762.16C2085.36 4762.05 2084.69 4761.91 2084.2 4761.74C2083.71 4761.56 2083.36 4761.33 2083.14 4761.05C2082.93 4760.77 2082.83 4760.45 2082.83 4760.1V4704.57H2082.72L2062.95 4760.05C2062.81 4760.51 2062.58 4760.89 2062.26 4761.21C2061.95 4761.49 2061.51 4761.72 2060.94 4761.89C2060.42 4762.07 2059.73 4762.18 2058.89 4762.21C2058.04 4762.28 2057.02 4762.32 2055.83 4762.32C2054.63 4762.32 2053.61 4762.26 2052.77 4762.16C2051.93 4762.09 2051.22 4761.96 2050.66 4761.79C2050.13 4761.58 2049.71 4761.33 2049.39 4761.05C2049.08 4760.77 2048.87 4760.44 2048.76 4760.05L2029.67 4704.57H2029.57V4760.1C2029.57 4760.45 2029.46 4760.77 2029.25 4761.05C2029.07 4761.33 2028.72 4761.56 2028.2 4761.74C2027.67 4761.91 2026.98 4762.05 2026.14 4762.16C2025.33 4762.26 2024.28 4762.32 2022.97 4762.32C2021.71 4762.32 2020.65 4762.26 2019.81 4762.16C2018.97 4762.05 2018.28 4761.91 2017.75 4761.74C2017.26 4761.56 2016.91 4761.33 2016.7 4761.05C2016.52 4760.77 2016.44 4760.45 2016.44 4760.1V4699.3C2016.44 4697.51 2016.91 4696.13 2017.86 4695.19C2018.81 4694.24 2020.07 4693.76 2021.66 4693.76H2030.73C2032.34 4693.76 2033.73 4693.9 2034.89 4694.18C2036.05 4694.43 2037.05 4694.87 2037.9 4695.5C2038.74 4696.1 2039.45 4696.91 2040.01 4697.93C2040.57 4698.91 2041.06 4700.14 2041.48 4701.62L2056.25 4742.28H2056.46L2071.75 4701.72C2072.21 4700.25 2072.7 4699 2073.23 4697.98C2073.79 4696.96 2074.43 4696.13 2075.13 4695.5C2075.87 4694.87 2076.73 4694.43 2077.71 4694.18C2078.7 4693.9 2079.84 4693.76 2081.14 4693.76H2090.47C2091.42 4693.76 2092.23 4693.88 2092.9 4694.13C2093.6 4694.38 2094.17 4694.75 2094.59 4695.24C2095.04 4695.7 2095.38 4696.28 2095.59 4696.98C2095.84 4697.65 2095.96 4698.42 2095.96 4699.3V4760.1ZM2122.68 4760.21C2122.68 4760.56 2122.57 4760.88 2122.36 4761.16C2122.15 4761.4 2121.78 4761.61 2121.26 4761.79C2120.76 4761.96 2120.1 4762.09 2119.25 4762.16C2118.41 4762.26 2117.34 4762.32 2116.04 4762.32C2114.73 4762.32 2113.66 4762.26 2112.82 4762.16C2111.98 4762.09 2111.29 4761.96 2110.76 4761.79C2110.27 4761.61 2109.92 4761.4 2109.71 4761.16C2109.5 4760.88 2109.39 4760.56 2109.39 4760.21V4713.27C2109.39 4712.92 2109.5 4712.62 2109.71 4712.38C2109.92 4712.1 2110.27 4711.87 2110.76 4711.69C2111.29 4711.48 2111.98 4711.32 2112.82 4711.22C2113.66 4711.11 2114.73 4711.06 2116.04 4711.06C2117.34 4711.06 2118.41 4711.11 2119.25 4711.22C2120.1 4711.32 2120.76 4711.48 2121.26 4711.69C2121.78 4711.87 2122.15 4712.1 2122.36 4712.38C2122.57 4712.62 2122.68 4712.92 2122.68 4713.27V4760.21ZM2123.68 4697.24C2123.68 4699.91 2123.14 4701.76 2122.05 4702.78C2120.96 4703.8 2118.94 4704.31 2115.98 4704.31C2112.99 4704.31 2110.97 4703.82 2109.92 4702.83C2108.9 4701.85 2108.39 4700.07 2108.39 4697.51C2108.39 4694.83 2108.92 4692.99 2109.97 4691.97C2111.06 4690.91 2113.1 4690.39 2116.09 4690.39C2119.04 4690.39 2121.05 4690.9 2122.1 4691.92C2123.15 4692.9 2123.68 4694.68 2123.68 4697.24ZM2170.92 4752.72C2170.92 4753.63 2170.88 4754.41 2170.81 4755.04C2170.78 4755.64 2170.71 4756.15 2170.6 4756.57C2170.53 4756.99 2170.42 4757.34 2170.28 4757.62C2170.18 4757.87 2169.91 4758.2 2169.49 4758.62C2169.07 4759.01 2168.35 4759.5 2167.33 4760.1C2166.31 4760.66 2165.15 4761.17 2163.85 4761.63C2162.55 4762.09 2161.13 4762.46 2159.58 4762.74C2158.07 4763.02 2156.5 4763.16 2154.89 4763.16C2151.26 4763.16 2148.05 4762.6 2145.24 4761.47C2142.46 4760.35 2140.12 4758.7 2138.22 4756.52C2136.32 4754.3 2134.88 4751.61 2133.9 4748.45C2132.95 4745.28 2132.47 4741.66 2132.47 4737.58C2132.47 4732.87 2133.05 4728.81 2134.21 4725.4C2135.41 4721.96 2137.06 4719.11 2139.17 4716.86C2141.28 4714.61 2143.78 4712.94 2146.66 4711.85C2149.54 4710.76 2152.71 4710.21 2156.15 4710.21C2157.56 4710.21 2158.93 4710.34 2160.26 4710.58C2161.64 4710.83 2162.9 4711.16 2164.06 4711.59C2165.26 4712.01 2166.31 4712.48 2167.23 4713.01C2168.17 4713.54 2168.84 4713.99 2169.23 4714.38C2169.62 4714.77 2169.88 4715.1 2170.02 4715.38C2170.2 4715.63 2170.32 4715.96 2170.39 4716.38C2170.5 4716.81 2170.57 4717.33 2170.6 4717.97C2170.67 4718.56 2170.71 4719.3 2170.71 4720.18C2170.71 4722.22 2170.53 4723.66 2170.18 4724.51C2169.83 4725.31 2169.37 4725.72 2168.81 4725.72C2168.21 4725.72 2167.58 4725.47 2166.91 4724.98C2166.24 4724.49 2165.45 4723.94 2164.54 4723.35C2163.62 4722.75 2162.53 4722.2 2161.27 4721.71C2160 4721.22 2158.49 4720.97 2156.73 4720.97C2153.29 4720.97 2150.65 4722.31 2148.82 4724.98C2146.99 4727.62 2146.08 4731.5 2146.08 4736.63C2146.08 4739.17 2146.31 4741.4 2146.76 4743.33C2147.22 4745.27 2147.89 4746.88 2148.77 4748.18C2149.68 4749.48 2150.81 4750.47 2152.14 4751.14C2153.51 4751.77 2155.1 4752.09 2156.89 4752.09C2158.72 4752.09 2160.28 4751.82 2161.58 4751.29C2162.92 4750.73 2164.08 4750.12 2165.06 4749.45C2166.05 4748.78 2166.87 4748.18 2167.54 4747.66C2168.21 4747.09 2168.77 4746.81 2169.23 4746.81C2169.55 4746.81 2169.81 4746.9 2170.02 4747.08C2170.23 4747.25 2170.39 4747.59 2170.5 4748.08C2170.64 4748.54 2170.74 4749.13 2170.81 4749.87C2170.88 4750.61 2170.92 4751.56 2170.92 4752.72ZM2224.85 4760.21C2224.85 4760.56 2224.74 4760.88 2224.53 4761.16C2224.32 4761.4 2223.97 4761.61 2223.48 4761.79C2222.99 4761.96 2222.3 4762.09 2221.42 4762.16C2220.58 4762.26 2219.52 4762.32 2218.26 4762.32C2216.96 4762.32 2215.87 4762.26 2214.99 4762.16C2214.14 4762.09 2213.48 4761.96 2212.98 4761.79C2212.49 4761.61 2212.14 4761.4 2211.93 4761.16C2211.72 4760.88 2211.61 4760.56 2211.61 4760.21V4733.37C2211.61 4731.08 2211.44 4729.29 2211.09 4727.99C2210.77 4726.69 2210.29 4725.58 2209.66 4724.66C2209.03 4723.71 2208.2 4722.99 2207.18 4722.5C2206.2 4721.97 2205.04 4721.71 2203.7 4721.71C2202.01 4721.71 2200.31 4722.33 2198.59 4723.56C2196.86 4724.79 2195.07 4726.58 2193.21 4728.94V4760.21C2193.21 4760.56 2193.1 4760.88 2192.89 4761.16C2192.68 4761.4 2192.31 4761.61 2191.78 4761.79C2191.29 4761.96 2190.62 4762.09 2189.78 4762.16C2188.94 4762.26 2187.86 4762.32 2186.56 4762.32C2185.26 4762.32 2184.19 4762.26 2183.35 4762.16C2182.5 4762.09 2181.82 4761.96 2181.29 4761.79C2180.8 4761.61 2180.45 4761.4 2180.24 4761.16C2180.02 4760.88 2179.92 4760.56 2179.92 4760.21V4690.86C2179.92 4690.51 2180.02 4690.19 2180.24 4689.91C2180.45 4689.63 2180.8 4689.4 2181.29 4689.23C2181.82 4689.02 2182.5 4688.86 2183.35 4688.75C2184.19 4688.65 2185.26 4688.59 2186.56 4688.59C2187.86 4688.59 2188.94 4688.65 2189.78 4688.75C2190.62 4688.86 2191.29 4689.02 2191.78 4689.23C2192.31 4689.4 2192.68 4689.63 2192.89 4689.91C2193.1 4690.19 2193.21 4690.51 2193.21 4690.86V4716.86C2195.49 4714.61 2197.81 4712.94 2200.17 4711.85C2202.56 4710.72 2205.04 4710.16 2207.6 4710.16C2210.8 4710.16 2213.49 4710.69 2215.67 4711.74C2217.89 4712.8 2219.66 4714.24 2221 4716.07C2222.37 4717.9 2223.35 4720.04 2223.95 4722.5C2224.55 4724.93 2224.85 4727.88 2224.85 4731.36V4760.21ZM2280.73 4735.32C2280.73 4736.93 2280.36 4738.13 2279.62 4738.9C2278.92 4739.68 2277.94 4740.06 2276.67 4740.06H2248.04C2248.04 4742.07 2248.27 4743.89 2248.72 4745.55C2249.21 4747.16 2249.97 4748.55 2250.99 4749.71C2252.04 4750.84 2253.38 4751.7 2255 4752.3C2256.65 4752.89 2258.62 4753.19 2260.9 4753.19C2263.22 4753.19 2265.26 4753.04 2267.02 4752.72C2268.78 4752.37 2270.29 4752 2271.56 4751.61C2272.86 4751.19 2273.93 4750.82 2274.77 4750.5C2275.62 4750.15 2276.3 4749.98 2276.83 4749.98C2277.15 4749.98 2277.41 4750.05 2277.62 4750.19C2277.83 4750.29 2278.01 4750.5 2278.15 4750.82C2278.29 4751.14 2278.38 4751.59 2278.41 4752.19C2278.48 4752.75 2278.52 4753.47 2278.52 4754.35C2278.52 4755.13 2278.5 4755.79 2278.46 4756.36C2278.43 4756.88 2278.38 4757.34 2278.31 4757.73C2278.24 4758.12 2278.13 4758.45 2277.99 4758.73C2277.85 4758.98 2277.66 4759.22 2277.41 4759.47C2277.2 4759.71 2276.58 4760.05 2275.56 4760.47C2274.54 4760.89 2273.24 4761.31 2271.66 4761.74C2270.08 4762.12 2268.27 4762.46 2266.23 4762.74C2264.19 4763.05 2262.01 4763.21 2259.69 4763.21C2255.51 4763.21 2251.83 4762.69 2248.67 4761.63C2245.54 4760.58 2242.92 4758.98 2240.81 4756.83C2238.7 4754.69 2237.12 4751.98 2236.07 4748.71C2235.05 4745.44 2234.54 4741.61 2234.54 4737.21C2234.54 4733.03 2235.08 4729.27 2236.17 4725.93C2237.26 4722.55 2238.84 4719.71 2240.92 4717.39C2242.99 4715.03 2245.51 4713.24 2248.46 4712.01C2251.45 4710.78 2254.8 4710.16 2258.53 4710.16C2262.47 4710.16 2265.83 4710.74 2268.6 4711.9C2271.42 4713.06 2273.72 4714.68 2275.51 4716.75C2277.3 4718.79 2278.62 4721.22 2279.47 4724.03C2280.31 4726.84 2280.73 4729.9 2280.73 4733.21V4735.32ZM2267.87 4731.52C2267.97 4727.79 2267.21 4724.88 2265.6 4722.77C2264.02 4720.62 2261.55 4719.55 2258.21 4719.55C2256.53 4719.55 2255.05 4719.87 2253.78 4720.5C2252.55 4721.13 2251.52 4721.99 2250.67 4723.08C2249.87 4724.14 2249.23 4725.4 2248.78 4726.88C2248.35 4728.32 2248.11 4729.87 2248.04 4731.52H2267.87ZM2304.34 4760.21C2304.34 4760.56 2304.24 4760.88 2304.03 4761.16C2303.81 4761.4 2303.45 4761.61 2302.92 4761.79C2302.43 4761.96 2301.76 4762.09 2300.91 4762.16C2300.07 4762.26 2299 4762.32 2297.7 4762.32C2296.4 4762.32 2295.32 4762.26 2294.48 4762.16C2293.64 4762.09 2292.95 4761.96 2292.42 4761.79C2291.93 4761.61 2291.58 4761.4 2291.37 4761.16C2291.16 4760.88 2291.05 4760.56 2291.05 4760.21V4690.86C2291.05 4690.51 2291.16 4690.19 2291.37 4689.91C2291.58 4689.63 2291.93 4689.4 2292.42 4689.23C2292.95 4689.02 2293.64 4688.86 2294.48 4688.75C2295.32 4688.65 2296.4 4688.59 2297.7 4688.59C2299 4688.59 2300.07 4688.65 2300.91 4688.75C2301.76 4688.86 2302.43 4689.02 2302.92 4689.23C2303.45 4689.4 2303.81 4689.63 2304.03 4689.91C2304.24 4690.19 2304.34 4690.51 2304.34 4690.86V4760.21ZM2330.27 4760.21C2330.27 4760.56 2330.17 4760.88 2329.96 4761.16C2329.74 4761.4 2329.38 4761.61 2328.85 4761.79C2328.36 4761.96 2327.69 4762.09 2326.84 4762.16C2326 4762.26 2324.93 4762.32 2323.63 4762.32C2322.33 4762.32 2321.25 4762.26 2320.41 4762.16C2319.57 4762.09 2318.88 4761.96 2318.35 4761.79C2317.86 4761.61 2317.51 4761.4 2317.3 4761.16C2317.09 4760.88 2316.98 4760.56 2316.98 4760.21V4690.86C2316.98 4690.51 2317.09 4690.19 2317.3 4689.91C2317.51 4689.63 2317.86 4689.4 2318.35 4689.23C2318.88 4689.02 2319.57 4688.86 2320.41 4688.75C2321.25 4688.65 2322.33 4688.59 2323.63 4688.59C2324.93 4688.59 2326 4688.65 2326.84 4688.75C2327.69 4688.86 2328.36 4689.02 2328.85 4689.23C2329.38 4689.4 2329.74 4689.63 2329.96 4689.91C2330.17 4690.19 2330.27 4690.51 2330.27 4690.86V4760.21ZM2386.37 4735.32C2386.37 4736.93 2386 4738.13 2385.26 4738.9C2384.56 4739.68 2383.57 4740.06 2382.31 4740.06H2353.67C2353.67 4742.07 2353.9 4743.89 2354.36 4745.55C2354.85 4747.16 2355.6 4748.55 2356.62 4749.71C2357.68 4750.84 2359.01 4751.7 2360.63 4752.3C2362.28 4752.89 2364.25 4753.19 2366.54 4753.19C2368.86 4753.19 2370.9 4753.04 2372.66 4752.72C2374.41 4752.37 2375.92 4752 2377.19 4751.61C2378.49 4751.19 2379.56 4750.82 2380.41 4750.5C2381.25 4750.15 2381.94 4749.98 2382.46 4749.98C2382.78 4749.98 2383.04 4750.05 2383.26 4750.19C2383.47 4750.29 2383.64 4750.5 2383.78 4750.82C2383.92 4751.14 2384.01 4751.59 2384.05 4752.19C2384.12 4752.75 2384.15 4753.47 2384.15 4754.35C2384.15 4755.13 2384.13 4755.79 2384.1 4756.36C2384.06 4756.88 2384.01 4757.34 2383.94 4757.73C2383.87 4758.12 2383.76 4758.45 2383.62 4758.73C2383.48 4758.98 2383.29 4759.22 2383.04 4759.47C2382.83 4759.71 2382.22 4760.05 2381.2 4760.47C2380.18 4760.89 2378.88 4761.31 2377.3 4761.74C2375.71 4762.12 2373.9 4762.46 2371.86 4762.74C2369.83 4763.05 2367.65 4763.21 2365.33 4763.21C2361.14 4763.21 2357.47 4762.69 2354.3 4761.63C2351.17 4760.58 2348.56 4758.98 2346.45 4756.83C2344.34 4754.69 2342.76 4751.98 2341.7 4748.71C2340.68 4745.44 2340.17 4741.61 2340.17 4737.21C2340.17 4733.03 2340.72 4729.27 2341.81 4725.93C2342.9 4722.55 2344.48 4719.71 2346.55 4717.39C2348.63 4715.03 2351.14 4713.24 2354.09 4712.01C2357.08 4710.78 2360.44 4710.16 2364.17 4710.16C2368.1 4710.16 2371.46 4710.74 2374.24 4711.9C2377.05 4713.06 2379.35 4714.68 2381.15 4716.75C2382.94 4718.79 2384.26 4721.22 2385.1 4724.03C2385.94 4726.84 2386.37 4729.9 2386.37 4733.21V4735.32ZM2373.5 4731.52C2373.6 4727.79 2372.85 4724.88 2371.23 4722.77C2369.65 4720.62 2367.19 4719.55 2363.85 4719.55C2362.16 4719.55 2360.68 4719.87 2359.42 4720.5C2358.19 4721.13 2357.15 4721.99 2356.31 4723.08C2355.5 4724.14 2354.87 4725.4 2354.41 4726.88C2353.99 4728.32 2353.74 4729.87 2353.67 4731.52H2373.5ZM2477.2 4756.83C2477.62 4758.1 2477.88 4759.1 2477.99 4759.84C2478.09 4760.58 2477.95 4761.14 2477.57 4761.53C2477.18 4761.88 2476.49 4762.09 2475.51 4762.16C2474.53 4762.26 2473.17 4762.32 2471.45 4762.32C2469.66 4762.32 2468.25 4762.28 2467.23 4762.21C2466.25 4762.18 2465.49 4762.09 2464.96 4761.95C2464.44 4761.77 2464.07 4761.54 2463.86 4761.26C2463.64 4760.98 2463.47 4760.61 2463.33 4760.15L2458.74 4746.44H2433.11L2428.79 4759.79C2428.65 4760.28 2428.45 4760.7 2428.21 4761.05C2428 4761.37 2427.63 4761.63 2427.1 4761.84C2426.61 4762.02 2425.89 4762.14 2424.94 4762.21C2424.02 4762.28 2422.81 4762.32 2421.3 4762.32C2419.68 4762.32 2418.42 4762.26 2417.5 4762.16C2416.59 4762.05 2415.96 4761.81 2415.6 4761.42C2415.25 4761 2415.13 4760.42 2415.23 4759.68C2415.34 4758.94 2415.6 4757.96 2416.03 4756.73L2437.07 4696.19C2437.28 4695.59 2437.52 4695.12 2437.8 4694.76C2438.09 4694.38 2438.53 4694.1 2439.12 4693.92C2439.76 4693.71 2440.62 4693.59 2441.71 4693.55C2442.8 4693.48 2444.24 4693.45 2446.03 4693.45C2448.11 4693.45 2449.76 4693.48 2450.99 4693.55C2452.22 4693.59 2453.17 4693.71 2453.84 4693.92C2454.54 4694.1 2455.03 4694.38 2455.31 4694.76C2455.63 4695.15 2455.89 4695.68 2456.1 4696.35L2477.2 4756.83ZM2445.87 4706.79H2445.82L2436.17 4735.79H2455.52L2445.87 4706.79ZM2501.81 4754.41C2501.81 4757.68 2501.23 4759.87 2500.07 4761C2498.94 4762.12 2496.9 4762.69 2493.95 4762.69C2491 4762.69 2488.96 4762.14 2487.83 4761.05C2486.71 4759.93 2486.15 4757.82 2486.15 4754.72C2486.15 4751.42 2486.71 4749.2 2487.83 4748.08C2488.99 4746.95 2491.07 4746.39 2494.06 4746.39C2496.98 4746.39 2499 4746.95 2500.12 4748.08C2501.25 4749.17 2501.81 4751.28 2501.81 4754.41ZM2579.51 4741.54C2579.51 4745.12 2578.84 4748.27 2577.51 4750.98C2576.17 4753.69 2574.36 4755.95 2572.07 4757.78C2569.79 4759.57 2567.12 4760.93 2564.06 4761.84C2561 4762.76 2557.73 4763.21 2554.25 4763.21C2551.89 4763.21 2549.7 4763.02 2547.66 4762.63C2545.65 4762.25 2543.88 4761.79 2542.33 4761.26C2540.78 4760.7 2539.48 4760.12 2538.43 4759.52C2537.41 4758.92 2536.67 4758.4 2536.21 4757.94C2535.76 4757.48 2535.42 4756.83 2535.21 4755.99C2535.04 4755.11 2534.95 4753.86 2534.95 4752.24C2534.95 4751.15 2534.98 4750.24 2535.05 4749.5C2535.12 4748.76 2535.23 4748.17 2535.37 4747.71C2535.55 4747.25 2535.76 4746.94 2536 4746.76C2536.28 4746.55 2536.6 4746.44 2536.95 4746.44C2537.44 4746.44 2538.13 4746.74 2539.01 4747.34C2539.92 4747.9 2541.08 4748.54 2542.49 4749.24C2543.9 4749.94 2545.57 4750.59 2547.5 4751.19C2549.47 4751.75 2551.74 4752.03 2554.3 4752.03C2555.99 4752.03 2557.5 4751.84 2558.84 4751.45C2560.17 4751.03 2561.3 4750.45 2562.21 4749.71C2563.16 4748.97 2563.88 4748.06 2564.37 4746.97C2564.87 4745.88 2565.11 4744.67 2565.11 4743.33C2565.11 4741.79 2564.69 4740.47 2563.85 4739.38C2563 4738.25 2561.9 4737.27 2560.52 4736.42C2559.19 4735.54 2557.66 4734.74 2555.94 4734C2554.21 4733.22 2552.44 4732.42 2550.61 4731.57C2548.78 4730.73 2547.01 4729.78 2545.28 4728.72C2543.56 4727.63 2542.02 4726.35 2540.64 4724.88C2539.31 4723.36 2538.22 4721.59 2537.37 4719.55C2536.53 4717.51 2536.11 4715.07 2536.11 4712.22C2536.11 4708.95 2536.71 4706.08 2537.9 4703.62C2539.13 4701.13 2540.77 4699.07 2542.81 4697.45C2544.88 4695.8 2547.31 4694.57 2550.08 4693.76C2552.9 4692.95 2555.87 4692.55 2559 4692.55C2560.61 4692.55 2562.23 4692.67 2563.85 4692.92C2565.46 4693.16 2566.98 4693.5 2568.38 4693.92C2569.79 4694.34 2571.04 4694.82 2572.13 4695.34C2573.22 4695.87 2573.94 4696.31 2574.29 4696.66C2574.64 4697.01 2574.87 4697.31 2574.97 4697.56C2575.11 4697.8 2575.22 4698.14 2575.29 4698.56C2575.4 4698.95 2575.47 4699.46 2575.5 4700.09C2575.54 4700.69 2575.55 4701.44 2575.55 4702.36C2575.55 4703.38 2575.52 4704.24 2575.45 4704.94C2575.41 4705.64 2575.33 4706.22 2575.18 4706.68C2575.08 4707.14 2574.9 4707.47 2574.66 4707.68C2574.45 4707.89 2574.15 4708 2573.76 4708C2573.37 4708 2572.76 4707.75 2571.92 4707.26C2571.07 4706.77 2570.03 4706.24 2568.8 4705.68C2567.57 4705.08 2566.15 4704.55 2564.53 4704.1C2562.92 4703.61 2561.14 4703.36 2559.21 4703.36C2557.69 4703.36 2556.38 4703.55 2555.25 4703.94C2554.13 4704.29 2553.18 4704.8 2552.4 4705.47C2551.67 4706.1 2551.1 4706.88 2550.72 4707.79C2550.36 4708.7 2550.19 4709.67 2550.19 4710.69C2550.19 4712.2 2550.59 4713.52 2551.4 4714.64C2552.25 4715.73 2553.35 4716.72 2554.72 4717.6C2556.13 4718.44 2557.71 4719.25 2559.47 4720.02C2561.23 4720.76 2563.02 4721.55 2564.85 4722.4C2566.68 4723.24 2568.47 4724.21 2570.23 4725.3C2571.99 4726.35 2573.55 4727.63 2574.92 4729.15C2576.29 4730.62 2577.4 4732.38 2578.24 4734.42C2579.09 4736.42 2579.51 4738.8 2579.51 4741.54ZM2628.75 4760.37C2628.75 4760.86 2628.57 4761.24 2628.22 4761.53C2627.87 4761.81 2627.31 4762 2626.53 4762.11C2625.79 4762.25 2624.69 4762.32 2623.21 4762.32C2621.63 4762.32 2620.47 4762.25 2619.73 4762.11C2619.03 4762 2618.52 4761.81 2618.2 4761.53C2617.92 4761.24 2617.78 4760.86 2617.78 4760.37V4756.62C2615.85 4758.7 2613.63 4760.31 2611.13 4761.47C2608.67 4762.63 2605.93 4763.21 2602.91 4763.21C2600.41 4763.21 2598.11 4762.88 2596 4762.21C2593.93 4761.58 2592.12 4760.63 2590.57 4759.36C2589.06 4758.06 2587.88 4756.46 2587.03 4754.56C2586.19 4752.67 2585.77 4750.45 2585.77 4747.92C2585.77 4745.18 2586.3 4742.8 2587.35 4740.8C2588.44 4738.76 2590.04 4737.09 2592.15 4735.79C2594.29 4734.46 2596.95 4733.47 2600.11 4732.84C2603.28 4732.21 2606.95 4731.89 2611.13 4731.89H2615.72V4729.04C2615.72 4727.56 2615.56 4726.28 2615.25 4725.19C2614.97 4724.07 2614.47 4723.13 2613.77 4722.4C2613.1 4721.66 2612.19 4721.11 2611.03 4720.76C2609.9 4720.41 2608.5 4720.23 2606.81 4720.23C2604.6 4720.23 2602.61 4720.48 2600.85 4720.97C2599.13 4721.46 2597.6 4722.01 2596.26 4722.61C2594.93 4723.21 2593.8 4723.75 2592.89 4724.24C2592.01 4724.73 2591.29 4724.98 2590.73 4724.98C2590.34 4724.98 2589.99 4724.86 2589.67 4724.61C2589.39 4724.37 2589.14 4724.01 2588.93 4723.56C2588.76 4723.1 2588.62 4722.54 2588.51 4721.87C2588.41 4721.2 2588.35 4720.46 2588.35 4719.65C2588.35 4718.56 2588.44 4717.7 2588.62 4717.07C2588.79 4716.44 2589.13 4715.88 2589.62 4715.38C2590.11 4714.86 2590.97 4714.29 2592.2 4713.7C2593.43 4713.06 2594.87 4712.48 2596.53 4711.96C2598.18 4711.43 2599.97 4711.01 2601.91 4710.69C2603.87 4710.34 2605.9 4710.16 2607.97 4710.16C2611.66 4710.16 2614.81 4710.53 2617.41 4711.27C2620.05 4711.97 2622.21 4713.08 2623.9 4714.59C2625.58 4716.07 2626.81 4717.98 2627.59 4720.34C2628.36 4722.7 2628.75 4725.49 2628.75 4728.72V4760.37ZM2615.72 4740.22H2610.66C2608.52 4740.22 2606.69 4740.38 2605.18 4740.7C2603.66 4741.01 2602.43 4741.49 2601.48 4742.12C2600.53 4742.75 2599.83 4743.53 2599.37 4744.44C2598.95 4745.32 2598.74 4746.34 2598.74 4747.5C2598.74 4749.47 2599.36 4751.01 2600.59 4752.14C2601.85 4753.26 2603.59 4753.83 2605.81 4753.83C2607.67 4753.83 2609.38 4753.35 2610.92 4752.4C2612.51 4751.45 2614.11 4750.06 2615.72 4748.24V4740.22ZM2686.32 4760.21C2686.32 4760.56 2686.21 4760.88 2686 4761.16C2685.79 4761.4 2685.44 4761.61 2684.95 4761.79C2684.46 4761.96 2683.77 4762.09 2682.89 4762.16C2682.05 4762.26 2680.99 4762.32 2679.73 4762.32C2678.43 4762.32 2677.34 4762.26 2676.46 4762.16C2675.61 4762.09 2674.95 4761.96 2674.45 4761.79C2673.96 4761.61 2673.61 4761.4 2673.4 4761.16C2673.19 4760.88 2673.08 4760.56 2673.08 4760.21V4733.37C2673.08 4731.08 2672.91 4729.29 2672.55 4727.99C2672.24 4726.69 2671.76 4725.58 2671.13 4724.66C2670.5 4723.71 2669.67 4722.99 2668.65 4722.5C2667.67 4721.97 2666.51 4721.71 2665.17 4721.71C2663.48 4721.71 2661.78 4722.33 2660.06 4723.56C2658.33 4724.79 2656.54 4726.58 2654.68 4728.94V4760.21C2654.68 4760.56 2654.57 4760.88 2654.36 4761.16C2654.15 4761.4 2653.78 4761.61 2653.25 4761.79C2652.76 4761.96 2652.09 4762.09 2651.25 4762.16C2650.41 4762.26 2649.33 4762.32 2648.03 4762.32C2646.73 4762.32 2645.66 4762.26 2644.82 4762.16C2643.97 4762.09 2643.29 4761.96 2642.76 4761.79C2642.27 4761.61 2641.92 4761.4 2641.71 4761.16C2641.49 4760.88 2641.39 4760.56 2641.39 4760.21V4713.17C2641.39 4712.82 2641.48 4712.52 2641.65 4712.27C2641.83 4711.99 2642.14 4711.76 2642.6 4711.59C2643.06 4711.41 2643.64 4711.29 2644.34 4711.22C2645.08 4711.11 2645.99 4711.06 2647.08 4711.06C2648.21 4711.06 2649.14 4711.11 2649.88 4711.22C2650.62 4711.29 2651.18 4711.41 2651.57 4711.59C2651.99 4711.76 2652.29 4711.99 2652.46 4712.27C2652.64 4712.52 2652.73 4712.82 2652.73 4713.17V4718.6C2655.33 4715.79 2657.97 4713.68 2660.64 4712.27C2663.34 4710.87 2666.16 4710.16 2669.07 4710.16C2672.27 4710.16 2674.96 4710.69 2677.14 4711.74C2679.36 4712.8 2681.13 4714.24 2682.47 4716.07C2683.84 4717.86 2684.82 4719.97 2685.42 4722.4C2686.02 4724.82 2686.32 4727.74 2686.32 4731.15V4760.21ZM2740.46 4713.12C2740.46 4713.29 2740.44 4713.5 2740.41 4713.75C2740.41 4713.99 2740.37 4714.28 2740.3 4714.59C2740.27 4714.87 2740.2 4715.21 2740.09 4715.59C2740.02 4715.98 2739.92 4716.42 2739.78 4716.91L2725.64 4759.47C2725.47 4760.07 2725.22 4760.56 2724.91 4760.95C2724.62 4761.3 2724.13 4761.58 2723.43 4761.79C2722.76 4762 2721.83 4762.14 2720.63 4762.21C2719.47 4762.28 2717.94 4762.32 2716.05 4762.32C2714.18 4762.32 2712.65 4762.26 2711.46 4762.16C2710.3 4762.09 2709.38 4761.95 2708.72 4761.74C2708.05 4761.53 2707.56 4761.24 2707.24 4760.89C2706.96 4760.51 2706.73 4760.03 2706.55 4759.47L2692.42 4716.91C2692.21 4716.21 2692.03 4715.58 2691.89 4715.01C2691.79 4714.45 2691.72 4714.05 2691.68 4713.8C2691.68 4713.55 2691.68 4713.33 2691.68 4713.12C2691.68 4712.76 2691.77 4712.46 2691.95 4712.22C2692.16 4711.94 2692.51 4711.71 2693 4711.53C2693.49 4711.36 2694.16 4711.23 2695 4711.16C2695.88 4711.09 2696.97 4711.06 2698.27 4711.06C2699.72 4711.06 2700.88 4711.11 2701.75 4711.22C2702.63 4711.29 2703.32 4711.41 2703.81 4711.59C2704.34 4711.73 2704.71 4711.96 2704.92 4712.27C2705.13 4712.55 2705.31 4712.9 2705.45 4713.33L2716.15 4747.87L2716.47 4749.19L2716.78 4747.87L2727.33 4713.33C2727.44 4712.9 2727.59 4712.55 2727.81 4712.27C2728.05 4711.96 2728.42 4711.73 2728.91 4711.59C2729.41 4711.41 2730.06 4711.29 2730.86 4711.22C2731.71 4711.11 2732.8 4711.06 2734.13 4711.06C2735.43 4711.06 2736.49 4711.09 2737.3 4711.16C2738.14 4711.23 2738.79 4711.36 2739.25 4711.53C2739.71 4711.71 2740.02 4711.94 2740.2 4712.22C2740.37 4712.46 2740.46 4712.76 2740.46 4713.12ZM2760.96 4760.21C2760.96 4760.56 2760.85 4760.88 2760.64 4761.16C2760.43 4761.4 2760.06 4761.61 2759.54 4761.79C2759.04 4761.96 2758.38 4762.09 2757.53 4762.16C2756.69 4762.26 2755.62 4762.32 2754.32 4762.32C2753.01 4762.32 2751.94 4762.26 2751.1 4762.16C2750.26 4762.09 2749.57 4761.96 2749.04 4761.79C2748.55 4761.61 2748.2 4761.4 2747.99 4761.16C2747.78 4760.88 2747.67 4760.56 2747.67 4760.21V4713.27C2747.67 4712.92 2747.78 4712.62 2747.99 4712.38C2748.2 4712.1 2748.55 4711.87 2749.04 4711.69C2749.57 4711.48 2750.26 4711.32 2751.1 4711.22C2751.94 4711.11 2753.01 4711.06 2754.32 4711.06C2755.62 4711.06 2756.69 4711.11 2757.53 4711.22C2758.38 4711.32 2759.04 4711.48 2759.54 4711.69C2760.06 4711.87 2760.43 4712.1 2760.64 4712.38C2760.85 4712.62 2760.96 4712.92 2760.96 4713.27V4760.21ZM2761.96 4697.24C2761.96 4699.91 2761.42 4701.76 2760.33 4702.78C2759.24 4703.8 2757.22 4704.31 2754.26 4704.31C2751.27 4704.31 2749.25 4703.82 2748.2 4702.83C2747.18 4701.85 2746.67 4700.07 2746.67 4697.51C2746.67 4694.83 2747.2 4692.99 2748.25 4691.97C2749.34 4690.91 2751.38 4690.39 2754.37 4690.39C2757.32 4690.39 2759.33 4690.9 2760.38 4691.92C2761.43 4692.9 2761.96 4694.68 2761.96 4697.24ZM2809.2 4752.72C2809.2 4753.63 2809.16 4754.41 2809.09 4755.04C2809.06 4755.64 2808.99 4756.15 2808.88 4756.57C2808.81 4756.99 2808.7 4757.34 2808.56 4757.62C2808.46 4757.87 2808.19 4758.2 2807.77 4758.62C2807.35 4759.01 2806.63 4759.5 2805.61 4760.1C2804.59 4760.66 2803.43 4761.17 2802.13 4761.63C2800.83 4762.09 2799.41 4762.46 2797.86 4762.74C2796.35 4763.02 2794.78 4763.16 2793.17 4763.16C2789.54 4763.16 2786.33 4762.6 2783.52 4761.47C2780.74 4760.35 2778.4 4758.7 2776.5 4756.52C2774.6 4754.3 2773.16 4751.61 2772.18 4748.45C2771.23 4745.28 2770.75 4741.66 2770.75 4737.58C2770.75 4732.87 2771.33 4728.81 2772.49 4725.4C2773.69 4721.96 2775.34 4719.11 2777.45 4716.86C2779.56 4714.61 2782.06 4712.94 2784.94 4711.85C2787.82 4710.76 2790.99 4710.21 2794.43 4710.21C2795.84 4710.21 2797.21 4710.34 2798.54 4710.58C2799.92 4710.83 2801.18 4711.16 2802.34 4711.59C2803.54 4712.01 2804.59 4712.48 2805.51 4713.01C2806.45 4713.54 2807.12 4713.99 2807.51 4714.38C2807.9 4714.77 2808.16 4715.1 2808.3 4715.38C2808.48 4715.63 2808.6 4715.96 2808.67 4716.38C2808.78 4716.81 2808.85 4717.33 2808.88 4717.97C2808.95 4718.56 2808.99 4719.3 2808.99 4720.18C2808.99 4722.22 2808.81 4723.66 2808.46 4724.51C2808.11 4725.31 2807.65 4725.72 2807.09 4725.72C2806.49 4725.72 2805.86 4725.47 2805.19 4724.98C2804.52 4724.49 2803.73 4723.94 2802.82 4723.35C2801.9 4722.75 2800.81 4722.2 2799.55 4721.71C2798.28 4721.22 2796.77 4720.97 2795.01 4720.97C2791.57 4720.97 2788.93 4722.31 2787.1 4724.98C2785.27 4727.62 2784.36 4731.5 2784.36 4736.63C2784.36 4739.17 2784.59 4741.4 2785.04 4743.33C2785.5 4745.27 2786.17 4746.88 2787.05 4748.18C2787.96 4749.48 2789.09 4750.47 2790.42 4751.14C2791.79 4751.77 2793.38 4752.09 2795.17 4752.09C2797 4752.09 2798.56 4751.82 2799.86 4751.29C2801.2 4750.73 2802.36 4750.12 2803.34 4749.45C2804.33 4748.78 2805.15 4748.18 2805.82 4747.66C2806.49 4747.09 2807.05 4746.81 2807.51 4746.81C2807.83 4746.81 2808.09 4746.9 2808.3 4747.08C2808.51 4747.25 2808.67 4747.59 2808.78 4748.08C2808.92 4748.54 2809.02 4749.13 2809.09 4749.87C2809.16 4750.61 2809.2 4751.56 2809.2 4752.72ZM2846.04 4755.57C2846.04 4757.11 2845.94 4758.31 2845.73 4759.15C2845.55 4759.96 2845.3 4760.54 2844.99 4760.89C2844.67 4761.21 2844.2 4761.51 2843.56 4761.79C2842.97 4762.04 2842.25 4762.25 2841.4 4762.42C2840.59 4762.63 2839.7 4762.79 2838.71 4762.9C2837.76 4763 2836.8 4763.05 2835.81 4763.05C2833.18 4763.05 2830.89 4762.72 2828.96 4762.05C2827.02 4761.38 2825.42 4760.37 2824.16 4758.99C2822.89 4757.59 2821.96 4755.83 2821.36 4753.72C2820.77 4751.61 2820.47 4749.12 2820.47 4746.23V4722.13H2814.82C2814.16 4722.13 2813.65 4721.73 2813.29 4720.92C2812.94 4720.08 2812.77 4718.69 2812.77 4716.75C2812.77 4715.73 2812.8 4714.87 2812.87 4714.17C2812.98 4713.47 2813.12 4712.92 2813.29 4712.54C2813.47 4712.11 2813.68 4711.81 2813.93 4711.64C2814.21 4711.46 2814.53 4711.38 2814.88 4711.38H2820.47V4700.88C2820.47 4700.53 2820.55 4700.21 2820.73 4699.93C2820.94 4699.65 2821.29 4699.42 2821.79 4699.25C2822.31 4699.04 2823 4698.89 2823.84 4698.82C2824.72 4698.72 2825.79 4698.67 2827.06 4698.67C2828.36 4698.67 2829.43 4698.72 2830.28 4698.82C2831.15 4698.89 2831.84 4699.04 2832.33 4699.25C2832.82 4699.42 2833.18 4699.65 2833.39 4699.93C2833.6 4700.21 2833.7 4700.53 2833.7 4700.88V4711.38H2843.93C2844.29 4711.38 2844.58 4711.46 2844.83 4711.64C2845.11 4711.81 2845.34 4712.11 2845.52 4712.54C2845.69 4712.92 2845.81 4713.47 2845.88 4714.17C2845.99 4714.87 2846.04 4715.73 2846.04 4716.75C2846.04 4718.69 2845.87 4720.08 2845.52 4720.92C2845.16 4721.73 2844.65 4722.13 2843.99 4722.13H2833.7V4744.23C2833.7 4746.79 2834.11 4748.73 2834.92 4750.03C2835.72 4751.29 2837.17 4751.93 2839.24 4751.93C2839.94 4751.93 2840.58 4751.88 2841.14 4751.77C2841.7 4751.63 2842.19 4751.49 2842.62 4751.35C2843.07 4751.17 2843.44 4751.03 2843.72 4750.93C2844.04 4750.79 2844.32 4750.71 2844.57 4750.71C2844.78 4750.71 2844.97 4750.79 2845.15 4750.93C2845.36 4751.03 2845.52 4751.28 2845.62 4751.66C2845.73 4752.02 2845.81 4752.51 2845.88 4753.14C2845.99 4753.77 2846.04 4754.58 2846.04 4755.57ZM2901.5 4736.21C2901.5 4740.22 2900.98 4743.88 2899.92 4747.18C2898.87 4750.49 2897.27 4753.33 2895.12 4755.72C2892.98 4758.12 2890.29 4759.96 2887.06 4761.26C2883.82 4762.56 2880.04 4763.21 2875.72 4763.21C2871.53 4763.21 2867.9 4762.63 2864.8 4761.47C2861.71 4760.31 2859.14 4758.62 2857.1 4756.41C2855.06 4754.2 2853.55 4751.47 2852.57 4748.24C2851.58 4745 2851.09 4741.31 2851.09 4737.16C2851.09 4733.15 2851.62 4729.5 2852.67 4726.19C2853.76 4722.85 2855.38 4720.01 2857.52 4717.65C2859.67 4715.26 2862.34 4713.41 2865.54 4712.11C2868.77 4710.81 2872.55 4710.16 2876.88 4710.16C2881.1 4710.16 2884.75 4710.74 2887.85 4711.9C2890.94 4713.03 2893.49 4714.7 2895.49 4716.91C2897.53 4719.13 2899.04 4721.85 2900.03 4725.09C2901.01 4728.32 2901.5 4732.03 2901.5 4736.21ZM2887.85 4736.74C2887.85 4734.42 2887.65 4732.29 2887.27 4730.36C2886.91 4728.39 2886.3 4726.69 2885.42 4725.24C2884.54 4723.8 2883.36 4722.68 2881.89 4721.87C2880.45 4721.06 2878.62 4720.66 2876.4 4720.66C2874.43 4720.66 2872.71 4721.03 2871.23 4721.76C2869.76 4722.47 2868.55 4723.52 2867.6 4724.93C2866.65 4726.3 2865.93 4727.97 2865.43 4729.94C2864.98 4731.87 2864.75 4734.09 2864.75 4736.58C2864.75 4738.9 2864.94 4741.05 2865.33 4743.02C2865.72 4744.95 2866.33 4746.64 2867.17 4748.08C2868.05 4749.52 2869.23 4750.64 2870.71 4751.45C2872.18 4752.23 2874.01 4752.61 2876.19 4752.61C2878.2 4752.61 2879.94 4752.26 2881.41 4751.56C2882.89 4750.82 2884.1 4749.77 2885.05 4748.39C2886 4747.02 2886.7 4745.37 2887.16 4743.44C2887.62 4741.47 2887.85 4739.24 2887.85 4736.74ZM2941.62 4717.54C2941.62 4718.81 2941.58 4719.85 2941.51 4720.66C2941.44 4721.46 2941.34 4722.1 2941.2 4722.55C2941.06 4723.01 2940.86 4723.33 2940.62 4723.5C2940.41 4723.68 2940.13 4723.77 2939.77 4723.77C2939.49 4723.77 2939.18 4723.71 2938.83 4723.61C2938.47 4723.47 2938.07 4723.33 2937.61 4723.19C2937.19 4723.05 2936.72 4722.92 2936.19 4722.82C2935.66 4722.68 2935.08 4722.61 2934.45 4722.61C2933.71 4722.61 2932.97 4722.77 2932.23 4723.08C2931.5 4723.36 2930.72 4723.82 2929.91 4724.45C2929.14 4725.09 2928.31 4725.93 2927.43 4726.98C2926.59 4728.04 2925.68 4729.34 2924.69 4730.89V4760.21C2924.69 4760.56 2924.59 4760.88 2924.38 4761.16C2924.16 4761.4 2923.8 4761.61 2923.27 4761.79C2922.78 4761.96 2922.11 4762.09 2921.26 4762.16C2920.42 4762.26 2919.35 4762.32 2918.05 4762.32C2916.75 4762.32 2915.67 4762.26 2914.83 4762.16C2913.99 4762.09 2913.3 4761.96 2912.77 4761.79C2912.28 4761.61 2911.93 4761.4 2911.72 4761.16C2911.51 4760.88 2911.4 4760.56 2911.4 4760.21V4713.17C2911.4 4712.82 2911.49 4712.52 2911.67 4712.27C2911.84 4711.99 2912.16 4711.76 2912.62 4711.59C2913.07 4711.41 2913.65 4711.29 2914.36 4711.22C2915.09 4711.11 2916.01 4711.06 2917.1 4711.06C2918.22 4711.06 2919.16 4711.11 2919.89 4711.22C2920.63 4711.29 2921.19 4711.41 2921.58 4711.59C2922 4711.76 2922.3 4711.99 2922.48 4712.27C2922.65 4712.52 2922.74 4712.82 2922.74 4713.17V4719.02C2923.97 4717.26 2925.13 4715.82 2926.22 4714.7C2927.31 4713.54 2928.35 4712.62 2929.33 4711.96C2930.32 4711.29 2931.3 4710.83 2932.29 4710.58C2933.27 4710.3 2934.25 4710.16 2935.24 4710.16C2935.7 4710.16 2936.19 4710.2 2936.72 4710.27C2937.24 4710.3 2937.79 4710.39 2938.35 4710.53C2938.91 4710.64 2939.41 4710.78 2939.83 4710.95C2940.25 4711.09 2940.55 4711.25 2940.72 4711.43C2940.93 4711.6 2941.08 4711.8 2941.15 4712.01C2941.25 4712.22 2941.34 4712.52 2941.41 4712.9C2941.48 4713.26 2941.53 4713.8 2941.57 4714.54C2941.6 4715.28 2941.62 4716.28 2941.62 4717.54ZM2991.33 4735.32C2991.33 4736.93 2990.96 4738.13 2990.23 4738.9C2989.52 4739.68 2988.54 4740.06 2987.27 4740.06H2958.64C2958.64 4742.07 2958.87 4743.89 2959.32 4745.55C2959.82 4747.16 2960.57 4748.55 2961.59 4749.71C2962.65 4750.84 2963.98 4751.7 2965.6 4752.3C2967.25 4752.89 2969.22 4753.19 2971.51 4753.19C2973.83 4753.19 2975.86 4753.04 2977.62 4752.72C2979.38 4752.37 2980.89 4752 2982.16 4751.61C2983.46 4751.19 2984.53 4750.82 2985.37 4750.5C2986.22 4750.15 2986.9 4749.98 2987.43 4749.98C2987.75 4749.98 2988.01 4750.05 2988.22 4750.19C2988.43 4750.29 2988.61 4750.5 2988.75 4750.82C2988.89 4751.14 2988.98 4751.59 2989.01 4752.19C2989.08 4752.75 2989.12 4753.47 2989.12 4754.35C2989.12 4755.13 2989.1 4755.79 2989.07 4756.36C2989.03 4756.88 2988.98 4757.34 2988.91 4757.73C2988.84 4758.12 2988.73 4758.45 2988.59 4758.73C2988.45 4758.98 2988.26 4759.22 2988.01 4759.47C2987.8 4759.71 2987.18 4760.05 2986.17 4760.47C2985.15 4760.89 2983.85 4761.31 2982.26 4761.74C2980.68 4762.12 2978.87 4762.46 2976.83 4762.74C2974.79 4763.05 2972.61 4763.21 2970.29 4763.21C2966.11 4763.21 2962.43 4762.69 2959.27 4761.63C2956.14 4760.58 2953.52 4758.98 2951.41 4756.83C2949.3 4754.69 2947.72 4751.98 2946.67 4748.71C2945.65 4745.44 2945.14 4741.61 2945.14 4737.21C2945.14 4733.03 2945.68 4729.27 2946.77 4725.93C2947.86 4722.55 2949.44 4719.71 2951.52 4717.39C2953.59 4715.03 2956.11 4713.24 2959.06 4712.01C2962.05 4710.78 2965.41 4710.16 2969.13 4710.16C2973.07 4710.16 2976.43 4710.74 2979.2 4711.9C2982.02 4713.06 2984.32 4714.68 2986.11 4716.75C2987.91 4718.79 2989.22 4721.22 2990.07 4724.03C2990.91 4726.84 2991.33 4729.9 2991.33 4733.21V4735.32ZM2978.47 4731.52C2978.57 4727.79 2977.82 4724.88 2976.2 4722.77C2974.62 4720.62 2972.16 4719.55 2968.82 4719.55C2967.13 4719.55 2965.65 4719.87 2964.39 4720.5C2963.16 4721.13 2962.12 4721.99 2961.27 4723.08C2960.47 4724.14 2959.83 4725.4 2959.38 4726.88C2958.95 4728.32 2958.71 4729.87 2958.64 4731.52H2978.47ZM3034.77 4746.92C3034.77 4749.59 3034.26 4751.95 3033.24 4753.98C3032.26 4756.02 3030.85 4757.73 3029.02 4759.1C3027.2 4760.47 3025.03 4761.49 3022.54 4762.16C3020.04 4762.86 3017.33 4763.21 3014.42 4763.21C3012.66 4763.21 3010.97 4763.07 3009.35 4762.79C3007.77 4762.54 3006.35 4762.23 3005.08 4761.84C3003.82 4761.42 3002.76 4761 3001.92 4760.58C3001.07 4760.15 3000.46 4759.77 3000.07 4759.42C2999.69 4759.03 2999.39 4758.45 2999.18 4757.68C2998.96 4756.87 2998.86 4755.69 2998.86 4754.14C2998.86 4753.12 2998.89 4752.31 2998.96 4751.72C2999.04 4751.08 2999.14 4750.59 2999.28 4750.24C2999.42 4749.85 2999.6 4749.61 2999.81 4749.5C3000.02 4749.36 3000.28 4749.29 3000.6 4749.29C3000.99 4749.29 3001.55 4749.52 3002.29 4749.98C3003.06 4750.4 3004.01 4750.87 3005.13 4751.4C3006.26 4751.93 3007.56 4752.42 3009.04 4752.88C3010.55 4753.33 3012.25 4753.56 3014.15 4753.56C3015.35 4753.56 3016.4 4753.44 3017.32 4753.19C3018.27 4752.95 3019.07 4752.6 3019.74 4752.14C3020.45 4751.68 3020.97 4751.1 3021.32 4750.4C3021.68 4749.7 3021.85 4748.89 3021.85 4747.97C3021.85 4746.92 3021.52 4746.02 3020.85 4745.28C3020.22 4744.51 3019.36 4743.84 3018.27 4743.28C3017.21 4742.72 3016 4742.19 3014.63 4741.7C3013.29 4741.21 3011.9 4740.66 3010.46 4740.06C3009.05 4739.46 3007.67 4738.78 3006.29 4738.01C3004.96 4737.23 3003.75 4736.28 3002.66 4735.16C3001.6 4734.03 3000.74 4732.68 3000.07 4731.1C2999.44 4729.52 2999.12 4727.62 2999.12 4725.4C2999.12 4723.15 2999.56 4721.1 3000.44 4719.23C3001.32 4717.33 3002.59 4715.72 3004.24 4714.38C3005.89 4713.04 3007.89 4712.01 3010.25 4711.27C3012.64 4710.53 3015.31 4710.16 3018.27 4710.16C3019.74 4710.16 3021.17 4710.27 3022.54 4710.48C3023.94 4710.69 3025.21 4710.95 3026.33 4711.27C3027.46 4711.59 3028.41 4711.94 3029.18 4712.32C3029.95 4712.68 3030.5 4712.99 3030.82 4713.27C3031.17 4713.52 3031.41 4713.78 3031.55 4714.06C3031.7 4714.31 3031.8 4714.63 3031.87 4715.01C3031.94 4715.37 3031.99 4715.82 3032.03 4716.38C3032.1 4716.91 3032.13 4717.58 3032.13 4718.39C3032.13 4719.34 3032.1 4720.11 3032.03 4720.71C3031.99 4721.31 3031.91 4721.78 3031.77 4722.13C3031.66 4722.48 3031.5 4722.73 3031.29 4722.87C3031.08 4722.98 3030.83 4723.03 3030.55 4723.03C3030.24 4723.03 3029.74 4722.85 3029.08 4722.5C3028.41 4722.12 3027.56 4721.71 3026.54 4721.29C3025.56 4720.87 3024.4 4720.48 3023.06 4720.13C3021.76 4719.74 3020.27 4719.55 3018.58 4719.55C3017.39 4719.55 3016.35 4719.67 3015.47 4719.92C3014.59 4720.16 3013.87 4720.52 3013.31 4720.97C3012.75 4721.43 3012.32 4721.97 3012.04 4722.61C3011.76 4723.21 3011.62 4723.86 3011.62 4724.56C3011.62 4725.65 3011.95 4726.56 3012.62 4727.3C3013.29 4728.04 3014.17 4728.69 3015.26 4729.25C3016.35 4729.81 3017.58 4730.34 3018.95 4730.83C3020.36 4731.33 3021.76 4731.87 3023.17 4732.47C3024.61 4733.03 3026.02 4733.7 3027.39 4734.47C3028.79 4735.25 3030.04 4736.2 3031.13 4737.32C3032.22 4738.45 3033.1 4739.8 3033.77 4741.38C3034.44 4742.93 3034.77 4744.77 3034.77 4746.92ZM3059.75 4752.3C3059.75 4753.7 3059.68 4754.99 3059.54 4756.15C3059.4 4757.27 3059.17 4758.34 3058.86 4759.36C3058.54 4760.38 3058.14 4761.37 3057.64 4762.32C3057.15 4763.3 3056.54 4764.3 3055.8 4765.32L3048.73 4775.45C3048.48 4775.8 3048.2 4776.1 3047.89 4776.34C3047.61 4776.59 3047.25 4776.78 3046.83 4776.92C3046.41 4777.06 3045.9 4777.17 3045.3 4777.24C3044.71 4777.35 3043.95 4777.4 3043.04 4777.4C3042.02 4777.4 3041.19 4777.35 3040.56 4777.24C3039.92 4777.17 3039.47 4777.05 3039.19 4776.87C3038.9 4776.7 3038.75 4776.47 3038.71 4776.19C3038.71 4775.9 3038.8 4775.57 3038.97 4775.18L3045.41 4760.63V4752.3C3045.41 4751.1 3045.55 4750.13 3045.83 4749.4C3046.11 4748.66 3046.55 4748.1 3047.15 4747.71C3047.75 4747.32 3048.5 4747.08 3049.42 4746.97C3050.33 4746.83 3051.44 4746.76 3052.74 4746.76C3053.97 4746.76 3055.02 4746.83 3055.9 4746.97C3056.78 4747.08 3057.5 4747.32 3058.06 4747.71C3058.66 4748.1 3059.08 4748.66 3059.33 4749.4C3059.61 4750.13 3059.75 4751.1 3059.75 4752.3ZM3136.4 4756.57C3136.4 4757.59 3136.34 4758.45 3136.24 4759.15C3136.17 4759.82 3136.05 4760.37 3135.87 4760.79C3135.69 4761.21 3135.47 4761.53 3135.18 4761.74C3134.94 4761.91 3134.66 4762 3134.34 4762H3100.06C3098.9 4762 3097.92 4761.67 3097.11 4761C3096.34 4760.29 3095.95 4759.17 3095.95 4757.62V4698.14C3095.95 4696.59 3096.34 4695.48 3097.11 4694.82C3097.92 4694.11 3098.9 4693.76 3100.06 4693.76H3134.13C3134.45 4693.76 3134.73 4693.85 3134.97 4694.03C3135.22 4694.2 3135.43 4694.52 3135.61 4694.97C3135.78 4695.4 3135.91 4695.96 3135.98 4696.66C3136.08 4697.33 3136.13 4698.19 3136.13 4699.25C3136.13 4700.23 3136.08 4701.07 3135.98 4701.78C3135.91 4702.45 3135.78 4702.99 3135.61 4703.41C3135.43 4703.83 3135.22 4704.15 3134.97 4704.36C3134.73 4704.54 3134.45 4704.62 3134.13 4704.62H3109.77V4721.29H3130.39C3130.7 4721.29 3130.98 4721.39 3131.23 4721.61C3131.51 4721.78 3131.74 4722.08 3131.92 4722.5C3132.09 4722.89 3132.21 4723.43 3132.28 4724.14C3132.39 4724.8 3132.44 4725.63 3132.44 4726.62C3132.44 4727.63 3132.39 4728.48 3132.28 4729.15C3132.21 4729.81 3132.09 4730.36 3131.92 4730.78C3131.74 4731.17 3131.51 4731.45 3131.23 4731.62C3130.98 4731.8 3130.7 4731.89 3130.39 4731.89H3109.77V4751.14H3134.34C3134.66 4751.14 3134.94 4751.24 3135.18 4751.45C3135.47 4751.63 3135.69 4751.93 3135.87 4752.35C3136.05 4752.77 3136.17 4753.33 3136.24 4754.04C3136.34 4754.71 3136.4 4755.55 3136.4 4756.57ZM3227.56 4760.1C3227.56 4760.45 3227.45 4760.77 3227.24 4761.05C3227.07 4761.33 3226.72 4761.56 3226.19 4761.74C3225.7 4761.91 3225.03 4762.05 3224.19 4762.16C3223.34 4762.26 3222.27 4762.32 3220.97 4762.32C3219.7 4762.32 3218.65 4762.26 3217.8 4762.16C3216.96 4762.05 3216.29 4761.91 3215.8 4761.74C3215.31 4761.56 3214.96 4761.33 3214.75 4761.05C3214.53 4760.77 3214.43 4760.45 3214.43 4760.1V4704.57H3214.32L3194.55 4760.05C3194.41 4760.51 3194.18 4760.89 3193.86 4761.21C3193.55 4761.49 3193.11 4761.72 3192.54 4761.89C3192.02 4762.07 3191.33 4762.18 3190.49 4762.21C3189.64 4762.28 3188.62 4762.32 3187.43 4762.32C3186.23 4762.32 3185.21 4762.26 3184.37 4762.16C3183.53 4762.09 3182.82 4761.96 3182.26 4761.79C3181.73 4761.58 3181.31 4761.33 3181 4761.05C3180.68 4760.77 3180.47 4760.44 3180.36 4760.05L3161.27 4704.57H3161.17V4760.1C3161.17 4760.45 3161.06 4760.77 3160.85 4761.05C3160.68 4761.33 3160.32 4761.56 3159.8 4761.74C3159.27 4761.91 3158.58 4762.05 3157.74 4762.16C3156.93 4762.26 3155.88 4762.32 3154.58 4762.32C3153.31 4762.32 3152.26 4762.26 3151.41 4762.16C3150.57 4762.05 3149.88 4761.91 3149.36 4761.74C3148.86 4761.56 3148.51 4761.33 3148.3 4761.05C3148.12 4760.77 3148.04 4760.45 3148.04 4760.1V4699.3C3148.04 4697.51 3148.51 4696.13 3149.46 4695.19C3150.41 4694.24 3151.68 4693.76 3153.26 4693.76H3162.33C3163.94 4693.76 3165.33 4693.9 3166.49 4694.18C3167.65 4694.43 3168.66 4694.87 3169.5 4695.5C3170.34 4696.1 3171.05 4696.91 3171.61 4697.93C3172.17 4698.91 3172.66 4700.14 3173.09 4701.62L3187.85 4742.28H3188.06L3203.36 4701.72C3203.81 4700.25 3204.3 4699 3204.83 4697.98C3205.39 4696.96 3206.03 4696.13 3206.73 4695.5C3207.47 4694.87 3208.33 4694.43 3209.31 4694.18C3210.3 4693.9 3211.44 4693.76 3212.74 4693.76H3222.08C3223.03 4693.76 3223.83 4693.88 3224.5 4694.13C3225.2 4694.38 3225.77 4694.75 3226.19 4695.24C3226.65 4695.7 3226.98 4696.28 3227.19 4696.98C3227.44 4697.65 3227.56 4698.42 3227.56 4699.3V4760.1ZM3287.19 4699.46C3287.19 4700.48 3287.13 4701.36 3287.03 4702.09C3286.96 4702.8 3286.84 4703.38 3286.66 4703.83C3286.48 4704.26 3286.26 4704.57 3285.97 4704.78C3285.73 4704.99 3285.45 4705.1 3285.13 4705.1H3268.05V4760.1C3268.05 4760.45 3267.92 4760.77 3267.68 4761.05C3267.46 4761.33 3267.1 4761.56 3266.57 4761.74C3266.04 4761.91 3265.32 4762.05 3264.41 4762.16C3263.53 4762.26 3262.42 4762.32 3261.08 4762.32C3259.75 4762.32 3258.62 4762.26 3257.71 4762.16C3256.83 4762.05 3256.13 4761.91 3255.6 4761.74C3255.07 4761.56 3254.69 4761.33 3254.44 4761.05C3254.23 4760.77 3254.12 4760.45 3254.12 4760.1V4705.1H3237.04C3236.69 4705.1 3236.39 4704.99 3236.14 4704.78C3235.89 4704.57 3235.68 4704.26 3235.51 4703.83C3235.33 4703.38 3235.19 4702.8 3235.09 4702.09C3235.02 4701.36 3234.98 4700.48 3234.98 4699.46C3234.98 4698.4 3235.02 4697.51 3235.09 4696.77C3235.19 4696.03 3235.33 4695.45 3235.51 4695.03C3235.68 4694.57 3235.89 4694.25 3236.14 4694.08C3236.39 4693.87 3236.69 4693.76 3237.04 4693.76H3285.13C3285.45 4693.76 3285.73 4693.87 3285.97 4694.08C3286.26 4694.25 3286.48 4694.57 3286.66 4695.03C3286.84 4695.45 3286.96 4696.03 3287.03 4696.77C3287.13 4697.51 3287.19 4698.4 3287.19 4699.46Z" fill="black"/>
</svg>
