<svg width="6900" height="5209" viewBox="0 0 6900 5209" fill="none" xmlns="http://www.w3.org/2000/svg">
<path d="M4072.26 4758.47C4072.05 4759.31 4071.75 4760 4071.36 4760.52C4071.01 4761.02 4070.47 4761.4 4069.73 4761.68C4068.99 4761.93 4068.04 4762.09 4066.88 4762.16C4065.72 4762.26 4064.24 4762.32 4062.45 4762.32C4060.45 4762.32 4058.83 4762.26 4057.6 4762.16C4056.4 4762.09 4055.46 4761.93 4054.75 4761.68C4054.05 4761.4 4053.54 4761.02 4053.22 4760.52C4052.91 4760 4052.66 4759.31 4052.48 4758.47L4041.57 4715.22H4041.46L4031.13 4758.47C4030.95 4759.28 4030.71 4759.94 4030.39 4760.47C4030.07 4760.96 4029.56 4761.35 4028.86 4761.63C4028.19 4761.91 4027.26 4762.09 4026.06 4762.16C4024.9 4762.26 4023.36 4762.32 4021.42 4762.32C4019.38 4762.32 4017.75 4762.26 4016.52 4762.16C4015.32 4762.09 4014.38 4761.93 4013.67 4761.68C4012.97 4761.4 4012.46 4761.02 4012.14 4760.52C4011.83 4760 4011.56 4759.31 4011.35 4758.47L3995.85 4698.93C3995.53 4697.66 3995.36 4696.68 3995.32 4695.98C3995.29 4695.24 3995.48 4694.68 3995.9 4694.29C3996.36 4693.9 3997.08 4693.67 3998.06 4693.6C3999.08 4693.5 4000.49 4693.45 4002.28 4693.45C4003.93 4693.45 4005.23 4693.48 4006.18 4693.55C4007.17 4693.59 4007.91 4693.71 4008.4 4693.92C4008.89 4694.1 4009.22 4694.38 4009.4 4694.76C4009.58 4695.12 4009.72 4695.62 4009.82 4696.29L4021.79 4748.55H4021.85L4034.29 4696.66C4034.43 4695.99 4034.61 4695.45 4034.82 4695.03C4035.06 4694.61 4035.45 4694.29 4035.98 4694.08C4036.54 4693.83 4037.3 4693.67 4038.25 4693.6C4039.2 4693.5 4040.46 4693.45 4042.04 4693.45C4043.73 4693.45 4045.07 4693.48 4046.05 4693.55C4047.07 4693.62 4047.84 4693.78 4048.37 4694.03C4048.93 4694.24 4049.34 4694.55 4049.58 4694.97C4049.83 4695.4 4050.02 4695.96 4050.16 4696.66L4063.03 4748.55H4063.14L4075.11 4696.45C4075.21 4695.89 4075.35 4695.41 4075.53 4695.03C4075.71 4694.61 4076.04 4694.29 4076.53 4694.08C4077.02 4693.83 4077.73 4693.67 4078.64 4693.6C4079.55 4693.5 4080.84 4693.45 4082.49 4693.45C4084.04 4693.45 4085.23 4693.5 4086.08 4693.6C4086.96 4693.67 4087.59 4693.9 4087.97 4694.29C4088.36 4694.68 4088.52 4695.26 4088.45 4696.03C4088.41 4696.77 4088.24 4697.79 4087.92 4699.09L4072.26 4758.47ZM4110.16 4760.21C4110.16 4760.56 4110.06 4760.88 4109.84 4761.16C4109.63 4761.4 4109.26 4761.61 4108.74 4761.79C4108.24 4761.96 4107.58 4762.09 4106.73 4762.16C4105.89 4762.26 4104.82 4762.32 4103.52 4762.32C4102.22 4762.32 4101.14 4762.26 4100.3 4762.16C4099.46 4762.09 4098.77 4761.96 4098.24 4761.79C4097.75 4761.61 4097.4 4761.4 4097.19 4761.16C4096.98 4760.88 4096.87 4760.56 4096.87 4760.21V4713.27C4096.87 4712.92 4096.98 4712.62 4097.19 4712.38C4097.4 4712.1 4097.75 4711.87 4098.24 4711.69C4098.77 4711.48 4099.46 4711.32 4100.3 4711.22C4101.14 4711.11 4102.22 4711.06 4103.52 4711.06C4104.82 4711.06 4105.89 4711.11 4106.73 4711.22C4107.58 4711.32 4108.24 4711.48 4108.74 4711.69C4109.26 4711.87 4109.63 4712.1 4109.84 4712.38C4110.06 4712.62 4110.16 4712.92 4110.16 4713.27V4760.21ZM4111.16 4697.24C4111.16 4699.91 4110.62 4701.76 4109.53 4702.78C4108.44 4703.8 4106.42 4704.31 4103.46 4704.31C4100.48 4704.31 4098.45 4703.82 4097.4 4702.83C4096.38 4701.85 4095.87 4700.07 4095.87 4697.51C4095.87 4694.83 4096.4 4692.99 4097.45 4691.97C4098.54 4690.91 4100.58 4690.39 4103.57 4690.39C4106.52 4690.39 4108.53 4690.9 4109.58 4691.92C4110.64 4692.9 4111.16 4694.68 4111.16 4697.24ZM4136.09 4760.21C4136.09 4760.56 4135.99 4760.88 4135.77 4761.16C4135.56 4761.4 4135.19 4761.61 4134.67 4761.79C4134.17 4761.96 4133.51 4762.09 4132.66 4762.16C4131.82 4762.26 4130.75 4762.32 4129.45 4762.32C4128.15 4762.32 4127.07 4762.26 4126.23 4762.16C4125.39 4762.09 4124.7 4761.96 4124.17 4761.79C4123.68 4761.61 4123.33 4761.4 4123.12 4761.16C4122.91 4760.88 4122.8 4760.56 4122.8 4760.21V4690.86C4122.8 4690.51 4122.91 4690.19 4123.12 4689.91C4123.33 4689.63 4123.68 4689.4 4124.17 4689.23C4124.7 4689.02 4125.39 4688.86 4126.23 4688.75C4127.07 4688.65 4128.15 4688.59 4129.45 4688.59C4130.75 4688.59 4131.82 4688.65 4132.66 4688.75C4133.51 4688.86 4134.17 4689.02 4134.67 4689.23C4135.19 4689.4 4135.56 4689.63 4135.77 4689.91C4135.99 4690.19 4136.09 4690.51 4136.09 4690.86V4760.21ZM4192.45 4760.26C4192.45 4760.61 4192.34 4760.93 4192.13 4761.21C4191.96 4761.46 4191.6 4761.67 4191.08 4761.84C4190.59 4761.98 4189.9 4762.09 4189.02 4762.16C4188.14 4762.26 4187 4762.32 4185.59 4762.32C4184.15 4762.32 4182.97 4762.28 4182.06 4762.21C4181.18 4762.14 4180.44 4762.04 4179.85 4761.89C4179.28 4761.72 4178.84 4761.49 4178.53 4761.21C4178.21 4760.93 4177.93 4760.56 4177.68 4760.1L4162.02 4735.32V4760.21C4162.02 4760.56 4161.92 4760.88 4161.7 4761.16C4161.49 4761.4 4161.12 4761.61 4160.6 4761.79C4160.1 4761.96 4159.44 4762.09 4158.59 4762.16C4157.75 4762.26 4156.68 4762.32 4155.38 4762.32C4154.08 4762.32 4153 4762.26 4152.16 4762.16C4151.32 4762.09 4150.63 4761.96 4150.1 4761.79C4149.61 4761.61 4149.26 4761.4 4149.05 4761.16C4148.84 4760.88 4148.73 4760.56 4148.73 4760.21V4690.86C4148.73 4690.51 4148.84 4690.19 4149.05 4689.91C4149.26 4689.63 4149.61 4689.4 4150.1 4689.23C4150.63 4689.02 4151.32 4688.86 4152.16 4688.75C4153 4688.65 4154.08 4688.59 4155.38 4688.59C4156.68 4688.59 4157.75 4688.65 4158.59 4688.75C4159.44 4688.86 4160.1 4689.02 4160.6 4689.23C4161.12 4689.4 4161.49 4689.63 4161.7 4689.91C4161.92 4690.19 4162.02 4690.51 4162.02 4690.86V4732.15L4175.94 4713.43C4176.22 4713.01 4176.54 4712.64 4176.89 4712.32C4177.24 4712.01 4177.7 4711.76 4178.26 4711.59C4178.86 4711.41 4179.58 4711.29 4180.43 4711.22C4181.3 4711.11 4182.41 4711.06 4183.75 4711.06C4185.05 4711.06 4186.14 4711.11 4187.02 4711.22C4187.93 4711.29 4188.65 4711.41 4189.18 4711.59C4189.74 4711.76 4190.13 4711.99 4190.34 4712.27C4190.55 4712.52 4190.66 4712.83 4190.66 4713.22C4190.66 4713.75 4190.51 4714.31 4190.23 4714.91C4189.99 4715.51 4189.6 4716.14 4189.07 4716.81L4175.31 4732.42L4191.24 4757.04C4191.66 4757.75 4191.96 4758.36 4192.13 4758.89C4192.34 4759.38 4192.45 4759.84 4192.45 4760.26ZM4227.24 4762L4221.54 4778.66C4221.23 4779.54 4220.37 4780.18 4218.96 4780.56C4217.55 4780.95 4215.5 4781.14 4212.79 4781.14C4211.38 4781.14 4210.26 4781.07 4209.41 4780.93C4208.57 4780.83 4207.94 4780.63 4207.52 4780.35C4207.09 4780.07 4206.87 4779.72 4206.83 4779.3C4206.79 4778.88 4206.9 4778.37 4207.15 4777.77L4213.42 4762C4212.96 4761.79 4212.54 4761.47 4212.16 4761.05C4211.8 4760.59 4211.54 4760.12 4211.37 4759.63L4195.18 4716.38C4194.72 4715.15 4194.49 4714.22 4194.49 4713.59C4194.49 4712.92 4194.7 4712.41 4195.12 4712.06C4195.54 4711.67 4196.25 4711.41 4197.23 4711.27C4198.25 4711.13 4199.59 4711.06 4201.24 4711.06C4202.75 4711.06 4203.95 4711.09 4204.83 4711.16C4205.7 4711.2 4206.39 4711.32 4206.88 4711.53C4207.37 4711.74 4207.74 4712.08 4207.99 4712.54C4208.24 4712.96 4208.48 4713.57 4208.73 4714.38L4219.8 4745.86H4219.96L4230.09 4713.75C4230.3 4712.83 4230.56 4712.24 4230.88 4711.96C4231.23 4711.64 4231.79 4711.41 4232.56 4711.27C4233.34 4711.13 4234.69 4711.06 4236.62 4711.06C4238.14 4711.06 4239.38 4711.13 4240.37 4711.27C4241.39 4711.41 4242.13 4711.67 4242.58 4712.06C4243.08 4712.45 4243.32 4712.97 4243.32 4713.64C4243.32 4714.28 4243.18 4715.03 4242.9 4715.91L4227.24 4762ZM4315.54 4741.54C4315.54 4745.12 4314.87 4748.27 4313.53 4750.98C4312.2 4753.69 4310.39 4755.95 4308.1 4757.78C4305.82 4759.57 4303.15 4760.93 4300.09 4761.84C4297.03 4762.76 4293.76 4763.21 4290.28 4763.21C4287.92 4763.21 4285.73 4763.02 4283.69 4762.63C4281.68 4762.25 4279.91 4761.79 4278.36 4761.26C4276.81 4760.7 4275.51 4760.12 4274.46 4759.52C4273.44 4758.92 4272.7 4758.4 4272.24 4757.94C4271.79 4757.48 4271.45 4756.83 4271.24 4755.99C4271.07 4755.11 4270.98 4753.86 4270.98 4752.24C4270.98 4751.15 4271.01 4750.24 4271.08 4749.5C4271.15 4748.76 4271.26 4748.17 4271.4 4747.71C4271.57 4747.25 4271.79 4746.94 4272.03 4746.76C4272.31 4746.55 4272.63 4746.44 4272.98 4746.44C4273.47 4746.44 4274.16 4746.74 4275.04 4747.34C4275.95 4747.9 4277.11 4748.54 4278.52 4749.24C4279.92 4749.94 4281.59 4750.59 4283.53 4751.19C4285.5 4751.75 4287.76 4752.03 4290.33 4752.03C4292.02 4752.03 4293.53 4751.84 4294.87 4751.45C4296.2 4751.03 4297.33 4750.45 4298.24 4749.71C4299.19 4748.97 4299.91 4748.06 4300.4 4746.97C4300.9 4745.88 4301.14 4744.67 4301.14 4743.33C4301.14 4741.79 4300.72 4740.47 4299.88 4739.38C4299.03 4738.25 4297.92 4737.27 4296.55 4736.42C4295.22 4735.54 4293.69 4734.74 4291.97 4734C4290.24 4733.22 4288.47 4732.42 4286.64 4731.57C4284.81 4730.73 4283.04 4729.78 4281.31 4728.72C4279.59 4727.63 4278.04 4726.35 4276.67 4724.88C4275.34 4723.36 4274.25 4721.59 4273.4 4719.55C4272.56 4717.51 4272.14 4715.07 4272.14 4712.22C4272.14 4708.95 4272.74 4706.08 4273.93 4703.62C4275.16 4701.13 4276.8 4699.07 4278.83 4697.45C4280.91 4695.8 4283.33 4694.57 4286.11 4693.76C4288.92 4692.95 4291.9 4692.55 4295.02 4692.55C4296.64 4692.55 4298.26 4692.67 4299.88 4692.92C4301.49 4693.16 4303 4693.5 4304.41 4693.92C4305.82 4694.34 4307.07 4694.82 4308.15 4695.34C4309.24 4695.87 4309.97 4696.31 4310.32 4696.66C4310.67 4697.01 4310.9 4697.31 4311 4697.56C4311.14 4697.8 4311.25 4698.14 4311.32 4698.56C4311.42 4698.95 4311.49 4699.46 4311.53 4700.09C4311.57 4700.69 4311.58 4701.44 4311.58 4702.36C4311.58 4703.38 4311.55 4704.24 4311.48 4704.94C4311.44 4705.64 4311.35 4706.22 4311.21 4706.68C4311.11 4707.14 4310.93 4707.47 4310.69 4707.68C4310.48 4707.89 4310.18 4708 4309.79 4708C4309.4 4708 4308.79 4707.75 4307.94 4707.26C4307.1 4706.77 4306.06 4706.24 4304.83 4705.68C4303.6 4705.08 4302.18 4704.55 4300.56 4704.1C4298.94 4703.61 4297.17 4703.36 4295.24 4703.36C4293.72 4703.36 4292.4 4703.55 4291.28 4703.94C4290.15 4704.29 4289.21 4704.8 4288.43 4705.47C4287.69 4706.1 4287.13 4706.88 4286.74 4707.79C4286.39 4708.7 4286.22 4709.67 4286.22 4710.69C4286.22 4712.2 4286.62 4713.52 4287.43 4714.64C4288.27 4715.73 4289.38 4716.72 4290.75 4717.6C4292.16 4718.44 4293.74 4719.25 4295.5 4720.02C4297.26 4720.76 4299.05 4721.55 4300.88 4722.4C4302.71 4723.24 4304.5 4724.21 4306.26 4725.3C4308.01 4726.35 4309.58 4727.63 4310.95 4729.15C4312.32 4730.62 4313.43 4732.38 4314.27 4734.42C4315.12 4736.42 4315.54 4738.8 4315.54 4741.54ZM4340.31 4754.41C4340.31 4757.68 4339.73 4759.87 4338.57 4761C4337.44 4762.12 4335.4 4762.69 4332.45 4762.69C4329.5 4762.69 4327.46 4762.14 4326.33 4761.05C4325.21 4759.93 4324.65 4757.82 4324.65 4754.72C4324.65 4751.42 4325.21 4749.2 4326.33 4748.08C4327.49 4746.95 4329.57 4746.39 4332.56 4746.39C4335.47 4746.39 4337.5 4746.95 4338.62 4748.08C4339.75 4749.17 4340.31 4751.28 4340.31 4754.41ZM4415.05 4756.2C4415.05 4757.25 4415 4758.15 4414.9 4758.89C4414.83 4759.59 4414.7 4760.19 4414.53 4760.68C4414.35 4761.14 4414.12 4761.47 4413.84 4761.68C4413.6 4761.89 4413.3 4762 4412.95 4762H4381.67C4380.51 4762 4379.53 4761.67 4378.72 4761C4377.95 4760.29 4377.56 4759.17 4377.56 4757.62V4695.66C4377.56 4695.31 4377.67 4694.99 4377.88 4694.71C4378.12 4694.43 4378.51 4694.2 4379.04 4694.03C4379.56 4693.85 4380.27 4693.71 4381.15 4693.6C4382.06 4693.5 4383.19 4693.45 4384.52 4693.45C4385.89 4693.45 4387.02 4693.5 4387.9 4693.6C4388.78 4693.71 4389.48 4693.85 4390.01 4694.03C4390.53 4694.2 4390.9 4694.43 4391.11 4694.71C4391.36 4694.99 4391.48 4695.31 4391.48 4695.66V4750.56H4412.95C4413.3 4750.56 4413.6 4750.66 4413.84 4750.87C4414.12 4751.05 4414.35 4751.37 4414.53 4751.82C4414.7 4752.24 4414.83 4752.82 4414.9 4753.56C4415 4754.27 4415.05 4755.14 4415.05 4756.2ZM4461.87 4760.37C4461.87 4760.86 4461.69 4761.24 4461.34 4761.53C4460.99 4761.81 4460.43 4762 4459.65 4762.11C4458.91 4762.25 4457.81 4762.32 4456.33 4762.32C4454.75 4762.32 4453.59 4762.25 4452.85 4762.11C4452.15 4762 4451.64 4761.81 4451.32 4761.53C4451.04 4761.24 4450.9 4760.86 4450.9 4760.37V4756.62C4448.97 4758.7 4446.75 4760.31 4444.25 4761.47C4441.79 4762.63 4439.05 4763.21 4436.03 4763.21C4433.53 4763.21 4431.23 4762.88 4429.12 4762.21C4427.05 4761.58 4425.23 4760.63 4423.69 4759.36C4422.18 4758.06 4421 4756.46 4420.15 4754.56C4419.31 4752.67 4418.89 4750.45 4418.89 4747.92C4418.89 4745.18 4419.42 4742.8 4420.47 4740.8C4421.56 4738.76 4423.16 4737.09 4425.27 4735.79C4427.41 4734.46 4430.07 4733.47 4433.23 4732.84C4436.4 4732.21 4440.07 4731.89 4444.25 4731.89H4448.84V4729.04C4448.84 4727.56 4448.68 4726.28 4448.37 4725.19C4448.09 4724.07 4447.59 4723.13 4446.89 4722.4C4446.22 4721.66 4445.31 4721.11 4444.15 4720.76C4443.02 4720.41 4441.62 4720.23 4439.93 4720.23C4437.72 4720.23 4435.73 4720.48 4433.97 4720.97C4432.25 4721.46 4430.72 4722.01 4429.38 4722.61C4428.05 4723.21 4426.92 4723.75 4426.01 4724.24C4425.13 4724.73 4424.41 4724.98 4423.85 4724.98C4423.46 4724.98 4423.11 4724.86 4422.79 4724.61C4422.51 4724.37 4422.26 4724.01 4422.05 4723.56C4421.88 4723.1 4421.74 4722.54 4421.63 4721.87C4421.53 4721.2 4421.47 4720.46 4421.47 4719.65C4421.47 4718.56 4421.56 4717.7 4421.74 4717.07C4421.91 4716.44 4422.25 4715.88 4422.74 4715.38C4423.23 4714.86 4424.09 4714.29 4425.32 4713.7C4426.55 4713.06 4427.99 4712.48 4429.65 4711.96C4431.3 4711.43 4433.09 4711.01 4435.03 4710.69C4436.99 4710.34 4439.02 4710.16 4441.09 4710.16C4444.78 4710.16 4447.93 4710.53 4450.53 4711.27C4453.17 4711.97 4455.33 4713.08 4457.02 4714.59C4458.7 4716.07 4459.93 4717.98 4460.71 4720.34C4461.48 4722.7 4461.87 4725.49 4461.87 4728.72V4760.37ZM4448.84 4740.22H4443.78C4441.64 4740.22 4439.81 4740.38 4438.3 4740.7C4436.78 4741.01 4435.55 4741.49 4434.6 4742.12C4433.65 4742.75 4432.95 4743.53 4432.49 4744.44C4432.07 4745.32 4431.86 4746.34 4431.86 4747.5C4431.86 4749.47 4432.48 4751.01 4433.71 4752.14C4434.97 4753.26 4436.71 4753.83 4438.93 4753.83C4440.79 4753.83 4442.5 4753.35 4444.04 4752.4C4445.63 4751.45 4447.23 4750.06 4448.84 4748.24V4740.22ZM4522.08 4736.21C4522.08 4740.22 4521.55 4743.88 4520.49 4747.18C4519.44 4750.49 4517.84 4753.33 4515.69 4755.72C4513.55 4758.12 4510.86 4759.96 4507.63 4761.26C4504.39 4762.56 4500.61 4763.21 4496.29 4763.21C4492.1 4763.21 4488.47 4762.63 4485.37 4761.47C4482.28 4760.31 4479.71 4758.62 4477.67 4756.41C4475.63 4754.2 4474.12 4751.47 4473.14 4748.24C4472.15 4745 4471.66 4741.31 4471.66 4737.16C4471.66 4733.15 4472.19 4729.5 4473.24 4726.19C4474.33 4722.85 4475.95 4720.01 4478.09 4717.65C4480.24 4715.26 4482.91 4713.41 4486.11 4712.11C4489.34 4710.81 4493.12 4710.16 4497.45 4710.16C4501.67 4710.16 4505.32 4710.74 4508.42 4711.9C4511.51 4713.03 4514.06 4714.7 4516.06 4716.91C4518.1 4719.13 4519.61 4721.85 4520.6 4725.09C4521.58 4728.32 4522.08 4732.03 4522.08 4736.21ZM4508.42 4736.74C4508.42 4734.42 4508.22 4732.29 4507.84 4730.36C4507.49 4728.39 4506.87 4726.69 4505.99 4725.24C4505.11 4723.8 4503.93 4722.68 4502.46 4721.87C4501.02 4721.06 4499.19 4720.66 4496.97 4720.66C4495 4720.66 4493.28 4721.03 4491.81 4721.76C4490.33 4722.47 4489.12 4723.52 4488.17 4724.93C4487.22 4726.3 4486.5 4727.97 4486 4729.94C4485.55 4731.87 4485.32 4734.09 4485.32 4736.58C4485.32 4738.9 4485.51 4741.05 4485.9 4743.02C4486.29 4744.95 4486.9 4746.64 4487.75 4748.08C4488.62 4749.52 4489.8 4750.64 4491.28 4751.45C4492.75 4752.23 4494.58 4752.61 4496.76 4752.61C4498.77 4752.61 4500.51 4752.26 4501.98 4751.56C4503.46 4750.82 4504.67 4749.77 4505.62 4748.39C4506.57 4747.02 4507.27 4745.37 4507.73 4743.44C4508.19 4741.47 4508.42 4739.24 4508.42 4736.74ZM4546 4752.3C4546 4753.7 4545.93 4754.99 4545.79 4756.15C4545.65 4757.27 4545.42 4758.34 4545.1 4759.36C4544.79 4760.38 4544.38 4761.37 4543.89 4762.32C4543.4 4763.3 4542.78 4764.3 4542.05 4765.32L4534.98 4775.45C4534.73 4775.8 4534.45 4776.1 4534.14 4776.34C4533.85 4776.59 4533.5 4776.78 4533.08 4776.92C4532.66 4777.06 4532.15 4777.17 4531.55 4777.24C4530.95 4777.35 4530.2 4777.4 4529.28 4777.4C4528.27 4777.4 4527.44 4777.35 4526.81 4777.24C4526.17 4777.17 4525.72 4777.05 4525.43 4776.87C4525.15 4776.7 4525 4776.47 4524.96 4776.19C4524.96 4775.9 4525.05 4775.57 4525.22 4775.18L4531.66 4760.63V4752.3C4531.66 4751.1 4531.8 4750.13 4532.08 4749.4C4532.36 4748.66 4532.8 4748.1 4533.4 4747.71C4534 4747.32 4534.75 4747.08 4535.67 4746.97C4536.58 4746.83 4537.69 4746.76 4538.99 4746.76C4540.22 4746.76 4541.27 4746.83 4542.15 4746.97C4543.03 4747.08 4543.75 4747.32 4544.31 4747.71C4544.91 4748.1 4545.33 4748.66 4545.58 4749.4C4545.86 4750.13 4546 4751.1 4546 4752.3ZM4638.1 4756.83C4638.52 4758.1 4638.78 4759.1 4638.89 4759.84C4638.99 4760.58 4638.85 4761.14 4638.47 4761.53C4638.08 4761.88 4637.39 4762.09 4636.41 4762.16C4635.43 4762.26 4634.07 4762.32 4632.35 4762.32C4630.56 4762.32 4629.15 4762.28 4628.13 4762.21C4627.15 4762.18 4626.39 4762.09 4625.86 4761.95C4625.34 4761.77 4624.97 4761.54 4624.76 4761.26C4624.55 4760.98 4624.37 4760.61 4624.23 4760.15L4619.64 4746.44H4594.01L4589.69 4759.79C4589.55 4760.28 4589.35 4760.7 4589.11 4761.05C4588.9 4761.37 4588.53 4761.63 4588 4761.84C4587.51 4762.02 4586.79 4762.14 4585.84 4762.21C4584.92 4762.28 4583.71 4762.32 4582.2 4762.32C4580.58 4762.32 4579.32 4762.26 4578.4 4762.16C4577.49 4762.05 4576.86 4761.81 4576.5 4761.42C4576.15 4761 4576.03 4760.42 4576.14 4759.68C4576.24 4758.94 4576.5 4757.96 4576.93 4756.73L4597.97 4696.19C4598.18 4695.59 4598.42 4695.12 4598.71 4694.76C4598.99 4694.38 4599.43 4694.1 4600.02 4693.92C4600.66 4693.71 4601.52 4693.59 4602.61 4693.55C4603.7 4693.48 4605.14 4693.45 4606.93 4693.45C4609.01 4693.45 4610.66 4693.48 4611.89 4693.55C4613.12 4693.59 4614.07 4693.71 4614.74 4693.92C4615.44 4694.1 4615.93 4694.38 4616.21 4694.76C4616.53 4695.15 4616.79 4695.68 4617 4696.35L4638.1 4756.83ZM4606.77 4706.79H4606.72L4597.07 4735.79H4616.42L4606.77 4706.79ZM4687.49 4756.57C4687.49 4757.59 4687.44 4758.45 4687.34 4759.15C4687.27 4759.82 4687.14 4760.37 4686.97 4760.79C4686.79 4761.21 4686.56 4761.53 4686.28 4761.74C4686.04 4761.91 4685.75 4762 4685.44 4762H4651.16C4650 4762 4649.02 4761.67 4648.21 4761C4647.43 4760.29 4647.05 4759.17 4647.05 4757.62V4698.14C4647.05 4696.59 4647.43 4695.48 4648.21 4694.82C4649.02 4694.11 4650 4693.76 4651.16 4693.76H4685.23C4685.54 4693.76 4685.82 4693.85 4686.07 4694.03C4686.32 4694.2 4686.53 4694.52 4686.7 4694.97C4686.88 4695.4 4687 4695.96 4687.07 4696.66C4687.18 4697.33 4687.23 4698.19 4687.23 4699.25C4687.23 4700.23 4687.18 4701.07 4687.07 4701.78C4687 4702.45 4686.88 4702.99 4686.7 4703.41C4686.53 4703.83 4686.32 4704.15 4686.07 4704.36C4685.82 4704.54 4685.54 4704.62 4685.23 4704.62H4660.86V4721.29H4681.48C4681.8 4721.29 4682.08 4721.39 4682.33 4721.61C4682.61 4721.78 4682.84 4722.08 4683.01 4722.5C4683.19 4722.89 4683.31 4723.43 4683.38 4724.14C4683.49 4724.8 4683.54 4725.63 4683.54 4726.62C4683.54 4727.63 4683.49 4728.48 4683.38 4729.15C4683.31 4729.81 4683.19 4730.36 4683.01 4730.78C4682.84 4731.17 4682.61 4731.45 4682.33 4731.62C4682.08 4731.8 4681.8 4731.89 4681.48 4731.89H4660.86V4751.14H4685.44C4685.75 4751.14 4686.04 4751.24 4686.28 4751.45C4686.56 4751.63 4686.79 4751.93 4686.97 4752.35C4687.14 4752.77 4687.27 4753.33 4687.34 4754.04C4687.44 4754.71 4687.49 4755.55 4687.49 4756.57ZM4778.66 4760.1C4778.66 4760.45 4778.55 4760.77 4778.34 4761.05C4778.17 4761.33 4777.81 4761.56 4777.29 4761.74C4776.79 4761.91 4776.13 4762.05 4775.28 4762.16C4774.44 4762.26 4773.37 4762.32 4772.07 4762.32C4770.8 4762.32 4769.75 4762.26 4768.9 4762.16C4768.06 4762.05 4767.39 4761.91 4766.9 4761.74C4766.41 4761.56 4766.05 4761.33 4765.84 4761.05C4765.63 4760.77 4765.53 4760.45 4765.53 4760.1V4704.57H4765.42L4745.65 4760.05C4745.51 4760.51 4745.28 4760.89 4744.96 4761.21C4744.64 4761.49 4744.2 4761.72 4743.64 4761.89C4743.11 4762.07 4742.43 4762.18 4741.59 4762.21C4740.74 4762.28 4739.72 4762.32 4738.53 4762.32C4737.33 4762.32 4736.31 4762.26 4735.47 4762.16C4734.62 4762.09 4733.92 4761.96 4733.36 4761.79C4732.83 4761.58 4732.41 4761.33 4732.09 4761.05C4731.78 4760.77 4731.57 4760.44 4731.46 4760.05L4712.37 4704.57H4712.26V4760.1C4712.26 4760.45 4712.16 4760.77 4711.95 4761.05C4711.77 4761.33 4711.42 4761.56 4710.89 4761.74C4710.37 4761.91 4709.68 4762.05 4708.84 4762.16C4708.03 4762.26 4706.97 4762.32 4705.67 4762.32C4704.41 4762.32 4703.35 4762.26 4702.51 4762.16C4701.67 4762.05 4700.98 4761.91 4700.45 4761.74C4699.96 4761.56 4699.61 4761.33 4699.4 4761.05C4699.22 4760.77 4699.13 4760.45 4699.13 4760.1V4699.3C4699.13 4697.51 4699.61 4696.13 4700.56 4695.19C4701.51 4694.24 4702.77 4693.76 4704.35 4693.76H4713.42C4715.04 4693.76 4716.43 4693.9 4717.59 4694.18C4718.75 4694.43 4719.75 4694.87 4720.6 4695.5C4721.44 4696.1 4722.14 4696.91 4722.71 4697.93C4723.27 4698.91 4723.76 4700.14 4724.18 4701.62L4738.95 4742.28H4739.16L4754.45 4701.72C4754.91 4700.25 4755.4 4699 4755.93 4697.98C4756.49 4696.96 4757.12 4696.13 4757.83 4695.5C4758.57 4694.87 4759.43 4694.43 4760.41 4694.18C4761.4 4693.9 4762.54 4693.76 4763.84 4693.76H4773.17C4774.12 4693.76 4774.93 4693.88 4775.6 4694.13C4776.3 4694.38 4776.86 4694.75 4777.29 4695.24C4777.74 4695.7 4778.08 4696.28 4778.29 4696.98C4778.53 4697.65 4778.66 4698.42 4778.66 4699.3V4760.1ZM4838.28 4699.46C4838.28 4700.48 4838.23 4701.36 4838.13 4702.09C4838.06 4702.8 4837.93 4703.38 4837.76 4703.83C4837.58 4704.26 4837.35 4704.57 4837.07 4704.78C4836.83 4704.99 4836.54 4705.1 4836.23 4705.1H4819.14V4760.1C4819.14 4760.45 4819.02 4760.77 4818.77 4761.05C4818.56 4761.33 4818.19 4761.56 4817.67 4761.74C4817.14 4761.91 4816.42 4762.05 4815.5 4762.16C4814.62 4762.26 4813.52 4762.32 4812.18 4762.32C4810.85 4762.32 4809.72 4762.26 4808.81 4762.16C4807.93 4762.05 4807.22 4761.91 4806.7 4761.74C4806.17 4761.56 4805.78 4761.33 4805.54 4761.05C4805.33 4760.77 4805.22 4760.45 4805.22 4760.1V4705.1H4788.13C4787.78 4705.1 4787.48 4704.99 4787.24 4704.78C4786.99 4704.57 4786.78 4704.26 4786.61 4703.83C4786.43 4703.38 4786.29 4702.8 4786.18 4702.09C4786.11 4701.36 4786.08 4700.48 4786.08 4699.46C4786.08 4698.4 4786.11 4697.51 4786.18 4696.77C4786.29 4696.03 4786.43 4695.45 4786.61 4695.03C4786.78 4694.57 4786.99 4694.25 4787.24 4694.08C4787.48 4693.87 4787.78 4693.76 4788.13 4693.76H4836.23C4836.54 4693.76 4836.83 4693.87 4837.07 4694.08C4837.35 4694.25 4837.58 4694.57 4837.76 4695.03C4837.93 4695.45 4838.06 4696.03 4838.13 4696.77C4838.23 4697.51 4838.28 4698.4 4838.28 4699.46Z" fill="black"/>
</svg>
