<svg width="6900" height="5209" viewBox="0 0 6900 5209" fill="none" xmlns="http://www.w3.org/2000/svg">
<path d="M537.43 4407.17C537.43 4408.26 537.373 4409.19 537.26 4409.94C537.184 4410.66 537.052 4411.24 536.863 4411.7C536.674 4412.15 536.429 4412.49 536.127 4412.72C535.863 4412.91 535.561 4413 535.221 4413H498.404C497.158 4413 496.101 4412.64 495.232 4411.92C494.402 4411.17 493.986 4409.96 493.986 4408.3V4344.41C493.986 4342.75 494.402 4341.56 495.232 4340.84C496.101 4340.08 497.158 4339.71 498.404 4339.71H534.994C535.334 4339.71 535.636 4339.8 535.9 4339.99C536.165 4340.18 536.391 4340.52 536.58 4341.01C536.769 4341.46 536.901 4342.07 536.977 4342.82C537.09 4343.54 537.146 4344.46 537.146 4345.6C537.146 4346.65 537.09 4347.56 536.977 4348.32C536.901 4349.03 536.769 4349.62 536.58 4350.07C536.391 4350.53 536.165 4350.87 535.9 4351.09C535.636 4351.28 535.334 4351.38 534.994 4351.38H508.826V4369.27H530.973C531.312 4369.27 531.615 4369.39 531.879 4369.61C532.181 4369.8 532.426 4370.12 532.615 4370.58C532.804 4370.99 532.936 4371.58 533.012 4372.33C533.125 4373.05 533.182 4373.94 533.182 4374.99C533.182 4376.09 533.125 4377 533.012 4377.71C532.936 4378.43 532.804 4379.02 532.615 4379.47C532.426 4379.88 532.181 4380.19 531.879 4380.38C531.615 4380.56 531.312 4380.66 530.973 4380.66H508.826V4401.33H535.221C535.561 4401.33 535.863 4401.45 536.127 4401.67C536.429 4401.86 536.674 4402.18 536.863 4402.63C537.052 4403.09 537.184 4403.69 537.26 4404.45C537.373 4405.16 537.43 4406.07 537.43 4407.17ZM636.041 4410.96C636.041 4411.34 635.928 4411.68 635.701 4411.98C635.512 4412.28 635.135 4412.53 634.568 4412.72C634.04 4412.91 633.322 4413.06 632.416 4413.17C631.51 4413.28 630.358 4413.34 628.961 4413.34C627.602 4413.34 626.469 4413.28 625.562 4413.17C624.656 4413.06 623.939 4412.91 623.41 4412.72C622.882 4412.53 622.504 4412.28 622.277 4411.98C622.051 4411.68 621.938 4411.34 621.938 4410.96V4351.32H621.824L600.584 4410.9C600.433 4411.4 600.188 4411.81 599.848 4412.15C599.508 4412.45 599.036 4412.7 598.432 4412.89C597.865 4413.08 597.129 4413.19 596.223 4413.23C595.316 4413.3 594.221 4413.34 592.938 4413.34C591.654 4413.34 590.559 4413.28 589.652 4413.17C588.746 4413.09 587.991 4412.96 587.387 4412.77C586.82 4412.55 586.367 4412.28 586.027 4411.98C585.688 4411.68 585.461 4411.32 585.348 4410.9L564.844 4351.32H564.73V4410.96C564.73 4411.34 564.617 4411.68 564.391 4411.98C564.202 4412.28 563.824 4412.53 563.258 4412.72C562.691 4412.91 561.955 4413.06 561.049 4413.17C560.18 4413.28 559.048 4413.34 557.65 4413.34C556.291 4413.34 555.158 4413.28 554.252 4413.17C553.346 4413.06 552.609 4412.91 552.043 4412.72C551.514 4412.53 551.137 4412.28 550.91 4411.98C550.721 4411.68 550.627 4411.34 550.627 4410.96V4345.65C550.627 4343.73 551.137 4342.26 552.156 4341.24C553.176 4340.22 554.535 4339.71 556.234 4339.71H565.977C567.714 4339.71 569.205 4339.86 570.451 4340.16C571.697 4340.42 572.773 4340.9 573.68 4341.58C574.586 4342.22 575.341 4343.09 575.945 4344.18C576.549 4345.24 577.078 4346.56 577.531 4348.15L593.391 4391.82H593.617L610.043 4348.26C610.534 4346.67 611.062 4345.33 611.629 4344.24C612.233 4343.14 612.913 4342.26 613.668 4341.58C614.461 4340.9 615.386 4340.42 616.443 4340.16C617.501 4339.86 618.728 4339.71 620.125 4339.71H630.15C631.17 4339.71 632.038 4339.84 632.756 4340.1C633.511 4340.37 634.115 4340.76 634.568 4341.29C635.059 4341.78 635.418 4342.41 635.645 4343.16C635.909 4343.88 636.041 4344.71 636.041 4345.65V4410.96ZM700.781 4345.82C700.781 4346.92 700.725 4347.86 700.611 4348.66C700.536 4349.41 700.404 4350.03 700.215 4350.53C700.026 4350.98 699.781 4351.32 699.479 4351.54C699.214 4351.77 698.912 4351.88 698.572 4351.88H680.221V4410.96C680.221 4411.34 680.089 4411.68 679.824 4411.98C679.598 4412.28 679.201 4412.53 678.635 4412.72C678.068 4412.91 677.294 4413.06 676.312 4413.17C675.368 4413.28 674.179 4413.34 672.744 4413.34C671.309 4413.34 670.101 4413.28 669.119 4413.17C668.175 4413.06 667.42 4412.91 666.854 4412.72C666.287 4412.53 665.872 4412.28 665.607 4411.98C665.381 4411.68 665.268 4411.34 665.268 4410.96V4351.88H646.916C646.538 4351.88 646.217 4351.77 645.953 4351.54C645.689 4351.32 645.462 4350.98 645.273 4350.53C645.085 4350.03 644.934 4349.41 644.82 4348.66C644.745 4347.86 644.707 4346.92 644.707 4345.82C644.707 4344.69 644.745 4343.73 644.82 4342.94C644.934 4342.14 645.085 4341.52 645.273 4341.07C645.462 4340.58 645.689 4340.24 645.953 4340.05C646.217 4339.82 646.538 4339.71 646.916 4339.71H698.572C698.912 4339.71 699.214 4339.82 699.479 4340.05C699.781 4340.24 700.026 4340.58 700.215 4341.07C700.404 4341.52 700.536 4342.14 700.611 4342.94C700.725 4343.73 700.781 4344.69 700.781 4345.82ZM776 4406.77C776 4407.9 775.943 4408.87 775.83 4409.66C775.755 4410.41 775.622 4411.06 775.434 4411.58C775.245 4412.07 774.999 4412.43 774.697 4412.66C774.433 4412.89 774.112 4413 773.734 4413H740.146C738.9 4413 737.843 4412.64 736.975 4411.92C736.144 4411.17 735.729 4409.96 735.729 4408.3V4341.75C735.729 4341.37 735.842 4341.03 736.068 4340.73C736.333 4340.42 736.748 4340.18 737.314 4339.99C737.881 4339.8 738.636 4339.65 739.58 4339.54C740.562 4339.42 741.77 4339.37 743.205 4339.37C744.678 4339.37 745.886 4339.42 746.83 4339.54C747.774 4339.65 748.529 4339.8 749.096 4339.99C749.662 4340.18 750.059 4340.42 750.285 4340.73C750.549 4341.03 750.682 4341.37 750.682 4341.75V4400.71H773.734C774.112 4400.71 774.433 4400.82 774.697 4401.05C774.999 4401.24 775.245 4401.58 775.434 4402.07C775.622 4402.52 775.755 4403.14 775.83 4403.94C775.943 4404.69 776 4405.64 776 4406.77ZM798.203 4411.07C798.203 4411.45 798.09 4411.79 797.863 4412.09C797.637 4412.36 797.24 4412.58 796.674 4412.77C796.145 4412.96 795.428 4413.09 794.521 4413.17C793.615 4413.28 792.464 4413.34 791.066 4413.34C789.669 4413.34 788.518 4413.28 787.611 4413.17C786.705 4413.09 785.969 4412.96 785.402 4412.77C784.874 4412.58 784.496 4412.36 784.27 4412.09C784.043 4411.79 783.93 4411.45 783.93 4411.07V4360.66C783.93 4360.29 784.043 4359.97 784.27 4359.7C784.496 4359.4 784.874 4359.15 785.402 4358.96C785.969 4358.74 786.705 4358.57 787.611 4358.46C788.518 4358.34 789.669 4358.29 791.066 4358.29C792.464 4358.29 793.615 4358.34 794.521 4358.46C795.428 4358.57 796.145 4358.74 796.674 4358.96C797.24 4359.15 797.637 4359.4 797.863 4359.7C798.09 4359.97 798.203 4360.29 798.203 4360.66V4411.07ZM799.279 4343.45C799.279 4346.32 798.694 4348.3 797.523 4349.39C796.353 4350.49 794.182 4351.04 791.01 4351.04C787.8 4351.04 785.629 4350.51 784.496 4349.45C783.401 4348.39 782.854 4346.49 782.854 4343.73C782.854 4340.86 783.42 4338.88 784.553 4337.78C785.723 4336.65 787.913 4336.08 791.123 4336.08C794.295 4336.08 796.447 4336.63 797.58 4337.72C798.713 4338.78 799.279 4340.69 799.279 4343.45ZM850.709 4403.03C850.709 4404.01 850.671 4404.84 850.596 4405.52C850.558 4406.17 850.482 4406.71 850.369 4407.17C850.294 4407.62 850.18 4408 850.029 4408.3C849.916 4408.56 849.633 4408.92 849.18 4409.38C848.727 4409.79 847.952 4410.32 846.857 4410.96C845.762 4411.57 844.516 4412.11 843.119 4412.6C841.722 4413.09 840.193 4413.49 838.531 4413.79C836.908 4414.1 835.227 4414.25 833.49 4414.25C829.601 4414.25 826.146 4413.64 823.125 4412.43C820.142 4411.23 817.631 4409.45 815.592 4407.11C813.553 4404.73 812.005 4401.84 810.947 4398.44C809.928 4395.04 809.418 4391.16 809.418 4386.78C809.418 4381.72 810.041 4377.35 811.287 4373.69C812.571 4369.99 814.346 4366.93 816.611 4364.52C818.877 4362.1 821.558 4360.31 824.654 4359.13C827.751 4357.96 831.149 4357.38 834.85 4357.38C836.36 4357.38 837.833 4357.51 839.268 4357.78C840.74 4358.04 842.1 4358.4 843.346 4358.85C844.63 4359.3 845.762 4359.81 846.744 4360.38C847.764 4360.95 848.481 4361.44 848.896 4361.85C849.312 4362.27 849.595 4362.63 849.746 4362.93C849.935 4363.19 850.067 4363.55 850.143 4364.01C850.256 4364.46 850.331 4365.03 850.369 4365.71C850.445 4366.35 850.482 4367.14 850.482 4368.08C850.482 4370.27 850.294 4371.82 849.916 4372.73C849.538 4373.6 849.048 4374.03 848.443 4374.03C847.801 4374.03 847.122 4373.77 846.404 4373.24C845.687 4372.71 844.837 4372.12 843.855 4371.48C842.874 4370.84 841.703 4370.26 840.344 4369.73C838.984 4369.2 837.361 4368.93 835.473 4368.93C831.772 4368.93 828.94 4370.37 826.977 4373.24C825.013 4376.07 824.031 4380.24 824.031 4385.76C824.031 4388.47 824.277 4390.87 824.768 4392.95C825.258 4395.03 825.976 4396.76 826.92 4398.16C827.902 4399.56 829.11 4400.61 830.545 4401.33C832.018 4402.01 833.717 4402.35 835.643 4402.35C837.606 4402.35 839.286 4402.07 840.684 4401.5C842.118 4400.9 843.365 4400.24 844.422 4399.52C845.479 4398.8 846.367 4398.16 847.084 4397.59C847.801 4396.99 848.406 4396.69 848.896 4396.69C849.236 4396.69 849.52 4396.78 849.746 4396.97C849.973 4397.16 850.143 4397.52 850.256 4398.05C850.407 4398.54 850.52 4399.18 850.596 4399.97C850.671 4400.77 850.709 4401.79 850.709 4403.03ZM907.746 4384.34C907.746 4386.08 907.35 4387.36 906.557 4388.19C905.801 4389.02 904.744 4389.44 903.385 4389.44H872.629C872.629 4391.59 872.874 4393.55 873.365 4395.33C873.894 4397.07 874.706 4398.56 875.801 4399.8C876.934 4401.01 878.368 4401.94 880.105 4402.58C881.88 4403.22 883.995 4403.54 886.449 4403.54C888.941 4403.54 891.132 4403.37 893.02 4403.03C894.908 4402.65 896.531 4402.26 897.891 4401.84C899.288 4401.39 900.439 4400.99 901.346 4400.65C902.252 4400.27 902.988 4400.09 903.555 4400.09C903.895 4400.09 904.178 4400.16 904.404 4400.31C904.631 4400.43 904.82 4400.65 904.971 4400.99C905.122 4401.33 905.216 4401.82 905.254 4402.46C905.329 4403.07 905.367 4403.84 905.367 4404.79C905.367 4405.62 905.348 4406.34 905.311 4406.94C905.273 4407.51 905.216 4408 905.141 4408.41C905.065 4408.83 904.952 4409.19 904.801 4409.49C904.65 4409.75 904.442 4410.02 904.178 4410.28C903.951 4410.55 903.29 4410.9 902.195 4411.36C901.1 4411.81 899.703 4412.26 898.004 4412.72C896.305 4413.13 894.36 4413.49 892.17 4413.79C889.98 4414.13 887.639 4414.3 885.146 4414.3C880.653 4414.3 876.707 4413.74 873.309 4412.6C869.948 4411.47 867.135 4409.75 864.869 4407.45C862.604 4405.15 860.904 4402.24 859.771 4398.73C858.676 4395.21 858.129 4391.1 858.129 4386.38C858.129 4381.89 858.714 4377.85 859.885 4374.26C861.055 4370.63 862.755 4367.57 864.982 4365.08C867.21 4362.55 869.91 4360.63 873.082 4359.3C876.292 4357.98 879.898 4357.32 883.9 4357.32C888.13 4357.32 891.736 4357.95 894.719 4359.19C897.74 4360.44 900.213 4362.17 902.139 4364.4C904.064 4366.59 905.48 4369.2 906.387 4372.22C907.293 4375.24 907.746 4378.52 907.746 4382.07V4384.34ZM893.926 4380.26C894.039 4376.26 893.227 4373.12 891.49 4370.86C889.791 4368.56 887.148 4367.4 883.561 4367.4C881.748 4367.4 880.162 4367.74 878.803 4368.42C877.481 4369.1 876.367 4370.03 875.461 4371.2C874.592 4372.33 873.913 4373.69 873.422 4375.28C872.969 4376.83 872.704 4378.49 872.629 4380.26H893.926ZM967.785 4411.07C967.785 4411.45 967.672 4411.79 967.445 4412.09C967.219 4412.36 966.841 4412.58 966.312 4412.77C965.784 4412.96 965.048 4413.09 964.104 4413.17C963.197 4413.28 962.064 4413.34 960.705 4413.34C959.308 4413.34 958.137 4413.28 957.193 4413.17C956.287 4413.09 955.57 4412.96 955.041 4412.77C954.512 4412.58 954.135 4412.36 953.908 4412.09C953.682 4411.79 953.568 4411.45 953.568 4411.07V4382.24C953.568 4379.79 953.38 4377.86 953.002 4376.47C952.662 4375.07 952.152 4373.88 951.473 4372.9C950.793 4371.88 949.906 4371.1 948.811 4370.58C947.753 4370.01 946.507 4369.73 945.072 4369.73C943.26 4369.73 941.428 4370.39 939.578 4371.71C937.728 4373.03 935.802 4374.96 933.801 4377.49V4411.07C933.801 4411.45 933.688 4411.79 933.461 4412.09C933.234 4412.36 932.838 4412.58 932.271 4412.77C931.743 4412.96 931.025 4413.09 930.119 4413.17C929.213 4413.28 928.061 4413.34 926.664 4413.34C925.267 4413.34 924.115 4413.28 923.209 4413.17C922.303 4413.09 921.566 4412.96 921 4412.77C920.471 4412.58 920.094 4412.36 919.867 4412.09C919.641 4411.79 919.527 4411.45 919.527 4411.07V4360.55C919.527 4360.17 919.622 4359.85 919.811 4359.59C919.999 4359.29 920.339 4359.04 920.83 4358.85C921.321 4358.66 921.944 4358.53 922.699 4358.46C923.492 4358.34 924.474 4358.29 925.645 4358.29C926.853 4358.29 927.854 4358.34 928.646 4358.46C929.439 4358.53 930.044 4358.66 930.459 4358.85C930.912 4359.04 931.233 4359.29 931.422 4359.59C931.611 4359.85 931.705 4360.17 931.705 4360.55V4366.38C934.499 4363.36 937.331 4361.1 940.201 4359.59C943.109 4358.08 946.13 4357.32 949.264 4357.32C952.7 4357.32 955.589 4357.89 957.93 4359.02C960.309 4360.15 962.215 4361.7 963.65 4363.67C965.123 4365.59 966.18 4367.86 966.822 4370.46C967.464 4373.07 967.785 4376.2 967.785 4379.87V4411.07ZM1017.4 4396.8C1017.4 4399.67 1016.85 4402.2 1015.76 4404.39C1014.7 4406.58 1013.19 4408.41 1011.23 4409.88C1009.26 4411.36 1006.94 4412.45 1004.26 4413.17C1001.58 4413.93 998.673 4414.3 995.539 4414.3C993.651 4414.3 991.839 4414.15 990.102 4413.85C988.402 4413.59 986.873 4413.25 985.514 4412.83C984.154 4412.38 983.021 4411.92 982.115 4411.47C981.209 4411.02 980.548 4410.6 980.133 4410.22C979.717 4409.81 979.396 4409.19 979.17 4408.36C978.943 4407.49 978.83 4406.22 978.83 4404.56C978.83 4403.47 978.868 4402.6 978.943 4401.96C979.019 4401.28 979.132 4400.75 979.283 4400.37C979.434 4399.95 979.623 4399.69 979.85 4399.58C980.076 4399.43 980.359 4399.35 980.699 4399.35C981.115 4399.35 981.719 4399.6 982.512 4400.09C983.342 4400.54 984.362 4401.05 985.57 4401.62C986.779 4402.18 988.176 4402.71 989.762 4403.2C991.385 4403.69 993.217 4403.94 995.256 4403.94C996.54 4403.94 997.673 4403.81 998.654 4403.54C999.674 4403.28 1000.54 4402.9 1001.26 4402.41C1002.01 4401.92 1002.58 4401.29 1002.96 4400.54C1003.34 4399.78 1003.53 4398.92 1003.53 4397.93C1003.53 4396.8 1003.17 4395.84 1002.45 4395.04C1001.77 4394.21 1000.84 4393.5 999.674 4392.89C998.541 4392.29 997.238 4391.72 995.766 4391.19C994.331 4390.66 992.839 4390.08 991.291 4389.44C989.781 4388.8 988.289 4388.06 986.816 4387.23C985.382 4386.4 984.079 4385.38 982.908 4384.17C981.775 4382.96 980.85 4381.51 980.133 4379.81C979.453 4378.11 979.113 4376.07 979.113 4373.69C979.113 4371.27 979.585 4369.07 980.529 4367.06C981.473 4365.03 982.833 4363.29 984.607 4361.85C986.382 4360.42 988.535 4359.3 991.064 4358.51C993.632 4357.72 996.502 4357.32 999.674 4357.32C1001.26 4357.32 1002.79 4357.44 1004.26 4357.66C1005.77 4357.89 1007.13 4358.17 1008.34 4358.51C1009.55 4358.85 1010.57 4359.23 1011.4 4359.64C1012.23 4360.02 1012.81 4360.36 1013.15 4360.66C1013.53 4360.93 1013.8 4361.21 1013.95 4361.51C1014.1 4361.78 1014.21 4362.12 1014.29 4362.53C1014.36 4362.91 1014.42 4363.4 1014.46 4364.01C1014.53 4364.57 1014.57 4365.29 1014.57 4366.16C1014.57 4367.18 1014.53 4368.01 1014.46 4368.65C1014.42 4369.29 1014.32 4369.8 1014.17 4370.18C1014.06 4370.56 1013.89 4370.82 1013.66 4370.97C1013.44 4371.09 1013.17 4371.14 1012.87 4371.14C1012.53 4371.14 1012 4370.95 1011.29 4370.58C1010.57 4370.16 1009.66 4369.73 1008.57 4369.27C1007.51 4368.82 1006.26 4368.4 1004.83 4368.03C1003.43 4367.61 1001.83 4367.4 1000.01 4367.4C998.73 4367.4 997.616 4367.54 996.672 4367.8C995.728 4368.07 994.954 4368.44 994.35 4368.93C993.745 4369.42 993.292 4370.01 992.99 4370.69C992.688 4371.33 992.537 4372.03 992.537 4372.79C992.537 4373.96 992.896 4374.94 993.613 4375.73C994.331 4376.52 995.275 4377.22 996.445 4377.83C997.616 4378.43 998.938 4379 1000.41 4379.53C1001.92 4380.05 1003.43 4380.64 1004.94 4381.28C1006.49 4381.89 1008 4382.6 1009.47 4383.43C1010.98 4384.26 1012.32 4385.28 1013.49 4386.49C1014.66 4387.7 1015.61 4389.15 1016.33 4390.85C1017.04 4392.51 1017.4 4394.5 1017.4 4396.8ZM1074.84 4384.34C1074.84 4386.08 1074.44 4387.36 1073.65 4388.19C1072.89 4389.02 1071.83 4389.44 1070.47 4389.44H1039.72C1039.72 4391.59 1039.96 4393.55 1040.46 4395.33C1040.98 4397.07 1041.8 4398.56 1042.89 4399.8C1044.02 4401.01 1045.46 4401.94 1047.2 4402.58C1048.97 4403.22 1051.08 4403.54 1053.54 4403.54C1056.03 4403.54 1058.22 4403.37 1060.11 4403.03C1062 4402.65 1063.62 4402.26 1064.98 4401.84C1066.38 4401.39 1067.53 4400.99 1068.44 4400.65C1069.34 4400.27 1070.08 4400.09 1070.64 4400.09C1070.98 4400.09 1071.27 4400.16 1071.49 4400.31C1071.72 4400.43 1071.91 4400.65 1072.06 4400.99C1072.21 4401.33 1072.31 4401.82 1072.34 4402.46C1072.42 4403.07 1072.46 4403.84 1072.46 4404.79C1072.46 4405.62 1072.44 4406.34 1072.4 4406.94C1072.36 4407.51 1072.31 4408 1072.23 4408.41C1072.15 4408.83 1072.04 4409.19 1071.89 4409.49C1071.74 4409.75 1071.53 4410.02 1071.27 4410.28C1071.04 4410.55 1070.38 4410.9 1069.29 4411.36C1068.19 4411.81 1066.79 4412.26 1065.09 4412.72C1063.39 4413.13 1061.45 4413.49 1059.26 4413.79C1057.07 4414.13 1054.73 4414.3 1052.24 4414.3C1047.74 4414.3 1043.8 4413.74 1040.4 4412.6C1037.04 4411.47 1034.22 4409.75 1031.96 4407.45C1029.69 4405.15 1027.99 4402.24 1026.86 4398.73C1025.77 4395.21 1025.22 4391.1 1025.22 4386.38C1025.22 4381.89 1025.8 4377.85 1026.97 4374.26C1028.15 4370.63 1029.84 4367.57 1032.07 4365.08C1034.3 4362.55 1037 4360.63 1040.17 4359.3C1043.38 4357.98 1046.99 4357.32 1050.99 4357.32C1055.22 4357.32 1058.83 4357.95 1061.81 4359.19C1064.83 4360.44 1067.3 4362.17 1069.23 4364.4C1071.15 4366.59 1072.57 4369.2 1073.48 4372.22C1074.38 4375.24 1074.84 4378.52 1074.84 4382.07V4384.34ZM1061.02 4380.26C1061.13 4376.26 1060.32 4373.12 1058.58 4370.86C1056.88 4368.56 1054.24 4367.4 1050.65 4367.4C1048.84 4367.4 1047.25 4367.74 1045.89 4368.42C1044.57 4369.1 1043.46 4370.03 1042.55 4371.2C1041.68 4372.33 1041 4373.69 1040.51 4375.28C1040.06 4376.83 1039.79 4378.49 1039.72 4380.26H1061.02ZM1168.12 4411.07C1168.12 4411.49 1168.05 4411.85 1167.9 4412.15C1167.75 4412.41 1167.39 4412.64 1166.82 4412.83C1166.25 4413.02 1165.42 4413.15 1164.33 4413.23C1163.23 4413.3 1161.74 4413.34 1159.85 4413.34C1158.27 4413.34 1157 4413.3 1156.06 4413.23C1155.11 4413.15 1154.36 4413.02 1153.79 4412.83C1153.26 4412.6 1152.89 4412.34 1152.66 4412.04C1152.43 4411.7 1152.24 4411.3 1152.09 4410.85L1145.52 4394.48C1144.73 4392.63 1143.96 4390.99 1143.2 4389.55C1142.45 4388.12 1141.6 4386.93 1140.65 4385.98C1139.75 4385 1138.69 4384.26 1137.48 4383.77C1136.27 4383.28 1134.88 4383.04 1133.29 4383.04H1128.64V4410.96C1128.64 4411.34 1128.51 4411.68 1128.25 4411.98C1128.02 4412.28 1127.62 4412.53 1127.06 4412.72C1126.49 4412.91 1125.74 4413.06 1124.79 4413.17C1123.85 4413.28 1122.64 4413.34 1121.17 4413.34C1119.73 4413.34 1118.52 4413.28 1117.54 4413.17C1116.6 4413.06 1115.84 4412.91 1115.28 4412.72C1114.71 4412.53 1114.31 4412.28 1114.09 4411.98C1113.86 4411.68 1113.75 4411.34 1113.75 4410.96V4344.41C1113.75 4342.75 1114.16 4341.56 1114.99 4340.84C1115.86 4340.08 1116.92 4339.71 1118.17 4339.71H1137.14C1139.07 4339.71 1140.65 4339.74 1141.9 4339.82C1143.14 4339.9 1144.28 4339.99 1145.3 4340.1C1148.24 4340.52 1150.89 4341.24 1153.23 4342.26C1155.61 4343.28 1157.61 4344.62 1159.23 4346.28C1160.89 4347.9 1162.16 4349.85 1163.03 4352.11C1163.89 4354.34 1164.33 4356.91 1164.33 4359.81C1164.33 4362.27 1164.01 4364.52 1163.37 4366.55C1162.76 4368.56 1161.85 4370.35 1160.65 4371.94C1159.44 4373.52 1157.95 4374.9 1156.17 4376.07C1154.4 4377.24 1152.38 4378.18 1150.11 4378.9C1151.21 4379.43 1152.23 4380.07 1153.17 4380.83C1154.15 4381.58 1155.06 4382.51 1155.89 4383.6C1156.76 4384.66 1157.57 4385.89 1158.32 4387.29C1159.08 4388.64 1159.82 4390.19 1160.53 4391.93L1166.71 4406.37C1167.27 4407.81 1167.65 4408.87 1167.84 4409.54C1168.03 4410.19 1168.12 4410.7 1168.12 4411.07ZM1148.92 4361.34C1148.92 4358.93 1148.37 4356.89 1147.28 4355.23C1146.18 4353.57 1144.39 4352.39 1141.9 4351.71C1141.14 4351.53 1140.27 4351.38 1139.29 4351.26C1138.35 4351.15 1137.03 4351.09 1135.33 4351.09H1128.64V4371.88H1136.23C1138.35 4371.88 1140.2 4371.63 1141.79 4371.14C1143.37 4370.61 1144.69 4369.9 1145.75 4368.99C1146.81 4368.05 1147.6 4366.93 1148.13 4365.65C1148.66 4364.36 1148.92 4362.93 1148.92 4361.34ZM1223.23 4384.34C1223.23 4386.08 1222.84 4387.36 1222.04 4388.19C1221.29 4389.02 1220.23 4389.44 1218.87 4389.44H1188.12C1188.12 4391.59 1188.36 4393.55 1188.85 4395.33C1189.38 4397.07 1190.19 4398.56 1191.29 4399.8C1192.42 4401.01 1193.86 4401.94 1195.59 4402.58C1197.37 4403.22 1199.48 4403.54 1201.94 4403.54C1204.43 4403.54 1206.62 4403.37 1208.51 4403.03C1210.4 4402.65 1212.02 4402.26 1213.38 4401.84C1214.78 4401.39 1215.93 4400.99 1216.83 4400.65C1217.74 4400.27 1218.48 4400.09 1219.04 4400.09C1219.38 4400.09 1219.67 4400.16 1219.89 4400.31C1220.12 4400.43 1220.31 4400.65 1220.46 4400.99C1220.61 4401.33 1220.7 4401.82 1220.74 4402.46C1220.82 4403.07 1220.86 4403.84 1220.86 4404.79C1220.86 4405.62 1220.84 4406.34 1220.8 4406.94C1220.76 4407.51 1220.7 4408 1220.63 4408.41C1220.55 4408.83 1220.44 4409.19 1220.29 4409.49C1220.14 4409.75 1219.93 4410.02 1219.67 4410.28C1219.44 4410.55 1218.78 4410.9 1217.68 4411.36C1216.59 4411.81 1215.19 4412.26 1213.49 4412.72C1211.79 4413.13 1209.85 4413.49 1207.66 4413.79C1205.47 4414.13 1203.13 4414.3 1200.63 4414.3C1196.14 4414.3 1192.2 4413.74 1188.8 4412.6C1185.44 4411.47 1182.62 4409.75 1180.36 4407.45C1178.09 4405.15 1176.39 4402.24 1175.26 4398.73C1174.16 4395.21 1173.62 4391.1 1173.62 4386.38C1173.62 4381.89 1174.2 4377.85 1175.37 4374.26C1176.54 4370.63 1178.24 4367.57 1180.47 4365.08C1182.7 4362.55 1185.4 4360.63 1188.57 4359.3C1191.78 4357.98 1195.39 4357.32 1199.39 4357.32C1203.62 4357.32 1207.22 4357.95 1210.21 4359.19C1213.23 4360.44 1215.7 4362.17 1217.63 4364.4C1219.55 4366.59 1220.97 4369.2 1221.88 4372.22C1222.78 4375.24 1223.23 4378.52 1223.23 4382.07V4384.34ZM1209.41 4380.26C1209.53 4376.26 1208.72 4373.12 1206.98 4370.86C1205.28 4368.56 1202.64 4367.4 1199.05 4367.4C1197.24 4367.4 1195.65 4367.74 1194.29 4368.42C1192.97 4369.1 1191.86 4370.03 1190.95 4371.2C1190.08 4372.33 1189.4 4373.69 1188.91 4375.28C1188.46 4376.83 1188.19 4378.49 1188.12 4380.26H1209.41ZM1280.55 4364.06C1280.55 4365.88 1280.35 4367.22 1279.93 4368.08C1279.52 4368.95 1279.01 4369.39 1278.4 4369.39H1272.46C1273.29 4370.29 1273.87 4371.33 1274.21 4372.5C1274.59 4373.63 1274.78 4374.82 1274.78 4376.07C1274.78 4379.02 1274.29 4381.64 1273.3 4383.94C1272.32 4386.21 1270.91 4388.13 1269.06 4389.72C1267.24 4391.27 1265.04 4392.46 1262.43 4393.29C1259.86 4394.08 1256.99 4394.48 1253.82 4394.48C1252.2 4394.48 1250.65 4394.29 1249.18 4393.91C1247.7 4393.5 1246.57 4393.02 1245.78 4392.5C1245.32 4392.99 1244.91 4393.57 1244.53 4394.25C1244.19 4394.93 1244.02 4395.69 1244.02 4396.52C1244.02 4397.61 1244.49 4398.52 1245.44 4399.24C1246.42 4399.92 1247.78 4400.29 1249.52 4400.37L1261.81 4400.82C1264.68 4400.94 1267.23 4401.35 1269.45 4402.07C1271.72 4402.75 1273.61 4403.73 1275.12 4405.01C1276.67 4406.26 1277.84 4407.77 1278.63 4409.54C1279.46 4411.32 1279.88 4413.34 1279.88 4415.61C1279.88 4418.1 1279.33 4420.44 1278.23 4422.63C1277.14 4424.86 1275.49 4426.78 1273.3 4428.41C1271.11 4430.03 1268.36 4431.31 1265.04 4432.26C1261.75 4433.2 1257.9 4433.67 1253.48 4433.67C1249.18 4433.67 1245.49 4433.33 1242.44 4432.65C1239.41 4431.97 1236.92 4431.03 1234.96 4429.82C1233.03 4428.61 1231.62 4427.16 1230.71 4425.46C1229.84 4423.8 1229.41 4421.97 1229.41 4419.97C1229.41 4418.72 1229.56 4417.53 1229.86 4416.4C1230.2 4415.27 1230.67 4414.17 1231.28 4413.11C1231.92 4412.09 1232.69 4411.11 1233.6 4410.17C1234.51 4409.22 1235.54 4408.32 1236.71 4407.45C1235.09 4406.58 1233.83 4405.41 1232.92 4403.94C1232.05 4402.43 1231.62 4400.78 1231.62 4399.01C1231.62 4396.78 1232.13 4394.76 1233.15 4392.95C1234.17 4391.1 1235.49 4389.44 1237.11 4387.96C1235.79 4386.64 1234.73 4385.06 1233.94 4383.21C1233.15 4381.36 1232.75 4379.05 1232.75 4376.3C1232.75 4373.35 1233.26 4370.73 1234.28 4368.42C1235.34 4366.08 1236.79 4364.12 1238.64 4362.53C1240.49 4360.91 1242.7 4359.68 1245.27 4358.85C1247.84 4357.98 1250.67 4357.55 1253.76 4357.55C1255.35 4357.55 1256.86 4357.64 1258.29 4357.83C1259.77 4358.02 1261.13 4358.29 1262.37 4358.62H1278.4C1279.04 4358.62 1279.55 4359.04 1279.93 4359.87C1280.35 4360.7 1280.55 4362.1 1280.55 4364.06ZM1262.26 4376.01C1262.26 4373.29 1261.5 4371.18 1259.99 4369.67C1258.48 4368.16 1256.35 4367.4 1253.59 4367.4C1252.2 4367.4 1250.97 4367.65 1249.91 4368.14C1248.85 4368.59 1247.97 4369.24 1247.25 4370.07C1246.57 4370.86 1246.06 4371.8 1245.72 4372.9C1245.38 4373.96 1245.21 4375.07 1245.21 4376.24C1245.21 4378.81 1245.97 4380.85 1247.48 4382.36C1248.99 4383.83 1251.08 4384.57 1253.76 4384.57C1255.2 4384.57 1256.44 4384.34 1257.5 4383.89C1258.56 4383.43 1259.43 4382.81 1260.11 4382.02C1260.82 4381.22 1261.35 4380.32 1261.69 4379.3C1262.07 4378.24 1262.26 4377.15 1262.26 4376.01ZM1265.6 4416.34C1265.6 4414.64 1264.92 4413.34 1263.56 4412.43C1262.2 4411.53 1260.33 4411.04 1257.96 4410.96L1247.82 4410.68C1246.83 4411.4 1246.04 4412.09 1245.44 4412.77C1244.87 4413.42 1244.4 4414.04 1244.02 4414.64C1243.68 4415.25 1243.46 4415.83 1243.34 4416.4C1243.23 4416.96 1243.17 4417.55 1243.17 4418.15C1243.17 4420.04 1244.12 4421.48 1246 4422.46C1247.93 4423.44 1250.63 4423.93 1254.1 4423.93C1256.26 4423.93 1258.07 4423.71 1259.54 4423.25C1261.01 4422.84 1262.2 4422.27 1263.11 4421.55C1264.02 4420.84 1264.66 4420.02 1265.04 4419.12C1265.41 4418.25 1265.6 4417.32 1265.6 4416.34ZM1306.84 4404.84C1306.84 4408.36 1306.21 4410.72 1304.97 4411.92C1303.76 4413.13 1301.57 4413.74 1298.4 4413.74C1295.22 4413.74 1293.03 4413.15 1291.83 4411.98C1290.62 4410.77 1290.01 4408.51 1290.01 4405.18C1290.01 4401.63 1290.62 4399.26 1291.83 4398.05C1293.07 4396.84 1295.3 4396.23 1298.51 4396.23C1301.64 4396.23 1303.82 4396.84 1305.02 4398.05C1306.23 4399.22 1306.84 4401.48 1306.84 4404.84ZM1396.38 4362.82C1396.38 4363.72 1396.33 4364.5 1396.21 4365.14C1396.1 4365.74 1395.95 4366.23 1395.76 4366.61C1395.57 4366.99 1395.33 4367.27 1395.03 4367.46C1394.76 4367.61 1394.48 4367.69 1394.18 4367.69H1387.72L1385.79 4383.83H1391.34C1391.99 4383.83 1392.5 4384.21 1392.87 4384.96C1393.29 4385.68 1393.5 4386.91 1393.5 4388.64C1393.5 4389.55 1393.44 4390.32 1393.33 4390.97C1393.21 4391.61 1393.06 4392.12 1392.87 4392.5C1392.68 4392.87 1392.44 4393.16 1392.14 4393.35C1391.87 4393.5 1391.59 4393.57 1391.29 4393.57H1384.55L1382.45 4411.3C1382.41 4411.64 1382.3 4411.94 1382.11 4412.21C1381.96 4412.43 1381.66 4412.64 1381.21 4412.83C1380.79 4413.02 1380.2 4413.15 1379.45 4413.23C1378.73 4413.3 1377.81 4413.34 1376.67 4413.34C1375.47 4413.34 1374.48 4413.3 1373.73 4413.23C1373.01 4413.15 1372.46 4413.02 1372.09 4412.83C1371.71 4412.64 1371.44 4412.43 1371.29 4412.21C1371.18 4411.94 1371.14 4411.64 1371.18 4411.3L1373.33 4393.57H1360.64L1358.55 4411.3C1358.51 4411.6 1358.4 4411.89 1358.21 4412.15C1358.06 4412.41 1357.77 4412.64 1357.36 4412.83C1356.94 4413.02 1356.36 4413.15 1355.6 4413.23C1354.89 4413.3 1353.92 4413.34 1352.71 4413.34C1351.54 4413.34 1350.6 4413.3 1349.88 4413.23C1349.17 4413.15 1348.6 4413.02 1348.18 4412.83C1347.81 4412.64 1347.54 4412.43 1347.39 4412.21C1347.28 4411.94 1347.26 4411.64 1347.33 4411.3L1349.37 4393.57H1343.99C1343.35 4393.57 1342.82 4393.21 1342.41 4392.5C1342.03 4391.78 1341.84 4390.53 1341.84 4388.76C1341.84 4387.85 1341.9 4387.08 1342.01 4386.44C1342.12 4385.79 1342.27 4385.28 1342.46 4384.91C1342.65 4384.53 1342.88 4384.26 1343.14 4384.11C1343.41 4383.92 1343.71 4383.83 1344.05 4383.83H1350.62L1352.54 4367.69H1346.82C1346.18 4367.69 1345.65 4367.33 1345.24 4366.61C1344.86 4365.89 1344.67 4364.65 1344.67 4362.87C1344.67 4361.06 1344.88 4359.8 1345.29 4359.08C1345.71 4358.36 1346.24 4358 1346.88 4358H1353.68L1355.72 4341.46C1355.72 4341.12 1355.81 4340.84 1356 4340.61C1356.19 4340.35 1356.51 4340.12 1356.96 4339.93C1357.42 4339.74 1358.02 4339.61 1358.78 4339.54C1359.53 4339.42 1360.49 4339.37 1361.66 4339.37C1362.83 4339.37 1363.78 4339.42 1364.5 4339.54C1365.21 4339.61 1365.76 4339.74 1366.14 4339.93C1366.52 4340.12 1366.74 4340.35 1366.82 4340.61C1366.93 4340.84 1366.99 4341.1 1366.99 4341.41L1364.89 4358H1377.58L1379.51 4341.46C1379.54 4341.16 1379.66 4340.88 1379.85 4340.61C1380.03 4340.35 1380.34 4340.12 1380.75 4339.93C1381.21 4339.74 1381.81 4339.61 1382.56 4339.54C1383.32 4339.42 1384.3 4339.37 1385.51 4339.37C1386.68 4339.37 1387.62 4339.42 1388.34 4339.54C1389.06 4339.61 1389.61 4339.74 1389.98 4339.93C1390.36 4340.12 1390.59 4340.35 1390.66 4340.61C1390.78 4340.84 1390.82 4341.1 1390.78 4341.41L1388.79 4358H1394.23C1394.87 4358 1395.38 4358.38 1395.76 4359.13C1396.18 4359.85 1396.38 4361.08 1396.38 4362.82ZM1363.76 4367.69L1361.83 4383.83H1374.46L1376.45 4367.69H1363.76Z" fill="black"/>
</svg>
