<svg width="3450" height="2210" viewBox="0 0 3450 2210" fill="none" xmlns="http://www.w3.org/2000/svg">
<g filter="url(#filter0_d_43_64)">
<path d="M2009.17 1245V1194.89H2022.5C2027.47 1194.89 2030.71 1195.13 2032.24 1195.61C2034.68 1196.39 2036.68 1198.04 2038.26 1200.57C2039.85 1203.1 2040.65 1206.35 2040.65 1210.34C2040.65 1213.96 2039.97 1217.01 2038.6 1219.47C2037.23 1221.91 2035.52 1223.63 2033.47 1224.63C2031.42 1225.61 2027.89 1226.1 2022.88 1226.1H2017.44V1245H2009.17ZM2017.44 1203.37V1217.59H2022.02C2025.1 1217.59 2027.18 1217.37 2028.28 1216.94C2029.39 1216.51 2030.3 1215.73 2031.01 1214.61C2031.72 1213.47 2032.07 1212.08 2032.07 1210.44C2032.07 1208.78 2031.71 1207.38 2030.98 1206.24C2030.25 1205.1 2029.35 1204.34 2028.28 1203.95C2027.21 1203.56 2024.94 1203.37 2021.47 1203.37H2017.44ZM2060.57 1245H2052.68V1208.7H2059.99V1213.86C2061.24 1211.45 2062.36 1209.85 2063.34 1209.08C2064.34 1208.28 2065.49 1207.88 2066.79 1207.88C2068.59 1207.88 2070.31 1208.48 2071.95 1209.69L2069.49 1218.07C2068.19 1217.02 2066.96 1216.49 2065.8 1216.49C2064.71 1216.49 2063.74 1216.9 2062.89 1217.72C2062.07 1218.52 2061.48 1219.98 2061.12 1222.1C2060.75 1224.22 2060.57 1228.12 2060.57 1233.79V1245ZM2079.12 1226.34C2079.12 1222.78 2079.83 1219.55 2081.24 1216.63C2082.66 1213.71 2084.5 1211.53 2086.78 1210.07C2089.06 1208.61 2091.62 1207.88 2094.47 1207.88C2099.26 1207.88 2103.02 1209.76 2105.75 1213.52C2108.49 1217.26 2109.85 1221.63 2109.85 1226.65C2109.85 1230.38 2109.13 1233.75 2107.7 1236.76C2106.29 1239.77 2104.42 1242.04 2102.09 1243.56C2099.79 1245.07 2097.26 1245.82 2094.51 1245.82C2090.09 1245.82 2086.42 1244.13 2083.5 1240.76C2080.58 1237.39 2079.12 1232.58 2079.12 1226.34ZM2087.19 1226.85C2087.19 1230.52 2087.91 1233.3 2089.34 1235.19C2090.78 1237.06 2092.51 1237.99 2094.54 1237.99C2096.52 1237.99 2098.22 1237.05 2099.63 1235.16C2101.05 1233.26 2101.75 1230.47 2101.75 1226.78C2101.75 1223.18 2101.03 1220.44 2099.6 1218.54C2098.16 1216.65 2096.44 1215.71 2094.44 1215.71C2092.45 1215.71 2090.75 1216.65 2089.31 1218.54C2087.9 1220.44 2087.19 1223.2 2087.19 1226.85ZM2129.81 1245L2117.81 1208.7H2126.08L2131.69 1227.23L2133.29 1233.41L2134.97 1227.23L2140.64 1208.7H2148.71L2136.88 1245H2129.81ZM2159.16 1203.78V1194.89H2167.06V1203.78H2159.16ZM2159.16 1245V1208.7H2167.06V1245H2159.16ZM2208.07 1245H2200.72V1239.67C2199.51 1241.72 2198.09 1243.26 2196.45 1244.28C2194.81 1245.31 2193.12 1245.82 2191.39 1245.82C2188.06 1245.82 2185.16 1244.17 2182.67 1240.86C2180.21 1237.54 2178.98 1232.8 2178.98 1226.65C2178.98 1220.45 2180.19 1215.78 2182.6 1212.63C2185.02 1209.46 2187.99 1207.88 2191.53 1207.88C2193.19 1207.88 2194.74 1208.3 2196.17 1209.15C2197.63 1209.99 2198.97 1211.25 2200.17 1212.94V1194.89H2208.07V1245ZM2187.05 1226.06C2187.05 1229.35 2187.32 1231.8 2187.87 1233.41C2188.44 1235.01 2189.24 1236.22 2190.26 1237.04C2191.31 1237.83 2192.48 1238.23 2193.78 1238.23C2195.51 1238.23 2197.02 1237.3 2198.29 1235.43C2199.57 1233.56 2200.21 1230.75 2200.21 1226.99C2200.21 1222.82 2199.58 1219.82 2198.33 1218C2197.1 1216.15 2195.52 1215.23 2193.61 1215.23C2191.79 1215.23 2190.24 1216.13 2188.96 1217.93C2187.69 1219.73 2187.05 1222.44 2187.05 1226.06ZM2238.69 1233.45L2246.52 1235.05C2245.47 1238.7 2243.84 1241.41 2241.63 1243.19C2239.42 1244.94 2236.73 1245.82 2233.56 1245.82C2229.16 1245.82 2225.77 1244.35 2223.38 1241.41C2220.55 1237.99 2219.14 1233.21 2219.14 1227.06C2219.14 1220.99 2220.56 1216.14 2223.41 1212.5C2225.82 1209.42 2228.95 1207.88 2232.77 1207.88C2237.04 1207.88 2240.37 1209.45 2242.79 1212.6C2245.57 1216.2 2246.96 1221.51 2246.96 1228.53L2246.93 1229.62H2227.2C2227.25 1232.49 2227.89 1234.71 2229.12 1236.28C2230.37 1237.86 2231.87 1238.64 2233.63 1238.64C2236.16 1238.64 2237.84 1236.91 2238.69 1233.45ZM2239.13 1223.74C2239.06 1220.91 2238.46 1218.8 2237.32 1217.38C2236.18 1215.95 2234.83 1215.23 2233.25 1215.23C2231.59 1215.23 2230.19 1215.97 2229.05 1217.45C2227.89 1218.96 2227.32 1221.05 2227.34 1223.74H2239.13ZM2266.5 1245H2258.61V1208.7H2265.92V1213.86C2267.18 1211.45 2268.29 1209.85 2269.27 1209.08C2270.28 1208.28 2271.43 1207.88 2272.73 1207.88C2274.53 1207.88 2276.25 1208.48 2277.89 1209.69L2275.43 1218.07C2274.13 1217.02 2272.9 1216.49 2271.73 1216.49C2270.64 1216.49 2269.67 1216.9 2268.83 1217.72C2268.01 1218.52 2267.42 1219.98 2267.05 1222.1C2266.69 1224.22 2266.5 1228.12 2266.5 1233.79V1245ZM2308.77 1245V1195.3H2317.05V1236.56H2337.69V1245H2308.77ZM2366.43 1233.45L2374.26 1235.05C2373.21 1238.7 2371.58 1241.41 2369.37 1243.19C2367.16 1244.94 2364.47 1245.82 2361.3 1245.82C2356.9 1245.82 2353.51 1244.35 2351.12 1241.41C2348.29 1237.99 2346.88 1233.21 2346.88 1227.06C2346.88 1220.99 2348.3 1216.14 2351.15 1212.5C2353.57 1209.42 2356.69 1207.88 2360.52 1207.88C2364.78 1207.88 2368.12 1209.45 2370.53 1212.6C2373.31 1216.2 2374.7 1221.51 2374.7 1228.53L2374.67 1229.62H2354.95C2354.99 1232.49 2355.63 1234.71 2356.86 1236.28C2358.11 1237.86 2359.62 1238.64 2361.37 1238.64C2363.9 1238.64 2365.59 1236.91 2366.43 1233.45ZM2366.87 1223.74C2366.81 1220.91 2366.2 1218.8 2365.06 1217.38C2363.92 1215.95 2362.57 1215.23 2361 1215.23C2359.33 1215.23 2357.93 1215.97 2356.79 1217.45C2355.63 1218.96 2355.06 1221.05 2355.08 1223.74H2366.87ZM2394.86 1245L2382.86 1208.7H2391.14L2396.74 1227.23L2398.35 1233.41L2400.02 1227.23L2405.7 1208.7H2413.76L2401.94 1245H2394.86ZM2441.48 1233.45L2449.3 1235.05C2448.26 1238.7 2446.63 1241.41 2444.42 1243.19C2442.21 1244.94 2439.52 1245.82 2436.35 1245.82C2431.95 1245.82 2428.56 1244.35 2426.16 1241.41C2423.34 1237.99 2421.93 1233.21 2421.93 1227.06C2421.93 1220.99 2423.35 1216.14 2426.2 1212.5C2428.61 1209.42 2431.74 1207.88 2435.56 1207.88C2439.83 1207.88 2443.16 1209.45 2445.58 1212.6C2448.36 1216.2 2449.75 1221.51 2449.75 1228.53L2449.71 1229.62H2429.99C2430.04 1232.49 2430.68 1234.71 2431.91 1236.28C2433.16 1237.86 2434.66 1238.64 2436.42 1238.64C2438.95 1238.64 2440.63 1236.91 2441.48 1233.45ZM2441.92 1223.74C2441.85 1220.91 2441.25 1218.8 2440.11 1217.38C2438.97 1215.95 2437.62 1215.23 2436.04 1215.23C2434.38 1215.23 2432.98 1215.97 2431.84 1217.45C2430.68 1218.96 2430.11 1221.05 2430.13 1223.74H2441.92ZM2461.74 1245V1194.89H2469.64V1245H2461.74Z" fill="white"/>
</g>
<defs>
<filter id="filter0_d_43_64" x="2001.17" y="1189.89" width="480.466" height="70.9277" filterUnits="userSpaceOnUse" color-interpolation-filters="sRGB">
<feFlood flood-opacity="0" result="BackgroundImageFix"/>
<feColorMatrix in="SourceAlpha" type="matrix" values="0 0 0 0 0 0 0 0 0 0 0 0 0 0 0 0 0 0 127 0" result="hardAlpha"/>
<feOffset dx="2" dy="5"/>
<feGaussianBlur stdDeviation="5"/>
<feComposite in2="hardAlpha" operator="out"/>
<feColorMatrix type="matrix" values="0 0 0 0 0 0 0 0 0 0 0 0 0 0 0 0 0 0 1 0"/>
<feBlend mode="normal" in2="BackgroundImageFix" result="effect1_dropShadow_43_64"/>
<feBlend mode="normal" in="SourceGraphic" in2="effect1_dropShadow_43_64" result="shape"/>
</filter>
</defs>
</svg>
