<svg width="3450" height="2210" viewBox="0 0 3450 2210" fill="none" xmlns="http://www.w3.org/2000/svg">
<g clip-path="url(#clip0_43_64)">
<path d="M1156.41 1431V1330.79H1217.38V1347.74H1172.95V1369.96H1214.24V1386.84H1172.95V1414.12H1218.89V1431H1156.41ZM1233.28 1358.4H1247.78V1368.31C1250.37 1364.44 1253.22 1361.55 1256.32 1359.63C1259.42 1357.72 1262.77 1356.76 1266.37 1356.76C1270.2 1356.76 1273.5 1357.72 1276.28 1359.63C1279.11 1361.55 1281.41 1364.44 1283.19 1368.31C1285.83 1364.44 1288.65 1361.55 1291.66 1359.63C1294.72 1357.72 1297.95 1356.76 1301.37 1356.76C1305.43 1356.76 1308.91 1357.74 1311.83 1359.7C1314.79 1361.62 1317.02 1364.37 1318.53 1367.97C1320.08 1371.57 1320.85 1377.11 1320.85 1384.58V1431H1305.06V1389.51C1305.06 1382.26 1304.42 1377.45 1303.15 1375.08C1301.87 1372.67 1299.73 1371.46 1296.72 1371.46C1293.21 1371.46 1290.39 1373.15 1288.24 1376.52C1286.1 1379.84 1285.03 1386.38 1285.03 1396.14V1431H1269.24V1391.21C1269.24 1383.33 1268.81 1378.25 1267.94 1375.97C1266.8 1372.96 1264.5 1371.46 1261.04 1371.46C1258.71 1371.46 1256.57 1372.23 1254.61 1373.78C1252.65 1375.33 1251.24 1377.61 1250.37 1380.62C1249.51 1383.58 1249.07 1388.62 1249.07 1395.73V1431H1233.28V1358.4ZM1372.84 1407.89L1388.5 1411.11C1386.4 1418.4 1383.14 1423.82 1378.72 1427.38C1374.3 1430.89 1368.93 1432.64 1362.59 1432.64C1353.79 1432.64 1347 1429.7 1342.22 1423.82C1336.57 1416.99 1333.74 1407.42 1333.74 1395.11C1333.74 1382.99 1336.59 1373.28 1342.29 1365.99C1347.12 1359.84 1353.36 1356.76 1361.02 1356.76C1369.54 1356.76 1376.22 1359.91 1381.05 1366.2C1386.61 1373.4 1389.39 1384.01 1389.39 1398.05L1389.32 1400.24H1349.88C1349.97 1405.98 1351.24 1410.42 1353.7 1413.57C1356.21 1416.71 1359.22 1418.29 1362.73 1418.29C1367.79 1418.29 1371.16 1414.82 1372.84 1407.89ZM1373.73 1388.48C1373.6 1382.83 1372.39 1378.59 1370.11 1375.77C1367.83 1372.89 1365.12 1371.46 1361.98 1371.46C1358.65 1371.46 1355.85 1372.94 1353.57 1375.9C1351.24 1378.91 1350.1 1383.1 1350.15 1388.48H1373.73ZM1418.96 1431H1403.17V1358.4H1417.8V1368.72C1420.3 1363.89 1422.54 1360.7 1424.5 1359.15C1426.5 1357.56 1428.8 1356.76 1431.4 1356.76C1435 1356.76 1438.44 1357.97 1441.72 1360.38L1436.8 1377.13C1434.2 1375.04 1431.74 1373.99 1429.42 1373.99C1427.23 1373.99 1425.29 1374.81 1423.61 1376.45C1421.97 1378.04 1420.78 1380.96 1420.05 1385.2C1419.32 1389.44 1418.96 1397.23 1418.96 1408.58V1431ZM1448.73 1435.79L1466.78 1438.45C1467.05 1441.09 1467.87 1442.96 1469.24 1444.06C1470.65 1445.2 1472.86 1445.77 1475.87 1445.77C1479.34 1445.77 1482.14 1445.2 1484.28 1444.06C1485.78 1443.24 1486.95 1441.87 1487.77 1439.96C1488.59 1438.04 1489 1434.67 1489 1429.84V1419.24C1486.63 1423.16 1483.96 1426.1 1481 1428.06C1478.04 1430.02 1474.76 1431 1471.16 1431C1464.55 1431 1458.99 1428.01 1454.48 1422.04C1449.28 1415.21 1446.68 1405.96 1446.68 1394.29C1446.68 1381.9 1449.12 1372.55 1454 1366.26C1458.92 1359.93 1464.87 1356.76 1471.84 1356.76C1475.53 1356.76 1478.88 1357.74 1481.89 1359.7C1484.94 1361.66 1487.65 1364.62 1490.02 1368.59V1358.4H1504.79V1423.55C1504.79 1433.99 1503.83 1441.55 1501.92 1446.24C1500 1450.94 1497.04 1454.47 1493.03 1456.84C1489.07 1459.26 1483.55 1460.46 1476.49 1460.46C1469.97 1460.46 1464.75 1459.6 1460.83 1457.87C1456.91 1456.13 1453.91 1453.54 1451.81 1450.07C1449.76 1446.65 1448.73 1442.69 1448.73 1438.18V1435.79ZM1462.82 1393.2C1462.82 1400.94 1464.05 1406.6 1466.51 1410.15C1469.01 1413.71 1472.02 1415.48 1475.53 1415.48C1479.31 1415.48 1482.55 1413.68 1485.24 1410.08C1487.93 1406.48 1489.27 1401.01 1489.27 1393.68C1489.27 1386.11 1487.97 1380.53 1485.37 1376.93C1482.82 1373.28 1479.65 1371.46 1475.87 1371.46C1472.14 1371.46 1469.01 1373.24 1466.51 1376.79C1464.05 1380.35 1462.82 1385.81 1462.82 1393.2ZM1556.58 1407.89L1572.23 1411.11C1570.13 1418.4 1566.88 1423.82 1562.45 1427.38C1558.03 1430.89 1552.66 1432.64 1546.32 1432.64C1537.53 1432.64 1530.74 1429.7 1525.95 1423.82C1520.3 1416.99 1517.47 1407.42 1517.47 1395.11C1517.47 1382.99 1520.32 1373.28 1526.02 1365.99C1530.85 1359.84 1537.09 1356.76 1544.75 1356.76C1553.27 1356.76 1559.95 1359.91 1564.78 1366.2C1570.34 1373.4 1573.12 1384.01 1573.12 1398.05L1573.05 1400.24H1533.61C1533.7 1405.98 1534.97 1410.42 1537.44 1413.57C1539.94 1416.71 1542.95 1418.29 1546.46 1418.29C1551.52 1418.29 1554.89 1414.82 1556.58 1407.89ZM1557.46 1388.48C1557.33 1382.83 1556.12 1378.59 1553.84 1375.77C1551.56 1372.89 1548.85 1371.46 1545.71 1371.46C1542.38 1371.46 1539.58 1372.94 1537.3 1375.9C1534.97 1378.91 1533.83 1383.1 1533.88 1388.48H1557.46ZM1641.72 1431H1625.93V1393.95C1625.93 1386.52 1625.64 1381.58 1625.04 1379.12C1624.45 1376.65 1623.33 1374.76 1621.69 1373.44C1620.1 1372.12 1618.28 1371.46 1616.22 1371.46C1613.58 1371.46 1611.19 1372.32 1609.05 1374.06C1606.9 1375.74 1605.4 1378.09 1604.54 1381.1C1603.67 1384.11 1603.24 1389.78 1603.24 1398.12V1431H1587.45V1358.4H1602.07V1369.07C1604.67 1364.96 1607.59 1361.89 1610.82 1359.84C1614.11 1357.79 1617.73 1356.76 1621.69 1356.76C1626.3 1356.76 1630.17 1357.97 1633.31 1360.38C1636.5 1362.75 1638.69 1365.83 1639.88 1369.61C1641.11 1373.35 1641.72 1378.77 1641.72 1385.88V1431ZM1711.28 1379.87L1695.77 1383.29C1694.63 1375.67 1691.05 1371.87 1685.03 1371.87C1681.16 1371.87 1678.04 1373.51 1675.67 1376.79C1673.3 1380.07 1672.11 1385.61 1672.11 1393.4C1672.11 1402.02 1673.3 1408.1 1675.67 1411.65C1678.04 1415.21 1681.21 1416.99 1685.17 1416.99C1688.13 1416.99 1690.57 1415.98 1692.48 1413.98C1694.4 1411.93 1695.77 1408.33 1696.59 1403.18L1712.1 1406.39C1708.91 1423.89 1699.73 1432.64 1684.55 1432.64C1674.85 1432.64 1667.65 1428.95 1662.95 1421.57C1658.26 1414.18 1655.91 1405.3 1655.91 1394.91C1655.91 1382.46 1658.56 1373.01 1663.84 1366.54C1669.17 1360.02 1676.15 1356.76 1684.76 1356.76C1691.73 1356.76 1697.41 1358.61 1701.78 1362.3C1706.2 1365.99 1709.37 1371.85 1711.28 1379.87ZM1717.41 1358.4H1734.22L1748.37 1409.95L1762.32 1358.4H1778.59L1757.6 1428.27L1753.57 1441.87C1751.79 1446.97 1750.01 1450.71 1748.24 1453.08C1746.51 1455.45 1744.27 1457.27 1741.54 1458.55C1738.85 1459.82 1735.52 1460.46 1731.56 1460.46C1728.5 1460.46 1725.52 1460.08 1722.6 1459.3L1721.23 1444.26C1723.7 1444.85 1725.91 1445.15 1727.87 1445.15C1730.87 1445.15 1733.33 1444.15 1735.25 1442.14C1737.21 1440.14 1738.8 1436.49 1740.03 1431.21L1717.41 1358.4ZM1823.99 1431V1330.79H1848.8L1863.71 1399.14L1878.47 1330.79H1903.35V1431H1887.97V1352.11L1871.64 1431H1855.64L1839.44 1352.11V1431H1823.99ZM1956.03 1407.89L1971.69 1411.11C1969.59 1418.4 1966.33 1423.82 1961.91 1427.38C1957.49 1430.89 1952.11 1432.64 1945.78 1432.64C1936.98 1432.64 1930.19 1429.7 1925.41 1423.82C1919.75 1416.99 1916.93 1407.42 1916.93 1395.11C1916.93 1382.99 1919.78 1373.28 1925.47 1365.99C1930.3 1359.84 1936.55 1356.76 1944.2 1356.76C1952.73 1356.76 1959.4 1359.91 1964.23 1366.2C1969.79 1373.4 1972.57 1384.01 1972.57 1398.05L1972.51 1400.24H1933.06C1933.15 1405.98 1934.43 1410.42 1936.89 1413.57C1939.4 1416.71 1942.4 1418.29 1945.91 1418.29C1950.97 1418.29 1954.34 1414.82 1956.03 1407.89ZM1956.92 1388.48C1956.78 1382.83 1955.58 1378.59 1953.3 1375.77C1951.02 1372.89 1948.31 1371.46 1945.16 1371.46C1941.83 1371.46 1939.03 1372.94 1936.75 1375.9C1934.43 1378.91 1933.29 1383.1 1933.34 1388.48H1956.92ZM2041.66 1431H2026.96V1420.34C2024.54 1424.44 2021.7 1427.51 2018.41 1429.56C2015.13 1431.62 2011.76 1432.64 2008.3 1432.64C2001.64 1432.64 1995.83 1429.34 1990.87 1422.73C1985.94 1416.07 1983.48 1406.6 1983.48 1394.29C1983.48 1381.9 1985.9 1372.55 1990.73 1366.26C1995.56 1359.93 2001.51 1356.76 2008.57 1356.76C2011.9 1356.76 2015 1357.6 2017.87 1359.29C2020.78 1360.98 2023.45 1363.51 2025.87 1366.88V1330.79H2041.66V1431ZM1999.62 1393.13C1999.62 1399.69 2000.16 1404.59 2001.26 1407.83C2002.39 1411.02 2003.99 1413.43 2006.04 1415.07C2008.14 1416.67 2010.48 1417.46 2013.08 1417.46C2016.55 1417.46 2019.55 1415.6 2022.11 1411.86C2024.66 1408.12 2025.93 1402.49 2025.93 1394.97C2025.93 1386.63 2024.68 1380.64 2022.17 1377C2019.71 1373.3 2016.57 1371.46 2012.74 1371.46C2009.09 1371.46 2006 1373.26 2003.44 1376.86C2000.89 1380.46 1999.62 1385.88 1999.62 1393.13ZM2058.85 1348.56V1330.79H2074.64V1348.56H2058.85ZM2058.85 1431V1358.4H2074.64V1431H2058.85ZM2144.41 1379.87L2128.89 1383.29C2127.75 1375.67 2124.18 1371.87 2118.16 1371.87C2114.29 1371.87 2111.17 1373.51 2108.8 1376.79C2106.43 1380.07 2105.24 1385.61 2105.24 1393.4C2105.24 1402.02 2106.43 1408.1 2108.8 1411.65C2111.17 1415.21 2114.33 1416.99 2118.3 1416.99C2121.26 1416.99 2123.7 1415.98 2125.61 1413.98C2127.53 1411.93 2128.89 1408.33 2129.71 1403.18L2145.23 1406.39C2142.04 1423.89 2132.86 1432.64 2117.68 1432.64C2107.98 1432.64 2100.77 1428.95 2096.08 1421.57C2091.39 1414.18 2089.04 1405.3 2089.04 1394.91C2089.04 1382.46 2091.68 1373.01 2096.97 1366.54C2102.3 1360.02 2109.27 1356.76 2117.89 1356.76C2124.86 1356.76 2130.53 1358.61 2134.91 1362.3C2139.33 1365.99 2142.5 1371.85 2144.41 1379.87ZM2169.81 1380.55L2155.52 1377.41C2157.26 1370.07 2160.1 1364.81 2164.07 1361.62C2168.08 1358.38 2173.82 1356.76 2181.3 1356.76C2187.95 1356.76 2193.03 1357.7 2196.54 1359.56C2200.05 1361.43 2202.56 1363.99 2204.06 1367.22C2205.56 1370.41 2206.32 1376.24 2206.32 1384.72L2206.18 1407.14C2206.18 1413.43 2206.43 1418.13 2206.93 1421.22C2207.43 1424.28 2208.37 1427.54 2209.73 1431H2194.15L2192.1 1423.07C2189.41 1426.26 2186.51 1428.65 2183.41 1430.25C2180.36 1431.84 2177.1 1432.64 2173.64 1432.64C2167.85 1432.64 2163.11 1430.7 2159.42 1426.83C2155.73 1422.91 2153.88 1417.72 2153.88 1411.24C2153.88 1407.14 2154.64 1403.57 2156.14 1400.51C2157.64 1397.46 2159.76 1395.02 2162.5 1393.2C2165.23 1391.37 2169.61 1389.76 2175.62 1388.34C2182.91 1386.66 2187.99 1385.09 2190.87 1383.63C2190.87 1379.62 2190.57 1377 2189.98 1375.77C2189.43 1374.49 2188.38 1373.46 2186.83 1372.69C2185.33 1371.87 2183.19 1371.46 2180.41 1371.46C2177.58 1371.46 2175.35 1372.1 2173.71 1373.37C2172.11 1374.65 2170.81 1377.04 2169.81 1380.55ZM2190.87 1396.14C2188.86 1396.96 2185.74 1397.91 2181.5 1399.01C2176.62 1400.28 2173.43 1401.7 2171.93 1403.25C2170.43 1404.8 2169.67 1406.8 2169.67 1409.26C2169.67 1412.04 2170.49 1414.39 2172.14 1416.3C2173.82 1418.17 2175.92 1419.11 2178.42 1419.11C2180.66 1419.11 2182.87 1418.35 2185.06 1416.85C2187.24 1415.3 2188.75 1413.48 2189.57 1411.38C2190.43 1409.28 2190.87 1405.48 2190.87 1399.96V1396.14ZM2223.58 1431V1330.79H2239.37V1431H2223.58ZM2309.52 1431V1347.74H2285.11V1330.79H2350.4V1347.74H2326.06V1431H2309.52ZM2388.79 1407.89L2404.44 1411.11C2402.35 1418.4 2399.09 1423.82 2394.67 1427.38C2390.25 1430.89 2384.87 1432.64 2378.53 1432.64C2369.74 1432.64 2362.95 1429.7 2358.16 1423.82C2352.51 1416.99 2349.69 1407.42 2349.69 1395.11C2349.69 1382.99 2352.53 1373.28 2358.23 1365.99C2363.06 1359.84 2369.3 1356.76 2376.96 1356.76C2385.48 1356.76 2392.16 1359.91 2396.99 1366.2C2402.55 1373.4 2405.33 1384.01 2405.33 1398.05L2405.26 1400.24H2365.82C2365.91 1405.98 2367.19 1410.42 2369.65 1413.57C2372.15 1416.71 2375.16 1418.29 2378.67 1418.29C2383.73 1418.29 2387.1 1414.82 2388.79 1407.89ZM2389.68 1388.48C2389.54 1382.83 2388.33 1378.59 2386.05 1375.77C2383.77 1372.89 2381.06 1371.46 2377.92 1371.46C2374.59 1371.46 2371.79 1372.94 2369.51 1375.9C2367.19 1378.91 2366.05 1383.1 2366.09 1388.48H2389.68ZM2471.68 1379.87L2456.16 1383.29C2455.02 1375.67 2451.44 1371.87 2445.43 1371.87C2441.55 1371.87 2438.43 1373.51 2436.06 1376.79C2433.69 1380.07 2432.51 1385.61 2432.51 1393.4C2432.51 1402.02 2433.69 1408.1 2436.06 1411.65C2438.43 1415.21 2441.6 1416.99 2445.56 1416.99C2448.53 1416.99 2450.97 1415.98 2452.88 1413.98C2454.79 1411.93 2456.16 1408.33 2456.98 1403.18L2472.5 1406.39C2469.31 1423.89 2460.13 1432.64 2444.95 1432.64C2435.24 1432.64 2428.04 1428.95 2423.35 1421.57C2418.65 1414.18 2416.31 1405.3 2416.31 1394.91C2416.31 1382.46 2418.95 1373.01 2424.24 1366.54C2429.57 1360.02 2436.54 1356.76 2445.15 1356.76C2452.13 1356.76 2457.8 1358.61 2462.18 1362.3C2466.6 1365.99 2469.76 1371.85 2471.68 1379.87ZM2501.04 1330.79V1367.63C2503.55 1363.99 2506.31 1361.27 2509.32 1359.5C2512.37 1357.67 2515.67 1356.76 2519.23 1356.76C2523.97 1356.76 2527.93 1358.01 2531.12 1360.52C2534.31 1363.03 2536.59 1366.58 2537.96 1371.19C2538.96 1374.56 2539.46 1380.3 2539.46 1388.41V1431H2523.74V1392.65C2523.74 1383.76 2523.17 1378.2 2522.03 1375.97C2520.43 1372.96 2517.72 1371.46 2513.9 1371.46C2509.84 1371.46 2506.67 1373.1 2504.39 1376.38C2502.16 1379.62 2501.04 1385.7 2501.04 1394.63V1431H2485.25V1330.79H2501.04ZM2611.28 1431H2595.49V1393.95C2595.49 1386.52 2595.19 1381.58 2594.6 1379.12C2594.01 1376.65 2592.89 1374.76 2591.25 1373.44C2589.65 1372.12 2587.83 1371.46 2585.78 1371.46C2583.14 1371.46 2580.74 1372.32 2578.6 1374.06C2576.46 1375.74 2574.96 1378.09 2574.09 1381.1C2573.22 1384.11 2572.79 1389.78 2572.79 1398.12V1431H2557V1358.4H2571.63V1369.07C2574.23 1364.96 2577.14 1361.89 2580.38 1359.84C2583.66 1357.79 2587.28 1356.76 2591.25 1356.76C2595.85 1356.76 2599.73 1357.97 2602.87 1360.38C2606.06 1362.75 2608.25 1365.83 2609.43 1369.61C2610.66 1373.35 2611.28 1378.77 2611.28 1385.88V1431ZM2628.95 1348.56V1330.79H2644.75V1348.56H2628.95ZM2628.95 1431V1358.4H2644.75V1431H2628.95ZM2714.51 1379.87L2698.99 1383.29C2697.85 1375.67 2694.28 1371.87 2688.26 1371.87C2684.39 1371.87 2681.27 1373.51 2678.9 1376.79C2676.53 1380.07 2675.34 1385.61 2675.34 1393.4C2675.34 1402.02 2676.53 1408.1 2678.9 1411.65C2681.27 1415.21 2684.43 1416.99 2688.4 1416.99C2691.36 1416.99 2693.8 1415.98 2695.71 1413.98C2697.63 1411.93 2698.99 1408.33 2699.81 1403.18L2715.33 1406.39C2712.14 1423.89 2702.96 1432.64 2687.78 1432.64C2678.08 1432.64 2670.88 1428.95 2666.18 1421.57C2661.49 1414.18 2659.14 1405.3 2659.14 1394.91C2659.14 1382.46 2661.78 1373.01 2667.07 1366.54C2672.4 1360.02 2679.37 1356.76 2687.99 1356.76C2694.96 1356.76 2700.63 1358.61 2705.01 1362.3C2709.43 1365.99 2712.6 1371.85 2714.51 1379.87ZM2728.15 1348.56V1330.79H2743.95V1348.56H2728.15ZM2728.15 1431V1358.4H2743.95V1431H2728.15ZM2773.58 1380.55L2759.3 1377.41C2761.03 1370.07 2763.88 1364.81 2767.84 1361.62C2771.85 1358.38 2777.59 1356.76 2785.07 1356.76C2791.72 1356.76 2796.8 1357.7 2800.31 1359.56C2803.82 1361.43 2806.33 1363.99 2807.83 1367.22C2809.34 1370.41 2810.09 1376.24 2810.09 1384.72L2809.95 1407.14C2809.95 1413.43 2810.2 1418.13 2810.7 1421.22C2811.2 1424.28 2812.14 1427.54 2813.51 1431H2797.92L2795.87 1423.07C2793.18 1426.26 2790.29 1428.65 2787.19 1430.25C2784.13 1431.84 2780.88 1432.64 2777.41 1432.64C2771.62 1432.64 2766.89 1430.7 2763.19 1426.83C2759.5 1422.91 2757.66 1417.72 2757.66 1411.24C2757.66 1407.14 2758.41 1403.57 2759.91 1400.51C2761.42 1397.46 2763.54 1395.02 2766.27 1393.2C2769 1391.37 2773.38 1389.76 2779.39 1388.34C2786.69 1386.66 2791.77 1385.09 2794.64 1383.63C2794.64 1379.62 2794.34 1377 2793.75 1375.77C2793.2 1374.49 2792.16 1373.46 2790.61 1372.69C2789.1 1371.87 2786.96 1371.46 2784.18 1371.46C2781.35 1371.46 2779.12 1372.1 2777.48 1373.37C2775.89 1374.65 2774.59 1377.04 2773.58 1380.55ZM2794.64 1396.14C2792.63 1396.96 2789.51 1397.91 2785.27 1399.01C2780.4 1400.28 2777.21 1401.7 2775.7 1403.25C2774.2 1404.8 2773.45 1406.8 2773.45 1409.26C2773.45 1412.04 2774.27 1414.39 2775.91 1416.3C2777.59 1418.17 2779.69 1419.11 2782.2 1419.11C2784.43 1419.11 2786.64 1418.35 2788.83 1416.85C2791.02 1415.3 2792.52 1413.48 2793.34 1411.38C2794.21 1409.28 2794.64 1405.48 2794.64 1399.96V1396.14ZM2881.49 1431H2865.7V1393.95C2865.7 1386.52 2865.41 1381.58 2864.82 1379.12C2864.22 1376.65 2863.11 1374.76 2861.47 1373.44C2859.87 1372.12 2858.05 1371.46 2856 1371.46C2853.35 1371.46 2850.96 1372.32 2848.82 1374.06C2846.68 1375.74 2845.17 1378.09 2844.31 1381.1C2843.44 1384.11 2843.01 1389.78 2843.01 1398.12V1431H2827.22V1358.4H2841.85V1369.07C2844.44 1364.96 2847.36 1361.89 2850.6 1359.84C2853.88 1357.79 2857.5 1356.76 2861.47 1356.76C2866.07 1356.76 2869.94 1357.97 2873.09 1360.38C2876.28 1362.75 2878.46 1365.83 2879.65 1369.61C2880.88 1373.35 2881.49 1378.77 2881.49 1385.88V1431ZM2928.19 1404.27V1385.06H2959.16V1404.27H2928.19ZM3006.54 1330.79H3039.43C3048.4 1330.79 3054.72 1331.61 3058.36 1333.25C3062.01 1334.89 3065.08 1337.78 3067.59 1341.93C3070.1 1346.07 3071.35 1350.77 3071.35 1356.01C3071.35 1360.84 3070.28 1365.22 3068.14 1369.13C3065.99 1373.01 3063.21 1375.88 3059.8 1377.75C3064.67 1379.48 3068.48 1382.44 3071.21 1386.63C3073.99 1390.83 3075.38 1395.93 3075.38 1401.95C3075.38 1409.24 3073.63 1415.41 3070.12 1420.47C3066.61 1425.49 3062.46 1428.58 3057.68 1429.77C3054.35 1430.59 3046.63 1431 3034.5 1431H3006.54V1330.79ZM3023.09 1347.46V1370.64H3034.03C3040.59 1370.64 3044.64 1370.52 3046.19 1370.3C3049.02 1369.84 3051.23 1368.66 3052.82 1366.74C3054.42 1364.78 3055.22 1362.14 3055.22 1358.81C3055.22 1355.85 3054.56 1353.46 3053.23 1351.63C3051.96 1349.77 3050.39 1348.6 3048.52 1348.15C3046.69 1347.69 3041.41 1347.46 3032.66 1347.46H3023.09ZM3023.09 1387.32V1414.12H3038.47C3045.21 1414.12 3049.54 1413.77 3051.46 1413.09C3053.37 1412.36 3054.97 1410.97 3056.24 1408.92C3057.56 1406.82 3058.22 1404.18 3058.22 1400.99C3058.22 1397.71 3057.52 1395.02 3056.11 1392.92C3054.74 1390.78 3052.89 1389.32 3050.57 1388.55C3048.29 1387.73 3043.6 1387.32 3036.49 1387.32H3023.09ZM3102.77 1380.55L3088.48 1377.41C3090.21 1370.07 3093.06 1364.81 3097.02 1361.62C3101.03 1358.38 3106.78 1356.76 3114.25 1356.76C3120.9 1356.76 3125.99 1357.7 3129.49 1359.56C3133 1361.43 3135.51 1363.99 3137.01 1367.22C3138.52 1370.41 3139.27 1376.24 3139.27 1384.72L3139.13 1407.14C3139.13 1413.43 3139.38 1418.13 3139.89 1421.22C3140.39 1424.28 3141.32 1427.54 3142.69 1431H3127.1L3125.05 1423.07C3122.36 1426.26 3119.47 1428.65 3116.37 1430.25C3113.32 1431.84 3110.06 1432.64 3106.59 1432.64C3100.81 1432.64 3096.07 1430.7 3092.38 1426.83C3088.68 1422.91 3086.84 1417.72 3086.84 1411.24C3086.84 1407.14 3087.59 1403.57 3089.09 1400.51C3090.6 1397.46 3092.72 1395.02 3095.45 1393.2C3098.19 1391.37 3102.56 1389.76 3108.58 1388.34C3115.87 1386.66 3120.95 1385.09 3123.82 1383.63C3123.82 1379.62 3123.52 1377 3122.93 1375.77C3122.39 1374.49 3121.34 1373.46 3119.79 1372.69C3118.28 1371.87 3116.14 1371.46 3113.36 1371.46C3110.54 1371.46 3108.3 1372.1 3106.66 1373.37C3105.07 1374.65 3103.77 1377.04 3102.77 1380.55ZM3123.82 1396.14C3121.82 1396.96 3118.69 1397.91 3114.46 1399.01C3109.58 1400.28 3106.39 1401.7 3104.89 1403.25C3103.38 1404.8 3102.63 1406.8 3102.63 1409.26C3102.63 1412.04 3103.45 1414.39 3105.09 1416.3C3106.78 1418.17 3108.87 1419.11 3111.38 1419.11C3113.61 1419.11 3115.82 1418.35 3118.01 1416.85C3120.2 1415.3 3121.7 1413.48 3122.52 1411.38C3123.39 1409.28 3123.82 1405.48 3123.82 1399.96V1396.14ZM3151 1410.29L3166.79 1407.35C3168.16 1414.96 3172.4 1418.76 3179.5 1418.76C3183.29 1418.76 3186.11 1418.03 3187.98 1416.58C3189.85 1415.12 3190.78 1413.23 3190.78 1410.9C3190.78 1409.31 3190.37 1408.05 3189.55 1407.14C3188.69 1406.23 3186.98 1405.43 3184.43 1404.75C3171.48 1401.33 3163.26 1398.07 3159.75 1394.97C3155.37 1391.1 3153.19 1385.79 3153.19 1379.05C3153.19 1372.3 3155.33 1366.9 3159.61 1362.85C3163.9 1358.79 3170.12 1356.76 3178.27 1356.76C3186.07 1356.76 3191.99 1358.29 3196.05 1361.34C3200.1 1364.35 3202.95 1369.23 3204.59 1375.97L3189.76 1379.32C3188.44 1373.49 3184.7 1370.57 3178.55 1370.57C3174.67 1370.57 3171.92 1371.14 3170.28 1372.28C3168.64 1373.37 3167.81 1374.81 3167.81 1376.59C3167.81 1378.18 3168.57 1379.5 3170.07 1380.55C3171.57 1381.64 3176.25 1383.29 3184.08 1385.47C3192.88 1387.93 3198.85 1390.92 3201.99 1394.43C3205.09 1397.94 3206.64 1402.61 3206.64 1408.44C3206.64 1415.46 3204.23 1421.25 3199.4 1425.8C3194.61 1430.36 3187.98 1432.64 3179.5 1432.64C3171.8 1432.64 3165.51 1430.75 3160.64 1426.97C3155.76 1423.14 3152.55 1417.58 3151 1410.29ZM3222.06 1348.56V1330.79H3237.85V1348.56H3222.06ZM3222.06 1431V1358.4H3237.85V1431H3222.06ZM3307.62 1379.87L3292.1 1383.29C3290.96 1375.67 3287.39 1371.87 3281.37 1371.87C3277.5 1371.87 3274.37 1373.51 3272.01 1376.79C3269.64 1380.07 3268.45 1385.61 3268.45 1393.4C3268.45 1402.02 3269.64 1408.1 3272.01 1411.65C3274.37 1415.21 3277.54 1416.99 3281.51 1416.99C3284.47 1416.99 3286.91 1415.98 3288.82 1413.98C3290.74 1411.93 3292.1 1408.33 3292.92 1403.18L3308.44 1406.39C3305.25 1423.89 3296.07 1432.64 3280.89 1432.64C3271.18 1432.64 3263.98 1428.95 3259.29 1421.57C3254.6 1414.18 3252.25 1405.3 3252.25 1394.91C3252.25 1382.46 3254.89 1373.01 3260.18 1366.54C3265.51 1360.02 3272.48 1356.76 3281.1 1356.76C3288.07 1356.76 3293.74 1358.61 3298.12 1362.3C3302.54 1365.99 3305.71 1371.85 3307.62 1379.87Z" fill="black"/>
</g>
<defs>
<clipPath id="clip0_43_64">
<rect width="3450" height="2210" fill="white"/>
</clipPath>
</defs>
</svg>
