<svg width="3450" height="2210" viewBox="0 0 3450 2210" fill="none" xmlns="http://www.w3.org/2000/svg">
<path d="M1725.05 1810L1698.42 1741.28H1708.27L1726.12 1791.2C1727.56 1795.2 1728.77 1798.95 1729.73 1802.45C1730.8 1798.7 1732.03 1794.95 1733.44 1791.2L1752 1741.28H1761.28L1734.38 1810H1725.05ZM1793.72 1803.86C1790.59 1806.52 1787.58 1808.39 1784.67 1809.48C1781.8 1810.58 1778.7 1811.12 1775.39 1811.12C1769.92 1811.12 1765.72 1809.8 1762.78 1807.14C1759.84 1804.45 1758.38 1801.03 1758.38 1796.88C1758.38 1794.44 1758.92 1792.22 1760.02 1790.22C1761.14 1788.19 1762.59 1786.56 1764.38 1785.34C1766.19 1784.12 1768.22 1783.2 1770.47 1782.58C1772.12 1782.14 1774.62 1781.72 1777.97 1781.31C1784.78 1780.5 1789.8 1779.53 1793.02 1778.41C1793.05 1777.25 1793.06 1776.52 1793.06 1776.2C1793.06 1772.77 1792.27 1770.34 1790.67 1768.94C1788.52 1767.03 1785.31 1766.08 1781.06 1766.08C1777.09 1766.08 1774.16 1766.78 1772.25 1768.19C1770.38 1769.56 1768.98 1772.02 1768.08 1775.55L1759.83 1774.42C1760.58 1770.89 1761.81 1768.05 1763.53 1765.89C1765.25 1763.7 1767.73 1762.03 1770.98 1760.88C1774.23 1759.69 1778 1759.09 1782.28 1759.09C1786.53 1759.09 1789.98 1759.59 1792.64 1760.59C1795.3 1761.59 1797.25 1762.86 1798.5 1764.39C1799.75 1765.89 1800.62 1767.8 1801.12 1770.11C1801.41 1771.55 1801.55 1774.14 1801.55 1777.89V1789.14C1801.55 1796.98 1801.72 1801.95 1802.06 1804.05C1802.44 1806.11 1803.16 1808.09 1804.22 1810H1795.41C1794.53 1808.25 1793.97 1806.2 1793.72 1803.86ZM1793.02 1785.02C1789.95 1786.27 1785.36 1787.33 1779.23 1788.2C1775.77 1788.7 1773.31 1789.27 1771.88 1789.89C1770.44 1790.52 1769.33 1791.44 1768.55 1792.66C1767.77 1793.84 1767.38 1795.17 1767.38 1796.64C1767.38 1798.89 1768.22 1800.77 1769.91 1802.27C1771.62 1803.77 1774.12 1804.52 1777.41 1804.52C1780.66 1804.52 1783.55 1803.81 1786.08 1802.41C1788.61 1800.97 1790.47 1799.02 1791.66 1796.55C1792.56 1794.64 1793.02 1791.83 1793.02 1788.11V1785.02ZM1814.48 1810V1741.28H1822.92V1810H1814.48ZM1836.09 1750.98V1741.28H1844.53V1750.98H1836.09ZM1836.09 1810V1760.22H1844.53V1810H1836.09ZM1889.72 1810V1803.72C1886.56 1808.66 1881.92 1811.12 1875.8 1811.12C1871.83 1811.12 1868.17 1810.03 1864.83 1807.84C1861.52 1805.66 1858.94 1802.61 1857.09 1798.7C1855.28 1794.77 1854.38 1790.25 1854.38 1785.16C1854.38 1780.19 1855.2 1775.69 1856.86 1771.66C1858.52 1767.59 1861 1764.48 1864.31 1762.33C1867.62 1760.17 1871.33 1759.09 1875.42 1759.09C1878.42 1759.09 1881.09 1759.73 1883.44 1761.02C1885.78 1762.27 1887.69 1763.91 1889.16 1765.94V1741.28H1897.55V1810H1889.72ZM1863.05 1785.16C1863.05 1791.53 1864.39 1796.3 1867.08 1799.45C1869.77 1802.61 1872.94 1804.19 1876.59 1804.19C1880.28 1804.19 1883.41 1802.69 1885.97 1799.69C1888.56 1796.66 1889.86 1792.05 1889.86 1785.86C1889.86 1779.05 1888.55 1774.05 1885.92 1770.86C1883.3 1767.67 1880.06 1766.08 1876.22 1766.08C1872.47 1766.08 1869.33 1767.61 1866.8 1770.67C1864.3 1773.73 1863.05 1778.56 1863.05 1785.16ZM1983.75 1741.28H1992.84V1780.98C1992.84 1787.89 1992.06 1793.38 1990.5 1797.44C1988.94 1801.5 1986.11 1804.81 1982.02 1807.38C1977.95 1809.91 1972.61 1811.17 1965.98 1811.17C1959.55 1811.17 1954.28 1810.06 1950.19 1807.84C1946.09 1805.62 1943.17 1802.42 1941.42 1798.23C1939.67 1794.02 1938.8 1788.27 1938.8 1780.98V1741.28H1947.89V1780.94C1947.89 1786.91 1948.44 1791.31 1949.53 1794.16C1950.66 1796.97 1952.56 1799.14 1955.25 1800.67C1957.97 1802.2 1961.28 1802.97 1965.19 1802.97C1971.88 1802.97 1976.64 1801.45 1979.48 1798.42C1982.33 1795.39 1983.75 1789.56 1983.75 1780.94V1741.28ZM2006.95 1810V1760.22H2014.55V1767.3C2018.2 1761.83 2023.48 1759.09 2030.39 1759.09C2033.39 1759.09 2036.14 1759.64 2038.64 1760.73C2041.17 1761.8 2043.06 1763.2 2044.31 1764.95C2045.56 1766.7 2046.44 1768.78 2046.94 1771.19C2047.25 1772.75 2047.41 1775.48 2047.41 1779.39V1810H2038.97V1779.72C2038.97 1776.28 2038.64 1773.72 2037.98 1772.03C2037.33 1770.31 2036.16 1768.95 2034.47 1767.95C2032.81 1766.92 2030.86 1766.41 2028.61 1766.41C2025.02 1766.41 2021.91 1767.55 2019.28 1769.83C2016.69 1772.11 2015.39 1776.44 2015.39 1782.81V1810H2006.95ZM2078.81 1802.45L2080.03 1809.91C2077.66 1810.41 2075.53 1810.66 2073.66 1810.66C2070.59 1810.66 2068.22 1810.17 2066.53 1809.2C2064.84 1808.23 2063.66 1806.97 2062.97 1805.41C2062.28 1803.81 2061.94 1800.48 2061.94 1795.42V1766.78H2055.75V1760.22H2061.94V1747.89L2070.33 1742.83V1760.22H2078.81V1766.78H2070.33V1795.89C2070.33 1798.3 2070.47 1799.84 2070.75 1800.53C2071.06 1801.22 2071.55 1801.77 2072.2 1802.17C2072.89 1802.58 2073.86 1802.78 2075.11 1802.78C2076.05 1802.78 2077.28 1802.67 2078.81 1802.45ZM2087.16 1750.98V1741.28H2095.59V1750.98H2087.16ZM2087.16 1810V1760.22H2095.59V1810H2087.16ZM2108.3 1810V1741.28H2116.73V1810H2108.3ZM2132.2 1769.83V1760.22H2141.81V1769.83H2132.2ZM2132.2 1810V1800.39H2141.81V1810H2132.2Z" fill="black"/>
</svg>
