<svg width="3450" height="2210" viewBox="0 0 3450 2210" fill="none" xmlns="http://www.w3.org/2000/svg">
<path d="M1706.2 1515V1434.83H1740.27C1748.84 1434.83 1755.06 1435.56 1758.92 1437.02C1762.82 1438.44 1765.94 1440.99 1768.27 1444.67C1770.61 1448.35 1771.77 1452.57 1771.77 1457.3C1771.77 1463.32 1770.01 1468.3 1766.47 1472.23C1762.93 1476.14 1757.65 1478.6 1750.61 1479.62C1754.11 1481.66 1756.99 1483.9 1759.25 1486.34C1761.55 1488.79 1764.63 1493.12 1768.49 1499.36L1778.28 1515H1758.92L1747.22 1497.55C1743.06 1491.32 1740.22 1487.4 1738.69 1485.8C1737.16 1484.16 1735.53 1483.04 1733.82 1482.46C1732.11 1481.84 1729.39 1481.53 1725.67 1481.53H1722.39V1515H1706.2ZM1722.39 1468.73H1734.37C1742.13 1468.73 1746.98 1468.41 1748.91 1467.75C1750.85 1467.09 1752.36 1465.96 1753.45 1464.36C1754.55 1462.76 1755.09 1460.75 1755.09 1458.34C1755.09 1455.65 1754.36 1453.48 1752.91 1451.84C1751.48 1450.16 1749.46 1449.1 1746.84 1448.66C1745.52 1448.48 1741.59 1448.39 1735.02 1448.39H1722.39V1468.73ZM1817.25 1496.52L1832.56 1499.09C1830.59 1504.7 1827.48 1508.98 1823.21 1511.94C1818.98 1514.85 1813.68 1516.31 1807.3 1516.31C1797.2 1516.31 1789.72 1513.01 1784.87 1506.41C1781.05 1501.13 1779.13 1494.46 1779.13 1486.4C1779.13 1476.77 1781.65 1469.24 1786.68 1463.81C1791.71 1458.34 1798.07 1455.61 1805.76 1455.61C1814.41 1455.61 1821.22 1458.47 1826.22 1464.2C1831.21 1469.88 1833.6 1478.61 1833.38 1490.39H1794.88C1794.99 1494.95 1796.23 1498.5 1798.6 1501.05C1800.97 1503.57 1803.92 1504.83 1807.46 1504.83C1809.87 1504.83 1811.89 1504.17 1813.53 1502.86C1815.17 1501.55 1816.41 1499.43 1817.25 1496.52ZM1818.12 1480.98C1818.01 1476.54 1816.87 1473.16 1814.68 1470.87C1812.49 1468.53 1809.83 1467.37 1806.69 1467.37C1803.34 1467.37 1800.57 1468.59 1798.38 1471.03C1796.19 1473.47 1795.12 1476.79 1795.16 1480.98H1818.12ZM1841.18 1518.83L1858.73 1520.96C1859.02 1523 1859.7 1524.41 1860.76 1525.17C1862.21 1526.27 1864.51 1526.81 1867.65 1526.81C1871.66 1526.81 1874.67 1526.21 1876.67 1525.01C1878.02 1524.21 1879.04 1522.91 1879.73 1521.12C1880.21 1519.85 1880.44 1517.5 1880.44 1514.07V1505.59C1875.85 1511.86 1870.05 1515 1863.05 1515C1855.25 1515 1849.07 1511.7 1844.51 1505.1C1840.94 1499.89 1839.15 1493.4 1839.15 1485.63C1839.15 1475.9 1841.49 1468.46 1846.15 1463.32C1850.86 1458.18 1856.69 1455.61 1863.65 1455.61C1870.84 1455.61 1876.76 1458.76 1881.43 1465.07V1456.92H1895.81V1509.04C1895.81 1515.89 1895.25 1521.02 1894.12 1524.41C1892.99 1527.8 1891.4 1530.46 1889.36 1532.39C1887.32 1534.32 1884.58 1535.84 1881.15 1536.93C1877.76 1538.02 1873.46 1538.57 1868.25 1538.57C1858.4 1538.57 1851.42 1536.88 1847.3 1533.48C1843.18 1530.13 1841.12 1525.86 1841.12 1520.69C1841.12 1520.18 1841.14 1519.56 1841.18 1518.83ZM1854.9 1484.76C1854.9 1490.92 1856.09 1495.44 1858.46 1498.32C1860.87 1501.16 1863.82 1502.59 1867.32 1502.59C1871.07 1502.59 1874.25 1501.13 1876.83 1498.21C1879.42 1495.26 1880.72 1490.9 1880.72 1485.14C1880.72 1479.12 1879.48 1474.66 1877 1471.74C1874.52 1468.83 1871.38 1467.37 1867.59 1467.37C1863.91 1467.37 1860.87 1468.81 1858.46 1471.69C1856.09 1474.53 1854.9 1478.89 1854.9 1484.76ZM1907.71 1449.05V1434.83H1923.08V1449.05H1907.71ZM1907.71 1515V1456.92H1923.08V1515H1907.71ZM1930.11 1498.43L1945.53 1496.08C1946.18 1499.07 1947.52 1501.35 1949.52 1502.91C1951.53 1504.45 1954.33 1505.21 1957.94 1505.21C1961.92 1505.21 1964.91 1504.48 1966.91 1503.02C1968.26 1502 1968.93 1500.64 1968.93 1498.92C1968.93 1497.76 1968.57 1496.79 1967.84 1496.02C1967.08 1495.29 1965.36 1494.62 1962.7 1494C1950.3 1491.27 1942.45 1488.77 1939.13 1486.51C1934.54 1483.37 1932.24 1479.02 1932.24 1473.44C1932.24 1468.41 1934.23 1464.18 1938.2 1460.75C1942.17 1457.32 1948.34 1455.61 1956.68 1455.61C1964.63 1455.61 1970.54 1456.9 1974.4 1459.49C1978.27 1462.08 1980.93 1465.91 1982.39 1470.98L1967.9 1473.66C1967.28 1471.4 1966.09 1469.66 1964.34 1468.46C1962.63 1467.26 1960.17 1466.66 1956.96 1466.66C1952.91 1466.66 1950.01 1467.22 1948.26 1468.35C1947.1 1469.15 1946.51 1470.19 1946.51 1471.47C1946.51 1472.56 1947.02 1473.49 1948.04 1474.26C1949.43 1475.28 1954.21 1476.72 1962.37 1478.58C1970.58 1480.44 1976.3 1482.72 1979.54 1485.41C1982.75 1488.15 1984.36 1491.96 1984.36 1496.84C1984.36 1502.17 1982.13 1506.74 1977.68 1510.57C1973.24 1514.4 1966.66 1516.31 1957.94 1516.31C1950.03 1516.31 1943.76 1514.71 1939.13 1511.5C1934.54 1508.29 1931.53 1503.93 1930.11 1498.43ZM2021.14 1456.92V1469.17H2010.64V1492.58C2010.64 1497.32 2010.73 1500.09 2010.91 1500.89C2011.13 1501.66 2011.59 1502.29 2012.28 1502.8C2013.01 1503.32 2013.88 1503.57 2014.9 1503.57C2016.33 1503.57 2018.38 1503.08 2021.08 1502.09L2022.4 1514.02C2018.82 1515.55 2014.78 1516.31 2010.25 1516.31C2007.48 1516.31 2004.99 1515.86 2002.76 1514.95C2000.54 1514 1998.9 1512.79 1997.84 1511.34C1996.82 1509.84 1996.11 1507.84 1995.71 1505.32C1995.38 1503.53 1995.22 1499.92 1995.22 1494.49V1469.17H1988.16V1456.92H1995.22V1445.38L2010.64 1436.41V1456.92H2021.14ZM2043.15 1515H2027.79V1456.92H2042.06V1465.18C2044.5 1461.28 2046.69 1458.71 2048.62 1457.47C2050.59 1456.23 2052.81 1455.61 2055.29 1455.61C2058.79 1455.61 2062.17 1456.58 2065.41 1458.51L2060.65 1471.91C2058.06 1470.23 2055.66 1469.39 2053.43 1469.39C2051.28 1469.39 2049.46 1469.99 2047.96 1471.2C2046.47 1472.36 2045.29 1474.49 2044.41 1477.59C2043.57 1480.69 2043.15 1487.18 2043.15 1497.06V1515ZM2080.21 1474.64L2066.26 1472.12C2067.83 1466.51 2070.53 1462.35 2074.36 1459.66C2078.18 1456.96 2083.87 1455.61 2091.42 1455.61C2098.27 1455.61 2103.38 1456.43 2106.73 1458.07C2110.08 1459.67 2112.44 1461.73 2113.78 1464.25C2115.17 1466.73 2115.86 1471.3 2115.86 1477.98L2115.7 1495.91C2115.7 1501.02 2115.94 1504.79 2116.41 1507.23C2116.92 1509.64 2117.85 1512.23 2119.2 1515H2104C2103.59 1513.98 2103.1 1512.47 2102.52 1510.46C2102.26 1509.55 2102.08 1508.95 2101.97 1508.66C2099.35 1511.21 2096.54 1513.12 2093.55 1514.4C2090.56 1515.67 2087.37 1516.31 2083.98 1516.31C2078 1516.31 2073.28 1514.69 2069.82 1511.45C2066.39 1508.2 2064.68 1504.1 2064.68 1499.14C2064.68 1495.86 2065.46 1492.94 2067.03 1490.39C2068.59 1487.8 2070.78 1485.83 2073.59 1484.48C2076.43 1483.1 2080.52 1481.9 2085.84 1480.88C2093.02 1479.53 2098 1478.27 2100.77 1477.1V1475.57C2100.77 1472.62 2100.04 1470.52 2098.58 1469.28C2097.12 1468.01 2094.37 1467.37 2090.32 1467.37C2087.59 1467.37 2085.46 1467.91 2083.93 1469.01C2082.39 1470.07 2081.15 1471.94 2080.21 1474.64ZM2100.77 1487.11C2098.8 1487.77 2095.68 1488.55 2091.42 1489.46C2087.15 1490.37 2084.36 1491.27 2083.05 1492.14C2081.05 1493.56 2080.04 1495.37 2080.04 1497.55C2080.04 1499.71 2080.84 1501.57 2082.45 1503.13C2084.05 1504.7 2086.09 1505.48 2088.57 1505.48C2091.34 1505.48 2093.99 1504.57 2096.5 1502.75C2098.36 1501.36 2099.58 1499.67 2100.17 1497.66C2100.57 1496.35 2100.77 1493.85 2100.77 1490.17V1487.11ZM2154.34 1456.92V1469.17H2143.84V1492.58C2143.84 1497.32 2143.93 1500.09 2144.11 1500.89C2144.33 1501.66 2144.79 1502.29 2145.48 1502.8C2146.21 1503.32 2147.08 1503.57 2148.1 1503.57C2149.53 1503.57 2151.59 1503.08 2154.28 1502.09L2155.6 1514.02C2152.02 1515.55 2147.98 1516.31 2143.46 1516.31C2140.69 1516.31 2138.19 1515.86 2135.96 1514.95C2133.74 1514 2132.1 1512.79 2131.04 1511.34C2130.02 1509.84 2129.31 1507.84 2128.91 1505.32C2128.58 1503.53 2128.42 1499.92 2128.42 1494.49V1469.17H2121.36V1456.92H2128.42V1445.38L2143.84 1436.41V1456.92H2154.34ZM2161.64 1449.05V1434.83H2177.01V1449.05H2161.64ZM2161.64 1515V1456.92H2177.01V1515H2161.64ZM2185.9 1485.14C2185.9 1480.04 2187.16 1475.1 2189.67 1470.32C2192.19 1465.54 2195.74 1461.9 2200.34 1459.38C2204.97 1456.87 2210.13 1455.61 2215.81 1455.61C2224.6 1455.61 2231.8 1458.47 2237.42 1464.2C2243.03 1469.88 2245.84 1477.08 2245.84 1485.8C2245.84 1494.58 2242.99 1501.88 2237.31 1507.67C2231.66 1513.43 2224.53 1516.31 2215.92 1516.31C2210.6 1516.31 2205.51 1515.11 2200.67 1512.7C2195.85 1510.3 2192.19 1506.78 2189.67 1502.15C2187.16 1497.48 2185.9 1491.81 2185.9 1485.14ZM2201.65 1485.96C2201.65 1491.72 2203.02 1496.13 2205.75 1499.2C2208.49 1502.26 2211.86 1503.79 2215.87 1503.79C2219.88 1503.79 2223.23 1502.26 2225.93 1499.2C2228.67 1496.13 2230.03 1491.68 2230.03 1485.85C2230.03 1480.16 2228.67 1475.79 2225.93 1472.73C2223.23 1469.66 2219.88 1468.13 2215.87 1468.13C2211.86 1468.13 2208.49 1469.66 2205.75 1472.73C2203.02 1475.79 2201.65 1480.2 2201.65 1485.96ZM2307.39 1515H2292.02V1485.36C2292.02 1479.09 2291.7 1475.04 2291.04 1473.22C2290.38 1471.36 2289.31 1469.92 2287.81 1468.9C2286.36 1467.88 2284.59 1467.37 2282.51 1467.37C2279.85 1467.37 2277.46 1468.1 2275.34 1469.55C2273.23 1471.01 2271.77 1472.95 2270.97 1475.35C2270.2 1477.76 2269.82 1482.21 2269.82 1488.7V1515H2254.45V1456.92H2268.73V1465.45C2273.8 1458.89 2280.18 1455.61 2287.87 1455.61C2291.26 1455.61 2294.36 1456.23 2297.16 1457.47C2299.97 1458.67 2302.09 1460.22 2303.51 1462.12C2304.97 1464.01 2305.97 1466.16 2306.52 1468.57C2307.1 1470.98 2307.39 1474.42 2307.39 1478.91V1515ZM2347.54 1434.83H2377.12C2383.8 1434.83 2388.88 1435.34 2392.38 1436.36C2397.09 1437.74 2401.11 1440.21 2404.47 1443.74C2407.82 1447.28 2410.37 1451.62 2412.12 1456.76C2413.87 1461.86 2414.75 1468.17 2414.75 1475.68C2414.75 1482.28 2413.93 1487.97 2412.29 1492.74C2410.28 1498.58 2407.42 1503.3 2403.7 1506.91C2400.9 1509.64 2397.1 1511.77 2392.33 1513.3C2388.75 1514.43 2383.98 1515 2378 1515H2347.54V1434.83ZM2363.73 1448.39V1501.49H2375.81C2380.33 1501.49 2383.6 1501.24 2385.6 1500.73C2388.23 1500.07 2390.4 1498.96 2392.11 1497.39C2393.86 1495.82 2395.28 1493.25 2396.37 1489.68C2397.47 1486.07 2398.02 1481.17 2398.02 1474.97C2398.02 1468.77 2397.47 1464.01 2396.37 1460.7C2395.28 1457.38 2393.75 1454.79 2391.78 1452.93C2389.81 1451.07 2387.31 1449.81 2384.29 1449.16C2382.03 1448.65 2377.6 1448.39 2371 1448.39H2363.73ZM2436.55 1474.64L2422.6 1472.12C2424.17 1466.51 2426.87 1462.35 2430.69 1459.66C2434.52 1456.96 2440.21 1455.61 2447.76 1455.61C2454.61 1455.61 2459.72 1456.43 2463.07 1458.07C2466.42 1459.67 2468.78 1461.73 2470.12 1464.25C2471.51 1466.73 2472.2 1471.3 2472.2 1477.98L2472.04 1495.91C2472.04 1501.02 2472.28 1504.79 2472.75 1507.23C2473.26 1509.64 2474.19 1512.23 2475.54 1515H2460.34C2459.93 1513.98 2459.44 1512.47 2458.86 1510.46C2458.6 1509.55 2458.42 1508.95 2458.31 1508.66C2455.69 1511.21 2452.88 1513.12 2449.89 1514.4C2446.9 1515.67 2443.71 1516.31 2440.32 1516.31C2434.34 1516.31 2429.62 1514.69 2426.16 1511.45C2422.73 1508.2 2421.01 1504.1 2421.01 1499.14C2421.01 1495.86 2421.8 1492.94 2423.37 1490.39C2424.93 1487.8 2427.12 1485.83 2429.93 1484.48C2432.77 1483.1 2436.86 1481.9 2442.18 1480.88C2449.36 1479.53 2454.34 1478.27 2457.11 1477.1V1475.57C2457.11 1472.62 2456.38 1470.52 2454.92 1469.28C2453.46 1468.01 2450.71 1467.37 2446.66 1467.37C2443.93 1467.37 2441.8 1467.91 2440.26 1469.01C2438.73 1470.07 2437.49 1471.94 2436.55 1474.64ZM2457.11 1487.11C2455.14 1487.77 2452.02 1488.55 2447.76 1489.46C2443.49 1490.37 2440.7 1491.27 2439.39 1492.14C2437.38 1493.56 2436.38 1495.37 2436.38 1497.55C2436.38 1499.71 2437.18 1501.57 2438.79 1503.13C2440.39 1504.7 2442.43 1505.48 2444.91 1505.48C2447.68 1505.48 2450.33 1504.57 2452.84 1502.75C2454.7 1501.36 2455.92 1499.67 2456.51 1497.66C2456.91 1496.35 2457.11 1493.85 2457.11 1490.17V1487.11ZM2510.68 1456.92V1469.17H2500.18V1492.58C2500.18 1497.32 2500.27 1500.09 2500.45 1500.89C2500.67 1501.66 2501.13 1502.29 2501.82 1502.8C2502.55 1503.32 2503.42 1503.57 2504.44 1503.57C2505.87 1503.57 2507.93 1503.08 2510.62 1502.09L2511.94 1514.02C2508.36 1515.55 2504.32 1516.31 2499.8 1516.31C2497.02 1516.31 2494.53 1515.86 2492.3 1514.95C2490.08 1514 2488.44 1512.79 2487.38 1511.34C2486.36 1509.84 2485.65 1507.84 2485.25 1505.32C2484.92 1503.53 2484.76 1499.92 2484.76 1494.49V1469.17H2477.7V1456.92H2484.76V1445.38L2500.18 1436.41V1456.92H2510.68ZM2551.61 1496.52L2566.93 1499.09C2564.96 1504.7 2561.84 1508.98 2557.58 1511.94C2553.35 1514.85 2548.04 1516.31 2541.66 1516.31C2531.56 1516.31 2524.09 1513.01 2519.24 1506.41C2515.41 1501.13 2513.5 1494.46 2513.5 1486.4C2513.5 1476.77 2516.01 1469.24 2521.04 1463.81C2526.08 1458.34 2532.44 1455.61 2540.13 1455.61C2548.77 1455.61 2555.59 1458.47 2560.58 1464.2C2565.58 1469.88 2567.97 1478.61 2567.75 1490.39H2529.25C2529.36 1494.95 2530.6 1498.5 2532.97 1501.05C2535.34 1503.57 2538.29 1504.83 2541.83 1504.83C2544.23 1504.83 2546.26 1504.17 2547.9 1502.86C2549.54 1501.55 2550.78 1499.43 2551.61 1496.52ZM2552.49 1480.98C2552.38 1476.54 2551.23 1473.16 2549.04 1470.87C2546.86 1468.53 2544.2 1467.37 2541.06 1467.37C2537.71 1467.37 2534.94 1468.59 2532.75 1471.03C2530.56 1473.47 2529.48 1476.79 2529.52 1480.98H2552.49ZM2579.92 1472.29V1456.92H2595.29V1472.29H2579.92ZM2579.92 1515V1499.63H2595.29V1515H2579.92Z" fill="black"/>
</svg>
