<svg width="3450" height="2210" viewBox="0 0 3450 2210" fill="none" xmlns="http://www.w3.org/2000/svg">
<path d="M1882.88 1199.28H1904.16V1268H1882.88V1199.28ZM1919.72 1199.28H1951.27C1957.48 1199.28 1962.5 1200.12 1966.31 1201.81C1970.16 1203.5 1973.33 1205.92 1975.83 1209.08C1978.33 1212.23 1980.14 1215.91 1981.27 1220.09C1982.39 1224.28 1982.95 1228.72 1982.95 1233.41C1982.95 1240.75 1982.11 1246.45 1980.42 1250.52C1978.77 1254.55 1976.45 1257.94 1973.48 1260.69C1970.52 1263.41 1967.33 1265.22 1963.92 1266.12C1959.27 1267.38 1955.05 1268 1951.27 1268H1919.72V1199.28ZM1940.95 1214.84V1252.39H1946.16C1950.59 1252.39 1953.75 1251.91 1955.62 1250.94C1957.5 1249.94 1958.97 1248.22 1960.03 1245.78C1961.09 1243.31 1961.62 1239.33 1961.62 1233.83C1961.62 1226.55 1960.44 1221.56 1958.06 1218.88C1955.69 1216.19 1951.75 1214.84 1946.25 1214.84H1940.95ZM2026.36 1199.28H2046.19L2072.06 1237.3V1199.28H2092.08V1268H2072.06L2046.33 1230.27V1268H2026.36V1199.28ZM2157.38 1268H2139.56V1259.94C2136.91 1263.25 2134.22 1265.61 2131.5 1267.02C2128.81 1268.42 2125.5 1269.12 2121.56 1269.12C2116.31 1269.12 2112.19 1267.56 2109.19 1264.44C2106.22 1261.28 2104.73 1256.44 2104.73 1249.91V1218.22H2123.91V1245.59C2123.91 1248.72 2124.48 1250.94 2125.64 1252.25C2126.8 1253.56 2128.42 1254.22 2130.52 1254.22C2132.8 1254.22 2134.66 1253.34 2136.09 1251.59C2137.56 1249.84 2138.3 1246.7 2138.3 1242.17V1218.22H2157.38V1268ZM2169.09 1218.22H2186.91V1225.48C2189.47 1222.45 2192.05 1220.3 2194.64 1219.02C2197.27 1217.73 2200.42 1217.09 2204.11 1217.09C2208.08 1217.09 2211.22 1217.8 2213.53 1219.2C2215.84 1220.61 2217.73 1222.7 2219.2 1225.48C2222.2 1222.23 2224.94 1220.03 2227.41 1218.88C2229.88 1217.69 2232.92 1217.09 2236.55 1217.09C2241.89 1217.09 2246.06 1218.69 2249.06 1221.88C2252.06 1225.03 2253.56 1229.98 2253.56 1236.73V1268H2234.44V1239.64C2234.44 1237.39 2234 1235.72 2233.12 1234.62C2231.84 1232.91 2230.25 1232.05 2228.34 1232.05C2226.09 1232.05 2224.28 1232.86 2222.91 1234.48C2221.53 1236.11 2220.84 1238.72 2220.84 1242.31V1268H2201.72V1240.58C2201.72 1238.39 2201.59 1236.91 2201.34 1236.12C2200.94 1234.88 2200.23 1233.88 2199.23 1233.12C2198.23 1232.34 2197.06 1231.95 2195.72 1231.95C2193.53 1231.95 2191.73 1232.78 2190.33 1234.44C2188.92 1236.09 2188.22 1238.81 2188.22 1242.59V1268H2169.09V1218.22ZM2265.05 1199.28H2284.31V1223.09C2286.22 1221.09 2288.38 1219.59 2290.78 1218.59C2293.22 1217.59 2295.91 1217.09 2298.84 1217.09C2304.91 1217.09 2309.92 1219.28 2313.89 1223.66C2317.86 1228 2319.84 1234.25 2319.84 1242.41C2319.84 1247.84 2318.94 1252.64 2317.12 1256.8C2315.31 1260.92 2312.8 1264.02 2309.58 1266.08C2306.39 1268.11 2302.84 1269.12 2298.94 1269.12C2295.59 1269.12 2292.53 1268.41 2289.75 1266.97C2287.66 1265.84 2285.38 1263.73 2282.91 1260.64V1268H2265.05V1199.28ZM2284.17 1242.97C2284.17 1247.25 2284.97 1250.36 2286.56 1252.3C2288.19 1254.2 2290.23 1255.16 2292.7 1255.16C2294.98 1255.16 2296.89 1254.22 2298.42 1252.34C2299.98 1250.44 2300.77 1247.25 2300.77 1242.78C2300.77 1238.84 2300 1235.95 2298.47 1234.11C2296.97 1232.27 2295.14 1231.34 2292.98 1231.34C2290.39 1231.34 2288.27 1232.31 2286.61 1234.25C2284.98 1236.16 2284.17 1239.06 2284.17 1242.97ZM2384.25 1247.84H2346C2346.34 1250.91 2347.17 1253.19 2348.48 1254.69C2350.33 1256.84 2352.73 1257.92 2355.7 1257.92C2357.58 1257.92 2359.36 1257.45 2361.05 1256.52C2362.08 1255.92 2363.19 1254.88 2364.38 1253.38L2383.17 1255.11C2380.3 1260.11 2376.83 1263.7 2372.77 1265.89C2368.7 1268.05 2362.88 1269.12 2355.28 1269.12C2348.69 1269.12 2343.5 1268.2 2339.72 1266.36C2335.94 1264.48 2332.8 1261.53 2330.3 1257.5C2327.83 1253.44 2326.59 1248.67 2326.59 1243.2C2326.59 1235.42 2329.08 1229.12 2334.05 1224.31C2339.05 1219.5 2345.94 1217.09 2354.72 1217.09C2361.84 1217.09 2367.47 1218.17 2371.59 1220.33C2375.72 1222.48 2378.86 1225.61 2381.02 1229.7C2383.17 1233.8 2384.25 1239.12 2384.25 1245.69V1247.84ZM2364.84 1238.7C2364.47 1235.02 2363.47 1232.38 2361.84 1230.78C2360.25 1229.19 2358.14 1228.39 2355.52 1228.39C2352.48 1228.39 2350.06 1229.59 2348.25 1232C2347.09 1233.5 2346.36 1235.73 2346.05 1238.7H2364.84ZM2393.2 1218.22H2411.06V1226.38C2412.78 1222.84 2414.55 1220.42 2416.36 1219.11C2418.2 1217.77 2420.47 1217.09 2423.16 1217.09C2425.97 1217.09 2429.05 1217.97 2432.39 1219.72L2426.48 1233.31C2424.23 1232.38 2422.45 1231.91 2421.14 1231.91C2418.64 1231.91 2416.7 1232.94 2415.33 1235C2413.36 1237.91 2412.38 1243.34 2412.38 1251.31V1268H2393.2V1218.22ZM2439.75 1218.22H2460.14V1237.34H2439.75V1218.22ZM2439.75 1248.88H2460.14V1268H2439.75V1248.88Z" fill="black"/>
</svg>
