<svg width="3450" height="2210" viewBox="0 0 3450 2210" fill="none" xmlns="http://www.w3.org/2000/svg">
<g filter="url(#filter0_d_43_64)">
<path d="M256.409 1238V1188.3H264.681V1229.56H285.325V1238H256.409ZM296.804 1196.78V1187.89H304.7V1196.78H296.804ZM296.804 1238V1201.7H304.7V1238H296.804ZM344.343 1212.43L336.584 1214.14C336.014 1210.34 334.225 1208.43 331.218 1208.43C329.281 1208.43 327.72 1209.25 326.535 1210.9C325.35 1212.54 324.758 1215.3 324.758 1219.2C324.758 1223.51 325.35 1226.55 326.535 1228.33C327.72 1230.1 329.304 1230.99 331.286 1230.99C332.767 1230.99 333.986 1230.49 334.943 1229.49C335.9 1228.46 336.584 1226.66 336.994 1224.09L344.753 1225.7C343.158 1234.45 338.566 1238.82 330.978 1238.82C326.125 1238.82 322.525 1236.97 320.178 1233.28C317.831 1229.59 316.657 1225.15 316.657 1219.95C316.657 1213.73 317.979 1209 320.622 1205.77C323.288 1202.51 326.774 1200.88 331.081 1200.88C334.567 1200.88 337.404 1201.8 339.592 1203.65C341.802 1205.5 343.386 1208.42 344.343 1212.43ZM373.185 1226.45L381.012 1228.05C379.964 1231.7 378.335 1234.41 376.124 1236.19C373.914 1237.94 371.225 1238.82 368.058 1238.82C363.66 1238.82 360.265 1237.35 357.872 1234.41C355.047 1230.99 353.634 1226.21 353.634 1220.06C353.634 1213.99 355.058 1209.14 357.906 1205.5C360.322 1202.42 363.444 1200.88 367.272 1200.88C371.533 1200.88 374.871 1202.45 377.286 1205.6C380.066 1209.2 381.456 1214.51 381.456 1221.53L381.422 1222.62H361.7C361.746 1225.49 362.384 1227.71 363.614 1229.28C364.868 1230.86 366.372 1231.64 368.126 1231.64C370.655 1231.64 372.342 1229.91 373.185 1226.45ZM373.629 1216.74C373.561 1213.91 372.957 1211.8 371.818 1210.38C370.678 1208.95 369.322 1208.23 367.75 1208.23C366.087 1208.23 364.685 1208.97 363.546 1210.45C362.384 1211.96 361.814 1214.05 361.837 1216.74H373.629ZM420.518 1238H412.623V1219.47C412.623 1215.76 412.475 1213.29 412.178 1212.06C411.882 1210.83 411.324 1209.88 410.504 1209.22C409.706 1208.56 408.795 1208.23 407.769 1208.23C406.448 1208.23 405.251 1208.66 404.18 1209.53C403.109 1210.37 402.357 1211.54 401.924 1213.05C401.491 1214.55 401.275 1217.39 401.275 1221.56V1238H393.379V1201.7H400.694V1207.03C401.993 1204.98 403.451 1203.44 405.069 1202.42C406.71 1201.39 408.521 1200.88 410.504 1200.88C412.805 1200.88 414.742 1201.48 416.314 1202.69C417.909 1203.88 419.003 1205.42 419.595 1207.31C420.211 1209.18 420.518 1211.89 420.518 1215.44V1238ZM431.348 1227.64L439.243 1226.17C439.927 1229.98 442.046 1231.88 445.601 1231.88C447.492 1231.88 448.905 1231.52 449.839 1230.79C450.773 1230.06 451.24 1229.11 451.24 1227.95C451.24 1227.15 451.035 1226.53 450.625 1226.07C450.192 1225.62 449.338 1225.22 448.062 1224.88C441.59 1223.17 437.477 1221.54 435.723 1219.99C433.535 1218.05 432.441 1215.4 432.441 1212.02C432.441 1208.65 433.512 1205.95 435.654 1203.92C437.796 1201.89 440.907 1200.88 444.985 1200.88C448.882 1200.88 451.844 1201.64 453.872 1203.17C455.9 1204.67 457.324 1207.11 458.145 1210.49L450.728 1212.16C450.067 1209.24 448.198 1207.79 445.122 1207.79C443.185 1207.79 441.807 1208.07 440.986 1208.64C440.166 1209.19 439.756 1209.9 439.756 1210.79C439.756 1211.59 440.132 1212.25 440.884 1212.78C441.636 1213.32 443.971 1214.14 447.891 1215.24C452.288 1216.47 455.273 1217.96 456.846 1219.71C458.395 1221.47 459.17 1223.8 459.17 1226.72C459.17 1230.23 457.962 1233.12 455.547 1235.4C453.154 1237.68 449.839 1238.82 445.601 1238.82C441.75 1238.82 438.605 1237.87 436.167 1235.98C433.729 1234.07 432.122 1231.29 431.348 1227.64ZM488.901 1226.45L496.728 1228.05C495.68 1231.7 494.051 1234.41 491.84 1236.19C489.63 1237.94 486.941 1238.82 483.774 1238.82C479.376 1238.82 475.981 1237.35 473.588 1234.41C470.763 1230.99 469.35 1226.21 469.35 1220.06C469.35 1213.99 470.774 1209.14 473.622 1205.5C476.038 1202.42 479.16 1200.88 482.988 1200.88C487.249 1200.88 490.587 1202.45 493.002 1205.6C495.782 1209.2 497.172 1214.51 497.172 1221.53L497.138 1222.62H477.416C477.462 1225.49 478.1 1227.71 479.33 1229.28C480.584 1230.86 482.088 1231.64 483.842 1231.64C486.371 1231.64 488.058 1229.91 488.901 1226.45ZM489.345 1216.74C489.277 1213.91 488.673 1211.8 487.534 1210.38C486.394 1208.95 485.038 1208.23 483.466 1208.23C481.803 1208.23 480.401 1208.97 479.262 1210.45C478.1 1211.96 477.53 1214.05 477.553 1216.74H489.345ZM530.897 1238V1187.89H538.963L555.779 1221.35V1187.89H563.504V1238H555.164L538.621 1205.32V1238H530.897ZM597.337 1238V1232.57C596.243 1234.53 594.807 1236.06 593.03 1237.18C591.253 1238.27 589.395 1238.82 587.459 1238.82C585.499 1238.82 583.744 1238.31 582.195 1237.28C580.645 1236.26 579.483 1234.8 578.709 1232.91C577.957 1231.02 577.581 1228.27 577.581 1224.67V1201.7H585.476V1218.38C585.476 1223.14 585.59 1226.17 585.818 1227.47C586.069 1228.75 586.604 1229.74 587.424 1230.45C588.245 1231.15 589.236 1231.51 590.398 1231.51C591.72 1231.51 592.939 1231.05 594.055 1230.14C595.172 1229.2 595.901 1228.02 596.243 1226.58C596.607 1225.13 596.79 1221.94 596.79 1217.01V1201.7H604.651V1238H597.337ZM617.839 1201.7H625.085V1206.66C626.384 1204.72 627.808 1203.27 629.357 1202.32C630.907 1201.36 632.582 1200.88 634.382 1200.88C636.296 1200.88 637.948 1201.36 639.338 1202.32C640.751 1203.27 641.901 1204.72 642.79 1206.66C644.112 1204.72 645.524 1203.27 647.028 1202.32C648.555 1201.36 650.173 1200.88 651.882 1200.88C653.91 1200.88 655.653 1201.37 657.111 1202.35C658.592 1203.31 659.709 1204.69 660.461 1206.49C661.236 1208.29 661.623 1211.06 661.623 1214.79V1238H653.728V1217.25C653.728 1213.63 653.409 1211.23 652.771 1210.04C652.132 1208.83 651.062 1208.23 649.558 1208.23C647.803 1208.23 646.39 1209.07 645.319 1210.76C644.248 1212.42 643.713 1215.69 643.713 1220.57V1238H635.817V1218.11C635.817 1214.17 635.601 1211.62 635.168 1210.49C634.598 1208.98 633.448 1208.23 631.716 1208.23C630.554 1208.23 629.483 1208.62 628.503 1209.39C627.523 1210.17 626.817 1211.31 626.384 1212.81C625.951 1214.29 625.734 1216.81 625.734 1220.36V1238H617.839V1201.7ZM674.743 1238V1187.89H682.638V1205.94C683.846 1204.25 685.167 1202.99 686.603 1202.15C688.061 1201.3 689.622 1200.88 691.286 1200.88C694.795 1200.88 697.757 1202.46 700.172 1205.63C702.61 1208.8 703.829 1213.47 703.829 1219.65C703.829 1225.8 702.588 1230.54 700.104 1233.86C697.62 1237.17 694.704 1238.82 691.354 1238.82C689.645 1238.82 687.959 1238.3 686.295 1237.25C684.632 1236.2 683.219 1234.67 682.057 1232.67V1238H674.743ZM682.57 1219.06C682.57 1222.19 682.866 1224.57 683.458 1226.21C684.051 1227.85 684.894 1229.1 685.988 1229.97C687.081 1230.81 688.232 1231.23 689.44 1231.23C691.172 1231.23 692.653 1230.33 693.883 1228.53C695.114 1226.71 695.729 1223.84 695.729 1219.92C695.729 1215.79 695.102 1212.82 693.849 1211C692.619 1209.15 691.046 1208.23 689.132 1208.23C687.309 1208.23 685.76 1209.12 684.484 1210.9C683.208 1212.67 682.57 1215.4 682.57 1219.06ZM733.048 1226.45L740.875 1228.05C739.827 1231.7 738.197 1234.41 735.987 1236.19C733.777 1237.94 731.088 1238.82 727.921 1238.82C723.523 1238.82 720.128 1237.35 717.735 1234.41C714.91 1230.99 713.497 1226.21 713.497 1220.06C713.497 1213.99 714.921 1209.14 717.769 1205.5C720.185 1202.42 723.306 1200.88 727.135 1200.88C731.396 1200.88 734.734 1202.45 737.149 1205.6C739.929 1209.2 741.319 1214.51 741.319 1221.53L741.285 1222.62H721.563C721.609 1225.49 722.247 1227.71 723.477 1229.28C724.731 1230.86 726.235 1231.64 727.989 1231.64C730.518 1231.64 732.205 1229.91 733.048 1226.45ZM733.492 1216.74C733.424 1213.91 732.82 1211.8 731.68 1210.38C730.541 1208.95 729.185 1208.23 727.613 1208.23C725.95 1208.23 724.548 1208.97 723.409 1210.45C722.247 1211.96 721.677 1214.05 721.7 1216.74H733.492ZM760.864 1238H752.969V1201.7H760.283V1206.86C761.537 1204.45 762.653 1202.85 763.633 1202.08C764.636 1201.28 765.786 1200.88 767.085 1200.88C768.885 1200.88 770.606 1201.48 772.246 1202.69L769.785 1211.07C768.487 1210.02 767.256 1209.49 766.094 1209.49C765 1209.49 764.032 1209.9 763.189 1210.72C762.368 1211.52 761.776 1212.98 761.411 1215.1C761.047 1217.22 760.864 1221.12 760.864 1226.79V1238ZM782.734 1211.31V1201.7H790.63V1211.31H782.734ZM782.734 1238V1228.4H790.63V1238H782.734Z" fill="white"/>
</g>
<defs>
<filter id="filter0_d_43_64" x="248.409" y="1182.89" width="554.221" height="70.9277" filterUnits="userSpaceOnUse" color-interpolation-filters="sRGB">
<feFlood flood-opacity="0" result="BackgroundImageFix"/>
<feColorMatrix in="SourceAlpha" type="matrix" values="0 0 0 0 0 0 0 0 0 0 0 0 0 0 0 0 0 0 127 0" result="hardAlpha"/>
<feOffset dx="2" dy="5"/>
<feGaussianBlur stdDeviation="5"/>
<feComposite in2="hardAlpha" operator="out"/>
<feColorMatrix type="matrix" values="0 0 0 0 0 0 0 0 0 0 0 0 0 0 0 0 0 0 1 0"/>
<feBlend mode="normal" in2="BackgroundImageFix" result="effect1_dropShadow_43_64"/>
<feBlend mode="normal" in="SourceGraphic" in2="effect1_dropShadow_43_64" result="shape"/>
</filter>
</defs>
</svg>
