<svg width="30" height="30" viewBox="0 0 30 30" fill="none" xmlns="http://www.w3.org/2000/svg">
<path d="M29.1245 18.5361L23.0005 15.001L29.125 11.4648C29.6035 11.1885 29.7671 10.5771 29.4912 10.0986L26.4912 4.90234C26.3584 4.67285 26.1401 4.50488 25.8838 4.43652C25.6279 4.36816 25.3545 4.40332 25.125 4.53613L19 8.07227V1C19 0.447266 18.5522 0 18 0H12C11.4477 0 11 0.447266 11 1V8.07227L4.87548 4.53613C4.64599 4.40527 4.37304 4.37012 4.11669 4.43652C3.86034 4.50488 3.64208 4.67285 3.50927 4.90234L0.50927 10.0986C0.233391 10.5771 0.396965 11.1885 0.875481 11.4648L6.99999 15.001L0.875969 18.5361C0.646477 18.6689 0.478509 18.8877 0.410149 19.1436C0.341301 19.3994 0.377434 19.6729 0.509759 19.9023L3.50976 25.0986C3.78564 25.5771 4.39599 25.7393 4.87597 25.4648L11 21.9297V29C11 29.5527 11.4477 30 12 30H18C18.5522 30 19 29.5527 19 29V21.9287L25.1245 25.4648C25.3545 25.5977 25.6284 25.6328 25.8833 25.5645C26.1396 25.4961 26.3579 25.3281 26.4907 25.0986L29.4907 19.9023C29.623 19.6729 29.6592 19.3994 29.5903 19.1436C29.522 18.8877 29.354 18.6689 29.1245 18.5361Z" fill="black"/>
</svg>
